<?xml version="1.0" encoding="UTF-8"?> <svg xmlns="http://www.w3.org/2000/svg" xmlns:xlink="http://www.w3.org/1999/xlink" width="218" height="218" viewBox="0 0 218 218"><defs><clipPath id="clip-path"><rect id="Rectangle_697" data-name="Rectangle 697" width="218" height="218" transform="translate(0.146 0.146)" fill="none"></rect></clipPath><clipPath id="clip-path-3"><rect id="Rectangle_689" data-name="Rectangle 689" width="114.545" height="1.613" fill="none"></rect></clipPath><clipPath id="clip-path-4"><rect id="Rectangle_690" data-name="Rectangle 690" width="55.282" height="103.36" fill="none"></rect></clipPath><clipPath id="clip-path-5"><rect id="Rectangle_691" data-name="Rectangle 691" width="55.283" height="103.36" fill="none"></rect></clipPath><clipPath id="clip-path-7"><rect id="Rectangle_694" data-name="Rectangle 694" width="70.556" height="37.967" fill="none"></rect></clipPath></defs><g id="Group_599" data-name="Group 599" transform="translate(-0.146 -0.146)"><g id="Group_598" data-name="Group 598" clip-path="url(#clip-path)"><rect id="Rectangle_688" data-name="Rectangle 688" width="218" height="218" transform="translate(0.146 0.146)" fill="#1eaea7"></rect><g id="Group_586" data-name="Group 586"><g id="Group_585" data-name="Group 585" clip-path="url(#clip-path)"><g id="Group_578" data-name="Group 578" transform="translate(51.887 108.011)" opacity="0.3" style="isolation: isolate"><g id="Group_577" data-name="Group 577"><g id="Group_576" data-name="Group 576" clip-path="url(#clip-path-3)"><path id="Path_3990" data-name="Path 3990" d="M189.8,159.948H76.868a.807.807,0,1,1,0-1.613H189.8a.807.807,0,0,1,0,1.613" transform="translate(-76.061 -158.335)" fill="#fff"></path></g></g></g><g id="Group_581" data-name="Group 581" transform="translate(28.547 73.687)" opacity="0.3" style="isolation: isolate"><g id="Group_580" data-name="Group 580"><g id="Group_579" data-name="Group 579" clip-path="url(#clip-path-4)"><path id="Path_3991" data-name="Path 3991" d="M96.324,211.379a.813.813,0,0,1-.246-.038,78.207,78.207,0,0,1-48.9-102.811.806.806,0,1,1,1.5.592A76.594,76.594,0,0,0,96.571,209.8a.807.807,0,0,1-.246,1.575" transform="translate(-41.848 -108.019)" fill="#fff"></path></g></g></g><g id="Group_584" data-name="Group 584" transform="translate(135.456 73.687)" opacity="0.3" style="isolation: isolate"><g id="Group_583" data-name="Group 583"><g id="Group_582" data-name="Group 582" clip-path="url(#clip-path-5)"><path id="Path_3992" data-name="Path 3992" d="M199.373,211.379a.807.807,0,0,1-.246-1.575,76.594,76.594,0,0,0,47.9-100.681.806.806,0,1,1,1.5-.592,78.12,78.12,0,0,1-48.9,102.811.813.813,0,0,1-.246.038" transform="translate(-198.567 -108.019)" fill="#fff"></path></g></g></g></g></g><path id="Path_3993" data-name="Path 3993" d="M56.887,90.007,56.134,81.3l-5.378,6.884.753,8.6Z" transform="translate(-16.132 -25.839)" fill="#fff"></path><g id="Group_597" data-name="Group 597"><g id="Group_596" data-name="Group 596" clip-path="url(#clip-path)"><path id="Path_3994" data-name="Path 3994" d="M43.019,105.263l-3.657-4.732c-.968,2.366-1.936,4.732-2.8,7.206l4.087,5.27Z" transform="translate(-11.622 -31.952)" fill="#fff"></path><path id="Path_3995" data-name="Path 3995" d="M51.86,116.99l5.27-1.828a67.554,67.554,0,0,1,2.688-7.852l-5.592,1.936Z" transform="translate(-16.483 -34.107)" fill="#fff"></path><path id="Path_3996" data-name="Path 3996" d="M36.7,129.321l-4.517-4.194q-.806,3.872-1.291,7.744l4.732,4.41Z" transform="translate(-9.818 -39.77)" fill="#fff"></path><path id="Path_3997" data-name="Path 3997" d="M54.329,127.807l-5.808,3.119-1.076,8.067,5.916-3.227c.215-2.688.538-5.27.968-7.959" transform="translate(-15.08 -40.621)" fill="#fff"></path><path id="Path_3998" data-name="Path 3998" d="M35.645,151.968l-5.593-3.98c0,.968-.107,2.044-.107,3.012,0,1.721.107,3.334.107,5.055l5.593,3.98Z" transform="translate(-9.518 -47.036)" fill="#fff"></path><path id="Path_3999" data-name="Path 3999" d="M47.918,151.81l.108,8.067,5.915-4.3c-.323-2.581-.43-5.163-.538-7.744Z" transform="translate(-15.23 -46.985)" fill="#fff"></path><path id="Path_4000" data-name="Path 4000" d="M37.974,175.172l-6.453-2.9c.43,2.689.968,5.27,1.613,7.959l6.561,2.9Z" transform="translate(-10.018 -54.753)" fill="#fff"></path><path id="Path_4001" data-name="Path 4001" d="M57.432,174.229c-.753-2.474-1.4-5.055-1.936-7.636l-5.055,5.485,1.613,7.959Z" transform="translate(-16.032 -52.949)" fill="#fff"></path><path id="Path_4002" data-name="Path 4002" d="M44.883,197.374l-7.529-1.613c.861,2.474,1.829,4.948,2.9,7.313l7.852,1.613Z" transform="translate(-11.872 -62.22)" fill="#fff"></path><path id="Path_4003" data-name="Path 4003" d="M64.584,191.723a63.772,63.772,0,0,1-3.334-7.314l-3.872,6.668,3.334,7.421Z" transform="translate(-18.237 -58.612)" fill="#fff"></path><path id="Path_4004" data-name="Path 4004" d="M56.365,218.414l-8.6-.108c1.291,2.259,2.8,4.517,4.3,6.669l8.927.107Z" transform="translate(-15.18 -69.385)" fill="#fff"></path><path id="Path_4005" data-name="Path 4005" d="M75.62,208.943A55.5,55.5,0,0,1,71,202.382l-2.581,7.206,4.625,6.668Z" transform="translate(-21.744 -64.324)" fill="#fff"></path><path id="Path_4006" data-name="Path 4006" d="M63.369,238.9c1.721,1.936,3.549,3.764,5.485,5.593l9.465-1.936L72.4,237.069Z" transform="translate(-20.141 -75.349)" fill="#fff"></path><path id="Path_4007" data-name="Path 4007" d="M89.961,224.057a72.786,72.786,0,0,1-5.916-5.593l-.968,7.852,5.916,5.485Z" transform="translate(-26.405 -69.435)" fill="#fff"></path><path id="Path_4008" data-name="Path 4008" d="M85.758,257.661c1.506,1.076,3.119,2.151,4.732,3.119l1.721.861,8.6-4.625L93.5,253.466Z" transform="translate(-27.257 -80.56)" fill="#fff"></path><path id="Path_4009" data-name="Path 4009" d="M99.16,231.393l1.5,9.142,7.314,3.549-1.4-7.959a78.163,78.163,0,0,1-7.421-4.732" transform="translate(-31.516 -73.545)" fill="#fff"></path><path id="Path_4010" data-name="Path 4010" d="M267.843,88.179,262.465,81.3l-.753,8.712,5.378,6.776Z" transform="translate(-83.181 -25.838)" fill="#fff"></path><path id="Path_4011" data-name="Path 4011" d="M281.725,107.579c-.861-2.474-1.722-4.84-2.8-7.206l-3.657,4.733,2.366,7.744Z" transform="translate(-87.491 -31.902)" fill="#fff"></path><path id="Path_4012" data-name="Path 4012" d="M265.888,116.99l-2.366-7.744-5.592-1.936a67.555,67.555,0,0,1,2.688,7.852Z" transform="translate(-81.979 -34.107)" fill="#fff"></path><path id="Path_4013" data-name="Path 4013" d="M282.969,137.28l4.732-4.41c-.323-2.581-.752-5.27-1.291-7.744l-4.517,4.195Z" transform="translate(-89.595 -39.77)" fill="#fff"></path><path id="Path_4014" data-name="Path 4014" d="M264.888,135.766l5.916,3.227-1.076-8.067-5.808-3.119c.43,2.688.753,5.27.968,7.959" transform="translate(-83.883 -40.621)" fill="#fff"></path><path id="Path_4015" data-name="Path 4015" d="M288.7,147.988l-5.593,3.98L283,160.034l5.592-3.979c.108-1.613.108-3.334.108-5.055a28.079,28.079,0,0,0,0-3.012" transform="translate(-89.946 -47.036)" fill="#fff"></path><path id="Path_4016" data-name="Path 4016" d="M270.731,151.81l-5.485-3.98a62.466,62.466,0,0,1-.538,7.744l5.915,4.3Z" transform="translate(-84.133 -46.985)" fill="#fff"></path><path id="Path_4017" data-name="Path 4017" d="M278.109,183.132l6.561-2.9c.645-2.581,1.183-5.27,1.613-7.959l-6.453,2.9Z" transform="translate(-88.393 -54.753)" fill="#fff"></path><path id="Path_4018" data-name="Path 4018" d="M260.924,174.229l5.378,5.808,1.613-7.959-5.055-5.485c-.538,2.581-1.183,5.163-1.936,7.636" transform="translate(-82.931 -52.949)" fill="#fff"></path><path id="Path_4019" data-name="Path 4019" d="M268.177,204.845l7.852-1.613c1.075-2.366,2.043-4.84,2.9-7.314l-7.529,1.613Z" transform="translate(-85.236 -62.269)" fill="#fff"></path><path id="Path_4020" data-name="Path 4020" d="M260.877,191.235l-3.872-6.668a63.767,63.767,0,0,1-3.334,7.313l3.98,6.776Z" transform="translate(-80.625 -58.662)" fill="#fff"></path><path id="Path_4021" data-name="Path 4021" d="M254.3,225.083l8.927-.108c1.506-2.151,2.9-4.3,4.3-6.668l-8.6.108Z" transform="translate(-80.826 -69.385)" fill="#fff"></path><path id="Path_4022" data-name="Path 4022" d="M249.84,209.746l-2.581-7.206c-1.4,2.259-3.012,4.41-4.625,6.561l2.581,7.313Z" transform="translate(-77.117 -64.374)" fill="#fff"></path><path id="Path_4023" data-name="Path 4023" d="M236.171,242.554l9.465,1.936c1.935-1.828,3.764-3.657,5.485-5.593l-8.927-1.828Z" transform="translate(-75.063 -75.349)" fill="#fff"></path><path id="Path_4024" data-name="Path 4024" d="M229.255,231.8l5.916-5.485-.968-7.851a72.894,72.894,0,0,1-5.916,5.592Z" transform="translate(-72.557 -69.436)" fill="#fff"></path><path id="Path_4025" data-name="Path 4025" d="M213.624,257.015l8.6,4.625,1.721-.861c1.613-.968,3.227-2.043,4.732-3.119l-7.851-4.195Z" transform="translate(-67.897 -80.56)" fill="#fff"></path><path id="Path_4026" data-name="Path 4026" d="M218.187,231.393a66.6,66.6,0,0,1-7.421,4.732l-1.4,7.959,7.314-3.549Z" transform="translate(-66.544 -73.545)" fill="#fff"></path><g id="Group_592" data-name="Group 592" transform="translate(71.945 34.699)" opacity="0"><g id="Group_591" data-name="Group 591"><g id="Group_590" data-name="Group 590" clip-path="url(#clip-path-7)"><path id="Path_4027" data-name="Path 4027" d="M153.773,56.351,167.325,69.9,162.7,74.528l2.8,2.689L172.81,69.9,153.773,50.866l-7.314,7.313,2.688,2.8Z" transform="translate(-118.495 -50.866)" fill="#fff"></path><g id="Group_589" data-name="Group 589" opacity="0.75" style="isolation: isolate"><g id="Group_588" data-name="Group 588"><g id="Group_587" data-name="Group 587" clip-path="url(#clip-path-7)"><path id="Path_4028" data-name="Path 4028" d="M149.671,58.18l2.8,2.8,4.517-4.624L170.536,69.9,156.984,83.348,143.432,69.9l4.625-4.624-2.689-2.689-4.624,4.517L124.5,50.867,105.466,69.9,124.5,88.833l7.314-7.314-2.689-2.8L124.5,83.348,110.952,69.9,124.5,56.352,138.055,69.9l-4.624,4.625,2.688,2.689,4.625-4.625,16.24,16.241L176.021,69.9,156.984,50.867Z" transform="translate(-105.466 -50.866)" fill="#fff"></path></g></g></g><path id="Path_4029" data-name="Path 4029" d="M148.361,88.81,134.917,75.366l4.517-4.625-2.689-2.688-7.313,7.313,18.929,18.929,7.313-7.313-2.688-2.8Z" transform="translate(-113.083 -56.328)" fill="#fff"></path></g></g></g><g id="Group_595" data-name="Group 595" transform="translate(71.945 36.501)" opacity="0.75"><g id="Group_594" data-name="Group 594"><g id="Group_593" data-name="Group 593" clip-path="url(#clip-path-7)"><path id="Path_4030" data-name="Path 4030" d="M176.022,72.545,156.984,53.508l-8.067,8.174,2.689,2.688,5.378-5.378,13.552,13.552L156.984,86.1l-5.378-5.485-2.689-2.689-5.485-5.378,5.485-5.378-2.8-2.8-5.378,5.378-5.378-5.378-2.8-2.688L124.5,53.508,105.466,72.545,124.5,91.475l8.067-8.067-2.688-2.8L124.5,86.1,110.952,72.545,124.5,58.993l5.378,5.378,2.688,2.8,5.485,5.378-5.485,5.378,2.8,2.689,5.378-5.378,5.378,5.378,2.8,2.8,8.067,8.067Z" transform="translate(-105.466 -53.508)" fill="#fff"></path></g></g></g><path id="Path_4031" data-name="Path 4031" d="M148.361,58.993l5.378,5.378,2.8,2.8,5.378,5.378-5.378,5.378,2.689,2.689,8.174-8.067-8.174-8.174-2.689-2.689-8.174-8.174-8.174,8.174,2.8,2.689Zm5.378,21.619L148.361,86.1l-5.378-5.485-2.8-2.689-5.378-5.378,5.378-5.378-2.688-2.8-8.067,8.174,8.067,8.067,2.688,2.8,8.174,8.067,8.174-8.067Z" transform="translate(-41.138 -17.007)" fill="#fff"></path><path id="Path_4032" data-name="Path 4032" d="M91.84,118.811H101.5v2.514H94.59V125.1h6.324v2.435H94.59v4.125H101.5v2.513H91.84" transform="translate(-29.19 -37.762)" fill="#fff"></path><path id="Path_4033" data-name="Path 4033" d="M112.373,130.016l-3.968-5.734h3.1l2.435,3.81h.04l2.435-3.81h3.143l-3.968,5.734,4.086,5.933h-3.1l-2.513-3.969h-.04l-2.513,3.969h-3.143" transform="translate(-34.443 -39.501)" fill="#fff"></path><path id="Path_4034" data-name="Path 4034" d="M136.3,129.987c0-2.317-1.14-3.732-2.986-3.732a2.727,2.727,0,0,0-2.79,2.789v1.885a2.728,2.728,0,0,0,2.75,2.83c1.886-.04,3.026-1.493,3.026-3.772m-8.408-5.853h2.594v.942h.038a4.353,4.353,0,0,1,3.182-1.257c3.065,0,5.225,2.553,5.225,6.167s-2.16,6.167-5.225,6.167a4.279,4.279,0,0,1-3.142-1.257h-.04v5.893h-2.632" transform="translate(-40.647 -39.354)" fill="#fff"></path><path id="Path_4035" data-name="Path 4035" d="M154.47,128.809a2.63,2.63,0,0,0-2.751-2.71,2.81,2.81,0,0,0-2.789,2.71Zm-8.21,1.179c0-3.654,2.239-6.167,5.42-6.167,3.223,0,5.383,2.435,5.383,6.011v.9h-8.171c.078,1.848,1.139,3.1,2.828,3.1a3.42,3.42,0,0,0,3.065-1.926l1.924,1.415a5.43,5.43,0,0,1-4.989,2.79c-3.22,0-5.459-2.476-5.459-6.129" transform="translate(-46.486 -39.354)" fill="#fff"></path><path id="Path_4036" data-name="Path 4036" d="M164.858,124.189h2.476v1.021h.04a2.8,2.8,0,0,1,2.474-1.217,5.372,5.372,0,0,1,1.414.2l-.471,2.592a5.167,5.167,0,0,0-1.257-.2c-1.337,0-2.044.9-2.044,2.791v6.52h-2.632" transform="translate(-52.398 -39.409)" fill="#fff"></path><path id="Path_4037" data-name="Path 4037" d="M181.163,125.32V131.1c0,.746.275.982,1.218.982h1.179v2.514h-1.415c-2.632,0-3.614-.942-3.614-3.377V125.32h-1.924v-2.357h1.924v-2.83h2.632v2.83h2.868v2.357" transform="translate(-56.132 -38.183)" fill="#fff"></path><path id="Path_4038" data-name="Path 4038" d="M191.256,122.121h2.632v11.667h-2.632Zm-.078-4.635h2.788v2.672h-2.788Z" transform="translate(-60.763 -37.341)" fill="#fff"></path><path id="Path_4039" data-name="Path 4039" d="M198.665,131.99l2.394-.628c.393,1.767,1.219,2.516,2.946,2.516,1.257,0,2.042-.473,2.042-1.179,0-.982-1.02-1.414-2.787-1.926-2.24-.628-4.007-1.375-4.007-3.5,0-1.965,1.806-3.457,4.281-3.457a4.763,4.763,0,0,1,4.792,3.417l-2.436.669a2.364,2.364,0,0,0-2.356-1.886c-1.1,0-1.768.471-1.768,1.178,0,.667.825.982,2.317,1.415,2.358.667,4.479,1.532,4.479,3.967,0,2.122-1.808,3.536-4.558,3.536-2.984,0-4.91-1.493-5.341-4.126" transform="translate(-63.143 -39.354)" fill="#fff"></path><path id="Path_4040" data-name="Path 4040" d="M223.747,128.809A2.628,2.628,0,0,0,221,126.1a2.81,2.81,0,0,0-2.789,2.71Zm-8.21,1.179c0-3.654,2.24-6.167,5.421-6.167,3.223,0,5.383,2.435,5.383,6.011v.9h-8.17c.077,1.848,1.138,3.1,2.827,3.1a3.422,3.422,0,0,0,3.066-1.926l1.924,1.415a5.43,5.43,0,0,1-4.989,2.79c-3.22,0-5.46-2.476-5.46-6.129" transform="translate(-68.505 -39.354)" fill="#fff"></path><path id="Path_4041" data-name="Path 4041" d="M114.453,171.991c.182,0,.379,0,.588.006s.418.016.624.036a4.789,4.789,0,0,1,.576.088,1.47,1.47,0,0,1,.457.179,2.211,2.211,0,0,1,.707.69,1.919,1.919,0,0,1,.291,1.081,2.069,2.069,0,0,1-.327,1.171,1.927,1.927,0,0,1-.933.731V176a1.953,1.953,0,0,1,1.2.714,2.131,2.131,0,0,1,.416,1.33,2.524,2.524,0,0,1-.166.9,2.249,2.249,0,0,1-.493.778,2.461,2.461,0,0,1-.808.547,2.781,2.781,0,0,1-1.111.208h-4.1v-8.485Zm.309,3.648a2.226,2.226,0,0,0,1.384-.338,1.227,1.227,0,0,0,.422-1.016,1.5,1.5,0,0,0-.143-.713,1.027,1.027,0,0,0-.392-.4,1.54,1.54,0,0,0-.576-.184,5.472,5.472,0,0,0-.7-.042H112.5v2.7Zm.57,3.886a1.622,1.622,0,0,0,1.171-.4,1.474,1.474,0,0,0,.422-1.117,1.387,1.387,0,0,0-.154-.69,1.2,1.2,0,0,0-.41-.434,1.732,1.732,0,0,0-.588-.226,3.567,3.567,0,0,0-.69-.065H112.5v2.935Z" transform="translate(-35.399 -54.665)" fill="#fff"></path><path id="Path_4042" data-name="Path 4042" d="M127.259,181.107a2.786,2.786,0,0,1-1.735.523,3.147,3.147,0,0,1-1.278-.238,2.51,2.51,0,0,1-.909-.664,2.844,2.844,0,0,1-.552-1.022,4.927,4.927,0,0,1-.208-1.3,3.7,3.7,0,0,1,.214-1.283,3.081,3.081,0,0,1,.6-1.01,2.726,2.726,0,0,1,.915-.666,2.8,2.8,0,0,1,1.159-.237,2.526,2.526,0,0,1,1.36.338,2.7,2.7,0,0,1,.868.862,3.416,3.416,0,0,1,.452,1.141,4.9,4.9,0,0,1,.1,1.177h-4.6a2.421,2.421,0,0,0,.095.766,1.736,1.736,0,0,0,.344.642,1.71,1.71,0,0,0,.606.446,2.1,2.1,0,0,0,.868.166,1.747,1.747,0,0,0,1.052-.3,1.437,1.437,0,0,0,.54-.9h1a2.458,2.458,0,0,1-.892,1.556m-.244-3.945a1.738,1.738,0,0,0-.368-.553,1.769,1.769,0,0,0-.546-.368,1.736,1.736,0,0,0-.7-.136,1.766,1.766,0,0,0-.707.136,1.632,1.632,0,0,0-.54.374,1.794,1.794,0,0,0-.357.553,2.079,2.079,0,0,0-.154.671h3.529a2.089,2.089,0,0,0-.16-.677" transform="translate(-38.959 -55.689)" fill="#fff"></path><path id="Path_4043" data-name="Path 4043" d="M133.008,180.127a1.058,1.058,0,0,0,.375.368,1.652,1.652,0,0,0,.522.2,2.952,2.952,0,0,0,.6.059,3.8,3.8,0,0,0,.5-.035,1.834,1.834,0,0,0,.481-.13.915.915,0,0,0,.363-.28.741.741,0,0,0,.143-.469.673.673,0,0,0-.3-.594,2.536,2.536,0,0,0-.744-.327c-.3-.083-.619-.158-.968-.226a4.971,4.971,0,0,1-.969-.285,1.992,1.992,0,0,1-.742-.517,1.34,1.34,0,0,1-.3-.927,1.474,1.474,0,0,1,.208-.8,1.709,1.709,0,0,1,.535-.541,2.476,2.476,0,0,1,.737-.308,3.417,3.417,0,0,1,.814-.1,4.845,4.845,0,0,1,.962.089,2.226,2.226,0,0,1,.779.309,1.612,1.612,0,0,1,.541.593,2.275,2.275,0,0,1,.237.933h-1.01a1.028,1.028,0,0,0-.155-.493,1,1,0,0,0-.332-.314,1.5,1.5,0,0,0-.445-.173,2.315,2.315,0,0,0-.494-.053,3.074,3.074,0,0,0-.457.035,1.531,1.531,0,0,0-.422.126.851.851,0,0,0-.308.237.6.6,0,0,0-.119.386.57.57,0,0,0,.184.434,1.473,1.473,0,0,0,.47.285,4.185,4.185,0,0,0,.641.19q.357.077.713.16a7.669,7.669,0,0,1,.743.2,2.425,2.425,0,0,1,.642.314,1.557,1.557,0,0,1,.452.494,1.45,1.45,0,0,1,.172.737,1.7,1.7,0,0,1-.232.926,1.8,1.8,0,0,1-.606.594,2.527,2.527,0,0,1-.844.314,4.938,4.938,0,0,1-.933.089,4.343,4.343,0,0,1-.975-.106,2.376,2.376,0,0,1-.819-.351,1.779,1.779,0,0,1-.572-.641,2.222,2.222,0,0,1-.237-.968h1.01a1.129,1.129,0,0,0,.155.564" transform="translate(-41.905 -55.689)" fill="#fff"></path><path id="Path_4044" data-name="Path 4044" d="M143.449,174.564v.892h-1.224v3.814a1.071,1.071,0,0,0,.03.285.29.29,0,0,0,.113.167.5.5,0,0,0,.232.076,3.429,3.429,0,0,0,.386.018h.463v.892h-.772a3.7,3.7,0,0,1-.671-.053.993.993,0,0,1-.452-.2.83.83,0,0,1-.256-.4,2.342,2.342,0,0,1-.083-.69v-3.909h-1.046v-.892h1.046v-1.842h1.01v1.842Z" transform="translate(-44.551 -54.897)" fill="#fff"></path><path id="Path_4045" data-name="Path 4045" d="M154.612,171.991a4.227,4.227,0,0,1,3.018,1,4,4,0,0,1,1.058,3.042,6.843,6.843,0,0,1-.238,1.9,3.531,3.531,0,0,1-.737,1.39,3.184,3.184,0,0,1-1.272.862,5.1,5.1,0,0,1-1.83.3H151.7v-8.485Zm.095,7.534a4.756,4.756,0,0,0,.475-.03,2.6,2.6,0,0,0,.606-.143,2.729,2.729,0,0,0,.636-.326,2.146,2.146,0,0,0,.565-.583,3.244,3.244,0,0,0,.409-.922,4.8,4.8,0,0,0,.161-1.336,5.69,5.69,0,0,0-.149-1.361,2.621,2.621,0,0,0-.487-1.022,2.144,2.144,0,0,0-.873-.641,3.48,3.48,0,0,0-1.319-.22h-1.9v6.583Z" transform="translate(-48.216 -54.665)" fill="#fff"></path><path id="Path_4046" data-name="Path 4046" d="M163.807,171.991h1.01v1.236h-1.01Zm1.01,8.484h-1.01v-6.144h1.01Z" transform="translate(-52.064 -54.665)" fill="#fff"></path><path id="Path_4047" data-name="Path 4047" d="M169,181.566l-2.281-6.144h1.129l1.723,5.122h.023l1.675-5.122h1.058l-2.246,6.144Z" transform="translate(-52.988 -55.755)" fill="#fff"></path><path id="Path_4048" data-name="Path 4048" d="M176,177.167a2.876,2.876,0,0,1,.57-1.022,2.689,2.689,0,0,1,.939-.683,3.44,3.44,0,0,1,2.573,0,2.71,2.71,0,0,1,.933.683,2.887,2.887,0,0,1,.57,1.022,4.115,4.115,0,0,1,.19,1.266,4.057,4.057,0,0,1-.19,1.26,2.883,2.883,0,0,1-.57,1.016,2.636,2.636,0,0,1-.933.677,3.529,3.529,0,0,1-2.573,0,2.618,2.618,0,0,1-.939-.677,2.873,2.873,0,0,1-.57-1.016,4.037,4.037,0,0,1-.19-1.26,4.1,4.1,0,0,1,.19-1.266m1.027,2.258a2.069,2.069,0,0,0,.411.724,1.759,1.759,0,0,0,.611.446,1.867,1.867,0,0,0,1.486,0,1.768,1.768,0,0,0,.612-.446,2.078,2.078,0,0,0,.41-.724,3.382,3.382,0,0,0,0-1.984,2.153,2.153,0,0,0-.41-.731,1.735,1.735,0,0,0-.612-.452,1.867,1.867,0,0,0-1.486,0,1.726,1.726,0,0,0-.611.452,2.142,2.142,0,0,0-.411.731,3.382,3.382,0,0,0,0,1.984" transform="translate(-55.878 -55.689)" fill="#fff"></path><path id="Path_4049" data-name="Path 4049" d="M187.193,175.355v1.295h.024a2.737,2.737,0,0,1,.9-1.1,2.275,2.275,0,0,1,1.355-.333v1.069a2.85,2.85,0,0,0-1.034.167,1.638,1.638,0,0,0-.69.486,2.018,2.018,0,0,0-.379.779,4.2,4.2,0,0,0-.119,1.051V181.5h-1.01v-6.144Z" transform="translate(-59.194 -55.688)" fill="#fff"></path><path id="Path_4050" data-name="Path 4050" d="M195.3,176.426a1.534,1.534,0,0,0-1.022-.321,1.886,1.886,0,0,0-.915.2,1.63,1.63,0,0,0-.588.535,2.257,2.257,0,0,0-.315.766,4.184,4.184,0,0,0-.1.9,3.416,3.416,0,0,0,.1.832,2.218,2.218,0,0,0,.315.718,1.585,1.585,0,0,0,.558.5,1.911,1.911,0,0,0,1.991-.2,1.778,1.778,0,0,0,.517-1.106h1.033a2.833,2.833,0,0,1-.85,1.759,2.671,2.671,0,0,1-1.859.617,3.2,3.2,0,0,1-1.242-.226,2.406,2.406,0,0,1-.9-.642,2.768,2.768,0,0,1-.546-.992,4.137,4.137,0,0,1-.184-1.265,4.485,4.485,0,0,1,.179-1.289,2.959,2.959,0,0,1,.54-1.046,2.522,2.522,0,0,1,.909-.7,2.968,2.968,0,0,1,1.271-.256,3.735,3.735,0,0,1,.98.124,2.394,2.394,0,0,1,.808.387,2.118,2.118,0,0,1,.576.659,2.439,2.439,0,0,1,.285.945H195.8a1.54,1.54,0,0,0-.5-.9" transform="translate(-60.8 -55.689)" fill="#fff"></path><path id="Path_4051" data-name="Path 4051" d="M205.33,181.107a2.783,2.783,0,0,1-1.735.523,3.15,3.15,0,0,1-1.278-.238,2.507,2.507,0,0,1-.909-.664,2.836,2.836,0,0,1-.553-1.022,4.957,4.957,0,0,1-.208-1.3,3.7,3.7,0,0,1,.214-1.283,3.059,3.059,0,0,1,.6-1.01,2.724,2.724,0,0,1,.914-.666,2.8,2.8,0,0,1,1.16-.237,2.528,2.528,0,0,1,1.36.338,2.7,2.7,0,0,1,.867.862,3.415,3.415,0,0,1,.452,1.141,4.936,4.936,0,0,1,.1,1.177h-4.6a2.461,2.461,0,0,0,.095.766,1.746,1.746,0,0,0,.345.642,1.706,1.706,0,0,0,.606.446,2.1,2.1,0,0,0,.867.166,1.745,1.745,0,0,0,1.052-.3,1.434,1.434,0,0,0,.54-.9h1a2.455,2.455,0,0,1-.892,1.556m-.244-3.945a1.728,1.728,0,0,0-.368-.553,1.753,1.753,0,0,0-.546-.368,1.732,1.732,0,0,0-.7-.136,1.762,1.762,0,0,0-.707.136,1.635,1.635,0,0,0-.541.374,1.794,1.794,0,0,0-.357.553,2.1,2.1,0,0,0-.154.671h3.529a2.056,2.056,0,0,0-.16-.677" transform="translate(-63.773 -55.689)" fill="#fff"></path><path id="Path_4052" data-name="Path 4052" d="M102.994,194.635v7.534h4.491v.951h-5.62v-8.485Z" transform="translate(-32.376 -61.862)" fill="#fff"></path><path id="Path_4053" data-name="Path 4053" d="M116.594,204.118a1.415,1.415,0,0,1-.725.156.867.867,0,0,1-.624-.22.953.953,0,0,1-.232-.719,2.4,2.4,0,0,1-.969.719,3.2,3.2,0,0,1-1.194.22,3.231,3.231,0,0,1-.791-.094,1.86,1.86,0,0,1-.647-.3,1.427,1.427,0,0,1-.434-.529,1.789,1.789,0,0,1-.16-.79,1.808,1.808,0,0,1,.178-.856,1.557,1.557,0,0,1,.47-.54,2.14,2.14,0,0,1,.665-.315,7.774,7.774,0,0,1,.766-.178q.416-.084.791-.126a4.4,4.4,0,0,0,.66-.118,1.1,1.1,0,0,0,.451-.226.552.552,0,0,0,.167-.434,1,1,0,0,0-.126-.535.848.848,0,0,0-.321-.309,1.3,1.3,0,0,0-.439-.143,3.312,3.312,0,0,0-.482-.035,2.139,2.139,0,0,0-1.07.244,1.033,1.033,0,0,0-.463.921h-1.01a2.178,2.178,0,0,1,.237-.963,1.805,1.805,0,0,1,.57-.636,2.4,2.4,0,0,1,.814-.351,4.32,4.32,0,0,1,.981-.107,5.756,5.756,0,0,1,.825.059,2.195,2.195,0,0,1,.743.243,1.431,1.431,0,0,1,.535.516,1.654,1.654,0,0,1,.2.866V202.7a2.333,2.333,0,0,0,.042.522c.027.111.121.166.279.166a1,1,0,0,0,.309-.059Zm-1.64-3.158a1.265,1.265,0,0,1-.5.208c-.207.043-.422.079-.648.106s-.454.059-.684.1a2.472,2.472,0,0,0-.617.173,1.127,1.127,0,0,0-.446.338.947.947,0,0,0-.172.6.818.818,0,0,0,.1.422.834.834,0,0,0,.261.279,1.086,1.086,0,0,0,.375.154,2.051,2.051,0,0,0,.452.048,2.4,2.4,0,0,0,.855-.136,1.785,1.785,0,0,0,.582-.344,1.351,1.351,0,0,0,.333-.452,1.135,1.135,0,0,0,.107-.458Z" transform="translate(-35.222 -62.886)" fill="#fff"></path><path id="Path_4054" data-name="Path 4054" d="M125.415,204.21l-1.248-4.884h-.024l-1.235,4.884h-1.094l-1.973-6.144h1.117l1.39,5.026h.024l1.235-5.026h1.105L126,203.093h.023l1.379-5.026h1.046l-1.961,6.144Z" transform="translate(-38.09 -62.952)" fill="#fff"></path><path id="Path_4055" data-name="Path 4055" d="M135.966,205.031a6.448,6.448,0,0,1-.351.76,2.065,2.065,0,0,1-.38.5,1.28,1.28,0,0,1-.463.286,1.79,1.79,0,0,1-.589.089,2.71,2.71,0,0,1-.356-.023,1.677,1.677,0,0,1-.345-.083v-.927a1.719,1.719,0,0,0,.3.1,1.266,1.266,0,0,0,.291.042.873.873,0,0,0,.517-.149.917.917,0,0,0,.315-.422l.416-1.034-2.437-6.107h1.141l1.794,5.026h.024l1.723-5.026h1.069Z" transform="translate(-42.236 -62.953)" fill="#fff"></path><path id="Path_4056" data-name="Path 4056" d="M146.768,203.751a2.786,2.786,0,0,1-1.735.523,3.148,3.148,0,0,1-1.278-.238,2.51,2.51,0,0,1-.909-.664,2.845,2.845,0,0,1-.552-1.022,4.926,4.926,0,0,1-.208-1.3,3.7,3.7,0,0,1,.214-1.283,3.081,3.081,0,0,1,.6-1.01,2.726,2.726,0,0,1,.915-.666,2.8,2.8,0,0,1,1.159-.237,2.526,2.526,0,0,1,1.36.338,2.7,2.7,0,0,1,.868.862,3.416,3.416,0,0,1,.452,1.141,4.9,4.9,0,0,1,.1,1.177h-4.6a2.42,2.42,0,0,0,.095.766,1.736,1.736,0,0,0,.344.642,1.71,1.71,0,0,0,.606.446,2.1,2.1,0,0,0,.868.166,1.747,1.747,0,0,0,1.052-.3,1.437,1.437,0,0,0,.54-.9h1a2.458,2.458,0,0,1-.892,1.556m-.244-3.945a1.739,1.739,0,0,0-.368-.553,1.769,1.769,0,0,0-.546-.368,1.736,1.736,0,0,0-.7-.136,1.766,1.766,0,0,0-.707.136,1.633,1.633,0,0,0-.54.375,1.794,1.794,0,0,0-.357.553,2.078,2.078,0,0,0-.154.671h3.529a2.089,2.089,0,0,0-.16-.677" transform="translate(-45.16 -62.886)" fill="#fff"></path><path id="Path_4057" data-name="Path 4057" d="M152.826,198v1.295h.024a2.733,2.733,0,0,1,.9-1.1,2.272,2.272,0,0,1,1.355-.333v1.069a2.85,2.85,0,0,0-1.034.167,1.632,1.632,0,0,0-.689.486,2.021,2.021,0,0,0-.381.779,4.2,4.2,0,0,0-.119,1.051v2.733h-1.01V198Z" transform="translate(-48.271 -62.885)" fill="#fff"></path><path id="Path_4058" data-name="Path 4058" d="M158.317,202.772a1.07,1.07,0,0,0,.374.368,1.65,1.65,0,0,0,.523.2,2.952,2.952,0,0,0,.6.059,3.8,3.8,0,0,0,.5-.035,1.834,1.834,0,0,0,.481-.13.913.913,0,0,0,.362-.28.741.741,0,0,0,.143-.469.672.672,0,0,0-.3-.594,2.547,2.547,0,0,0-.743-.327q-.446-.124-.968-.226a4.974,4.974,0,0,1-.969-.285,2,2,0,0,1-.743-.517,1.34,1.34,0,0,1-.3-.927,1.469,1.469,0,0,1,.209-.8,1.707,1.707,0,0,1,.534-.541,2.483,2.483,0,0,1,.737-.308,3.418,3.418,0,0,1,.814-.1,4.866,4.866,0,0,1,.963.089,2.224,2.224,0,0,1,.778.309,1.606,1.606,0,0,1,.541.593,2.243,2.243,0,0,1,.237.933h-1.01a1.028,1.028,0,0,0-.155-.493,1.01,1.01,0,0,0-.332-.314,1.506,1.506,0,0,0-.446-.173,2.3,2.3,0,0,0-.493-.053,3.076,3.076,0,0,0-.458.035,1.513,1.513,0,0,0-.422.126.842.842,0,0,0-.309.237.6.6,0,0,0-.119.386.57.57,0,0,0,.184.434,1.465,1.465,0,0,0,.47.285,4.162,4.162,0,0,0,.641.19c.238.051.475.1.713.16q.38.084.743.2a2.431,2.431,0,0,1,.641.314,1.549,1.549,0,0,1,.452.494,1.45,1.45,0,0,1,.173.737,1.712,1.712,0,0,1-.231.926,1.8,1.8,0,0,1-.606.594,2.528,2.528,0,0,1-.843.314,4.947,4.947,0,0,1-.934.089,4.332,4.332,0,0,1-.973-.106,2.383,2.383,0,0,1-.82-.351,1.778,1.778,0,0,1-.571-.641,2.222,2.222,0,0,1-.237-.968h1.01a1.143,1.143,0,0,0,.155.564" transform="translate(-49.949 -62.886)" fill="#fff"></path><path id="Path_4059" data-name="Path 4059" d="M171.368,194.635h1.01v1.236h-1.01Zm1.01,8.485h-1.01v-6.144h1.01Z" transform="translate(-54.467 -61.862)" fill="#fff"></path><path id="Path_4060" data-name="Path 4060" d="M176.1,198v.975h.023a2.126,2.126,0,0,1,2-1.117,2.656,2.656,0,0,1,1.01.166,1.658,1.658,0,0,1,.654.463,1.722,1.722,0,0,1,.351.707,3.787,3.787,0,0,1,.1.909v4.04h-1.01v-4.159a1.221,1.221,0,0,0-.333-.9,1.24,1.24,0,0,0-.915-.332,2.051,2.051,0,0,0-.8.143,1.506,1.506,0,0,0-.564.4,1.738,1.738,0,0,0-.339.613,2.5,2.5,0,0,0-.113.767v3.469h-1.01V198Z" transform="translate(-55.668 -62.886)" fill="#fff"></path><path id="Path_4061" data-name="Path 4061" d="M193.941,195.7a2.4,2.4,0,0,0-1.443-.41,3.479,3.479,0,0,0-.7.072,1.828,1.828,0,0,0-.612.238,1.229,1.229,0,0,0-.428.445,1.373,1.373,0,0,0-.16.694.881.881,0,0,0,.232.636,1.708,1.708,0,0,0,.617.4,5.16,5.16,0,0,0,.873.255c.325.068.656.141.993.22s.667.173.992.28a3.269,3.269,0,0,1,.874.434,2.08,2.08,0,0,1,.618.689,2.413,2.413,0,0,1-.072,2.2,2.492,2.492,0,0,1-.778.784,3.344,3.344,0,0,1-1.064.439,5.143,5.143,0,0,1-1.171.137,4.977,4.977,0,0,1-1.349-.178,3.343,3.343,0,0,1-1.117-.541,2.55,2.55,0,0,1-.761-.927,2.981,2.981,0,0,1-.279-1.336h1.069a1.92,1.92,0,0,0,.208.921,1.892,1.892,0,0,0,.546.636,2.3,2.3,0,0,0,.791.368,3.627,3.627,0,0,0,.926.119,4.2,4.2,0,0,0,.767-.072,2.255,2.255,0,0,0,.7-.243,1.3,1.3,0,0,0,.689-1.231,1.064,1.064,0,0,0-.232-.713,1.706,1.706,0,0,0-.617-.445,4.527,4.527,0,0,0-.873-.279l-.993-.22c-.336-.075-.668-.162-.992-.261a3.535,3.535,0,0,1-.873-.392,1.883,1.883,0,0,1-.619-.63,1.858,1.858,0,0,1-.232-.969,2.245,2.245,0,0,1,.262-1.111,2.284,2.284,0,0,1,.7-.772,3.121,3.121,0,0,1,.986-.452,4.325,4.325,0,0,1,1.134-.149,4.53,4.53,0,0,1,1.212.154,2.761,2.761,0,0,1,.98.487,2.358,2.358,0,0,1,.666.838,2.987,2.987,0,0,1,.267,1.205H194.6a1.769,1.769,0,0,0-.66-1.325" transform="translate(-60.136 -61.768)" fill="#fff"></path><path id="Path_4062" data-name="Path 4062" d="M206.251,204.118a1.412,1.412,0,0,1-.724.156.866.866,0,0,1-.623-.22.953.953,0,0,1-.232-.719,2.413,2.413,0,0,1-.969.719,3.359,3.359,0,0,1-1.984.126,1.854,1.854,0,0,1-.647-.3,1.415,1.415,0,0,1-.434-.529,1.779,1.779,0,0,1-.16-.79,1.8,1.8,0,0,1,.178-.856,1.556,1.556,0,0,1,.469-.54,2.154,2.154,0,0,1,.665-.315,7.833,7.833,0,0,1,.767-.178c.278-.056.54-.1.791-.126a4.4,4.4,0,0,0,.659-.118,1.105,1.105,0,0,0,.452-.226.552.552,0,0,0,.166-.434,1.009,1.009,0,0,0-.125-.535.845.845,0,0,0-.321-.309,1.3,1.3,0,0,0-.439-.143,3.3,3.3,0,0,0-.481-.035,2.137,2.137,0,0,0-1.07.244,1.033,1.033,0,0,0-.463.921h-1.01a2.187,2.187,0,0,1,.238-.963,1.8,1.8,0,0,1,.57-.636,2.4,2.4,0,0,1,.814-.351,4.314,4.314,0,0,1,.98-.107,5.766,5.766,0,0,1,.826.059,2.186,2.186,0,0,1,.742.243,1.426,1.426,0,0,1,.535.516,1.648,1.648,0,0,1,.2.866V202.7a2.342,2.342,0,0,0,.042.522q.042.166.279.166a1,1,0,0,0,.309-.059Zm-1.639-3.158a1.273,1.273,0,0,1-.5.208c-.206.043-.422.079-.648.106s-.454.059-.683.1a2.477,2.477,0,0,0-.618.173,1.12,1.12,0,0,0-.445.338.947.947,0,0,0-.173.6.825.825,0,0,0,.1.422.842.842,0,0,0,.262.279,1.077,1.077,0,0,0,.374.154,2.055,2.055,0,0,0,.452.048,2.4,2.4,0,0,0,.856-.136,1.792,1.792,0,0,0,.582-.344,1.37,1.37,0,0,0,.333-.452,1.147,1.147,0,0,0,.107-.458Z" transform="translate(-63.718 -62.886)" fill="#fff"></path><path id="Path_4063" data-name="Path 4063" d="M211.268,198v.975h.023a2.126,2.126,0,0,1,2-1.117,2.656,2.656,0,0,1,1.01.166,1.658,1.658,0,0,1,.654.463,1.722,1.722,0,0,1,.351.707,3.787,3.787,0,0,1,.1.909v4.04h-1.01v-4.159a1.221,1.221,0,0,0-.333-.9,1.24,1.24,0,0,0-.915-.332,2.051,2.051,0,0,0-.8.143,1.506,1.506,0,0,0-.564.4,1.737,1.737,0,0,0-.339.613,2.5,2.5,0,0,0-.113.767v3.469h-1.01V198Z" transform="translate(-66.846 -62.886)" fill="#fff"></path><path id="Path_4064" data-name="Path 4064" d="M128.568,217.281v.951h-4.444v2.7h3.9v.95h-3.9v3.886H123v-8.485Z" transform="translate(-39.092 -69.059)" fill="#fff"></path><path id="Path_4065" data-name="Path 4065" d="M133.647,220.645v1.295h.024a2.733,2.733,0,0,1,.9-1.1,2.272,2.272,0,0,1,1.355-.333v1.069a2.85,2.85,0,0,0-1.034.167,1.631,1.631,0,0,0-.689.486,2.021,2.021,0,0,0-.381.779,4.2,4.2,0,0,0-.119,1.051v2.733H132.7v-6.144Z" transform="translate(-42.175 -70.083)" fill="#fff"></path><path id="Path_4066" data-name="Path 4066" d="M143.837,226.763a1.415,1.415,0,0,1-.725.156.867.867,0,0,1-.623-.22.953.953,0,0,1-.232-.719,2.4,2.4,0,0,1-.969.719,3.2,3.2,0,0,1-1.194.22,3.232,3.232,0,0,1-.791-.094,1.859,1.859,0,0,1-.647-.3,1.428,1.428,0,0,1-.434-.529,1.788,1.788,0,0,1-.16-.79,1.808,1.808,0,0,1,.178-.856,1.557,1.557,0,0,1,.47-.54,2.139,2.139,0,0,1,.665-.315,7.769,7.769,0,0,1,.766-.178q.416-.084.791-.126a4.4,4.4,0,0,0,.66-.118,1.1,1.1,0,0,0,.451-.226.552.552,0,0,0,.167-.434,1,1,0,0,0-.126-.535.848.848,0,0,0-.321-.309,1.3,1.3,0,0,0-.439-.143,3.312,3.312,0,0,0-.482-.035,2.139,2.139,0,0,0-1.07.244,1.033,1.033,0,0,0-.463.921H138.3a2.178,2.178,0,0,1,.237-.963,1.8,1.8,0,0,1,.57-.636,2.4,2.4,0,0,1,.814-.351,4.319,4.319,0,0,1,.981-.107,5.754,5.754,0,0,1,.825.059,2.194,2.194,0,0,1,.743.243,1.431,1.431,0,0,1,.535.516,1.654,1.654,0,0,1,.2.866v3.154a2.332,2.332,0,0,0,.042.522c.027.111.121.166.279.166a1,1,0,0,0,.309-.059ZM142.2,223.6a1.265,1.265,0,0,1-.5.208c-.207.043-.422.079-.648.106s-.454.059-.684.1a2.472,2.472,0,0,0-.617.173,1.127,1.127,0,0,0-.446.338.947.947,0,0,0-.172.6.818.818,0,0,0,.1.422.834.834,0,0,0,.261.279,1.087,1.087,0,0,0,.375.154,2.052,2.052,0,0,0,.452.048,2.4,2.4,0,0,0,.855-.136,1.784,1.784,0,0,0,.582-.345,1.351,1.351,0,0,0,.333-.452,1.135,1.135,0,0,0,.107-.458Z" transform="translate(-43.881 -70.083)" fill="#fff"></path><path id="Path_4067" data-name="Path 4067" d="M148.854,220.646v.975h.024a2.126,2.126,0,0,1,2-1.117,2.661,2.661,0,0,1,1.01.166,1.663,1.663,0,0,1,.654.463,1.73,1.73,0,0,1,.351.707,3.823,3.823,0,0,1,.1.909v4.04h-1.01V222.63a1.224,1.224,0,0,0-.333-.9,1.24,1.24,0,0,0-.915-.332,2.045,2.045,0,0,0-.8.143,1.514,1.514,0,0,0-.565.4,1.748,1.748,0,0,0-.339.613,2.5,2.5,0,0,0-.113.767v3.469H147.9v-6.144Z" transform="translate(-47.009 -70.083)" fill="#fff"></path><path id="Path_4068" data-name="Path 4068" d="M161.1,221.716a1.534,1.534,0,0,0-1.022-.321,1.887,1.887,0,0,0-.915.2,1.634,1.634,0,0,0-.587.535,2.244,2.244,0,0,0-.316.766,4.228,4.228,0,0,0-.095.9,3.45,3.45,0,0,0,.1.832,2.232,2.232,0,0,0,.315.718,1.591,1.591,0,0,0,.558.5,1.675,1.675,0,0,0,.821.19,1.655,1.655,0,0,0,1.17-.392,1.779,1.779,0,0,0,.517-1.106h1.033a2.83,2.83,0,0,1-.85,1.759,2.67,2.67,0,0,1-1.858.617,3.2,3.2,0,0,1-1.242-.226,2.4,2.4,0,0,1-.9-.642,2.78,2.78,0,0,1-.547-.992,4.137,4.137,0,0,1-.184-1.265,4.51,4.51,0,0,1,.179-1.289,2.971,2.971,0,0,1,.541-1.046,2.52,2.52,0,0,1,.909-.7A2.973,2.973,0,0,1,160,220.5a3.736,3.736,0,0,1,.98.124,2.4,2.4,0,0,1,.809.387,2.125,2.125,0,0,1,.576.659,2.428,2.428,0,0,1,.285.945H161.6a1.54,1.54,0,0,0-.5-.9" transform="translate(-49.932 -70.084)" fill="#fff"></path><path id="Path_4069" data-name="Path 4069" d="M167.03,217.281h1.01v1.236h-1.01Zm1.01,8.484h-1.01v-6.144h1.01Z" transform="translate(-53.088 -69.059)" fill="#fff"></path><path id="Path_4070" data-name="Path 4070" d="M171.4,225.417a1.076,1.076,0,0,0,.375.368,1.651,1.651,0,0,0,.523.2,2.954,2.954,0,0,0,.6.059,3.8,3.8,0,0,0,.5-.035,1.833,1.833,0,0,0,.481-.13.913.913,0,0,0,.362-.28.741.741,0,0,0,.143-.469.672.672,0,0,0-.3-.594,2.547,2.547,0,0,0-.743-.327q-.446-.124-.968-.226a4.972,4.972,0,0,1-.969-.285,1.994,1.994,0,0,1-.743-.517,1.343,1.343,0,0,1-.3-.927,1.474,1.474,0,0,1,.208-.8,1.716,1.716,0,0,1,.535-.541,2.49,2.49,0,0,1,.737-.308,3.417,3.417,0,0,1,.815-.1,4.866,4.866,0,0,1,.963.089,2.223,2.223,0,0,1,.778.309,1.606,1.606,0,0,1,.541.593,2.244,2.244,0,0,1,.237.933h-1.01a1.028,1.028,0,0,0-.155-.493,1.01,1.01,0,0,0-.332-.314,1.506,1.506,0,0,0-.446-.173,2.3,2.3,0,0,0-.493-.053,3.076,3.076,0,0,0-.458.035,1.513,1.513,0,0,0-.422.126.842.842,0,0,0-.309.237.6.6,0,0,0-.119.386.567.567,0,0,0,.184.434,1.464,1.464,0,0,0,.47.285,4.162,4.162,0,0,0,.641.19c.238.051.475.1.713.16q.38.084.743.2a2.43,2.43,0,0,1,.641.314,1.549,1.549,0,0,1,.452.494,1.45,1.45,0,0,1,.173.737,1.712,1.712,0,0,1-.231.926,1.8,1.8,0,0,1-.606.594,2.529,2.529,0,0,1-.843.314,4.947,4.947,0,0,1-.934.089,4.331,4.331,0,0,1-.973-.106,2.383,2.383,0,0,1-.82-.351,1.776,1.776,0,0,1-.57-.641,2.222,2.222,0,0,1-.238-.968h1.01a1.136,1.136,0,0,0,.155.564" transform="translate(-54.107 -70.083)" fill="#fff"></path><path id="Path_4071" data-name="Path 4071" d="M183.036,221.716a1.534,1.534,0,0,0-1.022-.321,1.886,1.886,0,0,0-.915.2,1.63,1.63,0,0,0-.588.535,2.257,2.257,0,0,0-.315.766,4.185,4.185,0,0,0-.1.9,3.417,3.417,0,0,0,.1.832,2.217,2.217,0,0,0,.315.718,1.585,1.585,0,0,0,.558.5,1.911,1.911,0,0,0,1.991-.2,1.778,1.778,0,0,0,.517-1.106h1.033a2.834,2.834,0,0,1-.85,1.759,2.671,2.671,0,0,1-1.859.617,3.2,3.2,0,0,1-1.242-.226,2.406,2.406,0,0,1-.9-.642,2.768,2.768,0,0,1-.546-.992,4.136,4.136,0,0,1-.184-1.265,4.485,4.485,0,0,1,.179-1.289,2.959,2.959,0,0,1,.54-1.046,2.523,2.523,0,0,1,.909-.7,2.968,2.968,0,0,1,1.271-.256,3.735,3.735,0,0,1,.98.124,2.394,2.394,0,0,1,.808.387,2.118,2.118,0,0,1,.576.659,2.44,2.44,0,0,1,.285.945h-1.046a1.54,1.54,0,0,0-.5-.9" transform="translate(-56.903 -70.084)" fill="#fff"></path><path id="Path_4072" data-name="Path 4072" d="M188.576,222.457a2.876,2.876,0,0,1,.57-1.022,2.689,2.689,0,0,1,.939-.683,3.439,3.439,0,0,1,2.573,0,2.71,2.71,0,0,1,.933.683,2.887,2.887,0,0,1,.57,1.022,4.115,4.115,0,0,1,.19,1.266,4.057,4.057,0,0,1-.19,1.26,2.884,2.884,0,0,1-.57,1.016,2.636,2.636,0,0,1-.933.677,3.53,3.53,0,0,1-2.573,0,2.617,2.617,0,0,1-.939-.677,2.873,2.873,0,0,1-.57-1.016,4.037,4.037,0,0,1-.19-1.26,4.1,4.1,0,0,1,.19-1.266m1.027,2.258a2.068,2.068,0,0,0,.411.724,1.759,1.759,0,0,0,.611.446,1.867,1.867,0,0,0,1.486,0,1.768,1.768,0,0,0,.612-.446,2.078,2.078,0,0,0,.41-.724,3.382,3.382,0,0,0,0-1.984,2.152,2.152,0,0,0-.41-.731,1.734,1.734,0,0,0-.612-.452,1.867,1.867,0,0,0-1.486,0,1.726,1.726,0,0,0-.611.452,2.142,2.142,0,0,0-.411.731,3.382,3.382,0,0,0,0,1.984" transform="translate(-59.876 -70.083)" fill="#fff"></path><path id="Path_4073" data-name="Path 4073" d="M133.133,253.455a3.659,3.659,0,0,1,.75-1.37,3.512,3.512,0,0,1,1.266-.9,4.308,4.308,0,0,1,1.723-.327,4.692,4.692,0,0,1,1.491.233,3.619,3.619,0,0,1,1.214.672,3.125,3.125,0,0,1,.819,1.094,3.6,3.6,0,0,1,.3,1.516,3.808,3.808,0,0,1-.25,1.43,4.077,4.077,0,0,1-.663,1.111,5.592,5.592,0,0,1-.948.888q-.534.4-1.1.759-.569.344-1.137.68a8.954,8.954,0,0,0-1.042.715,4.7,4.7,0,0,0-.81.819,2.3,2.3,0,0,0-.439,1.008h6.272v1.293H132.6a6.5,6.5,0,0,1,.387-1.852,4.978,4.978,0,0,1,.767-1.336,5.761,5.761,0,0,1,1.051-1q.585-.431,1.223-.81.776-.482,1.362-.888a6.06,6.06,0,0,0,.973-.818,2.758,2.758,0,0,0,.784-2.016,2.112,2.112,0,0,0-.19-.9A2.168,2.168,0,0,0,137.7,252.3a2.669,2.669,0,0,0-.913-.156,2.128,2.128,0,0,0-1.094.267,2.3,2.3,0,0,0-.75.7,2.931,2.931,0,0,0-.422.973,4.145,4.145,0,0,0-.112,1.093h-1.465a4.94,4.94,0,0,1,.19-1.722" transform="translate(-42.145 -79.73)" fill="#fff"></path><path id="Path_4074" data-name="Path 4074" d="M147.131,255.677a9.515,9.515,0,0,1,.173-1.413,6.93,6.93,0,0,1,.4-1.308,3.475,3.475,0,0,1,.706-1.086,3.217,3.217,0,0,1,1.129-.741,4.937,4.937,0,0,1,3.257,0,3.22,3.22,0,0,1,1.128.741,3.477,3.477,0,0,1,.707,1.086,7.034,7.034,0,0,1,.4,1.308,9.609,9.609,0,0,1,.172,1.413q.034.724.034,1.4t-.034,1.4a9.588,9.588,0,0,1-.172,1.413,6.8,6.8,0,0,1-.4,1.3,3.5,3.5,0,0,1-.707,1.076,3.135,3.135,0,0,1-1.12.733,5.117,5.117,0,0,1-3.265,0,3.119,3.119,0,0,1-1.129-.733,3.5,3.5,0,0,1-.706-1.076,6.707,6.707,0,0,1-.4-1.3,9.495,9.495,0,0,1-.173-1.413q-.034-.723-.034-1.4t.034-1.4m1.559,2.92a6.5,6.5,0,0,0,.276,1.6,3.037,3.037,0,0,0,.75,1.266,2.285,2.285,0,0,0,2.9,0,3.035,3.035,0,0,0,.749-1.266,6.5,6.5,0,0,0,.276-1.6q.043-.852.043-1.542c0-.3,0-.629-.008-.99a8.693,8.693,0,0,0-.087-1.085,7.974,7.974,0,0,0-.224-1.059,2.809,2.809,0,0,0-.43-.905,2.226,2.226,0,0,0-.715-.628,2.409,2.409,0,0,0-2.1,0,2.212,2.212,0,0,0-.715.628,2.81,2.81,0,0,0-.431.905,8.084,8.084,0,0,0-.224,1.059,8.566,8.566,0,0,0-.086,1.085c-.006.362-.009.692-.009.99q0,.69.043,1.542" transform="translate(-46.752 -79.729)" fill="#fff"></path><path id="Path_4075" data-name="Path 4075" d="M165.447,263.069v-8.753h-3.17v-1.172a7.515,7.515,0,0,0,1.206-.095,3.293,3.293,0,0,0,1.059-.353,2.428,2.428,0,0,0,.8-.707,2.685,2.685,0,0,0,.447-1.137h1.12v12.216Z" transform="translate(-51.577 -79.73)" fill="#fff"></path><path id="Path_4076" data-name="Path 4076" d="M175.857,252.636a2.9,2.9,0,0,1,.793-.973,3.587,3.587,0,0,1,1.146-.6,4.41,4.41,0,0,1,1.353-.207,4.836,4.836,0,0,1,1.705.267,3.173,3.173,0,0,1,1.145.707,2.74,2.74,0,0,1,.646,1,3.268,3.268,0,0,1,.207,1.145,2.644,2.644,0,0,1-.457,1.508,2.839,2.839,0,0,1-1.231,1.025,2.964,2.964,0,0,1,1.637,1.129,3.331,3.331,0,0,1,.534,1.921,3.731,3.731,0,0,1-.319,1.585,3.431,3.431,0,0,1-.861,1.163,3.636,3.636,0,0,1-1.284.715,5.065,5.065,0,0,1-1.585.242,5.773,5.773,0,0,1-1.637-.224,3.661,3.661,0,0,1-1.318-.689,3.24,3.24,0,0,1-.879-1.163,3.881,3.881,0,0,1-.319-1.628,3.245,3.245,0,0,1,.55-1.887,3.1,3.1,0,0,1,1.586-1.163,2.641,2.641,0,0,1-1.242-1.008,2.7,2.7,0,0,1-.465-1.525,2.909,2.909,0,0,1,.293-1.336m1.559,8.719a2.769,2.769,0,0,0,1.87.629,2.71,2.71,0,0,0,1.008-.181,2.454,2.454,0,0,0,.793-.5,2.211,2.211,0,0,0,.517-.75,2.422,2.422,0,0,0,.181-.948,2.144,2.144,0,0,0-.2-.921,2.3,2.3,0,0,0-.543-.733,2.647,2.647,0,0,0-.8-.49,2.616,2.616,0,0,0-.973-.181,3.08,3.08,0,0,0-1.008.163,2.445,2.445,0,0,0-.827.475,2.192,2.192,0,0,0-.551.741,2.275,2.275,0,0,0-.2.965,2.163,2.163,0,0,0,.733,1.732m-.129-6.461a1.721,1.721,0,0,0,.465.611,1.976,1.976,0,0,0,.688.362,2.886,2.886,0,0,0,.845.121,2.07,2.07,0,0,0,1.447-.517,1.859,1.859,0,0,0,.569-1.448,1.71,1.71,0,0,0-.578-1.4,2.244,2.244,0,0,0-1.473-.473,2.842,2.842,0,0,0-.827.12,1.888,1.888,0,0,0-.681.362,1.829,1.829,0,0,0-.456.586,1.786,1.786,0,0,0-.173.81,2.039,2.039,0,0,0,.173.87" transform="translate(-55.664 -79.73)" fill="#fff"></path></g></g></g></g></svg> 