<?xml version="1.0" encoding="UTF-8"?> <!-- Generator: Adobe Illustrator 26.0.3, SVG Export Plug-In . SVG Version: 6.00 Build 0) --> <svg xmlns="http://www.w3.org/2000/svg" xmlns:xlink="http://www.w3.org/1999/xlink" version="1.1" id="Group_931" x="0px" y="0px" width="186.6px" height="255.7px" viewBox="0 0 186.6 255.7" style="enable-background:new 0 0 186.6 255.7;" xml:space="preserve"> <style type="text/css"> .st0{fill:#03023F;} .st1{opacity:0.25;fill:#03023F;} .st2{fill:url(#SVGID_1_);} .st3{fill:url(#SVGID_00000075871892664680800900000016231545467579451057_);} .st4{fill:url(#SVGID_00000155860362774445998420000005147911954293581714_);} .st5{fill:#FFFFFF;} </style> <g> <g> <path class="st0" d="M33.8,178.1h-5.7l-0.7,1.6c-0.2,0.5-0.3,1-0.3,1.3c0,0.5,0.2,0.8,0.5,1c0.2,0.1,0.7,0.2,1.6,0.3v0.4h-5.4 v-0.4c0.6-0.1,1.1-0.3,1.4-0.7c0.4-0.4,0.8-1.2,1.4-2.4l5.8-12.9h0.2l5.8,13.3c0.6,1.3,1,2,1.4,2.4c0.3,0.2,0.7,0.4,1.1,0.4v0.4 h-7.8v-0.4h0.3c0.6,0,1.1-0.1,1.3-0.3c0.2-0.1,0.3-0.3,0.3-0.5c0-0.1,0-0.3-0.1-0.4c0-0.1-0.1-0.4-0.4-0.9L33.8,178.1z M33.4,177.2l-2.4-5.6l-2.5,5.6H33.4z"></path> <path class="st0" d="M55.9,166.6v4.4h-0.4c-0.3-1-0.5-1.7-0.8-2.2c-0.3-0.4-0.7-0.8-1.3-1.1c-0.3-0.1-0.8-0.2-1.6-0.2h-1.2V180 c0,0.8,0,1.3,0.1,1.5c0.1,0.2,0.3,0.4,0.5,0.5c0.3,0.2,0.6,0.2,1.1,0.2h0.5v0.4h-8.5v-0.4h0.5c0.5,0,0.8-0.1,1.1-0.2 c0.2-0.1,0.4-0.3,0.5-0.6c0.1-0.2,0.1-0.7,0.1-1.5v-12.5h-1.2c-1.1,0-1.9,0.2-2.4,0.7c-0.7,0.6-1.1,1.6-1.3,2.8h-0.5v-4.4H55.9z"></path> <path class="st0" d="M73.1,166.6v4.4h-0.4c-0.3-1-0.5-1.7-0.8-2.2c-0.3-0.4-0.7-0.8-1.3-1.1c-0.3-0.1-0.8-0.2-1.6-0.2h-1.2V180 c0,0.8,0,1.3,0.1,1.5c0.1,0.2,0.3,0.4,0.5,0.5c0.3,0.2,0.6,0.2,1.1,0.2h0.5v0.4h-8.5v-0.4h0.5c0.5,0,0.8-0.1,1.1-0.2 c0.2-0.1,0.4-0.3,0.5-0.6c0.1-0.2,0.1-0.7,0.1-1.5v-12.5h-1.2c-1.1,0-1.9,0.2-2.4,0.7c-0.7,0.6-1.1,1.6-1.3,2.8h-0.5v-4.4H73.1z"></path> <path class="st0" d="M84,166.3c2.6-0.1,4.7,0.7,6.3,2.3c1.6,1.6,2.4,3.6,2.4,6c0,2.1-0.6,3.9-1.8,5.4c-1.6,2.1-3.8,3.1-6.7,3.1 c-2.9,0-5.2-1-6.7-3c-1.3-1.6-1.9-3.4-1.9-5.5c0-2.4,0.8-4.4,2.4-6C79.6,167,81.6,166.2,84,166.3z M84.1,167.1 c-1.5,0-2.6,0.8-3.4,2.3c-0.6,1.2-0.9,3-0.9,5.3c0,2.8,0.5,4.8,1.5,6.1c0.7,0.9,1.6,1.4,2.8,1.4c0.8,0,1.5-0.2,2.1-0.6 c0.7-0.5,1.2-1.3,1.6-2.4c0.4-1.1,0.6-2.6,0.6-4.4c0-2.1-0.2-3.7-0.6-4.8c-0.4-1.1-0.9-1.8-1.5-2.2 C85.6,167.3,84.9,167.1,84.1,167.1z"></path> <path class="st0" d="M101,175.4v4.5c0,0.9,0.1,1.4,0.2,1.7c0.1,0.2,0.3,0.4,0.6,0.5c0.3,0.1,0.8,0.2,1.5,0.2v0.4H95v-0.4 c0.7,0,1.3-0.1,1.5-0.2c0.3-0.1,0.5-0.3,0.6-0.5c0.1-0.2,0.2-0.8,0.2-1.6v-10.5c0-0.9-0.1-1.4-0.2-1.7c-0.1-0.2-0.3-0.4-0.6-0.5 c-0.3-0.1-0.8-0.2-1.5-0.2v-0.4h7.5c2,0,3.4,0.1,4.3,0.4s1.6,0.8,2.2,1.5c0.6,0.7,0.9,1.6,0.9,2.6c0,1.2-0.4,2.2-1.3,3 c-0.5,0.5-1.3,0.9-2.3,1.1l3.9,5.5c0.5,0.7,0.9,1.1,1.1,1.3c0.3,0.2,0.7,0.4,1.1,0.4v0.4h-5.1l-5.2-7.4H101z M101,167.4v7.1h0.7 c1.1,0,1.9-0.1,2.5-0.3c0.5-0.2,1-0.6,1.3-1.1c0.3-0.5,0.5-1.2,0.5-2.1c0-1.2-0.3-2.1-0.9-2.7c-0.6-0.6-1.5-0.9-2.8-0.9H101z"></path> <path class="st0" d="M119.2,166.6l8,10v-7c0-1-0.1-1.6-0.4-2c-0.4-0.5-1-0.7-1.9-0.7v-0.4h5.3v0.4c-0.7,0.1-1.1,0.2-1.4,0.3 s-0.4,0.4-0.5,0.7c-0.1,0.3-0.2,0.9-0.2,1.6v13.5h-0.4l-10.9-13.5v10.3c0,0.9,0.2,1.6,0.6,1.9s0.9,0.5,1.5,0.5h0.4v0.4h-5.7v-0.4 c0.9,0,1.5-0.2,1.9-0.5c0.3-0.4,0.5-1,0.5-1.8v-11.4l-0.3-0.4c-0.3-0.4-0.6-0.7-0.9-0.8c-0.3-0.1-0.6-0.2-1.1-0.2v-0.4H119.2z"></path> <path class="st0" d="M138.4,167.5v6.6h0.3c1,0,1.8-0.3,2.2-1c0.5-0.6,0.8-1.6,0.9-2.8h0.5v8.5h-0.5c-0.1-0.9-0.3-1.7-0.6-2.3 s-0.7-1-1.1-1.2c-0.4-0.2-1-0.3-1.8-0.3v4.6c0,0.9,0,1.4,0.1,1.6c0.1,0.2,0.2,0.4,0.4,0.5c0.2,0.1,0.5,0.2,1,0.2h1 c1.5,0,2.7-0.4,3.6-1c0.9-0.7,1.6-1.8,2-3.2h0.4l-0.7,5.1h-14v-0.4h0.5c0.5,0,0.8-0.1,1.1-0.2c0.2-0.1,0.4-0.3,0.5-0.6 c0.1-0.2,0.1-0.7,0.1-1.5v-10.6c0-0.7,0-1.2-0.1-1.3c-0.1-0.3-0.2-0.5-0.4-0.6c-0.3-0.2-0.7-0.3-1.2-0.3h-0.5v-0.4h13.5v4.8h-0.5 c-0.2-1.2-0.6-2-1-2.5c-0.4-0.5-1-0.9-1.8-1.1c-0.4-0.1-1.3-0.2-2.5-0.2H138.4z"></path> <path class="st0" d="M166.4,166.6v0.4c-0.5,0.1-0.9,0.2-1.2,0.5c-0.4,0.3-1,1.2-1.9,2.7l-3.5,5.9v3.9c0,0.8,0,1.4,0.1,1.6 c0.1,0.2,0.3,0.4,0.5,0.5c0.3,0.2,0.6,0.2,1,0.2h0.9v0.4h-9.1v-0.4h0.8c0.5,0,0.9-0.1,1.1-0.2c0.2-0.1,0.4-0.3,0.5-0.6 c0.1-0.2,0.1-0.7,0.1-1.5v-3.2l-3.8-6.9c-0.8-1.4-1.3-2.2-1.6-2.4c-0.3-0.2-0.7-0.4-1.2-0.4v-0.4h7.7v0.4h-0.3 c-0.5,0-0.8,0.1-1,0.2c-0.2,0.1-0.3,0.3-0.3,0.4c0,0.3,0.3,1,1,2.2l2.9,5.4l2.9-4.9c0.7-1.2,1.1-2,1.1-2.4c0-0.2-0.1-0.4-0.3-0.5 c-0.3-0.2-0.8-0.3-1.5-0.4v-0.4H166.4z"></path> </g> <g> <path class="st0" d="M42.1,233.4h-3.3l-0.6,1.3c-0.1,0.3-0.2,0.6-0.2,0.7c0,0.1,0.1,0.2,0.2,0.3c0.1,0.1,0.4,0.2,0.8,0.2v0.2h-2.7 V236c0.4-0.1,0.6-0.1,0.7-0.2c0.2-0.2,0.4-0.6,0.7-1.2l3-6.9h0.2l2.9,7c0.2,0.6,0.5,0.9,0.6,1.1c0.2,0.2,0.5,0.3,0.8,0.3v0.2H42 V236c0.3,0,0.6-0.1,0.7-0.2c0.1-0.1,0.2-0.2,0.2-0.3c0-0.2-0.1-0.5-0.2-0.9L42.1,233.4z M41.9,233l-1.4-3.4L39,233H41.9z"></path> <path class="st0" d="M47.8,231.6c0.4-0.4,0.7-0.7,0.7-0.7c0.2-0.2,0.4-0.3,0.6-0.4s0.4-0.1,0.6-0.1c0.4,0,0.7,0.1,0.9,0.3 s0.4,0.5,0.5,0.9c0.4-0.5,0.8-0.8,1.1-1c0.3-0.2,0.6-0.2,0.9-0.2c0.3,0,0.6,0.1,0.8,0.2c0.2,0.2,0.4,0.4,0.6,0.8 c0.1,0.2,0.1,0.6,0.1,1.1v2.5c0,0.4,0,0.6,0.1,0.7c0,0.1,0.1,0.2,0.2,0.2c0.1,0.1,0.3,0.1,0.5,0.1v0.2h-2.8V236h0.1 c0.2,0,0.4,0,0.6-0.1c0.1-0.1,0.2-0.2,0.2-0.3c0-0.1,0-0.3,0-0.6v-2.5c0-0.5-0.1-0.8-0.2-1c-0.2-0.3-0.4-0.4-0.8-0.4 c-0.2,0-0.4,0.1-0.7,0.2s-0.5,0.3-0.8,0.6l0,0.1l0,0.3v2.7c0,0.4,0,0.6,0.1,0.7c0,0.1,0.1,0.2,0.2,0.2c0.1,0.1,0.3,0.1,0.6,0.1 v0.2h-2.9V236c0.3,0,0.5,0,0.7-0.1c0.1-0.1,0.2-0.2,0.2-0.3c0-0.1,0-0.3,0-0.6v-2.5c0-0.5-0.1-0.8-0.2-1c-0.2-0.3-0.4-0.4-0.8-0.4 c-0.2,0-0.4,0.1-0.7,0.2c-0.3,0.2-0.6,0.4-0.8,0.6v3.1c0,0.4,0,0.6,0.1,0.7c0.1,0.1,0.1,0.2,0.2,0.3s0.3,0.1,0.6,0.1v0.2h-2.8V236 c0.3,0,0.4,0,0.5-0.1c0.1-0.1,0.2-0.1,0.2-0.3s0.1-0.4,0.1-0.7v-2.2c0-0.6,0-1-0.1-1.2c0-0.1-0.1-0.2-0.1-0.3s-0.1-0.1-0.3-0.1 c-0.1,0-0.3,0-0.4,0.1l-0.1-0.2l1.7-0.7h0.3V231.6z"></path> <path class="st0" d="M57.2,232.7c0,0.8,0.2,1.5,0.6,2c0.4,0.5,0.9,0.7,1.5,0.7c0.4,0,0.7-0.1,1-0.3c0.3-0.2,0.5-0.6,0.7-1.1 l0.2,0.1c-0.1,0.6-0.3,1.1-0.8,1.6c-0.4,0.5-0.9,0.7-1.6,0.7c-0.7,0-1.3-0.3-1.8-0.8s-0.7-1.2-0.7-2.1c0-1,0.2-1.7,0.7-2.3 c0.5-0.5,1.1-0.8,1.9-0.8c0.6,0,1.2,0.2,1.6,0.6c0.4,0.4,0.6,1,0.6,1.7H57.2z M57.2,232.3h2.6c0-0.4-0.1-0.6-0.1-0.8 c-0.1-0.2-0.3-0.4-0.5-0.5c-0.2-0.1-0.4-0.2-0.6-0.2c-0.3,0-0.7,0.1-0.9,0.4C57.4,231.5,57.3,231.9,57.2,232.3z"></path> <path class="st0" d="M63.8,230.4v1.3c0.5-0.9,1-1.3,1.5-1.3c0.2,0,0.4,0.1,0.6,0.2c0.1,0.1,0.2,0.3,0.2,0.5c0,0.2-0.1,0.3-0.2,0.4 c-0.1,0.1-0.2,0.2-0.4,0.2c-0.1,0-0.3-0.1-0.5-0.2c-0.2-0.1-0.3-0.2-0.4-0.2c-0.1,0-0.2,0-0.2,0.1c-0.2,0.2-0.4,0.4-0.6,0.8v2.7 c0,0.3,0,0.6,0.1,0.7c0.1,0.1,0.1,0.2,0.3,0.3c0.1,0.1,0.3,0.1,0.6,0.1v0.2h-2.9V236c0.3,0,0.5,0,0.6-0.1c0.1-0.1,0.2-0.2,0.2-0.3 c0-0.1,0-0.3,0-0.6v-2.2c0-0.7,0-1.1,0-1.2s-0.1-0.2-0.1-0.3c-0.1-0.1-0.2-0.1-0.3-0.1c-0.1,0-0.3,0-0.4,0.1l-0.1-0.2l1.7-0.7 H63.8z"></path> <path class="st0" d="M68.6,230.4v4.6c0,0.4,0,0.6,0.1,0.7c0.1,0.1,0.1,0.2,0.2,0.3c0.1,0.1,0.3,0.1,0.6,0.1v0.2h-2.8V236 c0.3,0,0.5,0,0.6-0.1s0.2-0.1,0.2-0.3c0.1-0.1,0.1-0.4,0.1-0.7v-2.2c0-0.6,0-1-0.1-1.2c0-0.1-0.1-0.2-0.1-0.3s-0.1-0.1-0.3-0.1 c-0.1,0-0.3,0-0.4,0.1l-0.1-0.2l1.7-0.7H68.6z M68.1,227.4c0.2,0,0.3,0.1,0.4,0.2c0.1,0.1,0.2,0.3,0.2,0.4s-0.1,0.3-0.2,0.4 c-0.1,0.1-0.3,0.2-0.4,0.2c-0.2,0-0.3-0.1-0.4-0.2s-0.2-0.3-0.2-0.4s0.1-0.3,0.2-0.4C67.8,227.5,67.9,227.4,68.1,227.4z"></path> <path class="st0" d="M75.3,234.1c-0.2,0.8-0.5,1.3-0.9,1.7c-0.4,0.4-0.9,0.6-1.5,0.6c-0.6,0-1.2-0.3-1.7-0.8s-0.7-1.3-0.7-2.2 c0-0.9,0.3-1.6,0.8-2.2s1.2-0.8,1.9-0.8c0.6,0,1,0.1,1.4,0.4c0.4,0.3,0.5,0.6,0.5,0.9c0,0.2-0.1,0.3-0.2,0.4 c-0.1,0.1-0.2,0.1-0.4,0.1c-0.2,0-0.4-0.1-0.6-0.2c-0.1-0.1-0.1-0.3-0.1-0.5c0-0.2-0.1-0.4-0.3-0.6c-0.1-0.1-0.3-0.2-0.6-0.2 c-0.4,0-0.7,0.2-1,0.5c-0.3,0.4-0.5,0.9-0.5,1.6c0,0.7,0.2,1.3,0.5,1.8c0.3,0.5,0.8,0.8,1.4,0.8c0.4,0,0.8-0.1,1.1-0.4 c0.2-0.2,0.4-0.5,0.7-1L75.3,234.1z"></path> <path class="st0" d="M79.6,235.4c-0.6,0.5-1,0.7-1.1,0.8c-0.2,0.1-0.5,0.2-0.7,0.2c-0.4,0-0.7-0.1-1-0.4s-0.4-0.6-0.4-1.1 c0-0.3,0.1-0.5,0.2-0.7c0.2-0.3,0.5-0.5,0.9-0.8c0.4-0.2,1.1-0.6,2.1-0.9v-0.2c0-0.6-0.1-1-0.3-1.2s-0.4-0.3-0.8-0.3 c-0.3,0-0.5,0.1-0.6,0.2c-0.2,0.1-0.2,0.3-0.2,0.5l0,0.4c0,0.2,0,0.3-0.1,0.4c-0.1,0.1-0.2,0.2-0.4,0.2c-0.2,0-0.3-0.1-0.4-0.2 s-0.1-0.3-0.1-0.4c0-0.4,0.2-0.7,0.5-1s0.9-0.4,1.5-0.4c0.5,0,0.9,0.1,1.2,0.3c0.2,0.1,0.4,0.3,0.5,0.6c0.1,0.2,0.1,0.5,0.1,1.1 v1.9c0,0.5,0,0.9,0,1c0,0.1,0.1,0.2,0.1,0.2c0,0,0.1,0.1,0.2,0.1c0.1,0,0.1,0,0.2,0c0.1-0.1,0.3-0.2,0.5-0.5v0.3 c-0.5,0.6-0.9,0.9-1.3,0.9c-0.2,0-0.4-0.1-0.5-0.2C79.7,236,79.6,235.8,79.6,235.4z M79.6,235v-2.2c-0.6,0.2-1,0.4-1.2,0.5 c-0.3,0.2-0.6,0.4-0.7,0.6c-0.1,0.2-0.2,0.4-0.2,0.7c0,0.3,0.1,0.5,0.3,0.7c0.2,0.2,0.4,0.3,0.6,0.3 C78.7,235.7,79.1,235.5,79.6,235z"></path> <path class="st0" d="M83.9,231.6c0.7-0.8,1.3-1.2,1.9-1.2c0.3,0,0.6,0.1,0.8,0.2c0.2,0.2,0.4,0.4,0.5,0.8c0.1,0.2,0.1,0.6,0.1,1.1 v2.4c0,0.4,0,0.6,0.1,0.7c0,0.1,0.1,0.2,0.2,0.2c0.1,0.1,0.3,0.1,0.6,0.1v0.2h-2.8V236h0.1c0.3,0,0.5,0,0.6-0.1 c0.1-0.1,0.2-0.2,0.2-0.4c0-0.1,0-0.3,0-0.6v-2.3c0-0.5-0.1-0.9-0.2-1.1c-0.1-0.2-0.4-0.4-0.7-0.4c-0.5,0-1,0.3-1.5,0.8v3 c0,0.4,0,0.6,0.1,0.7c0.1,0.1,0.1,0.2,0.2,0.3c0.1,0.1,0.3,0.1,0.6,0.1v0.2H82V236h0.1c0.3,0,0.5-0.1,0.6-0.2 c0.1-0.1,0.2-0.4,0.2-0.8v-2.1c0-0.7,0-1.1,0-1.3c0-0.1-0.1-0.3-0.1-0.3c-0.1-0.1-0.2-0.1-0.3-0.1c-0.1,0-0.3,0-0.4,0.1l-0.1-0.2 l1.7-0.7h0.3V231.6z"></path> <path class="st0" d="M95.9,236v0.2h-3.6V236h0.3c0.3,0,0.6-0.1,0.8-0.3c0.1-0.1,0.1-0.5,0.1-1v-5.4c0-0.4,0-0.7-0.1-0.8 c0-0.1-0.1-0.2-0.3-0.3c-0.2-0.1-0.4-0.1-0.6-0.1h-0.3v-0.2h3.6v0.2h-0.3c-0.3,0-0.6,0.1-0.8,0.3c-0.1,0.1-0.2,0.5-0.2,1v5.4 c0,0.4,0,0.7,0.1,0.8c0,0.1,0.1,0.2,0.3,0.3c0.2,0.1,0.4,0.1,0.6,0.1H95.9z"></path> <path class="st0" d="M98.5,231.6c0.7-0.8,1.3-1.2,1.9-1.2c0.3,0,0.6,0.1,0.8,0.2c0.2,0.2,0.4,0.4,0.5,0.8c0.1,0.2,0.1,0.6,0.1,1.1 v2.4c0,0.4,0,0.6,0.1,0.7c0,0.1,0.1,0.2,0.2,0.2c0.1,0.1,0.3,0.1,0.6,0.1v0.2h-2.8V236h0.1c0.3,0,0.5,0,0.6-0.1 c0.1-0.1,0.2-0.2,0.2-0.4c0-0.1,0-0.3,0-0.6v-2.3c0-0.5-0.1-0.9-0.2-1.1c-0.1-0.2-0.4-0.4-0.7-0.4c-0.5,0-1,0.3-1.5,0.8v3 c0,0.4,0,0.6,0.1,0.7c0.1,0.1,0.1,0.2,0.2,0.3c0.1,0.1,0.3,0.1,0.6,0.1v0.2h-2.8V236h0.1c0.3,0,0.5-0.1,0.6-0.2s0.2-0.4,0.2-0.8 v-2.1c0-0.7,0-1.1,0-1.3c0-0.1-0.1-0.3-0.1-0.3s-0.2-0.1-0.3-0.1c-0.1,0-0.3,0-0.4,0.1l-0.1-0.2l1.7-0.7h0.3V231.6z"></path> <path class="st0" d="M107.1,230.4v1.9h-0.2c-0.2-0.6-0.4-1-0.6-1.2s-0.6-0.3-0.9-0.3c-0.3,0-0.5,0.1-0.7,0.2 c-0.2,0.2-0.3,0.3-0.3,0.5c0,0.2,0.1,0.4,0.2,0.6c0.1,0.2,0.4,0.4,0.8,0.5l0.9,0.4c0.8,0.4,1.3,1,1.3,1.6c0,0.5-0.2,0.9-0.6,1.3 c-0.4,0.3-0.8,0.5-1.3,0.5c-0.3,0-0.7-0.1-1.2-0.2c-0.1,0-0.2-0.1-0.3-0.1c-0.1,0-0.2,0.1-0.2,0.2h-0.2v-2h0.2 c0.1,0.6,0.3,1,0.7,1.3c0.3,0.3,0.7,0.4,1.1,0.4c0.3,0,0.5-0.1,0.7-0.3c0.2-0.2,0.3-0.4,0.3-0.6c0-0.3-0.1-0.5-0.3-0.7 c-0.2-0.2-0.6-0.4-1.2-0.7c-0.6-0.3-1-0.6-1.2-0.8c-0.2-0.2-0.3-0.5-0.3-0.9c0-0.5,0.2-0.9,0.5-1.2c0.3-0.3,0.7-0.5,1.2-0.5 c0.2,0,0.5,0,0.8,0.1c0.2,0.1,0.4,0.1,0.4,0.1c0.1,0,0.1,0,0.2,0c0,0,0.1-0.1,0.1-0.2H107.1z"></path> <path class="st0" d="M110.3,228.7v1.9h1.3v0.4h-1.3v3.7c0,0.4,0.1,0.6,0.2,0.7s0.2,0.2,0.4,0.2c0.1,0,0.3,0,0.4-0.1 c0.1-0.1,0.2-0.2,0.3-0.4h0.2c-0.1,0.4-0.4,0.7-0.6,0.9c-0.3,0.2-0.5,0.3-0.8,0.3c-0.2,0-0.4-0.1-0.6-0.2 c-0.2-0.1-0.3-0.3-0.4-0.5s-0.1-0.5-0.1-0.9V231h-0.9v-0.2c0.2-0.1,0.5-0.2,0.7-0.5s0.5-0.5,0.6-0.8c0.1-0.2,0.2-0.4,0.4-0.9 H110.3z"></path> <path class="st0" d="M114.4,230.4v4.6c0,0.4,0,0.6,0.1,0.7c0.1,0.1,0.1,0.2,0.2,0.3c0.1,0.1,0.3,0.1,0.6,0.1v0.2h-2.8V236 c0.3,0,0.5,0,0.6-0.1c0.1-0.1,0.2-0.1,0.2-0.3s0.1-0.4,0.1-0.7v-2.2c0-0.6,0-1-0.1-1.2c0-0.1-0.1-0.2-0.1-0.3s-0.1-0.1-0.3-0.1 c-0.1,0-0.3,0-0.4,0.1l-0.1-0.2l1.7-0.7H114.4z M113.9,227.4c0.2,0,0.3,0.1,0.4,0.2s0.2,0.3,0.2,0.4s-0.1,0.3-0.2,0.4 s-0.3,0.2-0.4,0.2c-0.2,0-0.3-0.1-0.4-0.2s-0.2-0.3-0.2-0.4s0.1-0.3,0.2-0.4S113.7,227.4,113.9,227.4z"></path> <path class="st0" d="M117.9,228.7v1.9h1.3v0.4h-1.3v3.7c0,0.4,0.1,0.6,0.2,0.7s0.2,0.2,0.4,0.2c0.1,0,0.3,0,0.4-0.1 c0.1-0.1,0.2-0.2,0.3-0.4h0.2c-0.1,0.4-0.4,0.7-0.6,0.9c-0.3,0.2-0.5,0.3-0.8,0.3c-0.2,0-0.4-0.1-0.6-0.2 c-0.2-0.1-0.3-0.3-0.4-0.5c-0.1-0.2-0.1-0.5-0.1-0.9V231H116v-0.2c0.2-0.1,0.5-0.2,0.7-0.5s0.5-0.5,0.6-0.8 c0.1-0.2,0.2-0.4,0.4-0.9H117.9z"></path> <path class="st0" d="M125,230.6v3.5c0,0.7,0,1.1,0,1.2c0,0.1,0.1,0.2,0.1,0.3c0.1,0.1,0.1,0.1,0.2,0.1c0.1,0,0.3,0,0.4-0.1 l0.1,0.2l-1.7,0.7H124v-1.2c-0.5,0.5-0.9,0.9-1.1,1c-0.3,0.1-0.5,0.2-0.8,0.2c-0.3,0-0.6-0.1-0.8-0.3c-0.2-0.2-0.4-0.4-0.5-0.7 c-0.1-0.3-0.1-0.7-0.1-1.2v-2.5c0-0.3,0-0.5-0.1-0.6c-0.1-0.1-0.1-0.2-0.3-0.2c-0.1-0.1-0.3-0.1-0.6-0.1v-0.2h2v3.8 c0,0.5,0.1,0.9,0.3,1c0.2,0.2,0.4,0.2,0.7,0.2c0.2,0,0.4-0.1,0.6-0.2c0.2-0.1,0.5-0.3,0.8-0.6v-3.2c0-0.3-0.1-0.5-0.2-0.7 c-0.1-0.1-0.4-0.2-0.7-0.2v-0.2H125z"></path> <path class="st0" d="M128.3,228.7v1.9h1.3v0.4h-1.3v3.7c0,0.4,0.1,0.6,0.2,0.7s0.2,0.2,0.4,0.2c0.1,0,0.3,0,0.4-0.1 c0.1-0.1,0.2-0.2,0.3-0.4h0.2c-0.1,0.4-0.4,0.7-0.6,0.9c-0.3,0.2-0.5,0.3-0.8,0.3c-0.2,0-0.4-0.1-0.6-0.2 c-0.2-0.1-0.3-0.3-0.4-0.5s-0.1-0.5-0.1-0.9V231h-0.9v-0.2c0.2-0.1,0.5-0.2,0.7-0.5s0.5-0.5,0.6-0.8c0.1-0.2,0.2-0.4,0.4-0.9 H128.3z"></path> <path class="st0" d="M131.4,232.7c0,0.8,0.2,1.5,0.6,2s0.9,0.7,1.5,0.7c0.4,0,0.7-0.1,1-0.3c0.3-0.2,0.5-0.6,0.7-1.1l0.2,0.1 c-0.1,0.6-0.3,1.1-0.8,1.6c-0.4,0.5-0.9,0.7-1.6,0.7c-0.7,0-1.3-0.3-1.8-0.8c-0.5-0.5-0.7-1.2-0.7-2.1c0-1,0.2-1.7,0.7-2.3 c0.5-0.5,1.1-0.8,1.9-0.8c0.6,0,1.2,0.2,1.6,0.6c0.4,0.4,0.6,1,0.6,1.7H131.4z M131.4,232.3h2.6c0-0.4-0.1-0.6-0.1-0.8 c-0.1-0.2-0.3-0.4-0.5-0.5c-0.2-0.1-0.4-0.2-0.6-0.2c-0.3,0-0.7,0.1-0.9,0.4C131.6,231.5,131.5,231.9,131.4,232.3z"></path> <path class="st0" d="M142.6,230.4c0.9,0,1.6,0.3,2.1,1c0.4,0.6,0.7,1.2,0.7,1.9c0,0.5-0.1,1-0.4,1.5s-0.6,0.9-1,1.2 s-0.9,0.4-1.4,0.4c-0.9,0-1.5-0.3-2-1c-0.4-0.6-0.6-1.2-0.6-1.9c0-0.5,0.1-1,0.4-1.6c0.3-0.5,0.6-0.9,1-1.1 C141.7,230.5,142.1,230.4,142.6,230.4z M142.4,230.8c-0.2,0-0.4,0.1-0.7,0.2c-0.2,0.1-0.4,0.4-0.5,0.7c-0.1,0.3-0.2,0.7-0.2,1.3 c0,0.8,0.2,1.5,0.5,2.1s0.8,0.9,1.3,0.9c0.4,0,0.7-0.2,1-0.5c0.3-0.3,0.4-0.9,0.4-1.7c0-1-0.2-1.8-0.7-2.4 C143.2,231,142.9,230.8,142.4,230.8z"></path> <path class="st0" d="M148.7,231v3.7c0,0.5,0.1,0.9,0.2,1c0.2,0.2,0.4,0.3,0.6,0.3h0.5v0.2h-3.4V236h0.3c0.2,0,0.3,0,0.5-0.1 c0.1-0.1,0.2-0.2,0.3-0.3s0.1-0.4,0.1-0.8V231h-1.1v-0.4h1.1v-0.4c0-0.6,0.1-1,0.3-1.4c0.2-0.4,0.5-0.7,0.8-1s0.8-0.4,1.3-0.4 c0.4,0,0.8,0.1,1.2,0.4c0.2,0.2,0.4,0.4,0.4,0.6c0,0.1-0.1,0.2-0.2,0.4c-0.1,0.1-0.2,0.2-0.3,0.2c-0.1,0-0.2,0-0.3-0.1 s-0.2-0.2-0.4-0.4c-0.2-0.2-0.3-0.4-0.4-0.5c-0.1-0.1-0.3-0.1-0.4-0.1c-0.2,0-0.4,0.1-0.5,0.2c-0.1,0.1-0.2,0.3-0.3,0.5 s-0.1,0.8-0.1,1.7v0.4h1.5v0.4H148.7z"></path> <path class="st0" d="M30.4,244.2v3.3h1.5c0.4,0,0.6-0.1,0.8-0.2c0.2-0.2,0.3-0.5,0.3-0.9h0.2v2.9H33c0-0.3,0-0.6-0.1-0.7 c-0.1-0.2-0.2-0.3-0.3-0.3c-0.1-0.1-0.4-0.1-0.6-0.1h-1.5v2.6c0,0.4,0,0.7,0.1,0.8c0,0.1,0.1,0.2,0.3,0.3c0.2,0.1,0.4,0.1,0.6,0.1 h0.3v0.2H28V252h0.3c0.3,0,0.6-0.1,0.8-0.3c0.1-0.1,0.1-0.5,0.1-1v-5.4c0-0.4,0-0.7-0.1-0.8c0-0.1-0.1-0.2-0.3-0.3 c-0.2-0.1-0.4-0.1-0.6-0.1H28v-0.2h6.3l0.1,1.9h-0.2c-0.1-0.4-0.2-0.7-0.4-0.9c-0.1-0.2-0.3-0.3-0.5-0.4c-0.2-0.1-0.5-0.1-1-0.1 H30.4z"></path> <path class="st0" d="M38.7,251.4c-0.6,0.5-1,0.7-1.1,0.8c-0.2,0.1-0.5,0.2-0.7,0.2c-0.4,0-0.7-0.1-1-0.4c-0.3-0.3-0.4-0.6-0.4-1.1 c0-0.3,0.1-0.5,0.2-0.7c0.2-0.3,0.5-0.5,0.9-0.8s1.1-0.6,2.1-0.9v-0.2c0-0.6-0.1-1-0.3-1.2s-0.4-0.3-0.8-0.3 c-0.3,0-0.5,0.1-0.6,0.2c-0.2,0.1-0.2,0.3-0.2,0.5l0,0.4c0,0.2,0,0.3-0.1,0.4s-0.2,0.2-0.4,0.2c-0.2,0-0.3-0.1-0.4-0.2 c-0.1-0.1-0.1-0.3-0.1-0.4c0-0.4,0.2-0.7,0.5-1c0.4-0.3,0.9-0.4,1.5-0.4c0.5,0,0.9,0.1,1.2,0.3c0.2,0.1,0.4,0.3,0.5,0.6 c0.1,0.2,0.1,0.5,0.1,1.1v1.9c0,0.5,0,0.9,0,1c0,0.1,0.1,0.2,0.1,0.2c0,0,0.1,0.1,0.2,0.1c0.1,0,0.1,0,0.2,0 c0.1-0.1,0.3-0.2,0.5-0.5v0.3c-0.5,0.6-0.9,0.9-1.3,0.9c-0.2,0-0.4-0.1-0.5-0.2S38.7,251.7,38.7,251.4z M38.7,251v-2.2 c-0.6,0.2-1,0.4-1.2,0.5c-0.3,0.2-0.6,0.4-0.7,0.6s-0.2,0.4-0.2,0.7c0,0.3,0.1,0.5,0.3,0.7s0.4,0.3,0.6,0.3 C37.8,251.6,38.2,251.4,38.7,251z"></path> <path class="st0" d="M43.1,247.5c0.4-0.4,0.7-0.7,0.7-0.7c0.2-0.2,0.4-0.3,0.6-0.4c0.2-0.1,0.4-0.1,0.6-0.1c0.4,0,0.7,0.1,0.9,0.3 c0.3,0.2,0.4,0.5,0.5,0.9c0.4-0.5,0.8-0.8,1.1-1c0.3-0.2,0.6-0.2,0.9-0.2c0.3,0,0.6,0.1,0.8,0.2s0.4,0.4,0.6,0.8 c0.1,0.2,0.1,0.6,0.1,1.1v2.5c0,0.4,0,0.6,0.1,0.7c0,0.1,0.1,0.2,0.2,0.2c0.1,0.1,0.3,0.1,0.5,0.1v0.2H48V252h0.1 c0.2,0,0.4,0,0.6-0.1c0.1-0.1,0.2-0.2,0.2-0.3c0-0.1,0-0.3,0-0.6v-2.5c0-0.5-0.1-0.8-0.2-1c-0.2-0.3-0.4-0.4-0.8-0.4 c-0.2,0-0.4,0.1-0.7,0.2c-0.2,0.1-0.5,0.3-0.8,0.6l0,0.1l0,0.3v2.7c0,0.4,0,0.6,0.1,0.7s0.1,0.2,0.2,0.2c0.1,0.1,0.3,0.1,0.6,0.1 v0.2h-2.9V252c0.3,0,0.5,0,0.7-0.1c0.1-0.1,0.2-0.2,0.2-0.3c0-0.1,0-0.3,0-0.6v-2.5c0-0.5-0.1-0.8-0.2-1c-0.2-0.3-0.4-0.4-0.8-0.4 c-0.2,0-0.4,0.1-0.7,0.2c-0.3,0.2-0.6,0.4-0.8,0.6v3.1c0,0.4,0,0.6,0.1,0.7c0.1,0.1,0.1,0.2,0.2,0.3s0.3,0.1,0.6,0.1v0.2h-2.8V252 c0.3,0,0.4,0,0.5-0.1s0.2-0.1,0.2-0.3s0.1-0.4,0.1-0.7v-2.2c0-0.6,0-1-0.1-1.2c0-0.1-0.1-0.2-0.1-0.3s-0.1-0.1-0.3-0.1 c-0.1,0-0.3,0-0.4,0.1l-0.1-0.2l1.7-0.7h0.3V247.5z"></path> <path class="st0" d="M53.5,246.3v4.6c0,0.4,0,0.6,0.1,0.7c0.1,0.1,0.1,0.2,0.2,0.3s0.3,0.1,0.6,0.1v0.2h-2.8V252 c0.3,0,0.5,0,0.6-0.1c0.1-0.1,0.2-0.1,0.2-0.3c0.1-0.1,0.1-0.4,0.1-0.7v-2.2c0-0.6,0-1-0.1-1.2c0-0.1-0.1-0.2-0.1-0.3 s-0.1-0.1-0.3-0.1c-0.1,0-0.3,0-0.4,0.1l-0.1-0.2l1.7-0.7H53.5z M53,243.3c0.2,0,0.3,0.1,0.4,0.2c0.1,0.1,0.2,0.3,0.2,0.4 c0,0.2-0.1,0.3-0.2,0.4c-0.1,0.1-0.3,0.2-0.4,0.2s-0.3-0.1-0.4-0.2s-0.2-0.3-0.2-0.4c0-0.2,0.1-0.3,0.2-0.4 C52.7,243.4,52.8,243.3,53,243.3z"></path> <path class="st0" d="M57.3,243.3v7.6c0,0.4,0,0.6,0.1,0.7c0.1,0.1,0.1,0.2,0.2,0.3c0.1,0.1,0.3,0.1,0.6,0.1v0.2h-2.8V252 c0.3,0,0.4,0,0.5-0.1c0.1-0.1,0.2-0.1,0.2-0.3s0.1-0.4,0.1-0.7v-5.2c0-0.6,0-1,0-1.2c0-0.1-0.1-0.2-0.1-0.3 c-0.1-0.1-0.1-0.1-0.2-0.1c-0.1,0-0.2,0-0.4,0.1l-0.1-0.2l1.7-0.7H57.3z"></path> <path class="st0" d="M58.8,246.5h2.7v0.2h-0.1c-0.2,0-0.3,0-0.4,0.1c-0.1,0.1-0.1,0.2-0.1,0.3c0,0.2,0.1,0.4,0.2,0.7l1.4,2.9 l1.3-3.1c0.1-0.2,0.1-0.3,0.1-0.5c0-0.1,0-0.1,0-0.2c0,0-0.1-0.1-0.2-0.1c-0.1,0-0.2,0-0.4,0v-0.2H65v0.2c-0.2,0-0.3,0-0.4,0.1 s-0.2,0.1-0.3,0.3c0,0.1-0.1,0.2-0.2,0.5l-2.3,5.7c-0.2,0.6-0.5,1-0.9,1.3c-0.4,0.3-0.7,0.4-1,0.4c-0.2,0-0.4-0.1-0.6-0.2 c-0.2-0.1-0.2-0.3-0.2-0.5c0-0.2,0.1-0.3,0.2-0.4c0.1-0.1,0.3-0.2,0.5-0.2c0.1,0,0.3,0,0.6,0.1c0.2,0.1,0.3,0.1,0.3,0.1 c0.1,0,0.3-0.1,0.4-0.2c0.1-0.1,0.3-0.4,0.4-0.7l0.4-1l-2-4.3c-0.1-0.1-0.2-0.3-0.3-0.5c-0.1-0.1-0.2-0.2-0.3-0.3 c-0.1-0.1-0.2-0.1-0.5-0.2V246.5z"></path> <path class="st0" d="M76.1,249.9l0.2,0l-0.7,2.3h-6.5V252h0.3c0.4,0,0.6-0.1,0.8-0.3c0.1-0.1,0.1-0.4,0.1-0.9v-5.4 c0-0.5-0.1-0.9-0.2-1c-0.2-0.2-0.4-0.3-0.7-0.3h-0.3v-0.2h3.8v0.2c-0.4,0-0.8,0-0.9,0.1c-0.2,0.1-0.3,0.2-0.4,0.3 c-0.1,0.1-0.1,0.4-0.1,1v5.3c0,0.3,0,0.6,0.1,0.7c0,0.1,0.1,0.2,0.2,0.2s0.4,0.1,1,0.1h0.6c0.6,0,1.1,0,1.4-0.1 c0.3-0.1,0.5-0.3,0.7-0.5C75.7,250.8,75.9,250.4,76.1,249.9z"></path> <path class="st0" d="M80.5,251.4c-0.6,0.5-1,0.7-1.1,0.8c-0.2,0.1-0.5,0.2-0.7,0.2c-0.4,0-0.7-0.1-1-0.4c-0.3-0.3-0.4-0.6-0.4-1.1 c0-0.3,0.1-0.5,0.2-0.7c0.2-0.3,0.5-0.5,0.9-0.8c0.4-0.2,1.1-0.6,2.1-0.9v-0.2c0-0.6-0.1-1-0.3-1.2s-0.4-0.3-0.8-0.3 c-0.3,0-0.5,0.1-0.6,0.2c-0.2,0.1-0.2,0.3-0.2,0.5l0,0.4c0,0.2,0,0.3-0.1,0.4s-0.2,0.2-0.4,0.2c-0.2,0-0.3-0.1-0.4-0.2 c-0.1-0.1-0.1-0.3-0.1-0.4c0-0.4,0.2-0.7,0.5-1s0.9-0.4,1.5-0.4c0.5,0,0.9,0.1,1.2,0.3c0.2,0.1,0.4,0.3,0.5,0.6 c0.1,0.2,0.1,0.5,0.1,1.1v1.9c0,0.5,0,0.9,0,1c0,0.1,0.1,0.2,0.1,0.2c0,0,0.1,0.1,0.2,0.1c0.1,0,0.1,0,0.2,0 c0.1-0.1,0.3-0.2,0.5-0.5v0.3c-0.5,0.6-0.9,0.9-1.3,0.9c-0.2,0-0.4-0.1-0.5-0.2C80.5,251.9,80.5,251.7,80.5,251.4z M80.5,251v-2.2 c-0.6,0.2-1,0.4-1.2,0.5c-0.3,0.2-0.6,0.4-0.7,0.6c-0.1,0.2-0.2,0.4-0.2,0.7c0,0.3,0.1,0.5,0.3,0.7s0.4,0.3,0.6,0.3 C79.6,251.6,80,251.4,80.5,251z"></path> <path class="st0" d="M82.8,246.5h2.4v0.2c-0.2,0-0.4,0.1-0.4,0.1c-0.1,0.1-0.1,0.2-0.1,0.3c0,0.1,0,0.3,0.1,0.5l1.2,3.3l1.2-2.7 l-0.3-0.8c-0.1-0.2-0.2-0.4-0.4-0.5c-0.1-0.1-0.3-0.1-0.5-0.1v-0.2h2.7v0.2c-0.3,0-0.5,0.1-0.6,0.2c-0.1,0.1-0.1,0.2-0.1,0.3 c0,0.1,0,0.2,0,0.3l1.3,3.3l1.2-3.2c0.1-0.2,0.1-0.4,0.1-0.5c0-0.1,0-0.1-0.1-0.2c-0.1-0.1-0.2-0.1-0.5-0.1v-0.2h1.8v0.2 c-0.4,0.1-0.6,0.3-0.8,0.7l-1.9,4.9h-0.3l-1.4-3.6l-1.7,3.6h-0.2l-1.8-4.8c-0.1-0.3-0.2-0.5-0.4-0.6c-0.1-0.1-0.3-0.2-0.5-0.2 V246.5z"></path> <path class="st0" d="M100.8,249.4h-3.3l-0.6,1.3c-0.1,0.3-0.2,0.6-0.2,0.7c0,0.1,0.1,0.2,0.2,0.3c0.1,0.1,0.4,0.2,0.8,0.2v0.2 h-2.7V252c0.4-0.1,0.6-0.1,0.7-0.2c0.2-0.2,0.4-0.6,0.7-1.2l3-6.9h0.2l2.9,7c0.2,0.6,0.5,0.9,0.6,1.1c0.2,0.2,0.5,0.3,0.8,0.3v0.2 h-3.3V252c0.3,0,0.6-0.1,0.7-0.2c0.1-0.1,0.2-0.2,0.2-0.3c0-0.2-0.1-0.5-0.2-0.9L100.8,249.4z M100.6,248.9l-1.4-3.4l-1.5,3.4 H100.6z"></path> <path class="st0" d="M106.5,244.6v1.9h1.3v0.4h-1.3v3.7c0,0.4,0.1,0.6,0.2,0.7c0.1,0.1,0.2,0.2,0.4,0.2c0.1,0,0.3,0,0.4-0.1 c0.1-0.1,0.2-0.2,0.3-0.4h0.2c-0.1,0.4-0.4,0.7-0.6,0.9c-0.3,0.2-0.5,0.3-0.8,0.3c-0.2,0-0.4-0.1-0.6-0.2 c-0.2-0.1-0.3-0.3-0.4-0.5c-0.1-0.2-0.1-0.5-0.1-0.9v-3.8h-0.9v-0.2c0.2-0.1,0.5-0.2,0.7-0.5c0.2-0.2,0.5-0.5,0.6-0.8 c0.1-0.2,0.2-0.4,0.4-0.9H106.5z"></path> <path class="st0" d="M110.3,244.6v1.9h1.3v0.4h-1.3v3.7c0,0.4,0.1,0.6,0.2,0.7c0.1,0.1,0.2,0.2,0.4,0.2c0.1,0,0.3,0,0.4-0.1 c0.1-0.1,0.2-0.2,0.3-0.4h0.2c-0.1,0.4-0.4,0.7-0.6,0.9c-0.3,0.2-0.5,0.3-0.8,0.3c-0.2,0-0.4-0.1-0.6-0.2 c-0.2-0.1-0.3-0.3-0.4-0.5s-0.1-0.5-0.1-0.9v-3.8h-0.9v-0.2c0.2-0.1,0.5-0.2,0.7-0.5c0.2-0.2,0.5-0.5,0.6-0.8 c0.1-0.2,0.2-0.4,0.4-0.9H110.3z"></path> <path class="st0" d="M115.2,246.3c0.9,0,1.6,0.3,2.1,1c0.4,0.6,0.7,1.2,0.7,1.9c0,0.5-0.1,1-0.4,1.5c-0.2,0.5-0.6,0.9-1,1.2 c-0.4,0.3-0.9,0.4-1.4,0.4c-0.9,0-1.5-0.3-2-1c-0.4-0.6-0.6-1.2-0.6-1.9c0-0.5,0.1-1,0.4-1.6s0.6-0.9,1-1.1 S114.7,246.3,115.2,246.3z M115,246.7c-0.2,0-0.4,0.1-0.7,0.2s-0.4,0.4-0.5,0.7c-0.1,0.3-0.2,0.7-0.2,1.3c0,0.8,0.2,1.5,0.5,2.1 s0.8,0.9,1.3,0.9c0.4,0,0.7-0.2,1-0.5c0.3-0.3,0.4-0.9,0.4-1.7c0-1-0.2-1.8-0.7-2.4C115.8,246.9,115.4,246.7,115,246.7z"></path> <path class="st0" d="M120.7,246.3v1.3c0.5-0.9,1-1.3,1.5-1.3c0.2,0,0.4,0.1,0.6,0.2s0.2,0.3,0.2,0.5c0,0.2-0.1,0.3-0.2,0.4 s-0.2,0.2-0.4,0.2c-0.1,0-0.3-0.1-0.5-0.2c-0.2-0.1-0.3-0.2-0.4-0.2c-0.1,0-0.2,0-0.2,0.1c-0.2,0.2-0.4,0.4-0.6,0.8v2.7 c0,0.3,0,0.6,0.1,0.7c0.1,0.1,0.1,0.2,0.3,0.3c0.1,0.1,0.3,0.1,0.6,0.1v0.2h-2.9V252c0.3,0,0.5,0,0.6-0.1c0.1-0.1,0.2-0.2,0.2-0.3 c0-0.1,0-0.3,0-0.6v-2.2c0-0.7,0-1.1,0-1.2s-0.1-0.2-0.1-0.3c-0.1-0.1-0.2-0.1-0.3-0.1c-0.1,0-0.3,0-0.4,0.1l-0.1-0.2l1.7-0.7 H120.7z"></path> <path class="st0" d="M125.2,247.5c0.7-0.8,1.3-1.2,1.9-1.2c0.3,0,0.6,0.1,0.8,0.2c0.2,0.2,0.4,0.4,0.5,0.8 c0.1,0.2,0.1,0.6,0.1,1.1v2.4c0,0.4,0,0.6,0.1,0.7c0,0.1,0.1,0.2,0.2,0.2s0.3,0.1,0.6,0.1v0.2h-2.8V252h0.1c0.3,0,0.5,0,0.6-0.1 c0.1-0.1,0.2-0.2,0.2-0.4c0-0.1,0-0.3,0-0.6v-2.3c0-0.5-0.1-0.9-0.2-1.1s-0.4-0.4-0.7-0.4c-0.5,0-1,0.3-1.5,0.8v3 c0,0.4,0,0.6,0.1,0.7c0.1,0.1,0.1,0.2,0.2,0.3c0.1,0.1,0.3,0.1,0.6,0.1v0.2h-2.8V252h0.1c0.3,0,0.5-0.1,0.6-0.2 c0.1-0.1,0.2-0.4,0.2-0.8v-2.1c0-0.7,0-1.1,0-1.3c0-0.1-0.1-0.3-0.1-0.3s-0.2-0.1-0.3-0.1c-0.1,0-0.3,0-0.4,0.1l-0.1-0.2l1.7-0.7 h0.3V247.5z"></path> <path class="st0" d="M131.1,248.6c0,0.8,0.2,1.5,0.6,2c0.4,0.5,0.9,0.7,1.5,0.7c0.4,0,0.7-0.1,1-0.3c0.3-0.2,0.5-0.6,0.7-1.1 l0.2,0.1c-0.1,0.6-0.3,1.1-0.8,1.6c-0.4,0.5-0.9,0.7-1.6,0.7c-0.7,0-1.3-0.3-1.8-0.8c-0.5-0.5-0.7-1.2-0.7-2.1 c0-1,0.2-1.7,0.7-2.3s1.1-0.8,1.9-0.8c0.6,0,1.2,0.2,1.6,0.6c0.4,0.4,0.6,1,0.6,1.7H131.1z M131.1,248.3h2.6 c0-0.4-0.1-0.6-0.1-0.8c-0.1-0.2-0.3-0.4-0.5-0.5c-0.2-0.1-0.4-0.2-0.6-0.2c-0.3,0-0.7,0.1-0.9,0.4 C131.3,247.4,131.1,247.8,131.1,248.3z"></path> <path class="st0" d="M135.7,246.5h2.7v0.2h-0.1c-0.2,0-0.3,0-0.4,0.1c-0.1,0.1-0.1,0.2-0.1,0.3c0,0.2,0.1,0.4,0.2,0.7l1.4,2.9 l1.3-3.1c0.1-0.2,0.1-0.3,0.1-0.5c0-0.1,0-0.1,0-0.2c0,0-0.1-0.1-0.2-0.1c-0.1,0-0.2,0-0.4,0v-0.2h1.9v0.2c-0.2,0-0.3,0-0.4,0.1 s-0.2,0.1-0.3,0.3c0,0.1-0.1,0.2-0.2,0.5l-2.3,5.7c-0.2,0.6-0.5,1-0.9,1.3c-0.4,0.3-0.7,0.4-1,0.4c-0.2,0-0.4-0.1-0.6-0.2 s-0.2-0.3-0.2-0.5c0-0.2,0.1-0.3,0.2-0.4c0.1-0.1,0.3-0.2,0.5-0.2c0.1,0,0.3,0,0.6,0.1c0.2,0.1,0.3,0.1,0.3,0.1 c0.1,0,0.3-0.1,0.4-0.2s0.3-0.4,0.4-0.7l0.4-1l-2-4.3c-0.1-0.1-0.2-0.3-0.3-0.5c-0.1-0.1-0.2-0.2-0.3-0.3 c-0.1-0.1-0.2-0.1-0.5-0.2V246.5z"></path> <path class="st0" d="M146.4,246.3v1.9h-0.2c-0.2-0.6-0.4-1-0.6-1.2c-0.2-0.2-0.6-0.3-0.9-0.3c-0.3,0-0.5,0.1-0.7,0.2 c-0.2,0.2-0.3,0.3-0.3,0.5c0,0.2,0.1,0.4,0.2,0.6c0.1,0.2,0.4,0.4,0.8,0.5l0.9,0.4c0.8,0.4,1.3,1,1.3,1.6c0,0.5-0.2,0.9-0.6,1.3 c-0.4,0.3-0.8,0.5-1.3,0.5c-0.3,0-0.7-0.1-1.2-0.2c-0.1,0-0.2-0.1-0.3-0.1c-0.1,0-0.2,0.1-0.2,0.2h-0.2v-2h0.2 c0.1,0.6,0.3,1,0.7,1.3c0.3,0.3,0.7,0.4,1.1,0.4c0.3,0,0.5-0.1,0.7-0.3c0.2-0.2,0.3-0.4,0.3-0.6c0-0.3-0.1-0.5-0.3-0.7 c-0.2-0.2-0.6-0.4-1.2-0.7s-1-0.6-1.2-0.8c-0.2-0.2-0.3-0.5-0.3-0.9c0-0.5,0.2-0.9,0.5-1.2c0.3-0.3,0.7-0.5,1.2-0.5 c0.2,0,0.5,0,0.8,0.1c0.2,0.1,0.4,0.1,0.4,0.1c0.1,0,0.1,0,0.2,0c0,0,0.1-0.1,0.1-0.2H146.4z"></path> <path class="st0" d="M151.2,243l0,1h-0.1c0-0.2-0.1-0.3-0.1-0.4c-0.1-0.1-0.1-0.2-0.3-0.3c-0.1-0.1-0.2-0.1-0.4-0.1h-0.6v3.2 c0,0.3,0,0.4,0.1,0.5c0.1,0.1,0.2,0.1,0.4,0.1h0.1v0.1h-1.8v-0.1h0.1c0.2,0,0.3-0.1,0.4-0.2c0-0.1,0.1-0.2,0.1-0.5v-3.2h-0.5 c-0.2,0-0.3,0-0.4,0c-0.1,0-0.2,0.1-0.3,0.2c-0.1,0.1-0.1,0.3-0.1,0.5h-0.1l0-1H151.2z"></path> <path class="st0" d="M154.1,247.2l-1.6-3.5v2.8c0,0.3,0,0.4,0.1,0.5c0.1,0.1,0.2,0.1,0.4,0.1h0.1v0.1h-1.5v-0.1h0.1 c0.2,0,0.3-0.1,0.4-0.2c0-0.1,0.1-0.2,0.1-0.5v-2.7c0-0.2,0-0.3-0.1-0.4c0-0.1-0.1-0.1-0.2-0.2c-0.1,0-0.2-0.1-0.4-0.1V243h1.2 l1.5,3.3l1.5-3.3h1.2v0.1h-0.1c-0.2,0-0.3,0.1-0.4,0.2c0,0.1-0.1,0.2-0.1,0.5v2.7c0,0.3,0,0.4,0.1,0.5c0.1,0.1,0.2,0.1,0.4,0.1 h0.1v0.1h-1.8v-0.1h0.1c0.2,0,0.3-0.1,0.4-0.2c0-0.1,0.1-0.2,0.1-0.5v-2.8l-1.6,3.5H154.1z"></path> </g> <g> <path class="st0" d="M27.4,200.7c-0.3-0.4-0.7-0.6-1-0.7c-0.3-0.1-0.6-0.2-0.9-0.2c-0.5,0-0.9,0.1-1.3,0.2c-0.4,0.2-0.7,0.4-1,0.7 c-0.3,0.3-0.5,0.6-0.6,1c-0.1,0.4-0.2,0.8-0.2,1.3c0,0.5,0.1,0.9,0.2,1.3c0.1,0.4,0.4,0.8,0.6,1.1c0.3,0.3,0.6,0.5,1,0.7 c0.4,0.2,0.8,0.3,1.3,0.3c0.4,0,0.7-0.1,1.1-0.3c0.3-0.2,0.7-0.5,1-0.8l1.3,0.9c-0.4,0.6-0.9,1-1.5,1.2c-0.6,0.3-1.2,0.4-1.9,0.4 c-0.7,0-1.3-0.1-1.9-0.3c-0.6-0.2-1.1-0.5-1.5-1c-0.4-0.4-0.7-0.9-1-1.5c-0.2-0.6-0.4-1.2-0.4-1.9c0-0.7,0.1-1.4,0.4-2 c0.2-0.6,0.6-1.1,1-1.5c0.4-0.4,0.9-0.7,1.5-1c0.6-0.2,1.2-0.3,1.9-0.3c0.6,0,1.2,0.1,1.7,0.3s1,0.6,1.5,1.1L27.4,200.7z"></path> <path class="st0" d="M30.6,198.6h1.6v7.6H36v1.5h-5.4V198.6z"></path> <path class="st0" d="M37.8,198.6h1.6v9h-1.6V198.6z"></path> <path class="st0" d="M42,198.6h6v1.5h-4.4v2.2h4.1v1.5h-4.1v2.4h4.6v1.5H42V198.6z"></path> <path class="st0" d="M50.4,198.6h2.1l4.4,6.7h0v-6.7h1.6v9h-2l-4.5-6.9h0v6.9h-1.6V198.6z"></path> <path class="st0" d="M63,200.1h-2.8v-1.5h7.1v1.5h-2.8v7.6H63V200.1z"></path> <path class="st0" d="M78,200.6c-0.2-0.2-0.4-0.4-0.7-0.5c-0.3-0.1-0.6-0.2-0.9-0.2c-0.2,0-0.4,0-0.5,0.1c-0.2,0-0.3,0.1-0.5,0.2 c-0.1,0.1-0.3,0.2-0.3,0.4c-0.1,0.1-0.1,0.3-0.1,0.5c0,0.3,0.1,0.5,0.3,0.7c0.2,0.2,0.5,0.3,0.8,0.4c0.3,0.1,0.7,0.2,1,0.3 c0.4,0.1,0.7,0.3,1,0.5c0.3,0.2,0.6,0.5,0.8,0.8s0.3,0.8,0.3,1.3c0,0.5-0.1,0.9-0.3,1.3s-0.4,0.7-0.7,0.9 c-0.3,0.2-0.7,0.4-1.1,0.5c-0.4,0.1-0.8,0.2-1.3,0.2c-0.6,0-1.1-0.1-1.6-0.3c-0.5-0.2-1-0.5-1.3-0.9l1.2-1.2 c0.2,0.3,0.5,0.5,0.8,0.7c0.3,0.2,0.7,0.2,1,0.2c0.2,0,0.4,0,0.6-0.1c0.2-0.1,0.4-0.1,0.5-0.2c0.2-0.1,0.3-0.2,0.4-0.4 c0.1-0.2,0.1-0.3,0.1-0.5c0-0.3-0.1-0.6-0.3-0.8s-0.5-0.3-0.8-0.5s-0.7-0.2-1-0.4c-0.4-0.1-0.7-0.3-1-0.5 c-0.3-0.2-0.6-0.4-0.8-0.8c-0.2-0.3-0.3-0.7-0.3-1.3c0-0.5,0.1-0.9,0.3-1.2c0.2-0.3,0.4-0.6,0.8-0.8c0.3-0.2,0.7-0.4,1.1-0.5 c0.4-0.1,0.8-0.2,1.2-0.2c0.5,0,0.9,0.1,1.4,0.2s0.8,0.4,1.2,0.7L78,200.6z"></path> <path class="st0" d="M84.4,198.6h1.4l3.9,9h-1.8l-0.8-2.1h-3.9l-0.8,2.1h-1.8L84.4,198.6z M86.5,204.2l-1.4-3.7l-1.4,3.7H86.5z"></path> <path class="st0" d="M92,200.1h-2.8v-1.5h7.1v1.5h-2.8v7.6H92V200.1z"></path> <path class="st0" d="M98.1,198.6h1.6v9h-1.6V198.6z"></path> <path class="st0" d="M106.7,200.6c-0.2-0.2-0.4-0.4-0.7-0.5c-0.3-0.1-0.6-0.2-0.9-0.2c-0.2,0-0.4,0-0.5,0.1 c-0.2,0-0.3,0.1-0.5,0.2c-0.1,0.1-0.3,0.2-0.3,0.4c-0.1,0.1-0.1,0.3-0.1,0.5c0,0.3,0.1,0.5,0.3,0.7c0.2,0.2,0.5,0.3,0.8,0.4 c0.3,0.1,0.7,0.2,1,0.3c0.4,0.1,0.7,0.3,1,0.5c0.3,0.2,0.6,0.5,0.8,0.8s0.3,0.8,0.3,1.3c0,0.5-0.1,0.9-0.3,1.3 c-0.2,0.4-0.4,0.7-0.7,0.9c-0.3,0.2-0.7,0.4-1.1,0.5c-0.4,0.1-0.8,0.2-1.3,0.2c-0.6,0-1.1-0.1-1.6-0.3c-0.5-0.2-1-0.5-1.3-0.9 l1.2-1.2c0.2,0.3,0.5,0.5,0.8,0.7c0.3,0.2,0.7,0.2,1,0.2c0.2,0,0.4,0,0.6-0.1c0.2-0.1,0.4-0.1,0.5-0.2c0.2-0.1,0.3-0.2,0.4-0.4 c0.1-0.2,0.1-0.3,0.1-0.5c0-0.3-0.1-0.6-0.3-0.8s-0.5-0.3-0.8-0.5c-0.3-0.1-0.7-0.2-1-0.4c-0.4-0.1-0.7-0.3-1-0.5 c-0.3-0.2-0.6-0.4-0.8-0.8c-0.2-0.3-0.3-0.7-0.3-1.3c0-0.5,0.1-0.9,0.3-1.2c0.2-0.3,0.4-0.6,0.8-0.8c0.3-0.2,0.7-0.4,1.1-0.5 c0.4-0.1,0.8-0.2,1.2-0.2c0.5,0,0.9,0.1,1.4,0.2s0.8,0.4,1.2,0.7L106.7,200.6z"></path> <path class="st0" d="M110.2,198.6h5.8v1.5h-4.2v2.4h4v1.5h-4v3.7h-1.6V198.6z"></path> <path class="st0" d="M120.4,198.6h1.4l3.9,9h-1.8l-0.8-2.1h-3.9l-0.8,2.1h-1.8L120.4,198.6z M122.4,204.2l-1.4-3.7l-1.4,3.7H122.4 z"></path> <path class="st0" d="M133.5,200.7c-0.3-0.4-0.7-0.6-1-0.7c-0.3-0.1-0.6-0.2-0.9-0.2c-0.5,0-0.9,0.1-1.3,0.2 c-0.4,0.2-0.7,0.4-1,0.7c-0.3,0.3-0.5,0.6-0.6,1c-0.1,0.4-0.2,0.8-0.2,1.3c0,0.5,0.1,0.9,0.2,1.3c0.1,0.4,0.4,0.8,0.6,1.1 c0.3,0.3,0.6,0.5,1,0.7c0.4,0.2,0.8,0.3,1.3,0.3c0.4,0,0.7-0.1,1.1-0.3c0.3-0.2,0.7-0.5,1-0.8l1.3,0.9c-0.4,0.6-0.9,1-1.5,1.2 c-0.6,0.3-1.2,0.4-1.9,0.4c-0.7,0-1.3-0.1-1.9-0.3c-0.6-0.2-1.1-0.5-1.5-1c-0.4-0.4-0.7-0.9-1-1.5c-0.2-0.6-0.4-1.2-0.4-1.9 c0-0.7,0.1-1.4,0.4-2c0.2-0.6,0.6-1.1,1-1.5c0.4-0.4,0.9-0.7,1.5-1c0.6-0.2,1.2-0.3,1.9-0.3c0.6,0,1.2,0.1,1.7,0.3s1,0.6,1.5,1.1 L133.5,200.7z"></path> <path class="st0" d="M138.5,200.1h-2.8v-1.5h7.1v1.5h-2.8v7.6h-1.6V200.1z"></path> <path class="st0" d="M144.6,198.6h1.6v9h-1.6V198.6z"></path> <path class="st0" d="M148.3,203.2c0-0.7,0.1-1.4,0.4-2c0.2-0.6,0.6-1.1,1-1.5c0.4-0.4,0.9-0.7,1.5-1c0.6-0.2,1.2-0.3,1.9-0.3 c0.7,0,1.3,0.1,1.9,0.3c0.6,0.2,1.1,0.5,1.5,0.9c0.4,0.4,0.8,0.9,1,1.5c0.2,0.6,0.4,1.2,0.4,2c0,0.7-0.1,1.3-0.4,1.9 c-0.2,0.6-0.6,1.1-1,1.5c-0.4,0.4-0.9,0.7-1.5,1c-0.6,0.2-1.2,0.4-1.9,0.4c-0.7,0-1.3-0.1-1.9-0.3c-0.6-0.2-1.1-0.5-1.5-1 c-0.4-0.4-0.7-0.9-1-1.5C148.4,204.5,148.3,203.9,148.3,203.2z M150,203.1c0,0.5,0.1,0.9,0.2,1.3c0.1,0.4,0.4,0.8,0.6,1.1 c0.3,0.3,0.6,0.5,1,0.7c0.4,0.2,0.8,0.3,1.3,0.3c0.5,0,0.9-0.1,1.3-0.3c0.4-0.2,0.7-0.4,1-0.7s0.5-0.7,0.6-1.1 c0.1-0.4,0.2-0.9,0.2-1.3c0-0.5-0.1-0.9-0.2-1.3c-0.1-0.4-0.4-0.7-0.6-1c-0.3-0.3-0.6-0.5-1-0.7c-0.4-0.2-0.8-0.2-1.3-0.2 c-0.5,0-0.9,0.1-1.3,0.2c-0.4,0.2-0.7,0.4-1,0.7c-0.3,0.3-0.5,0.6-0.6,1C150.1,202.2,150,202.6,150,203.1z"></path> <path class="st0" d="M160.1,198.6h2.1l4.4,6.7h0v-6.7h1.6v9h-2l-4.5-6.9h0v6.9h-1.6V198.6z"></path> </g> <rect x="15.1" y="216.6" class="st1" width="156.1" height="2.1"></rect> <rect x="70.9" y="132" class="st0" width="44.8" height="22.6"></rect> <linearGradient id="SVGID_1_" gradientUnits="userSpaceOnUse" x1="63.6311" y1="24.4691" x2="120.9135" y2="78.6976"> <stop offset="8.513444e-02" style="stop-color:#C4A230"></stop> <stop offset="0.1974" style="stop-color:#CDB04C"></stop> <stop offset="0.4358" style="stop-color:#E5D493"></stop> <stop offset="0.6317" style="stop-color:#C4A230"></stop> <stop offset="0.7194" style="stop-color:#D6BD65"></stop> <stop offset="0.7856" style="stop-color:#E1CE86"></stop> <stop offset="0.8217" style="stop-color:#E5D493"></stop> <stop offset="0.8755" style="stop-color:#DCC779"></stop> <stop offset="0.9904" style="stop-color:#C6A536"></stop> <stop offset="1" style="stop-color:#C4A230"></stop> </linearGradient> <path class="st2" d="M70.8,21h9.8v63.5H69.8V33.4l-11.9,11L51.6,37L70.8,21z M130.5,52.8c0,5-0.4,9.3-1.2,12.9 c-0.8,3.6-1.9,6.6-3.2,9c-1.3,2.4-2.8,4.4-4.4,5.8c-1.6,1.5-3.3,2.6-5,3.3c-1.7,0.7-3.4,1.2-4.9,1.5c-1.6,0.2-3,0.4-4.2,0.4 c-1.2,0-2.6-0.1-4.2-0.4c-1.6-0.2-3.2-0.7-4.9-1.5c-1.7-0.7-3.4-1.9-5-3.3c-1.6-1.5-3.1-3.4-4.4-5.8c-1.3-2.4-2.4-5.4-3.2-9 c-0.8-3.6-1.2-7.9-1.2-12.9s0.4-9.3,1.2-12.9c0.8-3.6,1.9-6.6,3.2-9c1.3-2.4,2.8-4.4,4.4-5.8c1.6-1.5,3.3-2.6,5-3.3 c1.7-0.7,3.3-1.2,4.9-1.5c1.6-0.2,3-0.4,4.2-0.4c1.2,0,2.6,0.1,4.2,0.4c1.6,0.2,3.2,0.7,4.9,1.5c1.7,0.7,3.4,1.9,5,3.3 c1.6,1.5,3.1,3.4,4.4,5.8c1.3,2.4,2.4,5.4,3.2,9C130.1,43.5,130.5,47.8,130.5,52.8z M119.7,52.8c0-2-0.1-4.3-0.4-6.9 c-0.3-2.6-0.8-5.1-1.7-7.4c-0.8-2.3-2.1-4.3-3.7-5.9c-1.6-1.6-3.8-2.4-6.5-2.4s-4.8,0.8-6.5,2.4c-1.6,1.6-2.8,3.6-3.7,5.9 c-0.8,2.3-1.4,4.8-1.7,7.4c-0.3,2.6-0.4,4.9-0.4,6.9c0,2,0.1,4.3,0.4,6.9c0.3,2.6,0.8,5.1,1.7,7.4c0.8,2.3,2.1,4.3,3.7,5.9 c1.6,1.6,3.8,2.4,6.5,2.4s4.8-0.8,6.5-2.4c1.6-1.6,2.8-3.6,3.7-5.9c0.8-2.3,1.4-4.8,1.7-7.4C119.6,57.1,119.7,54.8,119.7,52.8z"></path> <linearGradient id="SVGID_00000142856565425806063530000001813888550860317366_" gradientUnits="userSpaceOnUse" x1="59.8421" y1="88.3704" x2="129.095" y2="117.3911"> <stop offset="0" style="stop-color:#C4A230"></stop> <stop offset="0.1422" style="stop-color:#E5D493"></stop> <stop offset="0.5231" style="stop-color:#C4A230"></stop> <stop offset="0.797" style="stop-color:#E5D493"></stop> <stop offset="0.9716" style="stop-color:#C4A230"></stop> </linearGradient> <path style="fill:url(#SVGID_00000142856565425806063530000001813888550860317366_);" d="M74.8,105c-0.5-0.5-1.1-1-1.7-1.3 c-0.7-0.3-1.4-0.6-2.2-0.7V103c1.3-0.4,2.4-1.1,3.2-2c0.8-0.9,1.2-2.1,1.2-3.6c0-1.1-0.2-2.1-0.7-2.9c-0.5-0.8-1-1.5-1.8-2 c-0.7-0.5-1.6-0.9-2.5-1.1c-0.9-0.2-1.9-0.3-2.8-0.3h-9.9v25.4h9.2c1.2,0,2.4-0.1,3.5-0.4c1.2-0.2,2.2-0.6,3.1-1.2 c0.9-0.6,1.6-1.3,2.2-2.2c0.6-0.9,0.8-2.1,0.8-3.5c0-0.8-0.1-1.6-0.4-2.3C75.6,106.2,75.2,105.6,74.8,105z M62,94.9h3.7 c1.7,0,3,0.3,3.8,0.8c0.8,0.5,1.2,1.4,1.2,2.5c0,1-0.4,1.7-1.1,2.3c-0.8,0.6-1.9,0.9-3.4,0.9H62V94.9z M71.2,110.8 c-0.4,0.5-0.8,0.9-1.4,1.1c-0.6,0.3-1.2,0.4-1.8,0.5c-0.7,0.1-1.3,0.1-1.8,0.1H62v-7.3h4.3c1.8,0,3.2,0.3,4.1,0.8 c0.9,0.5,1.3,1.5,1.3,2.8C71.8,109.7,71.6,110.3,71.2,110.8z M83.5,112.3h13v4.1H79V91h16.8v4.1H83.5v6.2h11.7v4.1H83.5V112.3z M114.1,105.3c0.6,0.9,0.9,2.1,0.9,3.6c0,1.4-0.3,2.6-0.8,3.6c-0.5,1-1.2,1.9-2,2.5c-0.8,0.7-1.8,1.2-3,1.5 c-1.1,0.3-2.3,0.5-3.6,0.5c-1.6,0-3.1-0.3-4.6-0.8s-2.7-1.4-3.8-2.7l3.4-3.3c0.6,0.8,1.3,1.5,2.2,2c0.9,0.5,1.8,0.7,2.9,0.7 c0.5,0,1.1-0.1,1.6-0.2c0.5-0.1,1-0.4,1.4-0.6c0.4-0.3,0.8-0.7,1-1.1c0.3-0.4,0.4-1,0.4-1.5c0-0.9-0.3-1.7-0.9-2.2 c-0.6-0.5-1.3-0.9-2.2-1.3c-0.9-0.3-1.9-0.7-2.9-1c-1.1-0.3-2-0.7-2.9-1.3s-1.6-1.3-2.2-2.2c-0.6-0.9-0.9-2.1-0.9-3.6 c0-1.3,0.3-2.5,0.8-3.4c0.5-1,1.2-1.8,2.1-2.4c0.9-0.6,1.9-1.1,3-1.4c1.1-0.3,2.3-0.5,3.4-0.5c1.3,0,2.6,0.2,3.9,0.6 c1.3,0.4,2.4,1.1,3.4,2l-3.3,3.5c-0.5-0.7-1.1-1.2-1.9-1.5c-0.8-0.3-1.6-0.5-2.5-0.5c-0.5,0-1,0.1-1.5,0.2 c-0.5,0.1-0.9,0.3-1.3,0.6c-0.4,0.3-0.7,0.6-1,1c-0.2,0.4-0.4,0.9-0.4,1.5c0,0.9,0.3,1.5,0.9,2c0.6,0.5,1.3,0.8,2.2,1.2 c0.9,0.3,1.9,0.7,2.9,1c1.1,0.3,2,0.7,2.9,1.3C112.8,103.7,113.5,104.4,114.1,105.3z M135.5,91v4.1h-7.8v21.3h-4.5V95.1h-7.8V91 H135.5z"></path> <linearGradient id="SVGID_00000021832121749059546060000014897462881725173688_" gradientUnits="userSpaceOnUse" x1="27.0961" y1="9.9147" x2="159.2596" y2="135.0321"> <stop offset="0" style="stop-color:#E5D493"></stop> <stop offset="2.384159e-02" style="stop-color:#DCC677"></stop> <stop offset="7.445864e-02" style="stop-color:#C4A230"></stop> <stop offset="0.1403" style="stop-color:#CDB04C"></stop> <stop offset="0.2802" style="stop-color:#E5D493"></stop> <stop offset="0.4557" style="stop-color:#C4A230"></stop> <stop offset="0.5613" style="stop-color:#D6BD65"></stop> <stop offset="0.641" style="stop-color:#E1CE86"></stop> <stop offset="0.6844" style="stop-color:#E5D493"></stop> <stop offset="0.7522" style="stop-color:#DCC779"></stop> <stop offset="0.8967" style="stop-color:#C6A536"></stop> <stop offset="0.9088" style="stop-color:#C4A230"></stop> </linearGradient> <path style="fill:url(#SVGID_00000021832121749059546060000014897462881725173688_);" d="M35.7,116.8c-0.6-1.6-0.7-3.2-0.6-4.8 c0.4-3.1,2.1-6,4.6-8c0.3-0.2,0.4,0,0.4,0.2c-0.2,2.3,1.2,4.4,1.9,6.9c0.3,1.2,0.5,2.6,0.1,4.2c-0.3,1.6-1.2,3.5-2.8,5.8 c0.2,1.5,0.5,3.1,0.9,4.6l-0.8-0.6c-0.3-1.3-0.5-2.6-0.8-3.9C37.2,119.9,36.3,118.4,35.7,116.8z M16.8,82.1c-0.5,1-1,2.1-1.5,3.1 l0.2,0.8c0.6-1.3,1.1-2.5,1.8-3.7c4.6-1.5,6.2-3.6,7-5.7c0.8-2.1,0.8-4.4,2.1-6c0.1-0.1,0.1-0.3-0.2-0.3c-2.7,0.2-5.4,1.2-7.2,3.3 C17.1,75.7,16.1,78.7,16.8,82.1z M21,96.1c-0.3,1.2-0.6,2.3-0.9,3.5l0.4,0.8c0.3-1.4,0.6-2.8,1-4.2c4.5-2.5,5.6-5,6-7.3 c0.4-2.3-0.1-4.7,1-6.6c0.1-0.1,0.1-0.4-0.2-0.3c-2.8,0.7-5.3,2.4-6.8,4.9C20,89.5,19.6,92.8,21,96.1z M28.3,109.4 c-0.1,1.3-0.1,2.5-0.1,3.8l0.6,0.8c0-1.5,0-3,0.1-4.5c2-1.8,3.2-3.4,3.8-4.9c0.7-1.5,0.8-2.8,0.7-4c-0.1-1.2-0.3-2.4-0.5-3.5 c-0.2-1.1-0.2-2.3,0.1-3.3c0-0.2,0-0.4-0.3-0.2c-2.7,1.4-4.9,3.6-5.9,6.5C25.9,102.9,26.2,106.3,28.3,109.4z M15.5,68.2 c-0.7,0.8-1.3,1.7-1.9,2.6l0,0.8c0.7-1.1,1.5-2.1,2.3-3.1c4.6-0.5,6.4-2.1,7.5-4c1.1-1.9,1.5-4,3.1-5.3c0.1-0.1,0.2-0.3-0.1-0.3 c-2.6-0.4-5.3,0.2-7.3,1.8C17,62.3,15.5,64.9,15.5,68.2z M31.5,22.5c-0.8,0.2-1.6,0.4-2.5,0.6l-0.4,0.5c1-0.3,1.9-0.5,2.9-0.7 c3,2.1,5,2,6.7,1.4c1.6-0.6,3-1.8,4.6-1.9c0.1,0,0.3-0.1,0.1-0.3c-1.5-1.5-3.4-2.5-5.5-2.5C35.3,19.6,33.1,20.5,31.5,22.5z M35.9,15.4c0.9-0.1,1.9-0.2,2.8-0.2c2.5,2.4,4.4,2.6,6,2.2c1.6-0.4,3-1.3,4.5-1.1c0.1,0,0.3-0.1,0.1-0.2c-1.2-1.6-2.8-2.8-4.8-3.1 c-1.9-0.3-4.1,0.2-5.9,1.9c-0.8,0-1.6,0.1-2.3,0.2L35.9,15.4z M49.1,113.1c-2,2.6-3.2,5.9-2.9,9.2c0.2,1.6,0.7,3.2,1.7,4.7 c0.9,1.5,2.3,2.8,4.1,3.7c0.5,1.3,1.1,2.5,1.7,3.8l0.9,0.4c-0.7-1.5-1.4-3-2-4.5c1.1-2.7,1.5-4.9,1.5-6.6c0-1.7-0.5-3.1-1.1-4.2 c-0.6-1.2-1.4-2.2-2.1-3.2c-0.7-1-1.2-2.1-1.4-3.3C49.4,113,49.3,112.8,49.1,113.1z M20,42.7c-0.8,0.5-1.6,1-2.4,1.6l-0.2,0.7 c1-0.6,1.9-1.3,2.9-1.8c4,1.1,6.1,0.3,7.6-1c1.5-1.2,2.6-2.9,4.2-3.6c0.1,0,0.2-0.2,0-0.3c-2.1-1.1-4.5-1.5-6.7-0.8 C23.1,38.2,21.1,39.9,20,42.7z M25.1,31.8c-0.8,0.3-1.7,0.7-2.5,1l-0.3,0.6c1-0.4,2-0.9,3-1.2c3.5,1.7,5.6,1.2,7.2,0.3 c1.6-0.9,2.8-2.4,4.5-2.7c0.1,0,0.3-0.1,0.1-0.3c-1.8-1.4-4-2.1-6.2-1.8C28.7,28.1,26.5,29.4,25.1,31.8z M16.7,54.9 c-0.8,0.7-1.5,1.4-2.3,2.1l-0.1,0.8c0.9-0.9,1.8-1.7,2.7-2.5c4.4,0.4,6.4-0.9,7.7-2.4c1.4-1.6,2.1-3.5,3.8-4.4 c0.1-0.1,0.2-0.2,0-0.3c-2.4-0.8-4.9-0.7-7.1,0.4C19.1,49.6,17.3,51.8,16.7,54.9z M25.8,120.2c-3.3-0.4-6.6,0.2-9.2,2.1 c-0.3,0.2,0,0.5,0.2,0.5c1.4,0.5,2.7,1.4,4,2.4c1.3,1,2.7,2,4.2,2.7c1.5,0.7,3.1,1.1,4.8,0.8c1.7-0.3,3.6-1.2,5.7-3.2 c1.6,0.1,3.2,0.2,4.7,0.2l-0.8-0.6c-1.3,0-2.6-0.1-4-0.3C32.4,122.1,29.1,120.6,25.8,120.2z M8.4,74.5c-2.1-2-4.8-3.3-7.5-3.3 c-0.3,0-0.2,0.3-0.1,0.5c1.4,2.1,1.8,5.2,3.2,7.8c1.4,2.5,3.7,4.4,8.5,3.9c1,0.9,2.1,1.8,3.1,2.7l-0.2-0.8 c-0.9-0.7-1.7-1.5-2.6-2.3C12,79.4,10.5,76.6,8.4,74.5z M10.7,90.2c-2.6-1.6-5.6-2.4-8.4-1.8c-0.3,0.1-0.2,0.4-0.1,0.5 c1.9,1.9,3,5,4.9,7.4c1.9,2.3,4.7,3.7,9.6,2.2c1.3,0.7,2.5,1.4,3.8,2.1l-0.4-0.8c-1.1-0.6-2.1-1.2-3.2-1.8 C15.5,94.3,13.3,91.8,10.7,90.2z M16.5,105.7c-3-1.1-6.2-1.2-9,0c-0.3,0.1-0.1,0.4,0.1,0.5c1.2,0.8,2.2,1.9,3.3,3.1 c1,1.2,2.1,2.4,3.4,3.4c1.2,1,2.7,1.7,4.3,1.8c1.7,0.1,3.6-0.4,5.9-1.7c1.4,0.5,2.9,0.9,4.3,1.2l-0.6-0.8c-1.2-0.3-2.4-0.7-3.6-1.1 C22.3,108.9,19.5,106.8,16.5,105.7z M9,59.5c-1.6-2.3-3.9-3.9-6.5-4.5c-0.3-0.1-0.3,0.2-0.2,0.4c1,2.2,0.8,5.2,1.6,7.8 c0.8,2.6,2.6,4.8,7.2,5.3c0.8,1.1,1.6,2.1,2.4,3.1l0-0.8c-0.7-0.9-1.3-1.7-2-2.6C11.6,64.7,10.6,61.8,9,59.5z M31.7,13.8 c0.1-2.2-0.6-4.4-1.9-6c-0.1-0.2-0.3,0-0.3,0.1c-0.4,1.9-1.9,3.6-2.7,5.6c-0.7,2-0.7,4.3,1.9,7c0,1-0.1,2.1-0.1,3.1l0.4-0.5 c0-0.9,0-1.7,0.1-2.6C30.9,18.4,31.7,16.1,31.7,13.8z M36.4,14.9c0.1-0.8,0.3-1.6,0.4-2.4c1.9-1.7,2.9-3.7,3.3-5.8 c0.4-2.1,0-4.2-1-5.9c-0.1-0.2-0.3,0-0.3,0.1c-0.6,1.7-2.2,3.1-3.2,4.8c-0.9,1.8-1.2,3.8,0.8,6.7c-0.2,1-0.3,1.9-0.5,2.9L36.4,14.9 z M30,137.7c1.5,0.2,3.1,0.8,4.7,1.5c1.6,0.7,3.2,1.4,4.9,1.7c1.7,0.3,3.4,0.3,5.1-0.4c1.7-0.7,3.4-2.1,5-4.6 c1.6-0.3,3.3-0.6,4.8-1l-0.9-0.4c-1.3,0.3-2.7,0.5-4.1,0.7c-3.7-2.1-7.4-2.8-10.9-2.4c-3.5,0.4-6.7,1.8-8.9,4.3 C29.4,137.4,29.8,137.6,30,137.7z M17.3,33.3c-0.7-2.4-2.1-4.6-4.1-5.8c-0.2-0.1-0.3,0.1-0.3,0.3c0.2,2.2-0.9,4.6-1,7.1 c-0.1,2.5,0.7,4.9,4.4,6.8c0.3,1.1,0.7,2.3,1,3.4l0.2-0.7c-0.3-0.9-0.6-1.9-0.8-2.8C17.9,38.5,17.9,35.7,17.3,33.3z M24,22.6 c-0.3-2.4-1.3-4.6-3-6c-0.2-0.2-0.3,0.1-0.3,0.2c-0.2,2.1-1.5,4.1-1.9,6.4c-0.5,2.3,0,4.6,3.1,7c0.1,1.1,0.3,2.2,0.4,3.3l0.3-0.6 c-0.1-0.9-0.2-1.8-0.3-2.8C23.8,27.6,24.2,25,24,22.6z M12.1,45.7c-1.1-2.4-3-4.4-5.3-5.3c-0.3-0.1-0.3,0.2-0.3,0.3 c0.5,2.3-0.1,5,0.2,7.6c0.3,2.6,1.6,4.9,5.8,6.2c0.5,1.1,1.1,2.2,1.7,3.3l0.1-0.8c-0.5-0.9-0.9-1.9-1.4-2.8 C13.6,51,13.2,48.1,12.1,45.7z M69.2,140c0.1-0.5-0.2-1-0.7-1.1c-6.6-1.5-12.9-4.1-18.8-7.5c-5.9-3.4-11.2-7.7-15.9-12.6 c-4.7-5-8.7-10.6-11.8-16.8c-3.1-6.1-5.4-12.7-6.7-19.5c-2.6-13.6-1.3-28,3.8-41C21.5,35,25,28.8,29.2,23.3 c4.2-5.5,9.2-10.4,14.7-14.5C44,8.8,44,8.7,44,8.6c-0.1-0.1-0.2-0.1-0.3,0c-5.6,4-10.7,8.9-14.9,14.4c-4.3,5.5-7.8,11.6-10.4,18.2 c-5.2,13.1-6.7,27.6-4.1,41.5c1.3,6.9,3.5,13.7,6.6,19.9c3.1,6.3,7.1,12.1,11.9,17.2c4.7,5.1,10.2,9.5,16.1,13.1 c6,3.5,12.4,6.2,19.1,7.8C68.5,140.8,69.1,140.5,69.2,140z M40.7,11.4l0.7-0.6c2.1,0,4.6-0.3,6.6-2.1c1.7-1.5,2.8-3.6,4-4.9 c0.1-0.1,0.1-0.2,0-0.3c0-0.1-0.1-0.1-0.3-0.1c-1.8,0.3-4.1,0.2-6.3,1.2c-2.6,1.2-3.9,3.7-4.3,5.8L40.4,11L40.7,11.4z M150.9,116.8 c0.6-1.6,0.7-3.2,0.6-4.8c-0.4-3.1-2.1-6-4.6-8c-0.3-0.2-0.4,0-0.4,0.2c0.2,2.3-1.2,4.4-1.9,6.9c-0.3,1.2-0.5,2.6-0.1,4.2 c0.3,1.6,1.2,3.5,2.8,5.8c-0.2,1.5-0.5,3.1-0.9,4.6l0.8-0.6c0.3-1.3,0.5-2.6,0.8-3.9C149.3,119.9,150.3,118.4,150.9,116.8z M167.6,73.7c-1.8-2-4.5-3.1-7.2-3.3c-0.3,0-0.3,0.2-0.2,0.3c1.3,1.6,1.4,3.9,2.1,6c0.8,2.1,2.3,4.2,7,5.7c0.6,1.2,1.2,2.4,1.8,3.7 l0.2-0.8c-0.5-1.1-1-2.1-1.5-3.1C170.4,78.7,169.4,75.7,167.6,73.7z M165.1,87c-1.5-2.5-4-4.2-6.8-4.9c-0.3-0.1-0.3,0.2-0.2,0.3 c1.1,1.9,0.6,4.2,1,6.6c0.4,2.3,1.5,4.8,6,7.3c0.4,1.4,0.7,2.8,1,4.2l0.4-0.8c-0.3-1.2-0.6-2.4-0.9-3.5 C167,92.8,166.5,89.5,165.1,87z M159.7,100c-1-2.9-3.2-5.1-5.9-6.5c-0.3-0.2-0.3,0.1-0.3,0.2c0.3,1.1,0.3,2.2,0.1,3.3 c-0.2,1.1-0.4,2.3-0.5,3.5c-0.1,1.2,0.1,2.5,0.7,4c0.6,1.4,1.8,3.1,3.8,4.9c0.1,1.5,0.1,3,0.1,4.5l0.6-0.8c0-1.3,0-2.6-0.1-3.8 C160.4,106.3,160.7,102.9,159.7,100z M167.6,60.7c-2.1-1.6-4.7-2.1-7.3-1.8c-0.3,0-0.2,0.2-0.1,0.3c1.5,1.3,2,3.4,3.1,5.3 c1.1,1.9,3,3.5,7.5,4c0.8,1,1.6,2,2.3,3.1l0-0.8c-0.6-0.9-1.3-1.8-1.9-2.6C171.1,64.9,169.6,62.3,167.6,60.7z M149.2,19.6 c-2.1,0-4,1-5.5,2.5c-0.2,0.2,0,0.3,0.1,0.3c1.6,0.1,2.9,1.2,4.6,1.9c1.6,0.6,3.6,0.7,6.7-1.4c1,0.2,1.9,0.4,2.9,0.7l-0.4-0.5 c-0.8-0.2-1.6-0.4-2.5-0.6C153.4,20.5,151.2,19.6,149.2,19.6z M150.2,14.9c-0.8-0.1-1.6-0.1-2.3-0.2c-1.8-1.6-4-2.2-5.9-1.9 c-1.9,0.3-3.6,1.5-4.8,3.1c-0.1,0.2,0,0.2,0.1,0.2c1.5-0.1,2.9,0.8,4.5,1.1c1.6,0.4,3.5,0.2,6-2.2c0.9,0.1,1.8,0.1,2.8,0.2 L150.2,14.9z M137.1,113.2c-0.1,1.2-0.7,2.3-1.4,3.3c-0.7,1-1.4,2-2.1,3.2c-0.6,1.2-1.1,2.5-1.1,4.2c0,1.7,0.3,3.9,1.5,6.6 c-0.6,1.5-1.3,3-2,4.5l0.9-0.4c0.6-1.3,1.2-2.5,1.7-3.8c1.7-1,3.1-2.3,4.1-3.7c0.9-1.5,1.5-3.1,1.7-4.7c0.3-3.3-0.8-6.5-2.9-9.2 C137.3,112.8,137.1,113,137.1,113.2z M161.2,37.5c-2.2-0.7-4.6-0.3-6.7,0.8c-0.2,0.1-0.1,0.3,0,0.3c1.7,0.6,2.7,2.3,4.2,3.6 c1.5,1.2,3.6,2.1,7.6,1c1,0.6,1.9,1.2,2.9,1.8l-0.2-0.7c-0.8-0.5-1.6-1.1-2.4-1.6C165.5,39.9,163.5,38.2,161.2,37.5z M155.7,27.8 c-2.2-0.3-4.4,0.4-6.2,1.8c-0.2,0.1-0.1,0.3,0.1,0.3c1.7,0.3,2.9,1.8,4.5,2.7c1.6,0.9,3.7,1.4,7.2-0.3c1,0.4,2,0.8,3,1.2l-0.3-0.6 c-0.8-0.4-1.7-0.7-2.5-1C160,29.4,157.9,28.1,155.7,27.8z M165.3,48.5c-2.2-1.1-4.8-1.2-7.1-0.4c-0.3,0.1-0.2,0.3,0,0.3 c1.6,0.9,2.4,2.9,3.8,4.4c1.4,1.6,3.4,2.8,7.7,2.4c0.9,0.8,1.8,1.6,2.7,2.5l-0.1-0.8c-0.7-0.7-1.5-1.4-2.3-2.1 C169.3,51.8,167.5,49.6,165.3,48.5z M151.1,124.9c-1.3,0.1-2.7,0.2-4,0.3l-0.8,0.6c1.6,0,3.1-0.1,4.7-0.2c2.1,1.9,3.9,2.9,5.7,3.2 c1.7,0.3,3.3-0.1,4.8-0.8c1.5-0.7,2.9-1.7,4.2-2.7c1.3-1,2.6-1.9,4-2.4c0.2-0.1,0.5-0.3,0.2-0.5c-2.6-1.9-5.9-2.5-9.2-2.1 C157.5,120.6,154.2,122.1,151.1,124.9z M173.9,82.9c-0.9,0.8-1.7,1.6-2.6,2.3l-0.2,0.8c1.1-0.9,2.1-1.7,3.1-2.7 c4.8,0.5,7.1-1.4,8.5-3.9c1.4-2.5,1.8-5.7,3.2-7.8c0.1-0.2,0.2-0.5-0.1-0.5c-2.8,0-5.4,1.3-7.5,3.3 C176.1,76.6,174.5,79.4,173.9,82.9z M169.6,97.8c-1,0.6-2.1,1.2-3.2,1.8l-0.4,0.8c1.3-0.6,2.5-1.3,3.8-2.1c4.9,1.6,7.6,0.2,9.6-2.2 c2-2.3,3-5.5,4.9-7.4c0.1-0.1,0.3-0.5-0.1-0.5c-2.8-0.6-5.8,0.2-8.4,1.8C173.2,91.8,171.1,94.3,169.6,97.8z M162,112.1 c-1.2,0.4-2.4,0.8-3.6,1.1l-0.6,0.8c1.4-0.4,2.9-0.8,4.3-1.2c2.3,1.4,4.2,1.8,5.9,1.7c1.7-0.1,3.1-0.8,4.3-1.8 c1.2-1,2.3-2.2,3.4-3.4c1-1.2,2.1-2.3,3.3-3.1c0.2-0.1,0.4-0.4,0.1-0.5c-2.8-1.2-6-1.1-9,0C167.1,106.8,164.3,108.9,162,112.1z M175.1,68.2c-0.6,0.9-1.3,1.8-2,2.6l0,0.8c0.8-1,1.6-2,2.4-3.1c4.6-0.5,6.4-2.6,7.2-5.3c0.8-2.6,0.7-5.6,1.6-7.8 c0.1-0.2,0.1-0.5-0.2-0.4c-2.6,0.5-4.9,2.2-6.5,4.5C176,61.8,175,64.7,175.1,68.2z M157.5,20.5c0,0.9,0.1,1.7,0.1,2.6l0.4,0.5 c0-1,0-2.1-0.1-3.1c2.6-2.7,2.6-4.9,1.9-7c-0.7-2-2.2-3.7-2.7-5.6c0-0.1-0.2-0.3-0.3-0.1c-1.4,1.6-2,3.8-1.9,6 C154.9,16.1,155.7,18.4,157.5,20.5z M150.7,15.4c-0.1-0.9-0.3-1.9-0.5-2.9c2-2.9,1.8-4.9,0.8-6.7c-0.9-1.8-2.5-3.2-3.2-4.8 c0-0.1-0.2-0.3-0.3-0.1c-1.1,1.7-1.4,3.8-1,5.9c0.4,2.1,1.4,4.1,3.3,5.8c0.2,0.8,0.3,1.6,0.4,2.4L150.7,15.4z M156.9,137.2 c-2.2-2.5-5.4-4-8.9-4.3c-3.5-0.4-7.2,0.3-10.9,2.4c-1.4-0.2-2.8-0.5-4.1-0.7l-0.9,0.4c1.6,0.4,3.2,0.7,4.8,1 c1.6,2.5,3.3,3.9,5,4.6c1.7,0.7,3.4,0.7,5.1,0.4c1.7-0.3,3.3-1,4.9-1.7c1.6-0.7,3.1-1.3,4.7-1.5 C156.8,137.6,157.1,137.4,156.9,137.2z M169.8,41.4c-0.3,1-0.5,1.9-0.8,2.8l0.2,0.7c0.4-1.1,0.7-2.2,1-3.4c3.7-1.9,4.5-4.3,4.4-6.8 c-0.1-2.5-1.1-4.9-1-7.1c0-0.2-0.1-0.4-0.3-0.3c-2,1.3-3.4,3.4-4.1,5.8C168.6,35.7,168.7,38.5,169.8,41.4z M164.3,30.1 c-0.1,0.9-0.2,1.9-0.3,2.8l0.3,0.6c0.2-1.1,0.3-2.2,0.4-3.3c3.1-2.4,3.6-4.7,3.1-7c-0.5-2.3-1.8-4.3-1.9-6.4c0-0.1-0.1-0.4-0.3-0.2 c-1.7,1.5-2.7,3.7-3,6C162.3,25,162.8,27.6,164.3,30.1z M173.6,54.2c-0.4,1-0.9,1.9-1.4,2.8l0.1,0.8c0.6-1.1,1.2-2.2,1.7-3.3 c4.2-1.3,5.5-3.6,5.8-6.2c0.3-2.6-0.3-5.3,0.2-7.6c0-0.2,0-0.4-0.3-0.3c-2.3,0.9-4.2,2.9-5.3,5.3C173.4,48.1,172.9,51,173.6,54.2z M118.6,140.7c6.7-1.6,13.2-4.3,19.1-7.8c6-3.5,11.4-7.9,16.1-13.1c4.7-5.1,8.7-10.9,11.9-17.2c3.1-6.3,5.4-13,6.6-19.9 c2.5-13.9,1.1-28.4-4.1-41.5c-2.6-6.5-6.1-12.7-10.4-18.2c-4.3-5.5-9.3-10.4-14.9-14.4c-0.1-0.1-0.2-0.1-0.3,0 c-0.1,0.1,0,0.2,0.1,0.3c5.5,4.1,10.5,9,14.7,14.5c4.2,5.5,7.6,11.6,10.2,18.1c5,13,6.4,27.4,3.8,41c-1.3,6.8-3.6,13.4-6.7,19.5 c-3.1,6.1-7.1,11.8-11.8,16.8c-4.7,5-10.1,9.2-15.9,12.6c-5.9,3.4-12.2,5.9-18.8,7.5c-0.5,0.1-0.9,0.6-0.7,1.1 C117.5,140.5,118,140.8,118.6,140.7z M146.1,11l-0.8-0.6c-0.5-2.1-1.7-4.6-4.3-5.8c-2.2-1-4.5-1-6.3-1.2c-0.1,0-0.2,0-0.3,0.1 c0,0.1,0,0.2,0,0.3c1.2,1.3,2.3,3.4,4,4.9c2,1.8,4.5,2.1,6.6,2.1l0.7,0.6L146.1,11z"></path> <g> <path class="st5" d="M78.5,148.1c1.1-1.1,2-2,2.7-2.8c0.7-0.8,1.1-1.5,1.4-2.1c0.3-0.6,0.5-1.2,0.5-1.7c0-0.6-0.2-1.1-0.5-1.5 c-0.3-0.4-0.7-0.6-1.2-0.6c-0.4,0-0.8,0.1-1.2,0.4c-0.4,0.3-0.7,0.6-0.9,1.1l-0.3-0.1c0.3-0.7,0.7-1.2,1.2-1.7 c0.5-0.4,1.1-0.6,1.8-0.6c0.5,0,0.9,0.1,1.3,0.4c0.4,0.2,0.7,0.6,0.9,1c0.2,0.4,0.3,0.9,0.3,1.4c0,0.8-0.3,1.7-1,2.7 s-1.8,2.1-3.4,3.4h3.7c0.1-0.1,0.3-0.4,0.5-0.7c0.2-0.3,0.4-0.6,0.5-0.8l0.3,0.1l-1,2.8h-0.3l-0.2-0.3h-5L78.5,148.1z"></path> <path class="st5" d="M91.3,139.2c0.5,0.4,0.9,1.1,1.2,1.8c0.3,0.8,0.4,1.6,0.4,2.6c0,0.9-0.1,1.8-0.4,2.5 c-0.3,0.8-0.7,1.4-1.2,1.8c-0.5,0.4-1.1,0.7-1.7,0.7c-0.6,0-1.2-0.2-1.7-0.7c-0.5-0.4-0.9-1-1.2-1.8c-0.3-0.8-0.4-1.6-0.4-2.5 c0-0.9,0.1-1.8,0.4-2.6c0.3-0.8,0.7-1.4,1.2-1.8c0.5-0.4,1.1-0.7,1.7-0.7S90.8,138.7,91.3,139.2z M88.6,139.5 c-0.3,0.3-0.4,0.8-0.6,1.4c-0.1,0.7-0.2,1.5-0.2,2.6s0.1,2,0.2,2.6c0.1,0.7,0.3,1.1,0.6,1.4c0.3,0.3,0.6,0.4,1,0.4 c0.4,0,0.8-0.1,1-0.4c0.3-0.3,0.4-0.8,0.6-1.4c0.1-0.7,0.2-1.5,0.2-2.6s-0.1-2-0.2-2.6c-0.1-0.7-0.3-1.1-0.6-1.5 c-0.3-0.3-0.6-0.5-1-0.5C89.2,139,88.9,139.2,88.6,139.5z"></path> <path class="st5" d="M94,148.1c1.1-1.1,2-2,2.7-2.8c0.7-0.8,1.1-1.5,1.4-2.1c0.3-0.6,0.5-1.2,0.5-1.7c0-0.6-0.2-1.1-0.5-1.5 c-0.3-0.4-0.7-0.6-1.2-0.6c-0.4,0-0.8,0.1-1.2,0.4c-0.4,0.3-0.7,0.6-0.9,1.1l-0.3-0.1c0.3-0.7,0.7-1.2,1.2-1.7 c0.5-0.4,1.1-0.6,1.8-0.6c0.5,0,0.9,0.1,1.3,0.4c0.4,0.2,0.7,0.6,0.9,1c0.2,0.4,0.3,0.9,0.3,1.4c0,0.8-0.3,1.7-1,2.7 s-1.8,2.1-3.4,3.4h3.7c0.1-0.1,0.3-0.4,0.5-0.7c0.2-0.3,0.4-0.6,0.5-0.8l0.3,0.1l-1,2.8h-0.3l-0.2-0.3h-5L94,148.1z"></path> <path class="st5" d="M101.4,148.1c1.1-1.1,2-2,2.7-2.8c0.7-0.8,1.1-1.5,1.4-2.1c0.3-0.6,0.5-1.2,0.5-1.7c0-0.6-0.2-1.1-0.5-1.5 c-0.3-0.4-0.7-0.6-1.2-0.6c-0.4,0-0.8,0.1-1.2,0.4c-0.4,0.3-0.7,0.6-0.9,1.1l-0.3-0.1c0.3-0.7,0.7-1.2,1.2-1.7 c0.5-0.4,1.1-0.6,1.8-0.6c0.5,0,0.9,0.1,1.3,0.4c0.4,0.2,0.7,0.6,0.9,1c0.2,0.4,0.3,0.9,0.3,1.4c0,0.8-0.3,1.7-1,2.7 c-0.7,0.9-1.8,2.1-3.4,3.4h3.7c0.1-0.1,0.3-0.4,0.5-0.7c0.2-0.3,0.4-0.6,0.5-0.8l0.3,0.1l-1,2.8h-0.3l-0.2-0.3h-5L101.4,148.1z"></path> </g> </g> </svg> 