<?xml version="1.0" encoding="UTF-8"?> <svg xmlns="http://www.w3.org/2000/svg" xmlns:xlink="http://www.w3.org/1999/xlink" id="Group_816" data-name="Group 816" width="263.092" height="172.024" viewBox="0 0 263.092 172.024"><defs><clipPath id="clip-path"><rect id="Rectangle_836" data-name="Rectangle 836" width="263.092" height="172.025" fill="none"></rect></clipPath></defs><g id="Group_815" data-name="Group 815" clip-path="url(#clip-path)"><path id="Path_6063" data-name="Path 6063" d="M18.878,80.864v1.415c0,4.714-.825,10.667-8.663,10.667-7.073,0-8.487-4.656-8.487-10.549V62.478c0-6.188,2.77-9.961,8.6-9.961,7.013,0,8.369,4.774,8.369,10.137V64.3H13.4V62.065c0-2.829-.59-4.774-3.124-4.774-2.416,0-3.123,1.827-3.123,4.833V82.81c0,3.123.648,5.363,3.241,5.363,2.535,0,3.124-2.122,3.124-5.363V80.864Z" transform="translate(-0.314 -9.534)" fill="#1b5e93"></path><path id="Path_6064" data-name="Path 6064" d="M47,63.184V82.161c0,7.308-3.064,10.785-9.37,10.785-6.247,0-8.9-3.713-8.9-10.726V63.125c0-7.189,3.478-10.608,9.254-10.608,5.893,0,9.016,3.654,9.016,10.667m-12.847-.471v20.1c0,3.771,1.355,5.363,3.713,5.363,2.534,0,3.771-1.533,3.771-5.481V62.713c0-3.6-1.179-5.421-3.771-5.421-2.476,0-3.713,1.709-3.713,5.421" transform="translate(-5.215 -9.534)" fill="#1b5e93"></path><path id="Path_6065" data-name="Path 6065" d="M58.608,53.165h7.779c5.953,0,9.194,2.476,9.194,9.312v1.592c0,5.775-2.18,7.6-4.007,8.251,2.416,1.061,3.654,2.77,3.654,8.073,0,3.36-.059,9.725.354,12.14H70.512c-.53-2.415-.412-8.957-.412-11.786,0-4.892-.707-6.129-4.362-6.129H63.912V92.533h-5.3Zm5.3,17.032H65.8c3.418,0,4.538-1.591,4.538-5.834V62.83c0-3.3-.825-5.245-4.479-5.245H63.912Z" transform="translate(-10.64 -9.652)" fill="#1b5e93"></path><path id="Path_6066" data-name="Path 6066" d="M86.9,53.165h8.073c6.129,0,9.135,3.005,9.135,9.724v2.358c0,6.247-2.121,10.608-9.429,10.608H92.206V92.533H86.9Zm5.3,18.329H94.15c4.067,0,4.715-2.417,4.715-6.365v-2c0-3.005-.589-5.539-4.244-5.539H92.206Z" transform="translate(-15.776 -9.652)" fill="#1b5e93"></path><path id="Path_6067" data-name="Path 6067" d="M132.314,63.184V82.161c0,7.308-3.064,10.785-9.37,10.785-6.247,0-8.9-3.713-8.9-10.726V63.125c0-7.189,3.478-10.608,9.254-10.608,5.893,0,9.016,3.654,9.016,10.667m-12.847-.471v20.1c0,3.771,1.355,5.363,3.713,5.363,2.534,0,3.771-1.533,3.771-5.481V62.713c0-3.6-1.179-5.421-3.771-5.421-2.476,0-3.713,1.709-3.713,5.421" transform="translate(-20.704 -9.534)" fill="#1b5e93"></path><path id="Path_6068" data-name="Path 6068" d="M143.925,53.165H151.7c5.953,0,9.194,2.476,9.194,9.312v1.592c0,5.775-2.18,7.6-4.007,8.251,2.416,1.061,3.654,2.77,3.654,8.073,0,3.36-.059,9.725.354,12.14H155.83c-.53-2.415-.413-8.957-.413-11.786,0-4.892-.707-6.129-4.362-6.129h-1.827V92.533h-5.3Zm5.3,17.032h1.886c3.418,0,4.538-1.591,4.538-5.834V62.83c0-3.3-.825-5.245-4.479-5.245h-1.945Z" transform="translate(-26.128 -9.652)" fill="#1b5e93"></path><path id="Path_6069" data-name="Path 6069" d="M176.8,81.16,175.2,92.533h-5.363l6.423-39.368h7.485l6.66,39.368h-5.54L183.1,81.16Zm5.658-4.892c-1.061-7.485-2-14.027-2.416-18.152h-.178c-.177,3.183-1.473,11.787-2.357,18.152Z" transform="translate(-30.833 -9.652)" fill="#1b5e93"></path><path id="Path_6070" data-name="Path 6070" d="M200.9,58.057H194.54V53.165h17.975v4.892h-6.366V92.533H200.9Z" transform="translate(-35.317 -9.652)" fill="#1b5e93"></path><path id="Path_6071" data-name="Path 6071" d="M235.565,74.087h-8.722V87.7h9.96l-.648,4.832H221.538V53.166h14.5v4.891h-9.194v11.2h8.722Z" transform="translate(-40.218 -9.652)" fill="#1b5e93"></path><path id="Path_6072" data-name="Path 6072" d="M2.726,107.432H10.8c6.129,0,9.135,3.005,9.135,9.724v2.358c0,6.246-2.121,10.608-9.429,10.608H8.03V146.8h-5.3Zm5.3,18.329H9.974c4.067,0,4.715-2.416,4.715-6.364v-2c0-3-.589-5.539-4.244-5.539H8.03Z" transform="translate(-0.495 -19.503)" fill="#1b5e93"></path><path id="Path_6073" data-name="Path 6073" d="M29.22,107.432h5.3v15.854h7.19V107.432h5.3V146.8h-5.3V128.178h-7.19V146.8h-5.3Z" transform="translate(-5.305 -19.503)" fill="#1b5e93"></path><rect id="Rectangle_831" data-name="Rectangle 831" width="5.304" height="39.369" transform="translate(47.841 87.929)" fill="#1b5e93"></rect><path id="Path_6074" data-name="Path 6074" d="M72.419,107.432h5.3v34.654h9.9l-.53,4.715H72.419Z" transform="translate(-13.147 -19.503)" fill="#1b5e93"></path><path id="Path_6075" data-name="Path 6075" d="M100.683,135.427,99.092,146.8H93.729l6.423-39.369h7.485L114.3,146.8h-5.54l-1.768-11.374Zm5.658-4.892c-1.061-7.485-2-14.027-2.416-18.152h-.177c-.177,3.183-1.473,11.787-2.357,18.152Z" transform="translate(-17.016 -19.503)" fill="#1b5e93"></path><path id="Path_6076" data-name="Path 6076" d="M123.321,146.8V107.432h6.188l5.775,21.806a66.42,66.42,0,0,1,1.532,7.013h.118c-.295-5.068-.295-10.608-.295-17.031V107.432h4.892V146.8H135.58L129.1,121.93c-.53-2.063-.826-3.713-1.061-4.891h-.06c.237,4.773.295,10.49.295,17.621V146.8Z" transform="translate(-22.388 -19.503)" fill="#1b5e93"></path><path id="Path_6077" data-name="Path 6077" d="M156.181,112.323h-6.364v-4.892h17.974v4.892h-6.364V146.8h-5.246Z" transform="translate(-27.198 -19.503)" fill="#1b5e93"></path><path id="Path_6078" data-name="Path 6078" d="M175.808,107.432h5.3v15.854h7.19V107.432h5.3V146.8h-5.3V128.178h-7.19V146.8h-5.3Z" transform="translate(-31.916 -19.503)" fill="#1b5e93"></path><path id="Path_6079" data-name="Path 6079" d="M205.04,107.432h7.779c5.953,0,9.194,2.476,9.194,9.312v1.592c0,5.775-2.18,7.6-4.008,8.251,2.417,1.061,3.654,2.77,3.654,8.073,0,3.36-.059,9.725.354,12.141h-5.069c-.53-2.416-.412-8.958-.412-11.787,0-4.892-.708-6.129-4.362-6.129h-1.827V146.8h-5.3Zm5.3,17.032h1.886c3.418,0,4.538-1.59,4.538-5.834V117.1c0-3.3-.825-5.246-4.479-5.246h-1.945Z" transform="translate(-37.223 -19.503)" fill="#1b5e93"></path><path id="Path_6080" data-name="Path 6080" d="M249.516,117.452v18.977c0,7.306-3.064,10.784-9.37,10.784-6.247,0-8.9-3.713-8.9-10.725V117.393c0-7.19,3.477-10.608,9.253-10.608,5.893,0,9.016,3.654,9.016,10.667m-12.847-.471v20.1c0,3.771,1.355,5.363,3.713,5.363,2.534,0,3.772-1.532,3.772-5.48V116.981c0-3.6-1.179-5.422-3.772-5.422-2.475,0-3.713,1.709-3.713,5.422" transform="translate(-41.981 -19.386)" fill="#1b5e93"></path><path id="Path_6081" data-name="Path 6081" d="M260.047,107.432h8.074c6.129,0,9.135,3.005,9.135,9.724v2.358c0,6.246-2.122,10.608-9.43,10.608h-2.475V146.8h-5.3Zm5.3,18.329H267.3c4.066,0,4.714-2.416,4.714-6.364v-2c0-3-.589-5.539-4.244-5.539h-2.416Z" transform="translate(-47.209 -19.503)" fill="#1b5e93"></path><path id="Path_6082" data-name="Path 6082" d="M290.857,146.8V132.538a4.446,4.446,0,0,0-.178-1.237l-7.308-23.87h5.835c1.709,6.719,3.772,14.5,4.362,18.506h.059c.825-4.244,2.829-12.023,4.42-18.506h5.6l-7.426,24.281a6.229,6.229,0,0,0-.118,1.356V146.8Z" transform="translate(-51.443 -19.503)" fill="#1b5e93"></path><path id="Path_6083" data-name="Path 6083" d="M6.954,189.428,5.363,200.8H0l6.423-39.369h7.485l6.66,39.369h-5.54L13.26,189.428Zm5.658-4.892c-1.061-7.486-2-14.026-2.416-18.152h-.177c-.177,3.183-1.473,11.787-2.357,18.152Z" transform="translate(0 -29.307)" fill="#4894ba"></path><path id="Path_6084" data-name="Path 6084" d="M31.126,200.8,25.7,161.432h5.6c1.061,8.96,2.593,23.515,2.888,30.412h.118c.707-7.486,2.829-21.512,4.008-30.412h5.245c1.238,9.137,3.3,22.161,3.949,30.176h.118c.471-7.307,2.063-20.98,3.064-30.176h5.363L50.162,200.8h-5.48c-1.179-9.016-3.124-21.629-3.89-29.054h-.118c-.825,7.779-2.829,20.273-4.125,29.054Z" transform="translate(-4.666 -29.306)" fill="#4894ba"></path><path id="Path_6085" data-name="Path 6085" d="M70.17,189.428,68.579,200.8H63.216l6.423-39.369h7.485l6.66,39.369h-5.54l-1.768-11.374Zm5.658-4.892c-1.061-7.486-2-14.026-2.416-18.152h-.177c-.177,3.183-1.473,11.787-2.357,18.152Z" transform="translate(-11.476 -29.307)" fill="#4894ba"></path><path id="Path_6086" data-name="Path 6086" d="M92.809,161.432h7.779c5.953,0,9.194,2.477,9.194,9.312v1.593c0,5.775-2.18,7.6-4.007,8.25,2.416,1.061,3.654,2.77,3.654,8.073,0,3.36-.059,9.724.354,12.141h-5.068c-.53-2.417-.413-8.957-.413-11.787,0-4.891-.707-6.129-4.362-6.129H98.113V200.8h-5.3Zm5.3,17.033H100c3.418,0,4.538-1.59,4.538-5.834V171.1c0-3.3-.825-5.246-4.479-5.246H98.113Z" transform="translate(-16.849 -29.306)" fill="#4894ba"></path><path id="Path_6087" data-name="Path 6087" d="M120.023,161.433h7.9c8.428,0,10.02,4.715,10.02,11.552v15.323c0,6.011-1,12.494-10.137,12.494h-7.779Zm5.3,34.831h2.121c4.3,0,5.128-2.594,5.128-7.131v-16.62c0-4.007-.707-6.541-5.128-6.541h-2.121Z" transform="translate(-21.789 -29.307)" fill="#4894ba"></path><path id="Path_6088" data-name="Path 6088" d="M151.762,189.3v2.358c0,3.241,1.061,5.068,3.536,5.068,2.594,0,3.419-2.181,3.419-5.48,0-4.362-.943-5.894-5.187-9.194-4.184-3.3-6.423-5.421-6.423-11.2,0-5.128,1.532-10.137,8.251-10.137,6.659,0,8.015,4.656,8.015,9.254v1.944h-5.245v-1.827c0-2.946-.53-4.833-2.829-4.833s-2.888,2-2.888,4.833c0,3.124.589,4.538,4.126,7.13,5.716,4.245,7.485,6.719,7.485,13.261,0,5.54-1.828,10.726-8.841,10.726-6.895,0-8.663-4.42-8.663-9.605v-2.3Z" transform="translate(-26.599 -29.176)" fill="#4894ba"></path><path id="Path_6089" data-name="Path 6089" d="M181.506,200.7v-.471c.413-5.127,5.3-11.491,8.192-16.324a22.569,22.569,0,0,0,3.713-13.5c0-4.243-.826-7.425-4.3-7.425-3.419,0-4.655,2.474-4.655,7.013v1.531h-2.24v-1.648c0-4.6,1.179-9.018,7.013-9.018,6.188,0,6.6,5.54,6.6,9.489,0,7.013-1.532,10.313-4.244,14.675-4.243,6.954-6.6,10.254-7.426,13.554h12.671l-.354,2.121Z" transform="translate(-32.951 -29.202)" fill="#4894ba"></path><path id="Path_6090" data-name="Path 6090" d="M219.751,170.581v20.98c0,7.426-3.183,9.607-7.308,9.607-4.008,0-7.249-2-7.249-9.547V170.64c0-8.015,3.889-9.783,7.485-9.783,3.359,0,7.072,1.71,7.072,9.724m-12.259.059V191.5c0,4.892,1.651,7.544,5.068,7.544,2.947,0,4.892-1.768,4.892-7.661V170.7c0-5.835-1.945-7.72-4.95-7.72-2.771,0-5.01,1.591-5.01,7.661" transform="translate(-37.251 -29.202)" fill="#4894ba"></path><path id="Path_6091" data-name="Path 6091" d="M231.632,200.736V164.315a14.42,14.42,0,0,1-4.479,1.532v-2a10.349,10.349,0,0,0,5.01-2.77h1.709v39.662Z" transform="translate(-41.237 -29.241)" fill="#4894ba"></path><path id="Path_6092" data-name="Path 6092" d="M245.646,192.505v.354c0,4.656,2.121,6.247,4.538,6.247,3.654,0,4.95-2.24,4.95-9.547V181.72a5.327,5.327,0,0,1-5.6,3.89c-4.892,0-6.543-4.065-6.543-9.783v-5.48c0-6.012,2.3-9.489,7.309-9.489,3.948,0,7.13,2.064,7.13,9.724v18.27c0,8.311-1.3,12.318-7.308,12.318-5.009,0-6.777-3.478-6.777-8.37v-.294Zm-.354-21.924V175.3c0,3.536.354,8.191,4.655,8.191s5.187-4.6,5.187-8.84v-4.067c0-5.127-1.473-7.66-4.891-7.66-2.947,0-4.951,1.59-4.951,7.66" transform="translate(-44.113 -29.202)" fill="#4894ba"></path><rect id="Rectangle_832" data-name="Rectangle 832" width="168.69" height="21.222" transform="translate(47.324)" fill="#aa2b32"></rect><path id="Path_6093" data-name="Path 6093" d="M65.018,13.771v.645c0,1.253.453,1.915,1.359,1.915.923,0,1.359-.575,1.359-2.211A3.13,3.13,0,0,0,66.2,11.125c-1.235-.958-1.845-1.516-1.845-3.221,0-1.428.435-2.752,2.072-2.734,1.445,0,1.984.9,1.984,2.524v.488h-.852v-.47c0-1.062-.228-1.794-1.149-1.794-.958,0-1.2.836-1.2,1.846a2.568,2.568,0,0,0,1.359,2.525c1.532,1.185,2.018,1.811,2.018,3.727,0,1.635-.382,3.063-2.211,3.063-1.671,0-2.211-1.132-2.211-2.663v-.645Z" transform="translate(-11.649 -0.939)" fill="#fff"></path><path id="Path_6094" data-name="Path 6094" d="M72.527,12.845l-.66,4.126h-.854L72.945,5.34h1.237L76.2,16.971H75.3l-.7-4.126Zm1.95-.784c-.5-2.96-.818-5.015-.922-5.972h-.034c-.035.853-.5,3.569-.87,5.972Z" transform="translate(-12.892 -0.969)" fill="#fff"></path><path id="Path_6095" data-name="Path 6095" d="M79.073,16.971V5.34h1.062L82.416,13.3a18.175,18.175,0,0,1,.469,2.072h.035c-.052-1.654-.087-3.291-.087-5.172V5.34h.836V16.971H82.642L80.1,7.917a10.956,10.956,0,0,1-.3-1.323h-.017c.07,1.393.122,3.448.122,5.554v4.823Z" transform="translate(-14.355 -0.969)" fill="#fff"></path><path id="Path_6096" data-name="Path 6096" d="M90.683,5.34H94.41v.783H91.538v4.3h2.681v.784H91.538v5.763h-.854Z" transform="translate(-16.463 -0.969)" fill="#fff"></path><path id="Path_6097" data-name="Path 6097" d="M96.937,5.34H98.66c1.742,0,2.473.784,2.473,2.6v.592c0,1.428-.435,2.211-1.184,2.455.765.243,1.079.853,1.079,2.385a28.92,28.92,0,0,0,.123,3.6h-.836a29.451,29.451,0,0,1-.122-3.517c0-1.567-.243-2.072-1.462-2.072h-.941v5.588h-.852Zm.852,5.294H98.8c1.219,0,1.463-.836,1.463-2.072V7.97c0-1.184-.366-1.881-1.638-1.881h-.836Z" transform="translate(-17.598 -0.969)" fill="#fff"></path><path id="Path_6098" data-name="Path 6098" d="M105.19,12.845l-.66,4.126h-.854L105.608,5.34h1.237l2.02,11.631h-.907l-.7-4.126Zm1.95-.784c-.5-2.96-.818-5.015-.922-5.972h-.034c-.035.853-.5,3.569-.87,5.972Z" transform="translate(-18.821 -0.969)" fill="#fff"></path><path id="Path_6099" data-name="Path 6099" d="M111.737,16.971V5.34H112.8L115.08,13.3a18.169,18.169,0,0,1,.469,2.072h.035c-.052-1.654-.087-3.291-.087-5.172V5.34h.836V16.971h-1.027l-2.542-9.054a10.963,10.963,0,0,1-.3-1.323h-.017c.07,1.393.122,3.448.122,5.554v4.823Z" transform="translate(-20.285 -0.969)" fill="#fff"></path><path id="Path_6100" data-name="Path 6100" d="M124,13.7v.347c0,1.585-.3,3.03-2.158,3.03-1.914,0-2.176-1.48-2.176-3.134V7.99c0-1.915.783-2.82,2.176-2.82,1.793,0,2.108,1.341,2.108,2.8v.4h-.888V7.956c0-1.01-.123-2-1.237-2-1.062,0-1.289.871-1.289,2.054v5.955c0,1.445.331,2.351,1.323,2.351,1.1,0,1.255-.975,1.255-2.246V13.7Z" transform="translate(-21.725 -0.939)" fill="#fff"></path><rect id="Rectangle_833" data-name="Rectangle 833" width="0.853" height="11.631" transform="translate(103.913 4.371)" fill="#fff"></rect><path id="Path_6101" data-name="Path 6101" d="M130.877,13.771v.645c0,1.253.453,1.915,1.358,1.915.922,0,1.358-.575,1.358-2.211a3.128,3.128,0,0,0-1.532-2.995c-1.237-.958-1.846-1.516-1.846-3.221,0-1.428.435-2.752,2.072-2.734,1.446,0,1.986.9,1.986,2.524v.488h-.854v-.47c0-1.062-.226-1.794-1.15-1.794-.956,0-1.2.836-1.2,1.846a2.57,2.57,0,0,0,1.357,2.525c1.532,1.185,2.021,1.811,2.021,3.727,0,1.635-.384,3.063-2.211,3.063-1.672,0-2.212-1.132-2.212-2.663v-.645Z" transform="translate(-23.604 -0.939)" fill="#fff"></path><path id="Path_6102" data-name="Path 6102" d="M141.716,13.7v.347c0,1.585-.3,3.03-2.158,3.03-1.917,0-2.178-1.48-2.178-3.134V7.99c0-1.915.784-2.82,2.178-2.82,1.793,0,2.105,1.341,2.105,2.8v.4h-.888V7.956c0-1.01-.121-2-1.235-2-1.062,0-1.289.871-1.289,2.054v5.955c0,1.445.331,2.351,1.323,2.351,1.1,0,1.254-.975,1.254-2.246V13.7Z" transform="translate(-24.94 -0.939)" fill="#fff"></path><path id="Path_6103" data-name="Path 6103" d="M149.123,8.008v6.164c0,1.915-.766,2.907-2.334,2.907-1.74,0-2.262-1.183-2.262-2.907V8.026c0-1.81.747-2.856,2.315-2.856,1.689,0,2.281,1.271,2.281,2.838m-3.726.017V14.19c0,1.549.557,2.123,1.427,2.123.922,0,1.428-.575,1.428-2.193V8.043c0-1.445-.523-2.09-1.446-2.09-.957,0-1.409.61-1.409,2.072" transform="translate(-26.237 -0.939)" fill="#fff"></path><path id="Path_6104" data-name="Path 6104" d="M155.712,5.34h2.229c1.933,0,2.664.94,2.664,2.6v.47c0,1.637-.539,2.125-1.079,2.351.575.192,1.305.679,1.305,2.333v.872c0,1.984-.766,3.011-2.769,3.011h-2.351Zm2.09,4.806c1.027,0,1.323-.349,1.323-1.585V8.074c0-.993-.348-1.428-1.271-1.428h-.627v3.5Zm-.575,5.537h.662c1.114,0,1.41-.521,1.41-1.758v-.8c0-1.184-.367-1.688-1.5-1.688h-.575Z" transform="translate(-28.268 -0.969)" fill="#fff"></path><path id="Path_6105" data-name="Path 6105" d="M165.4,5.34v8.933c0,.888.3,1.445,1.062,1.445.8,0,1.062-.575,1.062-1.445V5.34h1.549v8.9c0,1.811-.818,2.891-2.628,2.891-1.759,0-2.612-.958-2.612-2.874V5.34Z" transform="translate(-29.743 -0.969)" fill="#fff"></path><path id="Path_6106" data-name="Path 6106" d="M173.509,13.573v.7c0,.958.314,1.5,1.045,1.5.766,0,1.009-.643,1.009-1.619,0-1.288-.278-1.741-1.531-2.716-1.237-.975-1.9-1.6-1.9-3.308,0-1.515.453-3,2.437-3,1.968,0,2.368,1.376,2.368,2.734v.575h-1.55V7.9c0-.871-.156-1.428-.835-1.428S173.7,7.06,173.7,7.9c0,.923.174,1.341,1.22,2.108,1.688,1.254,2.211,1.984,2.211,3.918,0,1.636-.539,3.168-2.613,3.168-2.037,0-2.558-1.306-2.558-2.838v-.679Z" transform="translate(-31.218 -0.931)" fill="#fff"></path><rect id="Rectangle_834" data-name="Rectangle 834" width="1.567" height="11.631" transform="translate(147.442 4.371)" fill="#fff"></rect><path id="Path_6107" data-name="Path 6107" d="M184.483,16.971V5.34h1.828l1.706,6.443a19.257,19.257,0,0,1,.453,2.072h.035c-.087-1.5-.087-3.134-.087-5.032V5.34h1.445V16.971H188.1l-1.916-7.348c-.155-.609-.243-1.1-.313-1.445h-.017c.07,1.411.087,3.1.087,5.207v3.586Z" transform="translate(-33.491 -0.969)" fill="#fff"></path><path id="Path_6108" data-name="Path 6108" d="M197.6,11.522h-2.577v4.022h2.942l-.191,1.427h-4.318V5.34h4.283V6.785h-2.716v3.309H197.6Z" transform="translate(-35.12 -0.969)" fill="#fff"></path><path id="Path_6109" data-name="Path 6109" d="M201.768,13.573v.7c0,.958.313,1.5,1.044,1.5.767,0,1.011-.643,1.011-1.619,0-1.288-.279-1.741-1.532-2.716-1.237-.975-1.9-1.6-1.9-3.308,0-1.515.453-3,2.438-3,1.968,0,2.368,1.376,2.368,2.734v.575H203.65V7.9c0-.871-.157-1.428-.837-1.428s-.852.593-.852,1.428c0,.923.174,1.341,1.219,2.108,1.688,1.254,2.211,1.984,2.211,3.918,0,1.636-.54,3.168-2.612,3.168-2.037,0-2.56-1.306-2.56-2.838v-.679Z" transform="translate(-36.348 -0.931)" fill="#fff"></path><path id="Path_6110" data-name="Path 6110" d="M209.615,13.573v.7c0,.958.313,1.5,1.044,1.5.767,0,1.011-.643,1.011-1.619,0-1.288-.279-1.741-1.532-2.716-1.237-.975-1.9-1.6-1.9-3.308,0-1.515.453-3,2.438-3,1.968,0,2.368,1.376,2.368,2.734v.575H211.5V7.9c0-.871-.157-1.428-.837-1.428s-.852.593-.852,1.428c0,.923.174,1.341,1.219,2.108,1.688,1.254,2.211,1.984,2.211,3.918,0,1.636-.54,3.168-2.612,3.168-2.037,0-2.56-1.306-2.56-2.838v-.679Z" transform="translate(-37.772 -0.931)" fill="#fff"></path><path id="Path_6111" data-name="Path 6111" d="M220.366,6.785h-1.88V5.34h5.309V6.785h-1.881V16.971h-1.549Z" transform="translate(-39.664 -0.969)" fill="#fff"></path><rect id="Rectangle_835" data-name="Rectangle 835" width="1.568" height="11.631" transform="translate(185.278 4.371)" fill="#fff"></rect><path id="Path_6112" data-name="Path 6112" d="M236.545,12.427c0-2.054.035-4.44.07-5.728H236.6c-.278,1.985-1.026,6.861-1.585,10.273h-1.48c-.418-3.012-1.184-8.184-1.445-10.29h-.035c.035,1.358.087,3.988.087,5.99v4.3h-1.427V5.341h2.316c.539,3.151,1.132,6.878,1.288,8.445h.018c.174-1.567.922-5.467,1.462-8.445h2.247V16.972h-1.5Z" transform="translate(-41.883 -0.97)" fill="#fff"></path><path id="Path_6113" data-name="Path 6113" d="M246.211,11.522h-2.577v4.022h2.942l-.191,1.427h-4.318V5.34h4.283V6.785h-2.716v3.309h2.577Z" transform="translate(-43.945 -0.969)" fill="#fff"></path><path id="Path_6114" data-name="Path 6114" d="M250.379,13.573v.7c0,.958.313,1.5,1.044,1.5.766,0,1.01-.643,1.01-1.619,0-1.288-.278-1.741-1.531-2.716-1.237-.975-1.9-1.6-1.9-3.308,0-1.515.453-3,2.438-3,1.968,0,2.367,1.376,2.367,2.734v.575h-1.549V7.9c0-.871-.157-1.428-.836-1.428s-.853.593-.853,1.428c0,.923.174,1.341,1.22,2.108,1.688,1.254,2.211,1.984,2.211,3.918,0,1.636-.54,3.168-2.613,3.168-2.037,0-2.559-1.306-2.559-2.838v-.679Z" transform="translate(-45.172 -0.931)" fill="#fff"></path><path id="Path_6115" data-name="Path 6115" d="M275.6,66.4l-8-6.283a4.085,4.085,0,0,0-2.325-.791V48.236a4.243,4.243,0,0,0-8.486,0v17.1a7.768,7.768,0,0,0,1.815,5l7.528,10.079v7.745a.976.976,0,0,0,.976.976h10.375a.975.975,0,0,0,.976-.974l.027-16.9A5.551,5.551,0,0,0,275.6,66.4m.912,20.78H268.09V80.089a.977.977,0,0,0-.194-.584l-7.76-10.385a5.864,5.864,0,0,1-1.39-3.788v-17.1a2.291,2.291,0,0,1,4.582,0V59.776a4.1,4.1,0,0,0-.607,6.994l6.742,5.1a.975.975,0,1,0,1.178-1.555L263.885,65.2a2.175,2.175,0,0,1,2.541-3.531l7.876,6.189-.05.038.18.082a3.6,3.6,0,0,1,2.108,3.28Z" transform="translate(-46.618 -7.987)" fill="#1b5e93"></path><path id="Path_6116" data-name="Path 6116" d="M312.391,43.994a4.247,4.247,0,0,0-4.243,4.242V59.329a4.129,4.129,0,0,0-2.351.809l-7.97,6.264a5.553,5.553,0,0,0-2.89,4.863l.027,16.895a.976.976,0,0,0,.976.974h10.374a.976.976,0,0,0,.976-.976V80.413l7.491-10.033a7.817,7.817,0,0,0,1.852-5.049v-17.1a4.247,4.247,0,0,0-4.243-4.242m2.291,21.337a5.918,5.918,0,0,1-1.427,3.834L305.533,79.5a.975.975,0,0,0-.194.584v7.094h-8.424l-.025-15.919A3.608,3.608,0,0,1,299,67.981l.18-.082-.049-.037,7.849-6.17a2.175,2.175,0,1,1,2.554,3.521l-6.742,5.1a.976.976,0,0,0,1.179,1.555l6.729-5.095a4.13,4.13,0,0,0,.895-5.765,4.076,4.076,0,0,0-1.49-1.238V48.236a2.291,2.291,0,0,1,4.582,0Z" transform="translate(-53.543 -7.987)" fill="#1b5e93"></path><path id="Path_6117" data-name="Path 6117" d="M302.162,40.16a9.609,9.609,0,0,0-15.975-7.746l-.787.7-.788-.7a9.608,9.608,0,0,0-12.767,14.362l12.907,11.472a.975.975,0,0,0,1.3,0l12.906-11.472a9.546,9.546,0,0,0,3.208-6.616m-4.5,5.158L285.4,56.214l-12.258-10.9a7.657,7.657,0,0,1,10.173-11.445l1.436,1.277a.974.974,0,0,0,1.3,0l1.436-1.277a7.657,7.657,0,1,1,10.173,11.445" transform="translate(-48.765 -5.445)" fill="#aa2b32"></path></g></svg> 