<?xml version="1.0" encoding="UTF-8"?> <svg xmlns="http://www.w3.org/2000/svg" xmlns:xlink="http://www.w3.org/1999/xlink" id="Group_542" data-name="Group 542" width="253.906" height="227.213" viewBox="0 0 253.906 227.213"><defs><linearGradient id="linear-gradient" x1="0.83" y1="0.131" x2="0.168" y2="0.865" gradientUnits="objectBoundingBox"><stop offset="0" stop-color="#dba73e"></stop><stop offset="0" stop-color="#d89d3a"></stop><stop offset="0.34" stop-color="#f4f3b8"></stop><stop offset="0.568" stop-color="#f7ed9a"></stop><stop offset="0.75" stop-color="#d5b767"></stop><stop offset="0.869" stop-color="#d0ab5b"></stop><stop offset="1" stop-color="#e0c77d"></stop></linearGradient><clipPath id="clip-path"><path id="Path_3810" data-name="Path 3810" d="M136.626,1.451a13.526,13.526,0,0,1-5.787,1.437,16.008,16.008,0,0,1-6.189-1.423c-2.207-.813-4.414-1.626-6.521-1.4-4.107.439-7.025,4.715-11.031,5.342a16.017,16.017,0,0,1-6.352-.059c-2.33-.319-4.66-.638-6.668.036-3.915,1.314-5.846,6.114-9.625,7.59-3.634,1.947-9.18.65-12.719,2.774s-4.4,7.229-7.769,9.485c-3.132,2.684-8.826,2.606-11.828,5.444s-2.736,8-5.547,10.931C44.109,44.9,38.531,46.056,36.21,49.47s-.952,8.407-3.066,11.87c-1.715,3.748-6.918,6.069-8.448,9.907s.876,8.414-.446,12.248c-.868,4.032-5.45,7.419-6.119,11.494s2.665,8.028,2.2,12.058c.018,4.126-3.727,8.414-3.508,12.54s4.328,7.268,4.74,11.3c.9,4.025-1.832,9.021-.73,13s5.791,6.167,7.061,10.02c1.747,3.738.149,9.2,2.082,12.854s6.981,4.78,9.048,8.27c2.512,3.273,2.126,8.954,4.8,12.1s7.847,3.168,10.615,6.131c3.155,2.655,4,8.288,7.288,10.79s8.34,1.407,11.681,3.706c3.651,1.918,5.69,7.237,9.436,8.973,1.925.893,4.1.757,6.277.622a13.488,13.488,0,0,1,5.931.483c3.976,1.088,7.111,5.844,11.145,6.733,2.069.458,4.165-.141,6.257-.738a13.516,13.516,0,0,1,5.9-.8c4.119.2,8.2,4.177,12.333,4.181s7.491-3.926,11.541-4.123a16.055,16.055,0,0,1,6.306.749c2.282.57,4.566,1.14,6.637.687,4.034-.885,6.472-5.447,10.387-6.508a16.054,16.054,0,0,1,6.317-.626c2.352.065,4.7.131,6.631-.759,3.75-1.73,5.15-6.71,8.745-8.587,3.407-2.329,9.058-1.638,12.349-4.132s3.588-7.663,6.693-10.268c2.824-3.008,8.5-3.547,11.171-6.692s1.856-8.252,4.332-11.464c2.113-3.546,7.535-5.288,9.471-8.938s.04-8.46,1.767-12.129c1.3-3.912,6.219-6.785,7.325-10.764s-1.779-8.271-.881-12.227c.428-4.1,4.614-7.961,4.843-12.084s-3.519-7.694-3.492-11.749c-.46-4.1,2.8-8.77,2.131-12.845s-5.089-6.759-5.935-10.727c-1.331-3.9.847-9.165-.679-13s-6.422-5.5-8.1-9.2c-2.142-3.524-1.145-9.133-3.46-12.553s-7.456-4-9.89-7.242c-2.848-2.984-3.08-8.674-6.076-11.517s-8.14-2.3-11.214-4.945c-3.425-2.3-4.877-7.808-8.413-9.941s-8.445-.494-12.016-2.42c-3.839-1.508-6.44-6.576-10.35-7.9-2.009-.676-4.158-.307-6.3.063a13.514,13.514,0,0,1-5.954.16c-4.072-.65-7.7-5.039-11.809-5.489A6.576,6.576,0,0,0,142.03,0a14.682,14.682,0,0,0-5.4,1.45" transform="translate(-16.814 -0.001)" fill="url(#linear-gradient)"></path></clipPath><clipPath id="clip-path-2"><rect id="Rectangle_656" data-name="Rectangle 656" width="253.906" height="227.213" fill="none"></rect></clipPath><clipPath id="clip-path-3"><path id="Path_3812" data-name="Path 3812" d="M70.082,183.294a91.891,91.891,0,1,1,65.107,27.046,91.871,91.871,0,0,1-65.107-27.046M68.528,51.528a94.1,94.1,0,1,0,66.661-27.685A94.06,94.06,0,0,0,68.528,51.528" transform="translate(-40.846 -23.843)" fill="none"></path></clipPath><linearGradient id="linear-gradient-3" x1="0.023" y1="0.926" x2="0.026" y2="0.926" gradientUnits="objectBoundingBox"><stop offset="0" stop-color="#482a0f"></stop><stop offset="0.1" stop-color="#a77129"></stop><stop offset="0.15" stop-color="#fff"></stop><stop offset="0.22" stop-color="#da9e41"></stop><stop offset="0.34" stop-color="#8e5923"></stop><stop offset="0.5" stop-color="#d8a64d"></stop><stop offset="0.66" stop-color="#f5e380"></stop><stop offset="0.72" stop-color="#dac164"></stop><stop offset="0.77" stop-color="#fff"></stop><stop offset="0.83" stop-color="#a0752b"></stop><stop offset="1" stop-color="#664219"></stop></linearGradient><clipPath id="clip-path-4"><path id="Path_3813" data-name="Path 3813" d="M60.055,188.179a102.413,102.413,0,1,1,72.563,30.144,102.388,102.388,0,0,1-72.563-30.144M58.326,41.325A104.872,104.872,0,1,0,132.619,10.47,104.838,104.838,0,0,0,58.326,41.325" transform="translate(-27.471 -10.47)" fill="none"></path></clipPath><linearGradient id="linear-gradient-4" x1="0.068" y1="0.886" x2="0.07" y2="0.886" xlink:href="#linear-gradient-3"></linearGradient><clipPath id="clip-path-6"><path id="Path_3844" data-name="Path 3844" d="M27.211,191.916,50.58,228.2s33.011-12.338,82.166-12.338c49.106,0,82.167,12.338,82.167,12.338l23.369-36.287s-46.713-18.4-105.536-18.4c-58.411,0-105.535,18.4-105.535,18.4" transform="translate(-27.211 -173.521)" fill="none"></path></clipPath><linearGradient id="linear-gradient-5" x1="-0.104" y1="1.592" x2="-0.1" y2="1.592" gradientUnits="objectBoundingBox"><stop offset="0" stop-color="#125775"></stop><stop offset="0.495" stop-color="#259fc9"></stop><stop offset="1" stop-color="#125775"></stop></linearGradient></defs><g id="Group_544" data-name="Group 544" transform="translate(13.583 0.001)"><g id="Group_543" data-name="Group 543" clip-path="url(#clip-path)"><rect id="Rectangle_655" data-name="Rectangle 655" width="227.94" height="227.379" transform="translate(-0.21 -0.162)" fill="url(#linear-gradient)"></rect></g></g><g id="Group_546" data-name="Group 546"><g id="Group_545" data-name="Group 545" clip-path="url(#clip-path-2)"><path id="Path_3811" data-name="Path 3811" d="M140.963,216.412a.692.692,0,1,1-1.381.086l-.263-3.942c.463-.023.923-.052,1.383-.086Zm-6.59-3.7h0v3.955a.694.694,0,0,1-1.388,0v-3.955c.233,0,.462.007.7.007s.46-.007.691-.007m-6.132-.148h0l-.251,3.941a.692.692,0,0,1-1.381-.086l.251-3.943c.46.035.92.061,1.381.087m-6.516-.582h0l-.517,3.9a.692.692,0,0,1-1.373-.18l.521-3.908c.458.063.913.128,1.368.185m-6.056-.956h0l-.765,3.861a.693.693,0,0,1-1.36-.264l.767-3.856c.451.09.906.172,1.358.259m-6.183-1.378h0l-1.016,3.79a.692.692,0,1,1-1.336-.359l1.016-3.8c.445.12.891.246,1.336.364m-5.883-1.736h0l-1.255,3.72a.692.692,0,0,1-1.311-.44l1.255-3.722c.435.15.874.3,1.312.442m-6.14-2.26h0l-1.506,3.627a.693.693,0,0,1-1.28-.533l1.506-3.621c.426.179.854.349,1.28.527m-5.6-2.491h0l-1.737,3.524a.692.692,0,0,1-1.241-.613l1.738-3.526c.414.2.822.415,1.24.616m-5.608-2.956h0l-1.966,3.411a.691.691,0,0,1-1.2-.69l1.971-3.412c.393.233.792.463,1.193.692m-5.227-3.2h0l-2.188,3.282a.691.691,0,1,1-1.151-.763l2.185-3.281c.381.258.767.51,1.154.763m-5.345-3.773h0l-2.407,3.132a.692.692,0,0,1-1.095-.847l2.4-3.126c.364.284.728.562,1.1.841m-4.766-3.859h0l-2.6,2.971a.692.692,0,1,1-1.04-.911l2.606-2.977c.342.309.687.618,1.036.917m-4.653-4.3h0l-2.8,2.8a.692.692,0,1,1-.977-.981l2.794-2.8c.327.33.652.66.979.981m-4.227-4.44h0l-2.968,2.609a.691.691,0,1,1-.913-1.038l2.963-2.61c.3.351.612.7.918,1.039m-4.191-5.024h0l-3.134,2.4a.692.692,0,0,1-.839-1.1l3.133-2.4c.278.367.558.734.841,1.1m-3.612-4.957h0l-3.275,2.192a.691.691,0,0,1-.768-1.149l3.278-2.192c.253.384.507.767.765,1.148M50.844,165.3h0l-3.416,1.971a.69.69,0,1,1-.687-1.2l3.408-1.966c.226.4.46.8.694,1.192M47.9,159.922h0l-3.524,1.746a.691.691,0,0,1-.613-1.238l3.519-1.743c.2.414.409.826.618,1.235m-2.752-5.934h0l-3.63,1.5A.691.691,0,1,1,41,154.207l3.63-1.5c.172.426.345.854.524,1.279m-2.2-5.725h0l-3.716,1.266a.693.693,0,0,1-.445-1.313l3.716-1.265q.221.657.445,1.312m-1.88-6.05h0l-3.8,1.018a.693.693,0,0,1-.357-1.339l3.792-1.018c.116.451.238.893.362,1.339m-1.44-5.961h0l-3.856.774a.694.694,0,0,1-.269-1.362l3.857-.775c.088.454.174.911.268,1.363m-1.1-6.451h0l-3.908.511a.691.691,0,1,1-.182-1.371l3.912-.511c.054.459.116.914.177,1.37m-.637-6.1h0l-3.942.258a.692.692,0,1,1-.086-1.381l3.94-.259c.027.46.054.921.088,1.381m-.251-6.33H33.691a.693.693,0,0,1,0-1.385h3.951c0,.233-.007.46-.007.694s.006.459.007.692m.15-6.13h0l-3.942-.251a.692.692,0,1,1,.089-1.381l3.94.252c-.032.456-.061.919-.086,1.381m.583-6.514h0l-3.905-.52a.691.691,0,0,1,.179-1.371l3.908.519c-.062.456-.128.91-.183,1.372m.952-6.057h0l-3.858-.767a.693.693,0,1,1,.266-1.36l3.856.765c-.094.452-.177.908-.263,1.363m1.383-6.185h0l-3.792-1.019a.692.692,0,0,1,.357-1.336l3.8,1.015c-.124.448-.246.893-.362,1.339M42.445,86.6h0l-3.718-1.257a.69.69,0,1,1,.438-1.31l3.721,1.256c-.148.437-.3.87-.441,1.31m2.26-6.14h0l-3.63-1.507a.692.692,0,0,1,.534-1.276l3.622,1.5q-.265.639-.526,1.28m2.49-5.6h0l-3.521-1.736a.692.692,0,0,1,.611-1.242l3.529,1.736c-.207.414-.414.826-.618,1.242m2.956-5.61h0l-3.408-1.968a.689.689,0,1,1,.687-1.2l3.416,1.971c-.234.4-.468.793-.694,1.192m3.2-5.228h0l-3.282-2.184a.693.693,0,0,1,.768-1.154l3.277,2.184c-.259.381-.51.767-.763,1.154m3.775-5.345h0L54,56.275a.691.691,0,1,1,.843-1.095l3.128,2.4c-.285.367-.564.732-.842,1.1m3.856-4.764h0l-2.967-2.6a.69.69,0,1,1,.908-1.04L61.9,52.88c-.3.344-.615.686-.915,1.036m4.3-4.651h0l-2.794-2.8a.693.693,0,1,1,.977-.982l2.8,2.8c-.327.327-.652.654-.979.984m4.444-4.231h0l-2.611-2.963a.693.693,0,1,1,1.038-.918l2.609,2.963q-.523.456-1.036.918m5.022-4.192h0l-2.4-3.131a.692.692,0,1,1,1.1-.84l2.4,3.13c-.366.28-.733.559-1.095.841m4.956-3.61h0l-2.192-3.277a.691.691,0,1,1,1.149-.768l2.192,3.28c-.384.252-.77.506-1.149.765m5.354-3.387h0l-1.971-3.413a.691.691,0,1,1,1.2-.687l1.966,3.407c-.4.228-.8.46-1.193.694M90.436,30.9h0l-1.742-3.521a.691.691,0,1,1,1.238-.613l1.745,3.517c-.416.205-.827.41-1.241.616m5.938-2.751h0l-1.5-3.627A.69.69,0,0,1,96.153,24l1.5,3.63c-.428.175-.853.345-1.28.523m5.724-2.194h0l-1.265-3.72a.693.693,0,0,1,1.312-.444l1.264,3.717c-.438.145-.876.3-1.311.448m6.051-1.882h0l-1.016-3.8a.693.693,0,1,1,1.339-.357l1.014,3.79c-.445.117-.891.24-1.336.364m5.959-1.44h0l-.772-3.855a.692.692,0,0,1,1.358-.27l.776,3.859c-.453.088-.908.172-1.361.266m6.45-1.1h0l-.51-3.906a.692.692,0,0,1,1.371-.183l.51,3.913c-.456.057-.913.118-1.371.175m6.1-.637h0l-.261-3.939a.692.692,0,1,1,1.381-.085l.261,3.938q-.691.036-1.381.086m6.327-.247h0V16.692a.694.694,0,1,1,1.388,0v3.954c-.232,0-.463-.007-.691-.007s-.463,0-.7.007m6.132.147h0l.251-3.941a.693.693,0,0,1,1.383.087l-.254,3.944c-.46-.033-.918-.061-1.381-.09m6.516.583h0l.519-3.9a.691.691,0,1,1,1.37.179L147,21.561q-.683-.095-1.371-.184m6.056.956h0l.765-3.86a.693.693,0,1,1,1.36.263l-.763,3.856c-.455-.093-.908-.174-1.363-.259m6.183,1.379h0l1.016-3.79a.693.693,0,1,1,1.339.358l-1.016,3.8c-.445-.124-.89-.247-1.339-.364m5.883,1.736h0l1.258-3.719a.692.692,0,0,1,1.312.439l-1.258,3.72c-.435-.147-.873-.3-1.312-.44m6.14,2.26h0l1.506-3.627a.694.694,0,0,1,1.282.53l-1.508,3.625c-.423-.183-.854-.352-1.28-.528M175.5,30.2h0l1.734-3.528a.693.693,0,0,1,1.243.615l-1.74,3.527c-.41-.209-.824-.414-1.238-.614m5.608,2.951h0l1.966-3.407a.69.69,0,1,1,1.2.684L182.3,33.845c-.4-.233-.794-.466-1.193-.694m5.227,3.2h0l2.185-3.281a.693.693,0,0,1,1.154.766l-2.185,3.28c-.382-.259-.768-.511-1.154-.764m5.345,3.775h0L194.087,37a.692.692,0,1,1,1.095.846l-2.407,3.125c-.361-.282-.728-.562-1.095-.84m4.766,3.854h0l2.6-2.969a.692.692,0,0,1,1.043.91L197.483,44.9c-.345-.306-.687-.614-1.036-.917m4.651,4.3h0l2.8-2.8a.693.693,0,0,1,.98.981l-2.8,2.8c-.325-.33-.652-.657-.979-.984m4.227,4.443h0l2.968-2.613a.694.694,0,0,1,.915,1.042l-2.963,2.6c-.3-.346-.612-.689-.92-1.033m4.194,5.021h0l3.134-2.4a.691.691,0,1,1,.839,1.1l-3.135,2.4c-.275-.368-.556-.734-.839-1.1M213.13,62.7h0l3.273-2.192a.692.692,0,0,1,.77,1.15l-3.28,2.19c-.254-.382-.5-.767-.763-1.148m3.386,5.355h0l3.413-1.971a.69.69,0,0,1,.688,1.2l-3.407,1.968q-.344-.6-.694-1.192m2.941,5.379h0l3.524-1.743a.691.691,0,0,1,.612,1.239l-3.521,1.745c-.2-.418-.408-.83-.615-1.241m2.751,5.938h0l3.63-1.5a.69.69,0,1,1,.522,1.278l-3.63,1.5c-.172-.427-.345-.856-.522-1.279M224.4,85.1h0l3.721-1.266a.693.693,0,1,1,.443,1.314l-3.715,1.261c-.145-.436-.293-.873-.448-1.309m1.885,6.047h0l3.8-1.015a.692.692,0,1,1,.359,1.336l-3.794,1.019c-.116-.447-.236-.891-.359-1.339m1.44,5.962h0l3.853-.772a.693.693,0,1,1,.271,1.36l-3.858.775c-.088-.454-.172-.909-.266-1.362m1.1,6.45h0l3.91-.508a.691.691,0,1,1,.18,1.369l-3.911.512c-.053-.459-.116-.916-.179-1.373m.64,6.1h0l3.942-.261a.692.692,0,0,1,.086,1.381l-3.941.26c-.025-.46-.052-.92-.086-1.381m.249,6.328h3.954a.693.693,0,0,1,0,1.385h-3.954c0-.233.01-.46.01-.692s-.01-.461-.01-.694m-.15,6.132h0l3.942.25a.692.692,0,1,1-.086,1.381l-3.94-.252c.03-.458.06-.918.084-1.379m-.583,6.514h0l3.908.52a.69.69,0,1,1-.179,1.368l-3.91-.516c.064-.456.128-.91.182-1.372m-.952,6.059h0l3.861.762a.693.693,0,1,1-.266,1.361l-3.856-.764c.094-.451.175-.907.261-1.359m-1.383,6.182h0l3.794,1.018a.693.693,0,0,1-.359,1.339l-3.8-1.018c.124-.445.244-.888.359-1.339m-1.732,5.885h0l3.721,1.257a.691.691,0,0,1-.441,1.31l-3.723-1.258c.153-.435.3-.872.444-1.309m-2.261,6.139h0l3.63,1.507a.693.693,0,0,1-.532,1.28l-3.624-1.506c.179-.425.351-.854.527-1.28m-2.491,5.6h0l3.524,1.738a.691.691,0,1,1-.611,1.24l-3.529-1.736c.2-.414.414-.826.616-1.242m-2.953,5.61h0l3.407,1.966a.69.69,0,0,1-.688,1.2l-3.413-1.971q.35-.593.694-1.192m-3.2,5.227h0l3.282,2.185a.692.692,0,0,1-.765,1.154l-3.281-2.185c.258-.381.51-.766.763-1.154m-3.773,5.343h0l3.13,2.408a.692.692,0,0,1-.844,1.1l-3.128-2.407c.281-.364.561-.732.842-1.1m-3.856,4.765h0l2.967,2.6a.692.692,0,1,1-.913,1.04l-2.97-2.608c.3-.346.612-.684.915-1.036m-4.3,4.652h0l2.8,2.8a.693.693,0,1,1-.98.981l-2.8-2.8c.327-.321.654-.651.979-.981m-4.441,4.229h0l2.613,2.97a.692.692,0,0,1-1.04.913l-2.606-2.963c.347-.3.689-.614,1.033-.92m-5.019,4.193h0l2.4,3.134a.692.692,0,0,1-1.1.839l-2.4-3.134c.369-.277.736-.559,1.1-.84m-4.959,3.611h0l2.19,3.277a.69.69,0,1,1-1.147.767l-2.195-3.281c.386-.254.77-.507,1.152-.763m-5.355,3.386h0l1.971,3.412a.691.691,0,0,1-1.2.69l-1.966-3.411q.6-.343,1.193-.692m-5.381,2.94h0l1.747,3.524a.693.693,0,1,1-1.242.614l-1.744-3.522c.415-.2.829-.409,1.24-.616m-5.935,2.751h0l1.5,3.629a.692.692,0,0,1-1.28.528l-1.5-3.63c.426-.175.854-.346,1.28-.527m-5.727,2.194h0l1.265,3.723a.691.691,0,1,1-1.309.445l-1.265-3.719c.438-.145.876-.294,1.309-.449m-6.048,1.886h0l1.016,3.8a.693.693,0,1,1-1.339.359l-1.014-3.79c.446-.119.891-.244,1.336-.364m-5.959,1.44h0l.772,3.854a.695.695,0,0,1-1.363.271l-.771-3.861c.453-.086.906-.172,1.361-.264m-6.452,1.1h0l.512,3.91a.691.691,0,1,1-1.371.179l-.512-3.908c.458-.057.916-.116,1.371-.181" transform="translate(-6.341 -3.074)" fill="#6c4e31" fill-rule="evenodd"></path></g></g><g id="Group_548" data-name="Group 548" transform="translate(32.997 19.261)"><g id="Group_547" data-name="Group 547" clip-path="url(#clip-path-3)"><rect id="Rectangle_657" data-name="Rectangle 657" width="266.684" height="266.684" transform="translate(-94.115 87.764) rotate(-43)" fill="url(#linear-gradient-3)"></rect></g></g><g id="Group_550" data-name="Group 550" transform="translate(22.192 8.458)"><g id="Group_549" data-name="Group 549" clip-path="url(#clip-path-4)"><rect id="Rectangle_658" data-name="Rectangle 658" width="294.509" height="294.51" transform="matrix(0.799, -0.602, 0.602, 0.799, -101.076, 76.166)" fill="url(#linear-gradient-4)"></rect></g></g><g id="Group_552" data-name="Group 552"><g id="Group_551" data-name="Group 551" clip-path="url(#clip-path-2)"><path id="Path_3814" data-name="Path 3814" d="M108.5,119c0,4.322-.572,7.771-6.338,7.771a17.2,17.2,0,0,1-2.544-.225V122.3a11.314,11.314,0,0,0,1.508.1c1.745,0,2.381-.465,2.381-2.791V94.01H108.5Z" transform="translate(-19.143 -18.065)" fill="#4d350b"></path><path id="Path_3815" data-name="Path 3815" d="M120.463,94.009v24.627c0,2.365.774,3.71,2.706,3.71,1.981,0,2.621-1.512,2.621-3.7V94.009h5v24.53c0,5.109-2.309,8.32-7.711,8.32-5.146,0-7.608-2.785-7.608-8.3V94.009Z" transform="translate(-22.189 -18.065)" fill="#4d350b"></path><path id="Path_3816" data-name="Path 3816" d="M144.634,111.908v14.477h-4.993V94.009h6.916c4.927,0,7.835,1.974,7.835,7.8v1.234c0,4.975-2.042,6.241-3.3,6.754,1.888.886,2.968,2.247,2.968,6.64a89.374,89.374,0,0,0,.3,9.947h-4.824c-.43-1.956-.339-7.274-.339-9.625,0-3.947-.507-4.852-3.406-4.852Zm0-4.123h1.145c2.642,0,3.614-1,3.614-4.517v-1.111c0-2.5-.518-4.025-3.348-4.025h-1.411Z" transform="translate(-26.833 -18.065)" fill="#4d350b"></path><rect id="Rectangle_659" data-name="Rectangle 659" width="4.993" height="32.377" transform="translate(131.274 75.944)" fill="#4d350b"></rect><path id="Path_3817" data-name="Path 3817" d="M177.275,116.734v2c0,2.409.723,3.751,2.621,3.751,1.946,0,2.449-1.844,2.449-3.947,0-3.479-.75-4.559-4.222-7.3s-5.345-4.509-5.345-9.3c0-4.268,1.291-8.574,7.136-8.568,5.976.006,6.9,4.266,6.9,7.779v1.73h-4.95v-1.6c0-2.255-.38-3.619-2.04-3.619-1.621,0-2.05,1.411-2.05,3.557,0,2.287.434,3.408,3.281,5.49,4.845,3.582,6.33,5.663,6.33,11.08,0,4.592-1.609,8.945-7.651,8.945-5.989,0-7.45-3.816-7.45-8.082v-1.921Z" transform="translate(-33.105 -17.942)" fill="#4d350b"></path><path id="Path_3818" data-name="Path 3818" d="M197.634,98.644h-5.2V94.009h15.42v4.635h-5.228v27.742h-4.994Z" transform="translate(-36.978 -18.065)" fill="#4d350b"></path><path id="Path_3819" data-name="Path 3819" d="M102.286,79.6l-.738,5.631h-3.3l3.39-21.047h4.586l3.52,21.047h-3.392l-.828-5.631Zm2.854-2.985c-.481-3.575-.941-6.967-1.182-9.346h-.119c-.09,1.734-.723,6.24-1.142,9.346Z" transform="translate(-18.879 -12.334)" fill="#4d350b"></path><path id="Path_3820" data-name="Path 3820" d="M125.171,77.4c0-3.576.039-8.03.1-10.443h-.032c-.484,3.653-1.648,12.177-2.559,18.273h-3.063c-.679-5.467-1.854-14.451-2.334-18.3h-.063c.063,2.454.161,7.216.161,10.835v7.465h-2.941V64.187h4.836c.818,5.349,1.663,11.345,1.946,14.294h.032c.343-2.986,1.483-9.247,2.326-14.294h4.673V85.233h-3.084Z" transform="translate(-21.991 -12.334)" fill="#4d350b"></path><path id="Path_3821" data-name="Path 3821" d="M142.91,75.619h-4.626v6.629h5.333l-.411,2.985h-8.167V64.187h8.128V67.2h-4.883v5.435h4.626Z" transform="translate(-25.949 -12.334)" fill="#4d350b"></path><path id="Path_3822" data-name="Path 3822" d="M150.838,75.822v9.412h-3.246V64.187h4.5c3.2,0,5.093,1.283,5.093,5.071v.8c0,3.233-1.327,4.056-2.142,4.391,1.227.576,1.929,1.461,1.929,4.316a58.166,58.166,0,0,0,.193,6.467h-3.135a45.333,45.333,0,0,1-.221-6.258c0-2.566-.33-3.155-2.213-3.155Zm0-2.68h.744c1.717,0,2.349-.648,2.349-2.937v-.721c0-1.627-.336-2.617-2.176-2.617h-.917Z" transform="translate(-28.361 -12.334)" fill="#4d350b"></path><rect id="Rectangle_660" data-name="Rectangle 660" width="3.247" height="21.047" transform="translate(131.234 51.853)" fill="#4d350b"></rect><path id="Path_3823" data-name="Path 3823" d="M179.035,78.867v.821c0,2.407-.4,5.78-4.852,5.78-3.9,0-4.724-2.436-4.724-5.648V69.208c0-3.248,1.474-5.4,4.78-5.4,3.947,0,4.7,2.617,4.7,5.533v.943h-3.254V68.958c0-1.4-.328-2.194-1.455-2.194-1.108,0-1.467.766-1.467,2.206V80.1c0,1.374.273,2.44,1.506,2.44,1.172,0,1.483-.927,1.483-2.493V78.867Z" transform="translate(-32.563 -12.261)" fill="#4d350b"></path><path id="Path_3824" data-name="Path 3824" d="M186.641,79.6l-.737,5.631h-3.3l3.39-21.047h4.586l3.52,21.047h-3.392l-.827-5.631Zm2.854-2.985c-.481-3.575-.941-6.967-1.182-9.346H188.2c-.091,1.734-.724,6.24-1.143,9.346Z" transform="translate(-35.089 -12.334)" fill="#4d350b"></path><path id="Path_3825" data-name="Path 3825" d="M198.757,85.234V64.187h3.759c.839,2.97,3.351,13.358,3.574,14.473h.035c-.149-2.588-.157-5.55-.157-9.007V64.187h3V85.234h-3.618c-.663-2.514-3.465-14.057-3.676-14.942h-.032c.154,2.549.141,5.4.141,9.186v5.756Z" transform="translate(-38.193 -12.334)" fill="#4d350b"></path><rect id="Rectangle_661" data-name="Rectangle 661" width="3.246" height="21.047" transform="translate(82.401 111.4)" fill="#4d350b"></rect><path id="Path_3826" data-name="Path 3826" d="M109.567,158.945V137.9h3.759c.839,2.97,3.351,13.358,3.574,14.473h.036c-.15-2.588-.158-5.55-.158-9.007V137.9h3v21.047h-3.616c-.664-2.514-3.466-14.057-3.676-14.942h-.032c.153,2.549.141,5.4.141,9.186v5.756Z" transform="translate(-21.054 -26.498)" fill="#4d350b"></path><path id="Path_3827" data-name="Path 3827" d="M127.751,152.67v1.3c0,1.567.47,2.439,1.7,2.439,1.266,0,1.593-1.2,1.593-2.566,0-2.262-.488-2.964-2.745-4.744s-3.475-2.932-3.475-6.047c0-2.774.839-5.573,4.639-5.569,3.884,0,4.484,2.773,4.484,5.056v1.125h-3.218v-1.038c0-1.465-.247-2.352-1.326-2.352-1.054,0-1.333.918-1.333,2.313,0,1.486.283,2.215,2.133,3.569,3.149,2.328,4.114,3.681,4.114,7.2,0,2.985-1.046,5.815-4.973,5.815-3.894,0-4.843-2.48-4.843-5.253V152.67Z" transform="translate(-23.925 -26.419)" fill="#4d350b"></path><path id="Path_3828" data-name="Path 3828" d="M140.985,140.91h-3.379V137.9H147.63v3.012h-3.4v18.034h-3.246Z" transform="translate(-26.442 -26.498)" fill="#4d350b"></path><rect id="Rectangle_662" data-name="Rectangle 662" width="3.246" height="21.047" transform="translate(122.633 111.4)" fill="#4d350b"></rect><path id="Path_3829" data-name="Path 3829" d="M161.028,140.91h-3.379V137.9h10.025v3.012h-3.4v18.034h-3.247Z" transform="translate(-30.294 -26.498)" fill="#4d350b"></path><path id="Path_3830" data-name="Path 3830" d="M174.9,137.9v16.008c0,1.538.5,2.413,1.759,2.413,1.288,0,1.7-.983,1.7-2.409V137.9h3.25v15.945c0,3.322-1.5,5.409-5.013,5.409-3.345,0-4.946-1.81-4.946-5.4V137.9Z" transform="translate(-32.985 -26.498)" fill="#4d350b"></path><path id="Path_3831" data-name="Path 3831" d="M189.146,140.91h-3.379V137.9h10.024v3.012h-3.4v18.034h-3.247Z" transform="translate(-35.697 -26.498)" fill="#4d350b"></path><path id="Path_3832" data-name="Path 3832" d="M207.8,149.33h-4.627v6.629h5.333l-.41,2.985h-8.167V137.9h8.128v3.012h-4.883v5.435H207.8Z" transform="translate(-38.419 -26.498)" fill="#4d350b"></path><rect id="Rectangle_663" data-name="Rectangle 663" width="2.03" height="2.155" transform="translate(112.194 191.037)" fill="#4d350b"></rect><path id="Path_3833" data-name="Path 3833" d="M149.331,241.293v-.116a6.2,6.2,0,0,1,1.536-3.955,3.589,3.589,0,0,0,.94-2.382c0-.729-.067-1.141-.57-1.141-.443,0-.612.315-.612.948v.439h-1.264v-.475c0-1,.316-2.058,1.936-2.058,1.495,0,1.881,1.011,1.881,2.207a4.388,4.388,0,0,1-1.136,3.026,5.806,5.806,0,0,0-1.163,2.327h2.5l-.191,1.181Z" transform="translate(-28.695 -44.687)" fill="#4d350b"></path><path id="Path_3834" data-name="Path 3834" d="M160.083,234.8v4.216c0,1.267-.392,2.381-2.081,2.381-1.559,0-1.976-1.1-1.976-2.365v-4.219c0-1.3.638-2.26,2.05-2.26,1.475,0,2.007,1.079,2.007,2.247m-2.712-.09v4.521c0,.562.191.962.679.962s.677-.376.677-1v-4.5c0-.6-.188-.944-.679-.944s-.678.382-.678.965" transform="translate(-29.982 -44.687)" fill="#4d350b"></path><path id="Path_3835" data-name="Path 3835" d="M163.477,241.307V234.2a4.751,4.751,0,0,1-.835.019v-1.008a1.665,1.665,0,0,0,1.167-.584h1v8.679Z" transform="translate(-31.253 -44.702)" fill="#4d350b"></path><path id="Path_3836" data-name="Path 3836" d="M171.169,232.68v1.076a20.639,20.639,0,0,0-2.069,7.561h-1.39a21.7,21.7,0,0,1,2.064-7.4h-2.4V232.68Z" transform="translate(-32.163 -44.712)" fill="#4d350b"></path><rect id="Rectangle_664" data-name="Rectangle 664" width="2.03" height="2.155" transform="translate(145.308 191.037)" fill="#4d350b"></rect><path id="Path_3837" data-name="Path 3837" d="M155.939,44.395l1.234,2.5,2.758.4-2,1.945.472,2.747-2.467-1.3-2.467,1.3.472-2.747-2-1.945,2.758-.4Z" transform="translate(-29.198 -8.531)" fill="#4d350b"></path><path id="Path_3838" data-name="Path 3838" d="M139.993,47.074l1.019,2.065,2.279.33-1.649,1.608.389,2.269-2.038-1.072-2.038,1.072.389-2.269L136.7,49.469l2.279-.33Z" transform="translate(-26.267 -9.046)" fill="#4d350b"></path><path id="Path_3839" data-name="Path 3839" d="M125.738,49.775l.84,1.7,1.878.273L127.1,53.075l.321,1.872-1.68-.884-1.68.884.321-1.872L123.02,51.75l1.878-.273Z" transform="translate(-23.639 -9.565)" fill="#4d350b"></path><path id="Path_3840" data-name="Path 3840" d="M171,47.074l1.019,2.065,2.279.33-1.649,1.608.389,2.269L171,52.274l-2.038,1.072.389-2.269L167.7,49.469l2.279-.33Z" transform="translate(-32.226 -9.046)" fill="#4d350b"></path><path id="Path_3841" data-name="Path 3841" d="M186.03,49.775l.84,1.7,1.878.273-1.359,1.325.321,1.872-1.68-.884-1.68.884.321-1.872-1.359-1.325,1.878-.273Z" transform="translate(-35.225 -9.565)" fill="#4d350b"></path><path id="Path_3842" data-name="Path 3842" d="M27.226,183.116,0,189.826l24.065,11.338-7.636,21.287,25.3-8.175Z" transform="translate(0 -35.188)" fill="#125775"></path><path id="Path_3843" data-name="Path 3843" d="M277.151,183.116l27.227,6.71-24.065,11.338,7.636,21.287-25.3-8.175Z" transform="translate(-50.471 -35.188)" fill="#125775"></path></g></g><g id="Group_554" data-name="Group 554" transform="translate(21.982 140.177)"><g id="Group_553" data-name="Group 553" clip-path="url(#clip-path-6)"><rect id="Rectangle_666" data-name="Rectangle 666" width="211.072" height="54.682" transform="translate(0 0)" fill="url(#linear-gradient-5)"></rect></g></g><g id="Group_556" data-name="Group 556"><g id="Group_555" data-name="Group 555" clip-path="url(#clip-path-2)"><path id="Path_3845" data-name="Path 3845" d="M60.577,201.355l-3.479.771-.595-2.686,9.858-2.183.595,2.685-3.483.771,4.189,18.912-2.9.641Z" transform="translate(-10.858 -37.905)" fill="#fff"></path><path id="Path_3846" data-name="Path 3846" d="M81.395,200.384l1.94,10.5c.743,4.023-.585,6.283-4.084,6.929-3.466.64-5.289-1.168-6-5.019L71.3,202.235c-.734-3.968.835-6.241,4.008-6.827,3.264-.6,5.371,1.105,6.086,4.976m-7.162,1.08,2.048,11.088c.384,2.075,1.3,2.839,2.617,2.6,1.4-.259,1.922-1.241,1.517-3.434l-2.037-11.029c-.364-1.972-1.194-2.873-2.642-2.6-1.36.25-1.883,1.32-1.5,3.384" transform="translate(-13.667 -37.527)" fill="#fff"></path><path id="Path_3847" data-name="Path 3847" d="M85.945,193.944l4.5-.667c3.382-.5,5.31.937,5.862,4.666l.195,1.307c.515,3.478-.288,6.06-4.364,6.665l-1.392.207,1.373,9.273-2.935.436Zm4.446,9.754,1.083-.16c2.264-.336,2.424-1.742,2.1-3.937l-.166-1.117c-.247-1.667-.787-3.029-2.821-2.728l-1.343.2Z" transform="translate(-16.515 -37.122)" fill="#fff"></path><path id="Path_3848" data-name="Path 3848" d="M108.622,213.2l-2.058-18.567a9.7,9.7,0,0,1-2.178.464l-.251-2.264a4.478,4.478,0,0,0,2.771-1.827l2.214-.245,2.451,22.111Z" transform="translate(-20.011 -36.657)" fill="#fff"></path><path id="Path_3849" data-name="Path 3849" d="M124.216,194.916l.945,10.962c.3,3.427-.655,6.035-4.551,6.371-3.612.311-5.047-2.037-5.344-5.474l-.947-10.971c-.308-3.572,1.256-5.86,4.521-6.141,3.375-.292,5.091,1.959,5.375,5.254m-6.926.421,1,11.566c.147,1.709.82,2.773,2.2,2.654,1.359-.117,1.856-1.134,1.688-3.079l-.994-11.513c-.162-1.889-.845-2.754-2.191-2.638-1.319.115-1.866,1.129-1.7,3.011" transform="translate(-21.96 -36.441)" fill="#fff"></path><path id="Path_3850" data-name="Path 3850" d="M137.611,204.452l-.6,6.434-3.01.141,2.56-22.268,4.2-.195,4.761,21.926-3.1.145-1.28-6.346Zm3.048-2.874c-.815-4.193-1.5-7.815-1.84-10.13l-.113,0c-.006,1.778-.5,6.644-.838,10.256Z" transform="translate(-25.751 -36.234)" fill="#fff"></path><path id="Path_3851" data-name="Path 3851" d="M149.233,191.02l-3.563.083-.065-2.751,10.094-.237.065,2.751-3.566.083.455,19.367-2.966.069Z" transform="translate(-27.98 -36.148)" fill="#fff"></path><path id="Path_3852" data-name="Path 3852" d="M162.778,190.848l-3.563-.023.017-2.752,10.1.065-.017,2.752-3.567-.023-.123,19.374-2.966-.019Z" transform="translate(-30.595 -36.14)" fill="#fff"></path><path id="Path_3853" data-name="Path 3853" d="M182.849,194.072l-.3,10.673c-.115,4.089-1.885,6.022-5.442,5.922-3.524-.1-4.929-2.247-4.82-6.163l.3-10.732c.113-4.034,2.122-5.93,5.347-5.839,3.319.093,5.023,2.2,4.913,6.139m-7.232-.441L175.3,204.9c-.058,2.11.68,3.049,2.017,3.086,1.427.04,2.139-.811,2.2-3.041l.313-11.214c.056-2.006-.567-3.059-2.041-3.1-1.383-.039-2.117.9-2.176,3" transform="translate(-33.106 -36.113)" fill="#fff"></path><path id="Path_3854" data-name="Path 3854" d="M190.8,200.837l-.574,10.062-2.962-.169,1.26-22.092,4.357.249c3.344.19,5.1,1.677,4.882,5.518l-.052.913c-.184,3.229-1.493,4.175-2.512,4.5,1.3.645,1.948,1.667,1.779,4.647a59.973,59.973,0,0,0-.179,6.813l-2.87-.165a49.432,49.432,0,0,1,.145-6.611c.158-2.764-.173-3.487-2.239-3.6Zm.141-2.47,1.06.061c1.927.11,2.594-.759,2.73-3.144l.048-.853c.105-1.838-.267-2.974-2.318-3.091l-1.116-.063Z" transform="translate(-35.985 -36.249)" fill="#fff"></path><path id="Path_3855" data-name="Path 3855" d="M201.514,211.593l1.96-22.035,3.456.307c.7,3.607,2.516,15.018,2.676,16.477l.042,0c.106-2.829.362-5.932.683-9.541l.586-6.586,2.746.245L211.7,212.5l-3.331-.3c-.606-3.345-2.557-15.717-2.746-17.019l-.033,0c-.082,2.676-.351,5.889-.7,9.857l-.6,6.8Z" transform="translate(-38.723 -36.425)" fill="#fff"></path><path id="Path_3856" data-name="Path 3856" d="M226.151,203.71l-4.87-.582-.906,7.58,5.577.667-.706,2.663-8.141-.973,2.626-21.969,8.089.967-.326,2.733-5.144-.616-.746,6.239,4.87.582Z" transform="translate(-41.719 -36.721)" fill="#fff"></path><path id="Path_3857" data-name="Path 3857" d="M232.66,214.969l1.2-7.925a2.049,2.049,0,0,0-.008-.695L231.8,192.461l3.239.49c.4,3.869.877,8.389.888,10.665l.033.006c.8-2.319,2.579-6.447,4.017-9.923l3.113.471-6.167,12.88a3.414,3.414,0,0,0-.179.747l-1.153,7.617Z" transform="translate(-44.543 -36.983)" fill="#fff"></path><path id="Path_3858" data-name="Path 3858" d="M245.76,210.826l-.242,1.31c-.333,1.8.064,2.89,1.444,3.146,1.412.262,2.088-.847,2.426-2.667.449-2.426.076-3.36-1.9-5.606-2-2.268-3-3.641-2.41-6.856.523-2.82,1.889-5.451,5.6-4.755,3.687.693,3.931,3.39,3.463,5.921l-.2,1.1-2.894-.536.189-1.02c.3-1.637.2-2.714-1.076-2.949s-1.792.805-2.079,2.359c-.322,1.741-.124,2.562,1.555,4.368,2.721,2.94,3.453,4.466,2.781,8.094-.57,3.075-2.094,5.757-5.99,5.036-3.808-.7-4.341-3.34-3.811-6.207l.236-1.273Z" transform="translate(-46.586 -37.526)" fill="#fff"></path></g></g></svg> 