<?xml version="1.0" encoding="UTF-8"?> <svg xmlns="http://www.w3.org/2000/svg" xmlns:xlink="http://www.w3.org/1999/xlink" id="Group_910" data-name="Group 910" width="225.126" height="187.841" viewBox="0 0 225.126 187.841"><defs><clipPath id="clip-path"><rect id="Rectangle_913" data-name="Rectangle 913" width="225.126" height="187.841" fill="none"></rect></clipPath><clipPath id="clip-path-3"><rect id="Rectangle_906" data-name="Rectangle 906" width="144.569" height="2.036" fill="none"></rect></clipPath><clipPath id="clip-path-4"><rect id="Rectangle_907" data-name="Rectangle 907" width="69.773" height="130.452" fill="none"></rect></clipPath><clipPath id="clip-path-7"><rect id="Rectangle_911" data-name="Rectangle 911" width="89.049" height="47.918" fill="none"></rect></clipPath></defs><g id="Group_909" data-name="Group 909" clip-path="url(#clip-path)"><g id="Group_900" data-name="Group 900"><g id="Group_899" data-name="Group 899" clip-path="url(#clip-path)"><g id="Group_892" data-name="Group 892" transform="translate(39.706 90.047)" opacity="0.15" style="isolation: isolate"><g id="Group_891" data-name="Group 891"><g id="Group_890" data-name="Group 890" clip-path="url(#clip-path-3)"><path id="Path_10698" data-name="Path 10698" d="M196.5,122.119H53.968a1.018,1.018,0,0,1,0-2.036H196.5a1.018,1.018,0,1,1,0,2.036" transform="translate(-52.95 -120.083)"></path></g></g></g><g id="Group_895" data-name="Group 895" transform="translate(10.249 49.207)" opacity="0.15" style="isolation: isolate"><g id="Group_894" data-name="Group 894"><g id="Group_893" data-name="Group 893" clip-path="url(#clip-path-4)"><path id="Path_10699" data-name="Path 10699" d="M82.423,196.072a1,1,0,0,1-.311-.049A98.708,98.708,0,0,1,20.391,66.265a1.018,1.018,0,1,1,1.893.748A96.671,96.671,0,0,0,82.733,194.084a1.018,1.018,0,0,1-.31,1.988" transform="translate(-13.668 -65.62)"></path></g></g></g><g id="Group_898" data-name="Group 898" transform="translate(145.179 49.207)" opacity="0.15" style="isolation: isolate"><g id="Group_897" data-name="Group 897"><g id="Group_896" data-name="Group 896" clip-path="url(#clip-path-4)"><path id="Path_10700" data-name="Path 10700" d="M194.624,196.072a1.018,1.018,0,0,1-.31-1.988A96.671,96.671,0,0,0,254.763,67.013a1.018,1.018,0,1,1,1.893-.748,98.6,98.6,0,0,1-61.721,129.759,1,1,0,0,1-.311.049" transform="translate(-193.605 -65.62)"></path></g></g></g></g></g><path id="Path_10701" data-name="Path 10701" d="M31.633,45.933l-.95-11L23.9,43.625l.95,10.86Z" transform="translate(-5.977 -8.739)" fill="#00cda5"></path><g id="Group_908" data-name="Group 908"><g id="Group_907" data-name="Group 907" clip-path="url(#clip-path)"><path id="Path_10702" data-name="Path 10702" d="M15.748,62.995l-4.616-5.973c-1.221,2.986-2.442,5.973-3.528,9.1l5.157,6.651Z" transform="translate(-1.902 -14.263)" fill="#00cda5"></path><path id="Path_10703" data-name="Path 10703" d="M25.162,77.023l6.651-2.307a85.185,85.185,0,0,1,3.394-9.909l-7.059,2.442Z" transform="translate(-6.294 -16.21)" fill="#00cda5"></path><path id="Path_10704" data-name="Path 10704" d="M8.416,90.556l-5.7-5.294Q1.7,90.149,1.087,95.036L7.059,100.6Z" transform="translate(-0.272 -21.326)" fill="#00cda5"></path><path id="Path_10705" data-name="Path 10705" d="M28.781,88.339l-7.33,3.937-1.358,10.182,7.466-4.073c.271-3.394.679-6.652,1.222-10.046" transform="translate(-5.026 -22.096)" fill="#00cda5"></path><path id="Path_10706" data-name="Path 10706" d="M7.194,116.533.136,111.51c0,1.222-.136,2.58-.136,3.8,0,2.172.136,4.208.136,6.381l7.059,5.022Z" transform="translate(0 -27.892)" fill="#00cda5"></path><path id="Path_10707" data-name="Path 10707" d="M20.637,116.352l.136,10.181,7.466-5.429c-.407-3.258-.543-6.516-.679-9.775Z" transform="translate(-5.162 -27.846)" fill="#00cda5"></path><path id="Path_10708" data-name="Path 10708" d="M9.955,143.053l-8.144-3.665c.543,3.394,1.222,6.652,2.036,10.045l8.28,3.665Z" transform="translate(-0.453 -34.865)" fill="#00cda5"></path><path id="Path_10709" data-name="Path 10709" d="M32.357,142.509c-.95-3.122-1.764-6.38-2.443-9.638l-6.381,6.924,2.037,10.045Z" transform="translate(-5.886 -33.235)" fill="#00cda5"></path><path id="Path_10710" data-name="Path 10710" d="M18.01,168.4l-9.5-2.036c1.086,3.122,2.308,6.244,3.665,9.23l9.91,2.037Z" transform="translate(-2.128 -41.611)" fill="#00cda5"></path><path id="Path_10711" data-name="Path 10711" d="M40.593,162.558a80.462,80.462,0,0,1-4.208-9.231L31.5,161.744l4.208,9.367Z" transform="translate(-7.879 -38.351)" fill="#00cda5"></path><path id="Path_10712" data-name="Path 10712" d="M31.316,192.384l-10.86-.136c1.629,2.85,3.53,5.7,5.43,8.416l11.267.136Z" transform="translate(-5.117 -48.087)" fill="#00cda5"></path><path id="Path_10713" data-name="Path 10713" d="M53.265,182.245a70.021,70.021,0,0,1-5.837-8.28l-3.258,9.094,5.837,8.417Z" transform="translate(-11.048 -43.513)" fill="#00cda5"></path><path id="Path_10714" data-name="Path 10714" d="M38.377,216.1c2.172,2.443,4.48,4.751,6.923,7.059l11.945-2.443L49.78,213.79Z" transform="translate(-9.599 -53.475)" fill="#00cda5"></path><path id="Path_10715" data-name="Path 10715" d="M69.693,199.488a91.766,91.766,0,0,1-7.466-7.059l-1.222,9.91,7.466,6.923Z" transform="translate(-15.259 -48.132)" fill="#00cda5"></path><path id="Path_10716" data-name="Path 10716" d="M64.083,237.91c1.9,1.357,3.937,2.715,5.973,3.937l2.172,1.086,10.86-5.837-9.23-4.48Z" transform="translate(-16.029 -58.184)" fill="#00cda5"></path><path id="Path_10717" data-name="Path 10717" d="M79.47,207.273l1.9,11.538,9.231,4.48-1.764-10.045a98.887,98.887,0,0,1-9.367-5.973" transform="translate(-19.878 -51.845)" fill="#00cda5"></path><path id="Path_10718" data-name="Path 10718" d="M273.843,43.625l-6.787-8.688-.95,11,6.787,8.552Z" transform="translate(-66.561 -8.739)" fill="#00cda5"></path><path id="Path_10719" data-name="Path 10719" d="M289.818,65.936c-1.086-3.122-2.172-6.108-3.53-9.1l-4.615,5.973,2.986,9.774Z" transform="translate(-70.454 -14.218)" fill="#00cda5"></path><path id="Path_10720" data-name="Path 10720" d="M271.806,77.023l-2.987-9.774-7.059-2.442a85.177,85.177,0,0,1,3.394,9.909Z" transform="translate(-65.474 -16.21)" fill="#00cda5"></path><path id="Path_10721" data-name="Path 10721" d="M290.634,100.6l5.973-5.566c-.407-3.258-.95-6.651-1.629-9.774l-5.7,5.294Z" transform="translate(-72.356 -21.326)" fill="#00cda5"></path><path id="Path_10722" data-name="Path 10722" d="M269.862,98.384l7.465,4.073L275.97,92.276l-7.33-3.937c.543,3.394.95,6.651,1.222,10.045" transform="translate(-67.194 -22.096)" fill="#00cda5"></path><path id="Path_10723" data-name="Path 10723" d="M297.738,111.511l-7.059,5.023-.136,10.181,7.059-5.023c.136-2.037.136-4.208.136-6.38a35.506,35.506,0,0,0,0-3.8" transform="translate(-72.673 -27.892)" fill="#00cda5"></path><path id="Path_10724" data-name="Path 10724" d="M277.147,116.352l-6.923-5.023a78.853,78.853,0,0,1-.679,9.775l7.466,5.429Z" transform="translate(-67.421 -27.846)" fill="#00cda5"></path><path id="Path_10725" data-name="Path 10725" d="M284.932,153.1l8.28-3.665c.815-3.257,1.494-6.651,2.037-10.045l-8.145,3.665Z" transform="translate(-71.269 -34.865)" fill="#00cda5"></path><path id="Path_10726" data-name="Path 10726" d="M265.2,142.509l6.787,7.33,2.037-10.045-6.381-6.924c-.679,3.258-1.493,6.516-2.443,9.638" transform="translate(-66.334 -33.235)" fill="#00cda5"></path><path id="Path_10727" data-name="Path 10727" d="M273.528,177.809l9.91-2.036c1.357-2.987,2.579-6.108,3.665-9.231l-9.5,2.036Z" transform="translate(-68.417 -41.657)" fill="#00cda5"></path><path id="Path_10728" data-name="Path 10728" d="M265.968,161.925l-4.887-8.417a80.274,80.274,0,0,1-4.208,9.231l5.023,8.552Z" transform="translate(-64.251 -38.397)" fill="#00cda5"></path><path id="Path_10729" data-name="Path 10729" d="M257.6,200.8l11.267-.136c1.9-2.715,3.665-5.43,5.43-8.417l-10.86.136Z" transform="translate(-64.432 -48.086)" fill="#00cda5"></path><path id="Path_10730" data-name="Path 10730" d="M253.3,183.24l-3.258-9.1c-1.764,2.851-3.8,5.566-5.837,8.281l3.258,9.231Z" transform="translate(-61.082 -43.558)" fill="#00cda5"></path><path id="Path_10731" data-name="Path 10731" d="M236.78,220.713l11.945,2.443c2.444-2.307,4.751-4.615,6.923-7.059l-11.267-2.307Z" transform="translate(-59.225 -53.475)" fill="#00cda5"></path><path id="Path_10732" data-name="Path 10732" d="M228.951,209.261l7.466-6.923-1.222-9.91a91.765,91.765,0,0,1-7.466,7.059Z" transform="translate(-56.961 -48.132)" fill="#00cda5"></path><path id="Path_10733" data-name="Path 10733" d="M210.893,237.1l10.86,5.837,2.172-1.086c2.037-1.222,4.073-2.58,5.973-3.937l-9.909-5.294Z" transform="translate(-52.75 -58.184)" fill="#00cda5"></path><path id="Path_10734" data-name="Path 10734" d="M217.137,207.273a84.168,84.168,0,0,1-9.367,5.973l-1.764,10.045,9.231-4.48Z" transform="translate(-51.528 -51.845)" fill="#00cda5"></path><g id="Group_906" data-name="Group 906" transform="translate(65.022)" opacity="0"><g id="Group_905" data-name="Group 905"><g id="Group_904" data-name="Group 904" clip-path="url(#clip-path-7)"><path id="Path_10735" data-name="Path 10735" d="M143.008,6.923l17.1,17.1-5.837,5.837,3.53,3.394,9.23-9.231L143.008,0l-9.231,9.23,3.394,3.53Z" transform="translate(-98.483 0)" fill="#fff"></path><g id="Group_903" data-name="Group 903" opacity="0.75" style="isolation: isolate"><g id="Group_902" data-name="Group 902"><g id="Group_901" data-name="Group 901" clip-path="url(#clip-path-7)"><path id="Path_10736" data-name="Path 10736" d="M142.5,9.23l3.53,3.53,5.7-5.837,17.1,17.1-17.1,16.968-17.1-16.968,5.837-5.837L137.072,14.8l-5.837,5.7L110.737,0,86.711,24.027l24.027,23.891,9.231-9.231-3.394-3.529-5.837,5.837-17.1-16.968,17.1-17.1,17.1,17.1L122,29.864l3.394,3.393,5.837-5.837,20.5,20.5L175.76,24.027,151.733,0Z" transform="translate(-86.711 0)" fill="#fff"></path></g></g></g><path id="Path_10737" data-name="Path 10737" d="M138.118,45.93,121.15,28.962l5.7-5.837-3.394-3.394-9.23,9.231,23.891,23.891,9.231-9.23-3.394-3.53Z" transform="translate(-93.593 -4.935)" fill="#fff"></path></g></g></g><path id="Path_10738" data-name="Path 10738" d="M175.76,24.027,151.733,0,141.552,10.317l3.393,3.393,6.788-6.787,17.1,17.1-17.1,17.1-6.788-6.923-3.393-3.394-6.923-6.787,6.923-6.787-3.53-3.53L131.235,20.5l-6.787-6.787-3.53-3.393L110.737,0,86.711,24.027l24.027,23.891,10.181-10.181-3.393-3.529-6.788,6.923-17.1-17.1,17.1-17.1,6.788,6.787,3.393,3.53,6.923,6.787-6.923,6.787,3.53,3.394,6.787-6.787,6.787,6.787,3.53,3.529,10.181,10.181Z" transform="translate(-21.689 0)" fill="#00cda5"></path><path id="Path_10739" data-name="Path 10739" d="M138.118,6.923,144.9,13.71l3.53,3.53,6.787,6.787-6.787,6.787,3.393,3.394,10.317-10.181L151.828,13.71l-3.393-3.393L138.118,0,127.8,10.317l3.53,3.393ZM144.9,34.208l-6.787,6.923-6.787-6.923-3.53-3.394-6.787-6.787L127.8,17.24l-3.394-3.53L114.226,24.027l10.181,10.181,3.394,3.53,10.317,10.18,10.317-10.18Z" transform="translate(-28.571)" fill="#024b6d"></path><path id="Path_10740" data-name="Path 10740" d="M70.5,73.615H82.7v3.173H73.974v4.76h7.982v3.074H73.974v5.206H82.7V93H70.5" transform="translate(-17.635 -18.413)" fill="#024b6d"></path><path id="Path_10741" data-name="Path 10741" d="M94.536,87.134,89.527,79.9h3.918l3.074,4.809h.05L99.643,79.9h3.967L98.6,87.134l5.158,7.487H99.84l-3.172-5.008h-.051l-3.172,5.008H89.479" transform="translate(-22.381 -19.984)" fill="#024b6d"></path><path id="Path_10742" data-name="Path 10742" d="M122.5,87.152c0-2.924-1.439-4.71-3.769-4.71a3.442,3.442,0,0,0-3.521,3.521v2.379a3.443,3.443,0,0,0,3.471,3.571c2.38-.05,3.819-1.884,3.819-4.76m-10.611-7.387h3.273v1.189h.048a5.5,5.5,0,0,1,4.017-1.586c3.868,0,6.6,3.222,6.6,7.784s-2.727,7.784-6.6,7.784a5.4,5.4,0,0,1-3.966-1.586h-.051v7.437h-3.321" transform="translate(-27.987 -19.852)" fill="#024b6d"></path><path id="Path_10743" data-name="Path 10743" d="M143.348,85.663a3.319,3.319,0,0,0-3.471-3.42,3.548,3.548,0,0,0-3.521,3.42Zm-10.362,1.488c0-4.612,2.826-7.784,6.84-7.784,4.067,0,6.795,3.074,6.795,7.586v1.138H136.307c.1,2.332,1.437,3.918,3.569,3.918,1.637,0,2.727-.7,3.868-2.43l2.429,1.785a6.854,6.854,0,0,1-6.3,3.521c-4.065,0-6.891-3.124-6.891-7.736" transform="translate(-33.263 -19.852)" fill="#024b6d"></path><path id="Path_10744" data-name="Path 10744" d="M154.34,79.814h3.124V81.1h.051a3.529,3.529,0,0,1,3.122-1.536,6.733,6.733,0,0,1,1.785.248l-.595,3.271a6.5,6.5,0,0,0-1.586-.247c-1.687,0-2.58,1.141-2.58,3.521v8.229H154.34" transform="translate(-38.605 -19.902)" fill="#024b6d"></path><path id="Path_10745" data-name="Path 10745" d="M173.58,81.68v7.288c0,.941.347,1.24,1.538,1.24h1.488V93.38H174.82c-3.321,0-4.561-1.189-4.561-4.262V81.68H167.83V78.706h2.429V75.134h3.321v3.572h3.62V81.68" transform="translate(-41.979 -18.793)" fill="#024b6d"></path><path id="Path_10746" data-name="Path 10746" d="M184.658,77.945h3.321V92.67h-3.321Zm-.1-5.851h3.519v3.372h-3.519Z" transform="translate(-46.163 -18.033)" fill="#024b6d"></path><path id="Path_10747" data-name="Path 10747" d="M193.156,89.678l3.022-.792c.5,2.231,1.538,3.174,3.719,3.174,1.587,0,2.577-.6,2.577-1.488,0-1.24-1.287-1.785-3.518-2.43-2.826-.792-5.057-1.735-5.057-4.414,0-2.479,2.279-4.362,5.4-4.362a6.01,6.01,0,0,1,6.048,4.313l-3.074.843a2.986,2.986,0,0,0-2.974-2.381c-1.389,0-2.231.595-2.231,1.488,0,.842,1.041,1.24,2.924,1.785,2.975.843,5.653,1.935,5.653,5.007,0,2.679-2.28,4.462-5.752,4.462-3.767,0-6.2-1.883-6.741-5.206" transform="translate(-48.314 -19.852)" fill="#024b6d"></path><path id="Path_10748" data-name="Path 10748" d="M222.889,85.663a3.319,3.319,0,0,0-3.471-3.42,3.547,3.547,0,0,0-3.521,3.42Zm-10.362,1.488c0-4.612,2.826-7.784,6.841-7.784,4.068,0,6.795,3.074,6.795,7.586v1.138H215.85c.1,2.332,1.436,3.918,3.568,3.918,1.637,0,2.728-.7,3.869-2.43l2.428,1.785a6.855,6.855,0,0,1-6.3,3.521c-4.065,0-6.891-3.124-6.891-7.736" transform="translate(-53.159 -19.852)" fill="#024b6d"></path><path id="Path_10749" data-name="Path 10749" d="M97.382,139.069q.343,0,.742.008c.265.005.527.02.787.045a5.931,5.931,0,0,1,.727.112,1.807,1.807,0,0,1,.577.225,2.784,2.784,0,0,1,.892.87,2.421,2.421,0,0,1,.367,1.364,2.612,2.612,0,0,1-.412,1.478,2.435,2.435,0,0,1-1.177.922v.03a2.461,2.461,0,0,1,1.515.9,2.689,2.689,0,0,1,.525,1.68,3.209,3.209,0,0,1-.21,1.14,2.866,2.866,0,0,1-.622.982,3.1,3.1,0,0,1-1.02.69,3.514,3.514,0,0,1-1.4.262H93.5V139.069Zm.389,4.6a2.81,2.81,0,0,0,1.747-.427,1.548,1.548,0,0,0,.532-1.282,1.894,1.894,0,0,0-.18-.9,1.284,1.284,0,0,0-.495-.509,1.954,1.954,0,0,0-.727-.233,7.064,7.064,0,0,0-.877-.052h-2.85v3.4Zm.72,4.9a2.046,2.046,0,0,0,1.477-.511,1.86,1.86,0,0,0,.532-1.41,1.757,1.757,0,0,0-.195-.87,1.5,1.5,0,0,0-.517-.547,2.152,2.152,0,0,0-.742-.285,4.528,4.528,0,0,0-.87-.082H94.922v3.7Z" transform="translate(-23.386 -34.785)" fill="#00cda5"></path><path id="Path_10750" data-name="Path 10750" d="M112.266,150.209a3.518,3.518,0,0,1-2.19.66,3.978,3.978,0,0,1-1.612-.3,3.174,3.174,0,0,1-1.147-.84,3.558,3.558,0,0,1-.7-1.29,6.246,6.246,0,0,1-.262-1.635,4.654,4.654,0,0,1,.271-1.62,3.868,3.868,0,0,1,.757-1.274,3.44,3.44,0,0,1,1.155-.84,3.536,3.536,0,0,1,1.463-.3,3.183,3.183,0,0,1,1.717.427,3.409,3.409,0,0,1,1.095,1.087,4.3,4.3,0,0,1,.569,1.44,6.164,6.164,0,0,1,.127,1.485h-5.8a3.065,3.065,0,0,0,.12.967,2.2,2.2,0,0,0,.435.81,2.156,2.156,0,0,0,.765.562,2.651,2.651,0,0,0,1.1.21,2.206,2.206,0,0,0,1.327-.375,1.813,1.813,0,0,0,.682-1.14h1.26a3.093,3.093,0,0,1-1.125,1.965m-.307-4.979a2.181,2.181,0,0,0-.465-.7,2.23,2.23,0,0,0-.69-.464,2.186,2.186,0,0,0-.877-.172,2.219,2.219,0,0,0-.892.172,2.06,2.06,0,0,0-.683.472,2.266,2.266,0,0,0-.45.7,2.634,2.634,0,0,0-.195.847h4.455a2.636,2.636,0,0,0-.2-.855" transform="translate(-26.603 -35.711)" fill="#00cda5"></path><path id="Path_10751" data-name="Path 10751" d="M118.466,148.971a1.346,1.346,0,0,0,.472.464,2.112,2.112,0,0,0,.66.247,3.709,3.709,0,0,0,.758.076,4.675,4.675,0,0,0,.629-.046,2.334,2.334,0,0,0,.607-.164,1.139,1.139,0,0,0,.457-.352.942.942,0,0,0,.181-.592.848.848,0,0,0-.375-.75,3.191,3.191,0,0,0-.937-.412q-.562-.159-1.222-.286a6.258,6.258,0,0,1-1.223-.359,2.533,2.533,0,0,1-.937-.653,1.694,1.694,0,0,1-.375-1.169,1.862,1.862,0,0,1,.262-1.006,2.154,2.154,0,0,1,.675-.682,3.122,3.122,0,0,1,.93-.391,4.3,4.3,0,0,1,1.027-.127,6.06,6.06,0,0,1,1.215.113,2.807,2.807,0,0,1,.982.389,2.022,2.022,0,0,1,.682.75,2.846,2.846,0,0,1,.3,1.178H121.96a1.224,1.224,0,0,0-.615-1.021,1.963,1.963,0,0,0-.562-.217,2.947,2.947,0,0,0-.622-.067,3.8,3.8,0,0,0-.577.046,1.891,1.891,0,0,0-.532.157,1.076,1.076,0,0,0-.39.3.76.76,0,0,0-.149.488.714.714,0,0,0,.232.547,1.855,1.855,0,0,0,.592.361,5.114,5.114,0,0,0,.81.239c.3.065.6.133.9.2.32.07.632.155.937.254a3.082,3.082,0,0,1,.811.4,1.943,1.943,0,0,1,.569.622,1.823,1.823,0,0,1,.217.93,2.16,2.16,0,0,1-.292,1.17,2.286,2.286,0,0,1-.765.75,3.217,3.217,0,0,1-1.065.4,6.364,6.364,0,0,1-1.177.112,5.456,5.456,0,0,1-1.23-.134,3.036,3.036,0,0,1-1.035-.442,2.264,2.264,0,0,1-.72-.81,2.8,2.8,0,0,1-.3-1.222h1.275a1.435,1.435,0,0,0,.195.712" transform="translate(-29.264 -35.71)" fill="#00cda5"></path><path id="Path_10752" data-name="Path 10752" d="M130.7,142.234v1.125h-1.545v4.814a1.392,1.392,0,0,0,.037.359.371.371,0,0,0,.142.211.625.625,0,0,0,.292.1,4.246,4.246,0,0,0,.487.022h.585v1.125h-.975a4.576,4.576,0,0,1-.847-.067,1.253,1.253,0,0,1-.57-.247,1.059,1.059,0,0,1-.322-.51,2.932,2.932,0,0,1-.1-.87v-4.934h-1.32v-1.125h1.32v-2.325h1.275v2.325Z" transform="translate(-31.655 -34.995)" fill="#00cda5"></path><path id="Path_10753" data-name="Path 10753" d="M143.471,139.069a5.341,5.341,0,0,1,3.809,1.261,5.043,5.043,0,0,1,1.335,3.839,8.694,8.694,0,0,1-.3,2.393,4.468,4.468,0,0,1-.93,1.754,4.027,4.027,0,0,1-1.6,1.088,6.436,6.436,0,0,1-2.31.375H139.8V139.069Zm.12,9.509a5.876,5.876,0,0,0,.6-.038,3.321,3.321,0,0,0,.764-.179,3.509,3.509,0,0,0,.8-.413,2.7,2.7,0,0,0,.712-.734,4.106,4.106,0,0,0,.517-1.162,6.114,6.114,0,0,0,.2-1.687,7.15,7.15,0,0,0-.187-1.717,3.3,3.3,0,0,0-.616-1.291,2.7,2.7,0,0,0-1.1-.809,4.388,4.388,0,0,0-1.665-.277h-2.4v8.309Z" transform="translate(-34.967 -34.785)" fill="#00cda5"></path><path id="Path_10754" data-name="Path 10754" d="M153.7,139.069h1.275v1.56H153.7Zm1.275,10.709H153.7v-7.754h1.275Z" transform="translate(-38.444 -34.785)" fill="#00cda5"></path><path id="Path_10755" data-name="Path 10755" d="M159.916,150.763l-2.88-7.754h1.425l2.175,6.464h.03l2.115-6.464h1.335l-2.835,7.754Z" transform="translate(-39.279 -35.771)" fill="#00cda5"></path><path id="Path_10756" data-name="Path 10756" d="M167.717,145.236a3.612,3.612,0,0,1,.719-1.29,3.4,3.4,0,0,1,1.186-.862,4.342,4.342,0,0,1,3.247,0,3.424,3.424,0,0,1,1.177.862,3.636,3.636,0,0,1,.72,1.29,5.172,5.172,0,0,1,.239,1.6,5.1,5.1,0,0,1-.239,1.59,3.636,3.636,0,0,1-.72,1.282,3.33,3.33,0,0,1-1.177.855,4.44,4.44,0,0,1-3.247,0,3.309,3.309,0,0,1-1.186-.855,3.611,3.611,0,0,1-.719-1.282,5.077,5.077,0,0,1-.241-1.59,5.149,5.149,0,0,1,.241-1.6m1.3,2.85a2.632,2.632,0,0,0,.517.916,2.254,2.254,0,0,0,.773.562,2.359,2.359,0,0,0,1.875,0,2.262,2.262,0,0,0,.772-.562,2.62,2.62,0,0,0,.517-.916,4.277,4.277,0,0,0,0-2.5,2.7,2.7,0,0,0-.517-.922,2.21,2.21,0,0,0-.772-.571,2.351,2.351,0,0,0-1.875,0,2.2,2.2,0,0,0-.773.571,2.71,2.71,0,0,0-.517.922,4.276,4.276,0,0,0,0,2.5" transform="translate(-41.89 -35.71)" fill="#00cda5"></path><path id="Path_10757" data-name="Path 10757" d="M180.656,142.949v1.635h.03a3.451,3.451,0,0,1,1.14-1.395,2.863,2.863,0,0,1,1.71-.42v1.35a3.6,3.6,0,0,0-1.3.21,2.054,2.054,0,0,0-.871.615,2.545,2.545,0,0,0-.479.982,5.275,5.275,0,0,0-.15,1.327V150.7h-1.276v-7.754Z" transform="translate(-44.887 -35.71)" fill="#00cda5"></path><path id="Path_10758" data-name="Path 10758" d="M190.311,144.3a1.939,1.939,0,0,0-1.29-.4,2.377,2.377,0,0,0-1.156.254,2.053,2.053,0,0,0-.742.675,2.813,2.813,0,0,0-.4.967,5.259,5.259,0,0,0-.119,1.132,4.281,4.281,0,0,0,.127,1.05,2.8,2.8,0,0,0,.4.907,2.007,2.007,0,0,0,.7.638,2.112,2.112,0,0,0,1.034.24,2.086,2.086,0,0,0,1.477-.5,2.238,2.238,0,0,0,.653-1.395h1.3a3.566,3.566,0,0,1-1.072,2.22,3.371,3.371,0,0,1-2.348.78,4.036,4.036,0,0,1-1.566-.285,3.028,3.028,0,0,1-1.141-.81,3.492,3.492,0,0,1-.69-1.252,5.219,5.219,0,0,1-.232-1.6,5.667,5.667,0,0,1,.225-1.627,3.757,3.757,0,0,1,.682-1.319,3.2,3.2,0,0,1,1.148-.885,3.742,3.742,0,0,1,1.6-.322,4.717,4.717,0,0,1,1.237.157,3.005,3.005,0,0,1,1.02.488,2.655,2.655,0,0,1,.728.832,3.092,3.092,0,0,1,.359,1.193h-1.319a1.949,1.949,0,0,0-.63-1.141" transform="translate(-46.338 -35.711)" fill="#00cda5"></path><path id="Path_10759" data-name="Path 10759" d="M201.9,150.209a3.517,3.517,0,0,1-2.19.66,3.975,3.975,0,0,1-1.611-.3,3.171,3.171,0,0,1-1.147-.84,3.557,3.557,0,0,1-.7-1.29A6.216,6.216,0,0,1,196,146.8a4.654,4.654,0,0,1,.271-1.62,3.881,3.881,0,0,1,.757-1.274,3.447,3.447,0,0,1,1.155-.84,3.536,3.536,0,0,1,1.463-.3,3.183,3.183,0,0,1,1.717.427,3.408,3.408,0,0,1,1.095,1.087,4.3,4.3,0,0,1,.569,1.44,6.126,6.126,0,0,1,.127,1.485h-5.8a3.087,3.087,0,0,0,.12.967,2.2,2.2,0,0,0,.435.81,2.152,2.152,0,0,0,.766.562,2.645,2.645,0,0,0,1.095.21,2.206,2.206,0,0,0,1.327-.375,1.81,1.81,0,0,0,.682-1.14h1.26a3.093,3.093,0,0,1-1.125,1.965m-.307-4.979a2.2,2.2,0,0,0-.465-.7,2.239,2.239,0,0,0-.69-.464,2.188,2.188,0,0,0-.877-.172,2.223,2.223,0,0,0-.892.172,2.06,2.06,0,0,0-.683.472,2.264,2.264,0,0,0-.449.7,2.634,2.634,0,0,0-.2.847H201.8a2.635,2.635,0,0,0-.2-.855" transform="translate(-49.024 -35.711)" fill="#00cda5"></path><path id="Path_10760" data-name="Path 10760" d="M104.191,165.069v9.509h5.67v1.2h-7.094V165.069Z" transform="translate(-25.705 -41.288)" fill="#00cda5"></path><path id="Path_10761" data-name="Path 10761" d="M120.336,176.67a1.79,1.79,0,0,1-.915.2,1.1,1.1,0,0,1-.788-.277,1.2,1.2,0,0,1-.292-.907,3.04,3.04,0,0,1-1.222.907,4.222,4.222,0,0,1-2.5.157,2.315,2.315,0,0,1-.817-.375,1.783,1.783,0,0,1-.547-.667,2.242,2.242,0,0,1-.2-1,2.275,2.275,0,0,1,.225-1.079,1.96,1.96,0,0,1,.592-.682,2.691,2.691,0,0,1,.84-.4q.472-.135.967-.224.524-.106,1-.157a5.532,5.532,0,0,0,.832-.151,1.379,1.379,0,0,0,.57-.285.7.7,0,0,0,.211-.547,1.276,1.276,0,0,0-.157-.674,1.086,1.086,0,0,0-.4-.391,1.63,1.63,0,0,0-.556-.179,4.184,4.184,0,0,0-.607-.046,2.7,2.7,0,0,0-1.35.307,1.3,1.3,0,0,0-.585,1.162h-1.276a2.762,2.762,0,0,1,.3-1.215,2.262,2.262,0,0,1,.72-.8,3,3,0,0,1,1.027-.443,5.457,5.457,0,0,1,1.237-.135,7.229,7.229,0,0,1,1.043.075,2.743,2.743,0,0,1,.937.307,1.8,1.8,0,0,1,.674.651,2.08,2.08,0,0,1,.255,1.093v3.981a2.949,2.949,0,0,0,.053.658c.034.139.152.209.352.209a1.258,1.258,0,0,0,.391-.075Zm-2.07-3.987a1.6,1.6,0,0,1-.631.263q-.389.082-.817.134t-.862.12a3.206,3.206,0,0,0-.78.217,1.409,1.409,0,0,0-.562.428,1.2,1.2,0,0,0-.217.757,1.033,1.033,0,0,0,.127.532,1.066,1.066,0,0,0,.329.352,1.392,1.392,0,0,0,.472.195,2.592,2.592,0,0,0,.571.06,3.022,3.022,0,0,0,1.079-.172,2.285,2.285,0,0,0,.736-.435,1.724,1.724,0,0,0,.419-.57,1.449,1.449,0,0,0,.136-.578Z" transform="translate(-28.276 -42.214)" fill="#00cda5"></path><path id="Path_10762" data-name="Path 10762" d="M130.44,176.763l-1.575-6.164h-.03l-1.56,6.164H125.9l-2.49-7.754h1.41l1.755,6.344h.03l1.56-6.344h1.395l1.62,6.344h.031l1.739-6.344h1.32l-2.475,7.754Z" transform="translate(-30.867 -42.274)" fill="#00cda5"></path><path id="Path_10763" data-name="Path 10763" d="M142.271,177.8a7.976,7.976,0,0,1-.442.96,2.62,2.62,0,0,1-.48.637,1.627,1.627,0,0,1-.585.36,2.252,2.252,0,0,1-.742.112,3.361,3.361,0,0,1-.45-.03,2.179,2.179,0,0,1-.435-.1v-1.169a2.156,2.156,0,0,0,.382.127,1.643,1.643,0,0,0,.367.052,1.09,1.09,0,0,0,.652-.187,1.149,1.149,0,0,0,.4-.532l.525-1.3-3.074-7.709h1.44l2.265,6.344h.03l2.175-6.344h1.35Z" transform="translate(-34.614 -42.274)" fill="#00cda5"></path><path id="Path_10764" data-name="Path 10764" d="M154.855,176.209a3.517,3.517,0,0,1-2.19.66,3.975,3.975,0,0,1-1.611-.3,3.171,3.171,0,0,1-1.147-.84,3.557,3.557,0,0,1-.7-1.29,6.215,6.215,0,0,1-.263-1.635,4.653,4.653,0,0,1,.271-1.62,3.881,3.881,0,0,1,.757-1.274,3.448,3.448,0,0,1,1.155-.84,3.536,3.536,0,0,1,1.463-.3,3.184,3.184,0,0,1,1.717.427,3.408,3.408,0,0,1,1.095,1.087,4.3,4.3,0,0,1,.569,1.44,6.125,6.125,0,0,1,.127,1.485h-5.8a3.086,3.086,0,0,0,.12.967,2.2,2.2,0,0,0,.435.81,2.153,2.153,0,0,0,.766.562,2.645,2.645,0,0,0,1.095.21,2.206,2.206,0,0,0,1.327-.375,1.81,1.81,0,0,0,.682-1.14h1.26a3.093,3.093,0,0,1-1.125,1.965m-.307-4.979a2.2,2.2,0,0,0-.465-.7,2.239,2.239,0,0,0-.69-.464,2.188,2.188,0,0,0-.877-.172,2.223,2.223,0,0,0-.892.172,2.06,2.06,0,0,0-.683.472,2.264,2.264,0,0,0-.449.7,2.635,2.635,0,0,0-.2.847h4.455a2.635,2.635,0,0,0-.2-.855" transform="translate(-37.256 -42.214)" fill="#00cda5"></path><path id="Path_10765" data-name="Path 10765" d="M161.386,168.949v1.635h.03a3.451,3.451,0,0,1,1.14-1.395,2.863,2.863,0,0,1,1.71-.42v1.35a3.6,3.6,0,0,0-1.3.21,2.054,2.054,0,0,0-.871.615,2.545,2.545,0,0,0-.479.982,5.275,5.275,0,0,0-.15,1.327V176.7h-1.276v-7.754Z" transform="translate(-40.067 -42.213)" fill="#00cda5"></path><path id="Path_10766" data-name="Path 10766" d="M167.716,174.971a1.346,1.346,0,0,0,.472.464,2.1,2.1,0,0,0,.66.247,3.708,3.708,0,0,0,.757.076,4.683,4.683,0,0,0,.63-.046,2.332,2.332,0,0,0,.607-.164,1.144,1.144,0,0,0,.457-.352.946.946,0,0,0,.18-.592.846.846,0,0,0-.375-.75,3.182,3.182,0,0,0-.937-.412q-.562-.159-1.222-.286a6.25,6.25,0,0,1-1.222-.359,2.527,2.527,0,0,1-.937-.653,1.694,1.694,0,0,1-.375-1.169,1.862,1.862,0,0,1,.262-1.006,2.138,2.138,0,0,1,.675-.682,3.122,3.122,0,0,1,.93-.391,4.292,4.292,0,0,1,1.027-.127,6.071,6.071,0,0,1,1.215.113,2.807,2.807,0,0,1,.982.389,2.022,2.022,0,0,1,.682.75,2.846,2.846,0,0,1,.3,1.178H171.21a1.224,1.224,0,0,0-.615-1.021,1.964,1.964,0,0,0-.562-.217,2.947,2.947,0,0,0-.622-.067,3.8,3.8,0,0,0-.577.046,1.885,1.885,0,0,0-.532.157,1.07,1.07,0,0,0-.39.3.76.76,0,0,0-.15.488.714.714,0,0,0,.232.547,1.847,1.847,0,0,0,.592.361,5.088,5.088,0,0,0,.81.239q.45.1.9.2c.32.07.633.155.937.254a3.071,3.071,0,0,1,.811.4,1.936,1.936,0,0,1,.57.622,1.831,1.831,0,0,1,.217.93,2.167,2.167,0,0,1-.292,1.17,2.286,2.286,0,0,1-.765.75,3.217,3.217,0,0,1-1.065.4,6.37,6.37,0,0,1-1.177.112,5.457,5.457,0,0,1-1.23-.134,3.037,3.037,0,0,1-1.035-.442,2.273,2.273,0,0,1-.721-.81,2.813,2.813,0,0,1-.3-1.222h1.275a1.435,1.435,0,0,0,.195.712" transform="translate(-41.583 -42.214)" fill="#00cda5"></path><path id="Path_10767" data-name="Path 10767" d="M182.566,165.069h1.275v1.56h-1.275Zm1.275,10.709h-1.275v-7.754h1.275Z" transform="translate(-45.665 -41.288)" fill="#00cda5"></path><path id="Path_10768" data-name="Path 10768" d="M188.1,168.95v1.23h.03a2.684,2.684,0,0,1,2.52-1.41,3.383,3.383,0,0,1,1.276.21,2.092,2.092,0,0,1,.824.585,2.168,2.168,0,0,1,.442.892,4.806,4.806,0,0,1,.127,1.147v5.1h-1.275v-5.249a1.541,1.541,0,0,0-.42-1.14,1.559,1.559,0,0,0-1.155-.42,2.592,2.592,0,0,0-1.012.18,1.9,1.9,0,0,0-.713.51,2.193,2.193,0,0,0-.427.772,3.135,3.135,0,0,0-.142.967V176.7H186.9V168.95Z" transform="translate(-46.75 -42.214)" fill="#00cda5"></path><path id="Path_10769" data-name="Path 10769" d="M118.122,192.5a3.308,3.308,0,0,0-1.942-.57,3.466,3.466,0,0,0-1.641.36,3.224,3.224,0,0,0-1.125.967,4.161,4.161,0,0,0-.652,1.387,6.168,6.168,0,0,0-.211,1.62,6.891,6.891,0,0,0,.211,1.732,4.119,4.119,0,0,0,.652,1.424,3.207,3.207,0,0,0,1.132.968,3.528,3.528,0,0,0,1.65.36,3.18,3.18,0,0,0,1.252-.233,2.832,2.832,0,0,0,.944-.644,2.968,2.968,0,0,0,.622-.982,4.059,4.059,0,0,0,.271-1.23h1.424a4.859,4.859,0,0,1-1.395,3.149,4.511,4.511,0,0,1-3.239,1.125,5.163,5.163,0,0,1-2.175-.427,4.255,4.255,0,0,1-1.544-1.178,5.059,5.059,0,0,1-.923-1.769,7.56,7.56,0,0,1-.307-2.19,7.139,7.139,0,0,1,.33-2.2,5.285,5.285,0,0,1,.967-1.791,4.52,4.52,0,0,1,1.59-1.208,5.136,5.136,0,0,1,2.182-.442,5.534,5.534,0,0,1,1.59.224,4.31,4.31,0,0,1,1.334.66,3.708,3.708,0,0,1,.975,1.088,4,4,0,0,1,.511,1.506H119.18a2.649,2.649,0,0,0-1.057-1.709" transform="translate(-27.796 -47.707)" fill="#00cda5"></path><path id="Path_10770" data-name="Path 10770" d="M125.667,197.236a3.612,3.612,0,0,1,.719-1.29,3.4,3.4,0,0,1,1.186-.862,4.342,4.342,0,0,1,3.247,0,3.421,3.421,0,0,1,1.177.862,3.613,3.613,0,0,1,.72,1.29,5.148,5.148,0,0,1,.24,1.6,5.077,5.077,0,0,1-.24,1.59,3.613,3.613,0,0,1-.72,1.282,3.328,3.328,0,0,1-1.177.855,4.44,4.44,0,0,1-3.247,0,3.309,3.309,0,0,1-1.186-.855,3.611,3.611,0,0,1-.719-1.282,5.078,5.078,0,0,1-.241-1.59,5.149,5.149,0,0,1,.241-1.6m1.3,2.85a2.62,2.62,0,0,0,.517.916,2.254,2.254,0,0,0,.773.562,2.359,2.359,0,0,0,1.875,0A2.262,2.262,0,0,0,130.9,201a2.631,2.631,0,0,0,.517-.916,4.276,4.276,0,0,0,0-2.5,2.709,2.709,0,0,0-.517-.922,2.209,2.209,0,0,0-.772-.571,2.351,2.351,0,0,0-1.875,0,2.2,2.2,0,0,0-.773.571,2.7,2.7,0,0,0-.517.922,4.277,4.277,0,0,0,0,2.5" transform="translate(-31.373 -48.717)" fill="#00cda5"></path><path id="Path_10771" data-name="Path 10771" d="M138.666,194.95v1.23h.03a2.685,2.685,0,0,1,2.52-1.41,3.383,3.383,0,0,1,1.276.21,2.093,2.093,0,0,1,.824.585,2.168,2.168,0,0,1,.442.892,4.807,4.807,0,0,1,.127,1.147v5.1h-1.274v-5.249a1.541,1.541,0,0,0-.421-1.14,1.559,1.559,0,0,0-1.155-.42,2.594,2.594,0,0,0-1.012.18,1.9,1.9,0,0,0-.713.51,2.193,2.193,0,0,0-.427.772,3.135,3.135,0,0,0-.142.967V202.7h-1.276V194.95Z" transform="translate(-34.384 -48.717)" fill="#00cda5"></path><path id="Path_10772" data-name="Path 10772" d="M153.081,196.3a1.938,1.938,0,0,0-1.291-.4,2.369,2.369,0,0,0-1.154.255,2.055,2.055,0,0,0-.742.675,2.827,2.827,0,0,0-.4.967,5.308,5.308,0,0,0-.12,1.132,4.252,4.252,0,0,0,.128,1.05,2.786,2.786,0,0,0,.4.907,2,2,0,0,0,.7.637,2.109,2.109,0,0,0,1.036.24,2.084,2.084,0,0,0,1.477-.495,2.238,2.238,0,0,0,.653-1.395h1.3a3.574,3.574,0,0,1-1.072,2.22,3.37,3.37,0,0,1-2.347.78,4.035,4.035,0,0,1-1.567-.285,3.022,3.022,0,0,1-1.14-.81,3.482,3.482,0,0,1-.691-1.252,5.22,5.22,0,0,1-.232-1.6,5.667,5.667,0,0,1,.225-1.627,3.761,3.761,0,0,1,.682-1.32,3.21,3.21,0,0,1,1.147-.885,3.757,3.757,0,0,1,1.6-.322,4.683,4.683,0,0,1,1.237.157,3.022,3.022,0,0,1,1.021.487,2.663,2.663,0,0,1,.727.832,3.063,3.063,0,0,1,.361,1.193h-1.32a1.945,1.945,0,0,0-.63-1.141" transform="translate(-37.026 -48.717)" fill="#00cda5"></path><path id="Path_10773" data-name="Path 10773" d="M159.007,197.236a3.612,3.612,0,0,1,.719-1.29,3.4,3.4,0,0,1,1.186-.862,4.342,4.342,0,0,1,3.247,0,3.424,3.424,0,0,1,1.177.862,3.636,3.636,0,0,1,.72,1.29,5.172,5.172,0,0,1,.239,1.6,5.1,5.1,0,0,1-.239,1.59,3.635,3.635,0,0,1-.72,1.282,3.33,3.33,0,0,1-1.177.855,4.44,4.44,0,0,1-3.247,0,3.309,3.309,0,0,1-1.186-.855,3.611,3.611,0,0,1-.719-1.282,5.078,5.078,0,0,1-.241-1.59,5.149,5.149,0,0,1,.241-1.6m1.3,2.85a2.632,2.632,0,0,0,.517.916,2.254,2.254,0,0,0,.773.562,2.359,2.359,0,0,0,1.875,0,2.263,2.263,0,0,0,.772-.562,2.62,2.62,0,0,0,.517-.916,4.276,4.276,0,0,0,0-2.5,2.7,2.7,0,0,0-.517-.922,2.209,2.209,0,0,0-.772-.571,2.351,2.351,0,0,0-1.875,0,2.2,2.2,0,0,0-.773.571,2.71,2.71,0,0,0-.517.922,4.276,4.276,0,0,0,0,2.5" transform="translate(-39.712 -48.717)" fill="#00cda5"></path><path id="Path_10774" data-name="Path 10774" d="M171.946,194.949v1.635h.03a3.452,3.452,0,0,1,1.14-1.395,2.863,2.863,0,0,1,1.71-.42v1.35a3.6,3.6,0,0,0-1.3.21,2.054,2.054,0,0,0-.871.615,2.544,2.544,0,0,0-.479.982,5.274,5.274,0,0,0-.15,1.327V202.7h-1.276v-7.754Z" transform="translate(-42.708 -48.717)" fill="#00cda5"></path><path id="Path_10775" data-name="Path 10775" d="M182.62,201.778v-1.05h-.03a1.873,1.873,0,0,1-.99.93,3.783,3.783,0,0,1-1.484.285,3.5,3.5,0,0,1-1.568-.33,3.217,3.217,0,0,1-1.11-.885,3.867,3.867,0,0,1-.667-1.29,5.3,5.3,0,0,1-.225-1.56,5.449,5.449,0,0,1,.217-1.56,3.658,3.658,0,0,1,.66-1.282,3.18,3.18,0,0,1,1.11-.87,3.524,3.524,0,0,1,1.552-.322,3.8,3.8,0,0,1,.645.06,3.345,3.345,0,0,1,.69.2,2.993,2.993,0,0,1,.652.375,2.064,2.064,0,0,1,.517.578h.03V191.07h1.275v10.708Zm-4.582-2.752a2.847,2.847,0,0,0,.435.922,2.121,2.121,0,0,0,.75.646,2.269,2.269,0,0,0,1.072.24,2.1,2.1,0,0,0,1.83-.922,2.8,2.8,0,0,0,.412-.937,4.54,4.54,0,0,0-.007-2.167,2.723,2.723,0,0,0-.427-.937,2.185,2.185,0,0,0-.757-.652,2.365,2.365,0,0,0-1.125-.247,2.187,2.187,0,0,0-1.095.255,2.035,2.035,0,0,0-.72.675,2.923,2.923,0,0,0-.39.96,5.084,5.084,0,0,0-.12,1.11,3.955,3.955,0,0,0,.142,1.057" transform="translate(-44.159 -47.792)" fill="#00cda5"></path><path id="Path_10776" data-name="Path 10776" d="M118.538,232.9a4.614,4.614,0,0,1,.946-1.729,4.445,4.445,0,0,1,1.6-1.141,5.439,5.439,0,0,1,2.175-.413,5.909,5.909,0,0,1,1.881.293,4.56,4.56,0,0,1,1.533.849,3.944,3.944,0,0,1,1.033,1.38,4.529,4.529,0,0,1,.381,1.914,4.8,4.8,0,0,1-.316,1.8,5.127,5.127,0,0,1-.837,1.4,7.061,7.061,0,0,1-1.2,1.12q-.674.5-1.392.957-.718.435-1.435.859a11.384,11.384,0,0,0-1.316.9,5.935,5.935,0,0,0-1.022,1.033,2.912,2.912,0,0,0-.554,1.272h7.916v1.631H117.864a8.186,8.186,0,0,1,.489-2.338,6.263,6.263,0,0,1,.968-1.686,7.28,7.28,0,0,1,1.327-1.261q.739-.544,1.544-1.023.979-.609,1.718-1.12a7.6,7.6,0,0,0,1.228-1.033,3.471,3.471,0,0,0,.99-2.544,2.668,2.668,0,0,0-.239-1.142,2.792,2.792,0,0,0-.642-.88,2.752,2.752,0,0,0-.946-.565,3.38,3.38,0,0,0-1.153-.2,2.686,2.686,0,0,0-1.381.337,2.908,2.908,0,0,0-.946.881,3.667,3.667,0,0,0-.533,1.229,5.2,5.2,0,0,0-.141,1.38H118.3a6.224,6.224,0,0,1,.239-2.174" transform="translate(-29.481 -57.434)" fill="#024b6d"></path><path id="Path_10777" data-name="Path 10777" d="M134.552,235.705a11.983,11.983,0,0,1,.218-1.783,8.674,8.674,0,0,1,.5-1.653,4.389,4.389,0,0,1,.891-1.369,4.049,4.049,0,0,1,1.425-.935,6.243,6.243,0,0,1,4.11,0,4.049,4.049,0,0,1,1.425.935,4.391,4.391,0,0,1,.892,1.369,8.841,8.841,0,0,1,.5,1.653,12.087,12.087,0,0,1,.217,1.783q.043.913.043,1.762t-.043,1.761a12.062,12.062,0,0,1-.217,1.783,8.537,8.537,0,0,1-.5,1.642,4.422,4.422,0,0,1-.892,1.359,3.953,3.953,0,0,1-1.414.925,6.461,6.461,0,0,1-4.121,0,3.929,3.929,0,0,1-1.425-.925,4.42,4.42,0,0,1-.891-1.359,8.38,8.38,0,0,1-.5-1.642,11.959,11.959,0,0,1-.218-1.783q-.044-.912-.043-1.761t.043-1.762m1.968,3.686a8.188,8.188,0,0,0,.348,2.022,3.819,3.819,0,0,0,.946,1.6,2.883,2.883,0,0,0,3.653,0,3.817,3.817,0,0,0,.946-1.6,8.224,8.224,0,0,0,.348-2.022q.054-1.076.055-1.947,0-.565-.011-1.25a10.941,10.941,0,0,0-.109-1.37,10.227,10.227,0,0,0-.283-1.338,3.545,3.545,0,0,0-.544-1.141,2.807,2.807,0,0,0-.9-.794,3.049,3.049,0,0,0-2.653,0,2.8,2.8,0,0,0-.9.794,3.544,3.544,0,0,0-.544,1.141,10.224,10.224,0,0,0-.283,1.338,10.946,10.946,0,0,0-.109,1.37q-.011.685-.011,1.25,0,.871.054,1.947" transform="translate(-33.644 -57.434)" fill="#024b6d"></path><path id="Path_10778" data-name="Path 10778" d="M150.786,232.9a4.6,4.6,0,0,1,.946-1.729,4.432,4.432,0,0,1,1.6-1.141,5.435,5.435,0,0,1,2.174-.413,5.91,5.91,0,0,1,1.881.293,4.56,4.56,0,0,1,1.534.849,3.944,3.944,0,0,1,1.033,1.38,4.541,4.541,0,0,1,.38,1.914,4.8,4.8,0,0,1-.315,1.8,5.148,5.148,0,0,1-.838,1.4,7.083,7.083,0,0,1-1.2,1.12q-.675.5-1.393.957-.718.435-1.435.859a11.309,11.309,0,0,0-1.315.9,5.935,5.935,0,0,0-1.022,1.033,2.9,2.9,0,0,0-.554,1.272h7.915v1.631H150.112a8.185,8.185,0,0,1,.49-2.338,6.261,6.261,0,0,1,.967-1.686,7.3,7.3,0,0,1,1.327-1.261q.74-.544,1.544-1.023.979-.609,1.718-1.12a7.61,7.61,0,0,0,1.229-1.033,3.467,3.467,0,0,0,.989-2.544,2.668,2.668,0,0,0-.238-1.142,2.794,2.794,0,0,0-.643-.88,2.749,2.749,0,0,0-.945-.565,3.384,3.384,0,0,0-1.153-.2,2.683,2.683,0,0,0-1.381.337,2.9,2.9,0,0,0-.946.881,3.651,3.651,0,0,0-.532,1.229,5.2,5.2,0,0,0-.142,1.38h-1.848a6.206,6.206,0,0,1,.238-2.174" transform="translate(-37.547 -57.434)" fill="#024b6d"></path><path id="Path_10779" data-name="Path 10779" d="M166.8,235.705a11.887,11.887,0,0,1,.217-1.783,8.73,8.73,0,0,1,.5-1.653,4.39,4.39,0,0,1,.891-1.369,4.049,4.049,0,0,1,1.425-.935,6.243,6.243,0,0,1,4.11,0,4.049,4.049,0,0,1,1.425.935,4.389,4.389,0,0,1,.891,1.369,8.73,8.73,0,0,1,.5,1.653,11.883,11.883,0,0,1,.217,1.783q.044.913.044,1.762t-.044,1.761a11.859,11.859,0,0,1-.217,1.783,8.433,8.433,0,0,1-.5,1.642,4.42,4.42,0,0,1-.891,1.359,3.946,3.946,0,0,1-1.414.925,6.461,6.461,0,0,1-4.121,0,3.929,3.929,0,0,1-1.425-.925,4.42,4.42,0,0,1-.891-1.359,8.433,8.433,0,0,1-.5-1.642,11.863,11.863,0,0,1-.217-1.783q-.044-.912-.044-1.761t.044-1.762m1.968,3.686a8.188,8.188,0,0,0,.348,2.022,3.827,3.827,0,0,0,.946,1.6,2.884,2.884,0,0,0,3.653,0,3.817,3.817,0,0,0,.946-1.6,8.223,8.223,0,0,0,.348-2.022q.054-1.076.055-1.947,0-.565-.011-1.25a10.949,10.949,0,0,0-.109-1.37,10.227,10.227,0,0,0-.283-1.338,3.56,3.56,0,0,0-.544-1.141,2.807,2.807,0,0,0-.9-.794,3.049,3.049,0,0,0-2.653,0,2.8,2.8,0,0,0-.9.794,3.544,3.544,0,0,0-.544,1.141,10.229,10.229,0,0,0-.283,1.338,10.809,10.809,0,0,0-.109,1.37q-.01.685-.01,1.25,0,.871.054,1.947" transform="translate(-41.711 -57.434)" fill="#024b6d"></path></g></g></g></svg> 