<?xml version="1.0" encoding="UTF-8"?> <svg xmlns="http://www.w3.org/2000/svg" xmlns:xlink="http://www.w3.org/1999/xlink" id="Group_541" data-name="Group 541" width="232.039" height="231.623" viewBox="0 0 232.039 231.623"><defs><linearGradient id="linear-gradient" x1="0.619" y1="0.937" x2="0.43" y2="-0.015" gradientUnits="objectBoundingBox"><stop offset="0" stop-color="#dedfdf"></stop><stop offset="0.232" stop-color="#a6a7a4"></stop><stop offset="0.493" stop-color="#fff"></stop><stop offset="1" stop-color="#a6a7a4"></stop></linearGradient><clipPath id="clip-path"><path id="Path_3757" data-name="Path 3757" d="M40.008,6.036V203.719l82.955,24.275,82.952-24.275V6.036Z" transform="translate(-40.008 -6.036)" fill="url(#linear-gradient)"></path></clipPath><clipPath id="clip-path-2"><rect id="Rectangle_653" data-name="Rectangle 653" width="232.039" height="231.622" fill="none"></rect></clipPath></defs><path id="Path_3755" data-name="Path 3755" d="M33.93.382V205.563l87.8,25.793,87.8-25.8V.382Z" transform="translate(-5.71 -0.064)" fill="#fff"></path><path id="Path_3756" data-name="Path 3756" d="M34.2,205.228V.636H209.12V205.228l-87.459,25.736ZM33.523,0V205.811l88.138,25.812L209.8,205.811V0Z" transform="translate(-5.641)" fill="#a2a4a8"></path><g id="Group_538" data-name="Group 538" transform="translate(33.276 5.02)"><g id="Group_537" data-name="Group 537" clip-path="url(#clip-path)"><rect id="Rectangle_646" data-name="Rectangle 646" width="254.658" height="275.175" transform="matrix(0.866, -0.5, 0.5, 0.866, -96.111, 55.489)" fill="url(#linear-gradient)"></rect></g></g><path id="Path_3758" data-name="Path 3758" d="M48.313,154.673V112.1h4v38.894h9.549v3.68Z" transform="translate(-8.13 -18.863)" fill="#323333"></path><g id="Group_540" data-name="Group 540"><g id="Group_539" data-name="Group 539" clip-path="url(#clip-path-2)"><path id="Path_3759" data-name="Path 3759" d="M69.134,154.673H65.24L72.123,112.1h5.121l5.974,42.572H79.27s-1.174-9.387-1.333-10.456H70.628c-.107,1.12-1.494,10.456-1.494,10.456m5.922-31c0-.853-.533-7.2-.533-7.2s-.588,6.3-.64,7.15c-.107,1.174-2.559,16.912-2.559,16.912h6.028s-2.295-16-2.295-16.859" transform="translate(-10.978 -18.864)" fill="#323333"></path><path id="Path_3760" data-name="Path 3760" d="M108.868,154.673H104.6s-4.162-30.89-4.215-35.318c0,4.428-4.268,35.318-4.268,35.318H91.85L86.462,112.1h4S94.3,143.9,94.3,148.112c0-4.217,4-36.013,4-36.013h4.268s4,31.851,4,36.013c0-4.162,4-36.013,4-36.013h3.789Z" transform="translate(-14.549 -18.863)" fill="#323333"></path><path id="Path_3761" data-name="Path 3761" d="M135.754,115.834v15.473h9.122v3.734h-9.122v19.63h-3.949V112.1h13.659v3.734Z" transform="translate(-22.179 -18.864)" fill="#323333"></path><rect id="Rectangle_647" data-name="Rectangle 647" width="4.055" height="42.574" transform="translate(125.789 93.237)" fill="#323333"></rect><path id="Path_3762" data-name="Path 3762" d="M175.253,130.933c-.533,1.334-1.6,2.72-2.613,2.987l4.8,20.752h-4.216L168.9,134.986l-3.946.055v19.631h-3.842V112.1h8.322c3.466,0,5.174,1.708,6.028,4.536a26.979,26.979,0,0,1,.642,7.094,21.28,21.28,0,0,1-.855,7.2m-3.467-12.325c-.268-1.654-1.227-2.826-2.828-2.826h-3.949v15.632c.052,0,3.894,0,4.269-.054a2.447,2.447,0,0,0,2.24-1.709,22.4,22.4,0,0,0,.534-5.389c0-2.027-.161-5.066-.266-5.654" transform="translate(-27.112 -18.863)" fill="#323333"></path><path id="Path_3763" data-name="Path 3763" d="M201.467,154.673V124l-5.334,30.677h-3.627l-5.122-30.622v30.622h-3.628V112.1h5.123l5.494,32.865,5.761-32.865H205.1v42.574Z" transform="translate(-30.921 -18.863)" fill="#323333"></path><path id="Path_3764" data-name="Path 3764" d="M220.642,154.994c-4.7,0-7.365-2.563-7.632-6.136-.157-2.133-.157-5.281-.157-5.654h3.788c0,.533,0,2.933.16,4.855.211,2.454,1.708,3.416,4,3.416,2.613,0,4-1.5,4-5.177,0-6.455-2.828-9.709-5.76-12.857-3.1-3.307-6.3-6.562-6.3-13.445,0-5.122,2.668-8.215,7.951-8.215,5.066,0,7.361,3.413,7.629,7.414.107,1.549.16,4.428.16,4.589h-3.894c0-.107,0-2.668-.107-4.214-.159-2.455-1.068-4.11-3.787-4.11-2.829,0-3.951,1.494-3.951,4.75,0,4.642,2.349,7.361,4.964,10.189,3.309,3.627,7.043,7.416,7.043,15.525,0,6.135-2.935,9.07-8.109,9.07" transform="translate(-35.799 -18.81)" fill="#323333"></path><path id="Path_3765" data-name="Path 3765" d="M54.043,89.435V54.284H48.28V48.419h15.6a44.405,44.405,0,0,1,9.655.777,10.254,10.254,0,0,1,5.678,3.925,11.672,11.672,0,0,1,2.46,7.4,11.9,11.9,0,0,1-1.464,5.9,9.416,9.416,0,0,1-4.3,3.978,11.56,11.56,0,0,1,6.017,4.466,12.427,12.427,0,0,1,2.106,7.127,12.8,12.8,0,0,1-1.566,6.3,11.413,11.413,0,0,1-4.164,4.381,16.47,16.47,0,0,1-5.679,2.09,51.383,51.383,0,0,1-8.409.54H48.28V89.435Zm7.076-21.5h4.415q5.056,0,7.061-1.769A6.575,6.575,0,0,0,74.6,60.956q0-6.673-9.066-6.673H61.119Zm0,21.5h2.663a40.111,40.111,0,0,0,7.649-.522,6.708,6.708,0,0,0,3.961-2.461,7.757,7.757,0,0,0,1.532-4.97,7.286,7.286,0,0,0-1.465-4.634,6.988,6.988,0,0,0-3.774-2.494,26.369,26.369,0,0,0-6.521-.623H61.119Z" transform="translate(-8.124 -8.148)" fill="#323333"></path><path id="Path_3766" data-name="Path 3766" d="M98.235,89.435V54.284H92.169V48.419h38.96V62.54h-5.8V54.284H105.311V68.237h17.426V74.1H105.311V89.435H125.33V80.908h5.8V95.3H92.169V89.435Z" transform="translate(-15.51 -8.148)" fill="#323333"></path><path id="Path_3767" data-name="Path 3767" d="M144.029,95.374V78.354h5.863V82.5q4.216,7.65,11.02,7.65a8.524,8.524,0,0,0,5.865-2.123,7.079,7.079,0,0,0,2.393-5.56q0-3.337-1.955-4.8t-7.382-2.914a53.948,53.948,0,0,1-9.334-3.186,11.954,11.954,0,0,1-4.834-4.28,11.831,11.831,0,0,1-1.8-6.588,12.021,12.021,0,0,1,3.927-9.419,14.2,14.2,0,0,1,9.856-3.522,16.985,16.985,0,0,1,10.447,3.638V48.258h5.73V62.481h-5.73v-3.27a11.324,11.324,0,0,0-9.942-5.425,8.767,8.767,0,0,0-5.894,1.769,5.4,5.4,0,0,0-2.059,4.229A5.478,5.478,0,0,0,151.24,63.1a6.178,6.178,0,0,0,2.662,2.108,55.5,55.5,0,0,0,6.372,1.883,49.735,49.735,0,0,1,9,3.013,12.144,12.144,0,0,1,4.819,4.669,13.982,13.982,0,0,1,2.022,7.517,12.915,12.915,0,0,1-4.229,9.911,14.836,14.836,0,0,1-10.465,3.91A16.775,16.775,0,0,1,149.892,91.5v3.875Z" transform="translate(-24.208 -8.036)" fill="#323333"></path><path id="Path_3768" data-name="Path 3768" d="M200.841,89.66V54.509h-9.672V66.474h-5.8V48.644h37.981v17.83h-5.795V54.509h-9.639V89.66h6.1v5.863H194.843V89.66Z" transform="translate(-31.193 -8.186)" fill="#323333"></path><path id="Path_3769" data-name="Path 3769" d="M0,181.975H27.437v36.937H2.318l5.331-15.174Z" transform="translate(0 -30.622)" fill="#00518b"></path><path id="Path_3770" data-name="Path 3770" d="M27.8,227.9H2.145l.533-1.516H27.8Z" transform="translate(-0.361 -38.095)" fill="#dbdadb"></path><path id="Path_3771" data-name="Path 3771" d="M27.436,233.283H0l1.784-5.074H27.436Z" transform="translate(0 -38.402)" fill="#cc2028"></path><path id="Path_3772" data-name="Path 3772" d="M273.432,181.975H246v36.937h25.121l-5.333-15.174Z" transform="translate(-41.395 -30.622)" fill="#00518b"></path><path id="Path_3773" data-name="Path 3773" d="M246,227.9h25.65l-.53-1.516H246Z" transform="translate(-41.395 -38.095)" fill="#dbdadb"></path><path id="Path_3774" data-name="Path 3774" d="M246,233.283h27.436l-1.786-5.074H246Z" transform="translate(-41.395 -38.402)" fill="#cc2028"></path><path id="Path_3775" data-name="Path 3775" d="M30.885,222.8v9.7l-11.347-9.74Z" transform="translate(-3.288 -37.485)" fill="#323333"></path><path id="Path_3776" data-name="Path 3776" d="M245.913,222.8v9.7l10.466-9.74Z" transform="translate(-41.381 -37.485)" fill="#323333"></path><rect id="Rectangle_648" data-name="Rectangle 648" width="198.635" height="38.695" transform="translate(16.291 141.619)" fill="#005fa2"></rect><path id="Path_3777" data-name="Path 3777" d="M51.358,210.251c-7.028,0-12.273-2.642-12.273-9.246V181.7h6.17v18.768c0,2.966,2.215,4.711,6.245,4.711,3.535,0,6.031-1.745,6.031-4.671V181.7H63.7v19.657c0,5.964-5.133,8.89-12.344,8.89" transform="translate(-6.577 -30.576)" fill="#fff"></path><rect id="Rectangle_649" data-name="Rectangle 649" width="5.504" height="5.741" transform="translate(55.583 173.577)" fill="#fff"></rect><path id="Path_3778" data-name="Path 3778" d="M86.907,210.213c-8.532,0-11.6-2.57-12.737-6.14a11.745,11.745,0,0,1-.4-2.885h6.351a5.013,5.013,0,0,0,.393,1.782c.784,1.643,2.642,2.357,6.389,2.357,4.28,0,5.78-1.179,5.78-3.033,0-2.321-1.18-3.141-5.744-4-.821-.144-2.892-.541-4.14-.788-5.5-1.036-8.886-3.569-8.886-8.244,0-4.787,3.855-7.989,12.132-7.989,7.066,0,10.387,2.459,11.81,6.024a8.661,8.661,0,0,1,.644,2.715H92.151a4.045,4.045,0,0,0-.388-1.392c-.753-1.57-2.287-2.39-5.855-2.39-4.676,0-5.6,1.036-5.6,2.641,0,2.068,1.677,2.89,6.284,3.818,1.422.284,3.278.679,3.922.786,5.6,1.071,8.529,3.39,8.529,8.208,0,5.1-4.031,8.526-12.132,8.526" transform="translate(-12.414 -30.504)" fill="#fff"></path><rect id="Rectangle_650" data-name="Rectangle 650" width="5.504" height="5.741" transform="translate(85.222 173.577)" fill="#fff"></rect><path id="Path_3779" data-name="Path 3779" d="M128.59,209.894,117.241,190.8v19.091h-5.888V181.7h7.172l10.847,18.161V181.7h5.887v28.189Z" transform="translate(-18.738 -30.576)" fill="#fff"></path><path id="Path_3780" data-name="Path 3780" d="M161.784,209.742a14.073,14.073,0,0,1-7.715,1.89c-4.615,0-8.354-1.362-10.356-4.536a11.627,11.627,0,0,1-1.6-6.316,10.638,10.638,0,0,1,1.818-6.166c2-2.908,5.6-4.609,10.133-4.609,4.762,0,8.018,1.737,9.868,4.42a12.475,12.475,0,0,1,1.777,8.4H148.1a3.535,3.535,0,0,0,1.132,2.458c.872.947,2.57,1.55,4.841,1.55a9.493,9.493,0,0,0,3.821-.682,2.881,2.881,0,0,0,1.732-1.627h5.939a8.5,8.5,0,0,1-3.778,5.222m-3.1-13.274a6.213,6.213,0,0,0-4.579-1.592,7.032,7.032,0,0,0-4.762,1.48,4.3,4.3,0,0,0-1.288,2.5H159.7a3.674,3.674,0,0,0-1.014-2.385" transform="translate(-23.915 -31.973)" fill="#fff"></path><path id="Path_3781" data-name="Path 3781" d="M199.878,211.39h-7.142s-4.088-11.948-4.16-12.63c-.04-.266-.271-1.5-.271-1.5s-.222,1.231-.259,1.461c-.036.719-4.122,12.666-4.122,12.666h-7.189L169.292,190.6H175.6L180.6,206.06l4.572-15.462h6.73l4.688,15.462,4.875-15.462H207.4Z" transform="translate(-28.487 -32.073)" fill="#fff"></path><path id="Path_3782" data-name="Path 3782" d="M226.149,211.661c-7.031,0-10.357-1.4-11.232-4.8a8.51,8.51,0,0,1-.225-2.078H220.7a3.191,3.191,0,0,0,.187,1.06c.381.984,1.966,1.248,5.257,1.248,3.44,0,4.5-.6,4.5-1.816,0-1.174-1.25-1.435-4.312-1.89-.793-.114-3.285-.493-4.533-.682-4.574-.639-6.768-2.644-6.768-6.617,0-3.7,3.323-6.123,10.021-6.123,5.7,0,9.3,1.478,10.356,4.46a10.34,10.34,0,0,1,.38,2.5h-5.86a2.651,2.651,0,0,0-.266-1.134c-.417-.561-1.513-1.06-4.385-1.06-3.329,0-4.313.533-4.313,1.516,0,.9.645,1.246,3.6,1.7,1.208.187,4.119.605,4.833.717,4.995.758,7.188,2.609,7.188,6.5,0,4.311-3.252,6.5-10.436,6.5" transform="translate(-36.127 -31.965)" fill="#fff"></path><path id="Path_3783" data-name="Path 3783" d="M147.352,185.511a1.511,1.511,0,0,0,.309-.862h1.589a2.53,2.53,0,0,1-.769,1.757c.374.279.805.61,1.215.934h-2.158a2.138,2.138,0,0,1-.262-.215,4.3,4.3,0,0,1-1.56.27c-1.348,0-2.558-.24-2.612-1.283,0-.086,0-.221,0-.3.014-.642.63-1.04,1.3-1.357a2.2,2.2,0,0,1-.465-1.2v-.287c.032-.7.716-1.358,1.9-1.358a1.558,1.558,0,0,1,1.746,1.312,1.9,1.9,0,0,1,0,.249,2.014,2.014,0,0,1-1.131,1.569c.253.207.581.5.9.766m-2.562.357c0,.275.256.373.845.373a2.252,2.252,0,0,0,.5-.052c-.325-.28-.663-.543-.9-.78-.258.145-.44.3-.44.458m1.386-2.572v-.114a.328.328,0,0,0-.358-.352.371.371,0,0,0-.384.373,1.137,1.137,0,0,0,0,.151,1.029,1.029,0,0,0,.232.521c.288-.168.492-.358.511-.578" transform="translate(-24.081 -30.561)" fill="#fff"></path><path id="Path_3784" data-name="Path 3784" d="M159.842,187.352h-1.9s-.843-3.264-.864-3.444c-.012.189-.877,3.444-.877,3.444h-1.882l-1.622-5.666h1.856s.865,3.5.865,3.679c0-.176.838-3.679.838-3.679h1.782s.862,3.5.862,3.679c0-.176.85-3.679.85-3.679h1.678Z" transform="translate(-25.695 -30.573)" fill="#fff"></path><path id="Path_3785" data-name="Path 3785" d="M169.319,184.451c0,1.987-.95,2.968-3.022,2.968s-3.025-1.014-3.025-2.95c0-1.8.929-2.9,3.025-2.9,2.137,0,3.022.993,3.022,2.886m-1.753.04c0-1.123-.309-1.584-1.268-1.584-.924,0-1.253.442-1.253,1.584,0,1.2.435,1.6,1.262,1.6.794,0,1.26-.338,1.26-1.6" transform="translate(-27.474 -30.553)" fill="#fff"></path><path id="Path_3786" data-name="Path 3786" d="M176.656,184.548a1.108,1.108,0,0,1-.7.54l1.324,2.264h-1.944l-1-1.915h-1.174v1.915h-1.707v-5.666h3.586a1.782,1.782,0,0,1,1.529.6,1.875,1.875,0,0,1,.327,1.2,2.072,2.072,0,0,1-.25,1.07m-1.505-1.289c-.083-.182-.251-.239-.5-.239h-1.459v1.158h1.495c.213,0,.4-.052.459-.19a.964.964,0,0,0,.066-.363.832.832,0,0,0-.061-.365" transform="translate(-28.853 -30.573)" fill="#fff"></path><path id="Path_3787" data-name="Path 3787" d="M179.449,187.352v-5.666H181.2v4.268h2.719v1.4Z" transform="translate(-30.197 -30.573)" fill="#fff"></path><path id="Path_3788" data-name="Path 3788" d="M189.058,187.353h-3.19v-5.666h3.11a2.3,2.3,0,0,1,2.011.74,3.021,3.021,0,0,1,.413,1.984,3.4,3.4,0,0,1-.4,2.12,2.09,2.09,0,0,1-1.947.822m.663-2.942a2.328,2.328,0,0,0-.176-1.089.973.973,0,0,0-.86-.311h-1.092v3h1.092a1,1,0,0,0,.872-.322,3,3,0,0,0,.165-1.283" transform="translate(-31.277 -30.573)" fill="#fff"></path><path id="Path_3789" data-name="Path 3789" d="M201.183,184.548a1.116,1.116,0,0,1-.7.54l1.329,2.264h-1.946l-1-1.915H197.7v1.915H195.99v-5.666h3.586a1.791,1.791,0,0,1,1.531.6,1.88,1.88,0,0,1,.326,1.2,2.089,2.089,0,0,1-.25,1.07m-1.5-1.289c-.088-.182-.261-.239-.509-.239h-1.459v1.158h1.5c.208,0,.4-.052.459-.19a.963.963,0,0,0,.064-.363.891.891,0,0,0-.054-.365" transform="translate(-32.98 -30.573)" fill="#fff"></path><path id="Path_3790" data-name="Path 3790" d="M204.059,187.352v-5.666h4.815v1.334h-3.11v.823h3v1.347h-3v.843h3.142v1.319Z" transform="translate(-34.338 -30.573)" fill="#fff"></path><path id="Path_3791" data-name="Path 3791" d="M216.28,185.015a2.029,2.029,0,0,1-1.564.573c-.215,0-1.747-.009-1.747-.009v1.772h-1.746v-5.666h3.485a1.972,1.972,0,0,1,1.48.472,1.878,1.878,0,0,1,.509,1.478,1.939,1.939,0,0,1-.416,1.379m-1.4-1.742a.549.549,0,0,0-.547-.268h-1.386v1.306h1.366c.33,0,.491-.106.574-.264a.744.744,0,0,0,.07-.373.756.756,0,0,0-.077-.4" transform="translate(-35.543 -30.573)" fill="#fff"></path><path id="Path_3792" data-name="Path 3792" d="M224.579,184.451c0,1.987-.947,2.968-3.017,2.968s-3.027-1.014-3.027-2.95c0-1.8.927-2.9,3.027-2.9,2.133,0,3.017.993,3.017,2.886m-1.753.04c0-1.123-.3-1.584-1.263-1.584-.931,0-1.258.442-1.258,1.584,0,1.2.431,1.6,1.263,1.6.8,0,1.258-.338,1.258-1.6" transform="translate(-36.774 -30.553)" fill="#fff"></path><path id="Path_3793" data-name="Path 3793" d="M231.947,184.548a1.12,1.12,0,0,1-.7.54l1.322,2.264h-1.938l-1-1.915h-1.173v1.915h-1.707v-5.666h3.584a1.792,1.792,0,0,1,1.532.6,1.875,1.875,0,0,1,.329,1.2,2.143,2.143,0,0,1-.246,1.07m-1.509-1.289c-.083-.182-.256-.239-.506-.239h-1.462v1.158h1.5c.216,0,.405-.052.466-.19a.994.994,0,0,0,.061-.363.919.919,0,0,0-.054-.365" transform="translate(-38.156 -30.573)" fill="#fff"></path><path id="Path_3794" data-name="Path 3794" d="M237.472,183.052v4.3h-1.765v-4.3h-1.8v-1.366h5.371v1.366Z" transform="translate(-39.361 -30.573)" fill="#fff"></path><rect id="Rectangle_651" data-name="Rectangle 651" width="198.622" height="1.822" transform="translate(16.303 178.73)" fill="#fff"></rect><rect id="Rectangle_652" data-name="Rectangle 652" width="198.754" height="5.268" transform="translate(16.25 180.248)" fill="#e82529"></rect><path id="Path_3795" data-name="Path 3795" d="M68.187,20.311v-.216a4.524,4.524,0,0,0,2.556-4.157c0-3.134-2.381-5-6.37-5-.717,0-1.388.04-2.037.078l-1.661.069c-.907,0-1.62-.059-2.146-.1l-.741-.047c-.432,0-.621.064-.621.448,0,.332.272.384.618.455a2.347,2.347,0,0,1,1.036.405c.738.552.872,1.319.872,2.632V27.669a3.4,3.4,0,0,1-.655,2.577,2.268,2.268,0,0,1-.812.538c-.3.134-.534.239-.534.551,0,.22.176.45.343.45l.418-.033a21.558,21.558,0,0,1,2.527-.143c.447,0,.977.048,1.592.1.85.076,1.816.161,2.937.161,4.273,0,6.927-2.459,6.927-6.42a4.859,4.859,0,0,0-4.25-5.142M61.938,13.6c0-1.381.358-1.589,1.6-1.589a4.9,4.9,0,0,1,5.214,4.78c0,2.232-1.209,3.183-4.045,3.183H62.734c-.724,0-.8-.189-.8-1Zm3.3,17.28c-2.471,0-3.3-.3-3.3-2.09v-6.68c0-.91.106-1.025.935-1.025h1.7c3.613,0,5.683,1.9,5.683,5.222,0,3.037-1.689,4.574-5.019,4.574" transform="translate(-9.62 -1.84)" fill="#b62126"></path><path id="Path_3796" data-name="Path 3796" d="M87.81,30.542c-.126,0-.3.125-.567.319a5.075,5.075,0,0,1-3.126,1.159c-2.7,0-4.449-2.441-4.461-6.223H86.9c.694,0,.982,0,.982-.6a4.709,4.709,0,0,0-1.007-2.624A4.636,4.636,0,0,0,82.9,20.493c-2.867,0-5.29,3.156-5.29,6.894,0,3.518,2.346,6.274,5.344,6.274a6.107,6.107,0,0,0,4.471-1.9c.432-.429.621-.729.621-.974,0-.206-.08-.243-.232-.243m-5.3-9.235a3.127,3.127,0,0,1,3.018,3.065c0,.54-.5.583-2.048.583h-3.76c.223-2.282,1.263-3.648,2.79-3.648" transform="translate(-13.059 -3.448)" fill="#b62126"></path><path id="Path_3797" data-name="Path 3797" d="M92.514,24.03c0,1.516.716,2.461,2.548,3.376l.735.365c1.558.769,2.5,1.234,2.5,2.523a2.282,2.282,0,0,1-2.355,2.415c-1.3,0-2.219-.784-2.714-2.338a6.066,6.066,0,0,1-.189-.833c-.072-.421-.121-.7-.4-.7-.267,0-.4.218-.4.66l.026,2.452c0,.665.147.719.512.8l.182.04.437.2a4.819,4.819,0,0,0,2.295.658,3.991,3.991,0,0,0,4.01-4.236,3.448,3.448,0,0,0-2.271-3.373l-.362-.167c-1.978-.9-3.174-1.444-3.174-2.813a1.7,1.7,0,0,1,1.88-1.708,2.963,2.963,0,0,1,2.414,1.435,2.01,2.01,0,0,1,.234.591c.073.279.141.517.379.517.256,0,.289-.261.289-.54l-.027-1.658c-.029-.729-1.04-1.13-2.845-1.13a3.366,3.366,0,0,0-3.7,3.467" transform="translate(-15.521 -3.46)" fill="#b62126"></path><path id="Path_3798" data-name="Path 3798" d="M105.083,18.169a7.226,7.226,0,0,1-.823,1.277,13.755,13.755,0,0,1-1.278,1.31c-.285.259-.426.388-.426.518,0,.178.277.363.424.363h.993v7.557c0,2.855.89,3.968,3.174,3.968,1.885,0,3.26-1.094,3.26-1.662,0-.135-.117-.216-.316-.216a.927.927,0,0,0-.368.165,3.485,3.485,0,0,1-1.824.545c-1.251,0-1.907-.745-1.907-2.149V21.638h2.617l.259.031.239.029c.745,0,1.2-.787,1.2-1.517,0-.126-.019-.245-.147-.245a.588.588,0,0,0-.261.1,2.559,2.559,0,0,1-1.406.339h-2.5v-2.62c0-.239-.017-.393-.233-.393-.248,0-.431.336-.677.8" transform="translate(-17.257 -2.922)" fill="#b62126"></path><path id="Path_3799" data-name="Path 3799" d="M124.661,10.926a20.457,20.457,0,0,1-2.568.15,17.094,17.094,0,0,1-1.922-.121l-.719-.057c-.375,0-.564.076-.564.479,0,.328.235.378.533.438a1.942,1.942,0,0,1,.953.42c.793.668.793,1.364.793,2.634V27.663a3.478,3.478,0,0,1-.658,2.576,2.14,2.14,0,0,1-.749.517c-.3.143-.541.261-.541.632a.389.389,0,0,0,.317.393l.325-.019c.586-.05,1.971-.16,4.23-.16,1.443,0,2.638.067,3.6.118l1.552.061a3.429,3.429,0,0,0,3.111-1.462A5.155,5.155,0,0,0,133.3,27.9c0-.329-.112-.541-.289-.541-.194,0-.346.211-.555.5a4.657,4.657,0,0,1-1.159,1.194,11.177,11.177,0,0,1-5.788,1.381c-1.675,0-2.128-.391-2.128-1.821V14.869c0-1.22.027-2,.624-2.575a2.028,2.028,0,0,1,.742-.4c.336-.121.63-.228.63-.576a.388.388,0,0,0-.428-.422Z" transform="translate(-20.006 -1.834)" fill="#b62126"></path><path id="Path_3800" data-name="Path 3800" d="M149.016,32.309l-.566.029c-.932,0-1.071-.425-1.071-1.886V25.016c0-3.366-1.217-4.561-4.664-4.561-2.583,0-4.52,1.77-4.52,3.349a1.257,1.257,0,0,0,1.376,1.133c.4,0,.685-.21.685-.512l-.075-.462a5.128,5.128,0,0,1-.121-.985c0-1.18.612-1.616,2.26-1.616,1.949,0,3.027.972,3.027,2.737V26.11c-4.511.874-7.123,1.918-7.123,4.641a2.557,2.557,0,0,0,2.788,2.876,6.168,6.168,0,0,0,4.529-1.781,2.081,2.081,0,0,0,2.085,1.57c.975,0,1.683-.314,1.683-.746a.353.353,0,0,0-.293-.362m-3.669-2.3c0,1.5-1.334,2.592-3.167,2.592a1.931,1.931,0,0,1-2.063-2.177c0-2.042,1.84-2.84,5.23-3.589Z" transform="translate(-23.255 -3.442)" fill="#b62126"></path><path id="Path_3801" data-name="Path 3801" d="M194.848,30.542c-.128,0-.3.125-.567.319a5.088,5.088,0,0,1-3.132,1.159c-2.7,0-4.446-2.441-4.46-6.223h7.235c.7,0,.986,0,.986-.6a4.688,4.688,0,0,0-1.009-2.624,4.63,4.63,0,0,0-3.975-2.083c-2.862,0-5.289,3.156-5.289,6.894,0,3.518,2.35,6.274,5.348,6.274a6.1,6.1,0,0,0,4.468-1.9c.431-.429.625-.729.625-.974,0-.206-.081-.243-.23-.243m-5.307-9.235a3.127,3.127,0,0,1,3.018,3.065c0,.54-.5.583-2.048.583h-3.764c.223-2.282,1.263-3.648,2.793-3.648" transform="translate(-31.07 -3.448)" fill="#b62126"></path><path id="Path_3802" data-name="Path 3802" d="M200.459,20.4l-.993.524a5.969,5.969,0,0,1-1.27.409c-.43.1-.7.164-.7.479,0,.365.36.4.73.4.886,0,1.3.437,1.3,1.38v6.3a3.183,3.183,0,0,1-.491,2.075,1.861,1.861,0,0,1-.536.46c-.222.137-.416.259-.416.507a.364.364,0,0,0,.368.363l.21-.021a16.31,16.31,0,0,1,2.155-.126c.854,0,1.519.059,2,.1l.639.045c.3,0,.508-.163.508-.393,0-.419-.321-.443-.689-.473a2.013,2.013,0,0,1-.8-.178c-.867-.464-.954-1.163-.954-2.777V24.595a2.157,2.157,0,0,1,1.826-2.208,2.214,2.214,0,0,1,1.265.464,1.121,1.121,0,0,0,.536.246c.337,0,.988-.746.988-1.248a1.944,1.944,0,0,0-1.821-1.427c-.912,0-1.7.884-2.764,2.234V20.812c0-.45,0-.746-.32-.746a2.134,2.134,0,0,0-.77.338" transform="translate(-33.234 -3.377)" fill="#b62126"></path><path id="Path_3803" data-name="Path 3803" d="M208.835,24.03c0,1.516.713,2.461,2.546,3.373l.737.368c1.554.769,2.494,1.234,2.494,2.523a2.282,2.282,0,0,1-2.355,2.415c-1.3,0-2.216-.784-2.711-2.338a6.284,6.284,0,0,1-.19-.833c-.072-.421-.122-.7-.4-.7s-.4.218-.4.66l.031,2.452c0,.665.146.719.514.8l.179.04.439.2a4.825,4.825,0,0,0,2.295.658,3.992,3.992,0,0,0,4.011-4.236,3.447,3.447,0,0,0-2.272-3.373l-.36-.167c-1.98-.9-3.172-1.444-3.172-2.813a1.7,1.7,0,0,1,1.876-1.708,2.96,2.96,0,0,1,2.412,1.435,2.116,2.116,0,0,1,.237.591c.073.279.139.517.381.517s.288-.261.288-.54l-.028-1.658c-.031-.729-1.038-1.13-2.847-1.13a3.363,3.363,0,0,0-3.7,3.467" transform="translate(-35.094 -3.46)" fill="#b62126"></path><path id="Path_3804" data-name="Path 3804" d="M178.545,20.871l-.412.038a8.989,8.989,0,0,1-1.144.079,11.139,11.139,0,0,1-1.2-.074l-.546-.043c-.336,0-.482.117-.482.394,0,.357.225.384.514.419l.345.061c.436.116.67.5.67,1.113a7.514,7.514,0,0,1-.416,2.412l-1.779,5.321c-.021.1-.09.152-.131.152a.268.268,0,0,1-.076-.151l-2.693-7.036a3.371,3.371,0,0,1-.247-1.081c0-.418.263-.675.8-.791l.159-.037c.258-.059.456-.106.456-.383s-.144-.394-.48-.394l-.623.05c-.256.028-.553.1-.9.115a32.939,32.939,0,0,1-5.576-.059v0c-.156-.022-.3-.047-.425-.07l-.452-.063c-.328,0-.483.136-.483.425,0,.357.229.384.519.419l.344.061c.437.116.668.492.668,1.086a6.369,6.369,0,0,1-.5,2.232l-1.944,5.054c-.055.144-.13.181-.157.181s-.074-.021-.136-.181l-2.245-7.209a1.426,1.426,0,0,1-.087-.462c0-.462.327-.607.611-.739.23-.1.447-.2.447-.442,0-.282-.12-.394-.428-.394l-.337.029a11.1,11.1,0,0,1-1.412.088c-.656,0-1.19-.045-1.579-.079l-.586-.038c-.306,0-.483.061-.483.365s.25.4.535.512a1.465,1.465,0,0,1,1.021.945l.5,1.509a1.79,1.79,0,0,1,.11.668,1.7,1.7,0,0,1-.139.547L156.036,30.2l-.038.09c-.043.082-.071.154-.093.154s-.1-.081-.156-.271l-2.225-6.884a2.151,2.151,0,0,1-.136-.727c0-.525.36-.716.682-.886.235-.121.457-.241.457-.474a.362.362,0,0,0-.319-.392l-.207.027a11.621,11.621,0,0,1-2.177.18,7.136,7.136,0,0,1-1.064-.091l-.575-.057c-.284,0-.426.114-.426.334,0,.313.221.412.455.516a1.808,1.808,0,0,1,.389.221,3.793,3.793,0,0,1,.933,1.58l3.03,9.458c.137.442.224.676.587.676.3,0,.4-.2.564-.554,0,0,2.889-6.623,2.889-6.623.076-.159.127-.242.186-.242.037,0,.135.071.185.242l2.168,6.587c.107.37.218.559.538.559.284,0,.432-.222.562-.556l3.906-9.936a1.452,1.452,0,0,1,2.788.042c.658,1.691,3.236,8.3,3.236,8.3l.082.215a5.364,5.364,0,0,1,.472,1.9,6.441,6.441,0,0,1-.623,2.312l-.026.062c-.7,1.643-.744,1.741-1.558,1.915-1.483.319-2.178.615-2.115,1.427a1.586,1.586,0,0,0,1.465,1.087c1.233-.032,2.132-.677,3.068-3.882l.966-2.78h0l3.65-10.769a2.181,2.181,0,0,1,.7-1.133,1.232,1.232,0,0,1,.363-.116c.21-.04.409-.079.409-.418,0-.3-.141-.423-.483-.423" transform="translate(-25.201 -3.502)" fill="#b62126"></path><path id="Path_3805" data-name="Path 3805" d="M217.531,20.669a2.19,2.19,0,1,1,2.182,2.241,2.213,2.213,0,0,1-2.182-2.241m2.182-1.9a1.9,1.9,0,1,0,1.851,1.895,1.873,1.873,0,0,0-1.851-1.895m-.331,2.753c0,.182.061.17.269.17v.126h-.985v-.126c.17,0,.284.012.284-.17V19.729c0-.194-.05-.182-.279-.182v-.131h1.337a.616.616,0,0,1-.048,1.23v.014c.258.042.381.329.487.551.14.282.2.482.4.482v.126h-.432c-.284,0-.521-.867-.639-1-.1-.113-.259-.088-.4-.088Zm0-.953c.4,0,.748-.011.748-.516a.452.452,0,0,0-.509-.5c-.239,0-.239.041-.239.245Z" transform="translate(-36.605 -3.101)" fill="#b22126"></path><path id="Path_3806" data-name="Path 3806" d="M111.309,247.279a.444.444,0,0,1-.459-.459v-.639a.977.977,0,0,1,.1-.4,1.514,1.514,0,0,1,.4-.479l4.232-4.232q1.018-.857,1.607-1.467a4.21,4.21,0,0,0,.838-1.168,2.811,2.811,0,0,0,.25-1.158,2.276,2.276,0,0,0-2.535-2.475,2.74,2.74,0,0,0-1.377.329,2.4,2.4,0,0,0-.908.9,3.5,3.5,0,0,0-.429,1.288.47.47,0,0,1-.21.359.622.622,0,0,1-.309.1h-1.038a.426.426,0,0,1-.3-.11.351.351,0,0,1-.12-.269,4.514,4.514,0,0,1,.319-1.527,4.222,4.222,0,0,1,.888-1.387,4.554,4.554,0,0,1,1.457-1.008,4.914,4.914,0,0,1,2.026-.389,5.219,5.219,0,0,1,2.585.569,3.6,3.6,0,0,1,1.487,1.507,4.457,4.457,0,0,1,.479,2.056,4.189,4.189,0,0,1-.3,1.607,5.537,5.537,0,0,1-.868,1.417,11.681,11.681,0,0,1-1.407,1.407l-3.833,3.892h6.228a.5.5,0,0,1,.349.12.439.439,0,0,1,.13.339v.818a.446.446,0,0,1-.13.329.472.472,0,0,1-.349.13Z" transform="translate(-18.653 -39.222)"></path><path id="Path_3807" data-name="Path 3807" d="M130.34,247.482a5.612,5.612,0,0,1-2.326-.43,4.06,4.06,0,0,1-1.547-1.187,4.847,4.847,0,0,1-.868-1.737,9.029,9.029,0,0,1-.309-2.076q-.02-.539-.03-1.138t0-1.208q.01-.608.03-1.167a7.9,7.9,0,0,1,.309-2.086,5.1,5.1,0,0,1,.878-1.737,4.029,4.029,0,0,1,1.547-1.178,6.5,6.5,0,0,1,4.641,0,4.132,4.132,0,0,1,1.547,1.178,5.005,5.005,0,0,1,.888,1.737,7.9,7.9,0,0,1,.309,2.086q.02.559.03,1.167t0,1.208q-.01.6-.03,1.138a7.784,7.784,0,0,1-.309,2.076,5.215,5.215,0,0,1-.878,1.737,3.976,3.976,0,0,1-1.537,1.187,5.668,5.668,0,0,1-2.345.43m0-1.7a2.662,2.662,0,0,0,2.306-1.028,4.773,4.773,0,0,0,.769-2.8q.04-.579.04-1.128v-1.1q0-.549-.04-1.088a4.791,4.791,0,0,0-.769-2.785,3.038,3.038,0,0,0-4.591,0,4.893,4.893,0,0,0-.788,2.785q0,.539-.01,1.088t0,1.1q.01.549.01,1.128a4.822,4.822,0,0,0,.8,2.8,2.646,2.646,0,0,0,2.276,1.028" transform="translate(-21.077 -39.226)"></path><path id="Path_3808" data-name="Path 3808" d="M144.608,247.323a.444.444,0,0,1-.459-.459V235.685l-3.314,2.555a.465.465,0,0,1-.339.1.421.421,0,0,1-.3-.18l-.519-.659a.489.489,0,0,1-.09-.359.461.461,0,0,1,.19-.3l4.352-3.354a.64.64,0,0,1,.259-.12,1.582,1.582,0,0,1,.26-.02h1.018a.414.414,0,0,1,.319.13.467.467,0,0,1,.12.329v13.055a.467.467,0,0,1-.12.329.414.414,0,0,1-.319.13Z" transform="translate(-23.488 -39.267)"></path><path id="Path_3809" data-name="Path 3809" d="M155.847,247.483a7.4,7.4,0,0,1-2.126-.29,4.828,4.828,0,0,1-1.657-.838A3.8,3.8,0,0,1,151,245.027a3.959,3.959,0,0,1-.379-1.757,3.674,3.674,0,0,1,.589-2.1,3.786,3.786,0,0,1,1.567-1.338,3.571,3.571,0,0,1-1.068-4.98,3.834,3.834,0,0,1,1.657-1.288,6.973,6.973,0,0,1,4.95-.01,3.738,3.738,0,0,1,1.657,1.288,3.484,3.484,0,0,1-1.048,4.99,3.786,3.786,0,0,1,1.567,1.338,3.674,3.674,0,0,1,.589,2.1,3.835,3.835,0,0,1-.659,2.246,4.2,4.2,0,0,1-1.836,1.457,6.829,6.829,0,0,1-2.735.51m0-1.6a4.12,4.12,0,0,0,1.657-.32,2.826,2.826,0,0,0,1.178-.908,2.254,2.254,0,0,0,.439-1.387,2.2,2.2,0,0,0-.439-1.387,2.833,2.833,0,0,0-1.178-.877,4.25,4.25,0,0,0-1.657-.31,4.325,4.325,0,0,0-1.667.31,2.824,2.824,0,0,0-1.188.877,2.2,2.2,0,0,0-.439,1.387,2.254,2.254,0,0,0,.439,1.387,2.815,2.815,0,0,0,1.188.908,4.192,4.192,0,0,0,1.667.32m0-6.768a3.5,3.5,0,0,0,1.407-.279,2.657,2.657,0,0,0,1.038-.759,1.777,1.777,0,0,0,.389-1.158,1.927,1.927,0,0,0-.369-1.178,2.354,2.354,0,0,0-1.018-.768,4.009,4.009,0,0,0-2.894,0,2.426,2.426,0,0,0-1.028.768,2.034,2.034,0,0,0,0,2.365,2.383,2.383,0,0,0,1.028.749,3.866,3.866,0,0,0,1.447.26" transform="translate(-25.345 -39.226)"></path></g></g></svg> 