<?xml version="1.0" encoding="UTF-8"?> <svg xmlns="http://www.w3.org/2000/svg" xmlns:xlink="http://www.w3.org/1999/xlink" id="Group_884" data-name="Group 884" width="208.026" height="187.841" viewBox="0 0 208.026 187.841"><defs><clipPath id="clip-path"><rect id="Rectangle_901" data-name="Rectangle 901" width="208.026" height="187.841" fill="none"></rect></clipPath></defs><g id="Group_883" data-name="Group 883" clip-path="url(#clip-path)"><path id="Path_6744" data-name="Path 6744" d="M113.473.429A89.527,89.527,0,0,1,124,2.083c50.386,11.014,80.644,64,64.541,113.034a100.238,100.238,0,0,1-6.307,14.787h25.8v1.261c-2.222,4.935-3.58,10.176-5.4,15.254a1.966,1.966,0,0,0,.062,1.225c1.762,4.881,3.554,9.752,5.337,14.625v2.521c-4.623,0-9.247.058-13.868-.034-1.4-.028-1.748.4-1.714,1.747.091,3.64-.085,15.153.078,18.788.087,1.962-.363,2.553-2.463,2.549q-58.418-.111-116.836-.054c-18.212,0-36.424-.02-54.635.035-1.6,0-2.183-.333-2.108-2.043.144-3.286.042-14.447.042-17.739,0-3.249,0-3.249-3.322-3.249H0c1.229-5.6,3.509-10.558,5.151-15.723a4.72,4.72,0,0,0,.035-3.216C3.595,141.3,2.151,136.7.495,132.178c-.686-1.872-.158-2.235,1.648-2.218,7.635.068,15.27.037,22.9.016a3.532,3.532,0,0,0,2.3-.3c-.222-.458-.422-.885-.635-1.307-10.138-20.087-13.045-41.182-6.9-62.838,9.809-34.545,32.7-55.758,67.717-63.882A86.257,86.257,0,0,1,113.473.429m-8.832,136.13c19.4,0,38.8-.26,58.19.16,5.706.123,8.8-1.622,11.677-6.5,11.044-18.7,14.79-38.587,10.162-59.721A81.756,81.756,0,1,0,37.957,134.862a3.674,3.674,0,0,0,3.448,1.732q31.617-.081,63.236-.036" transform="translate(0 0)" fill="#01457b"></path><path id="Path_6745" data-name="Path 6745" d="M90.935,140.8a5.233,5.233,0,0,0-3.154-.9,7.544,7.544,0,0,0-1.531.156,4.046,4.046,0,0,0-1.336.519,2.724,2.724,0,0,0-.934.973,3.013,3.013,0,0,0-.351,1.519,1.932,1.932,0,0,0,.506,1.388,3.753,3.753,0,0,0,1.349.87,11.332,11.332,0,0,0,1.908.558q1.063.221,2.167.48t2.167.609a7.151,7.151,0,0,1,1.908.948,4.517,4.517,0,0,1,1.349,1.505,5.273,5.273,0,0,1-.156,4.814,5.453,5.453,0,0,1-1.7,1.713,7.408,7.408,0,0,1-2.323.96,11.269,11.269,0,0,1-2.557.3,10.866,10.866,0,0,1-2.945-.389,7.26,7.26,0,0,1-2.439-1.181,5.591,5.591,0,0,1-1.661-2.024,6.509,6.509,0,0,1-.609-2.919h2.335a4.181,4.181,0,0,0,.455,2.011,4.131,4.131,0,0,0,1.194,1.389,5.035,5.035,0,0,0,1.725.8,7.922,7.922,0,0,0,2.025.26A9.139,9.139,0,0,0,90,155a4.936,4.936,0,0,0,1.518-.531,2.849,2.849,0,0,0,1.505-2.686,2.325,2.325,0,0,0-.506-1.557,3.72,3.72,0,0,0-1.349-.974,9.947,9.947,0,0,0-1.907-.61q-1.065-.232-2.167-.48t-2.167-.571a7.825,7.825,0,0,1-1.907-.856,4.117,4.117,0,0,1-1.349-1.375,4.053,4.053,0,0,1-.506-2.115,4.911,4.911,0,0,1,.571-2.427,4.983,4.983,0,0,1,1.519-1.686,6.8,6.8,0,0,1,2.154-.987,9.5,9.5,0,0,1,2.479-.324,9.931,9.931,0,0,1,2.646.337,6.011,6.011,0,0,1,2.141,1.065,5.138,5.138,0,0,1,1.453,1.829,6.537,6.537,0,0,1,.584,2.634H92.376a3.867,3.867,0,0,0-1.441-2.894" transform="translate(-17.214 -29.437)" fill="#f8570f"></path><path id="Path_6746" data-name="Path 6746" d="M111.9,158.3v-2.128h-.052A4.5,4.5,0,0,1,110.057,158a5.364,5.364,0,0,1-2.569.584,6.017,6.017,0,0,1-2.206-.35,3.52,3.52,0,0,1-1.427-1,3.759,3.759,0,0,1-.766-1.544,8.307,8.307,0,0,1-.22-1.986v-8.824h2.206v9.083a2.662,2.662,0,0,0,.727,1.972,2.7,2.7,0,0,0,2,.727,4.494,4.494,0,0,0,1.751-.311,3.286,3.286,0,0,0,1.233-.882,3.8,3.8,0,0,0,.739-1.337,5.425,5.425,0,0,0,.247-1.673v-7.578h2.206V158.3Z" transform="translate(-21.971 -30.946)" fill="#f8570f"></path><path id="Path_6747" data-name="Path 6747" d="M123.521,144.8v1.817h.052A3.307,3.307,0,0,1,125.286,145a6.407,6.407,0,0,1,2.569-.506,6.067,6.067,0,0,1,2.712.57,5.548,5.548,0,0,1,1.92,1.545,6.827,6.827,0,0,1,1.154,2.245,9.17,9.17,0,0,1,.39,2.7,9.5,9.5,0,0,1-.376,2.7,6.36,6.36,0,0,1-1.143,2.218,5.375,5.375,0,0,1-1.92,1.493,6.231,6.231,0,0,1-2.686.545,6.72,6.72,0,0,1-1.1-.1,6.161,6.161,0,0,1-1.206-.337,4.686,4.686,0,0,1-1.129-.636,3.541,3.541,0,0,1-.9-1h-.052v6.9h-2.206V144.8Zm7.929,4.762a4.96,4.96,0,0,0-.753-1.6,3.7,3.7,0,0,0-1.3-1.116,3.944,3.944,0,0,0-1.856-.416,3.643,3.643,0,0,0-3.166,1.6,4.827,4.827,0,0,0-.714,1.622,7.864,7.864,0,0,0,.013,3.75,4.718,4.718,0,0,0,.739,1.622,3.78,3.78,0,0,0,1.311,1.129,4.1,4.1,0,0,0,1.946.428,3.775,3.775,0,0,0,1.908-.441,3.552,3.552,0,0,0,1.232-1.168,5.074,5.074,0,0,0,.675-1.661,8.827,8.827,0,0,0,.207-1.92,6.867,6.867,0,0,0-.245-1.83" transform="translate(-25.911 -30.861)" fill="#f8570f"></path><path id="Path_6748" data-name="Path 6748" d="M150.086,157.362a6.094,6.094,0,0,1-3.79,1.142,6.89,6.89,0,0,1-2.789-.519,5.5,5.5,0,0,1-1.986-1.453,6.173,6.173,0,0,1-1.206-2.232,10.685,10.685,0,0,1-.454-2.829,8.055,8.055,0,0,1,.467-2.8,6.684,6.684,0,0,1,1.31-2.206,5.939,5.939,0,0,1,2-1.453,6.1,6.1,0,0,1,2.53-.519,5.506,5.506,0,0,1,2.972.739,5.886,5.886,0,0,1,1.894,1.882,7.461,7.461,0,0,1,.986,2.491,10.679,10.679,0,0,1,.22,2.568H142.2a5.3,5.3,0,0,0,.207,1.674,3.788,3.788,0,0,0,.753,1.4,3.722,3.722,0,0,0,1.324.973,4.557,4.557,0,0,0,1.894.363,3.818,3.818,0,0,0,2.3-.649,3.136,3.136,0,0,0,1.18-1.972h2.18a5.364,5.364,0,0,1-1.946,3.4m-.532-8.616a3.779,3.779,0,0,0-.8-1.206,3.818,3.818,0,0,0-1.194-.805,3.776,3.776,0,0,0-1.519-.3,3.846,3.846,0,0,0-1.545.3,3.575,3.575,0,0,0-1.18.817,3.94,3.94,0,0,0-.779,1.208,4.57,4.57,0,0,0-.337,1.466H149.9a4.513,4.513,0,0,0-.35-1.479" transform="translate(-29.872 -30.861)" fill="#f8570f"></path><path id="Path_6749" data-name="Path 6749" d="M160.483,144.8v2.829h.051a5.985,5.985,0,0,1,1.972-2.414,4.959,4.959,0,0,1,2.959-.726v2.335a6.256,6.256,0,0,0-2.258.363,3.563,3.563,0,0,0-1.505,1.065,4.373,4.373,0,0,0-.83,1.7,9.139,9.139,0,0,0-.26,2.3v5.969h-2.207V144.8Z" transform="translate(-33.833 -30.86)" fill="#f8570f"></path><path id="Path_6750" data-name="Path 6750" d="M171.8,138.385v6.929h.052a3.307,3.307,0,0,1,1.713-1.622,6.408,6.408,0,0,1,2.57-.506,6.065,6.065,0,0,1,2.712.57,5.533,5.533,0,0,1,1.92,1.545,6.829,6.829,0,0,1,1.154,2.245,9.17,9.17,0,0,1,.389,2.7,9.494,9.494,0,0,1-.376,2.7,6.358,6.358,0,0,1-1.142,2.218,5.376,5.376,0,0,1-1.92,1.493,6.232,6.232,0,0,1-2.686.545,6.7,6.7,0,0,1-1.1-.1,6.145,6.145,0,0,1-1.206-.337,4.69,4.69,0,0,1-1.129-.636,3.553,3.553,0,0,1-.9-1H171.8v1.791h-2.206v-18.53Zm7.929,9.874a4.944,4.944,0,0,0-.753-1.6,3.7,3.7,0,0,0-1.3-1.116,3.94,3.94,0,0,0-1.856-.416,3.64,3.64,0,0,0-3.165,1.6,4.8,4.8,0,0,0-.714,1.622,7.851,7.851,0,0,0,.013,3.75,4.719,4.719,0,0,0,.74,1.622A3.773,3.773,0,0,0,174,154.852a4.1,4.1,0,0,0,1.946.428,3.773,3.773,0,0,0,1.908-.441,3.552,3.552,0,0,0,1.232-1.168,5.092,5.092,0,0,0,.676-1.661,8.826,8.826,0,0,0,.207-1.92,6.867,6.867,0,0,0-.246-1.83" transform="translate(-36.222 -29.557)" fill="#f8570f"></path><path id="Path_6751" data-name="Path 6751" d="M69.657,116.221V86.23H58.031V79.162a22.107,22.107,0,0,0,4.723-.363,12.31,12.31,0,0,0,4.1-1.519,10.049,10.049,0,0,0,3.072-2.874,10.22,10.22,0,0,0,1.651-4.426h7.465v46.241Z" transform="translate(-12.395 -14.947)" fill="#f8570f"></path><path id="Path_6752" data-name="Path 6752" d="M96.757,81.322a20.381,20.381,0,0,1,3.666-7.366,13.14,13.14,0,0,1,5.384-3.964,17.866,17.866,0,0,1,6.507-1.189,18.051,18.051,0,0,1,6.573,1.189,13.382,13.382,0,0,1,5.417,3.964,20.108,20.108,0,0,1,3.7,7.366,40.622,40.622,0,0,1,1.355,11.329A42.2,42.2,0,0,1,128,104.244a20.091,20.091,0,0,1-3.7,7.432,13.389,13.389,0,0,1-5.417,3.964,18.067,18.067,0,0,1-6.573,1.188,17.882,17.882,0,0,1-6.507-1.188,13.147,13.147,0,0,1-5.384-3.964,20.362,20.362,0,0,1-3.666-7.432A42.174,42.174,0,0,1,95.4,92.651a40.6,40.6,0,0,1,1.354-11.329m8.158,16.118a25.725,25.725,0,0,0,.826,5.417,11.607,11.607,0,0,0,2.213,4.459,5.32,5.32,0,0,0,4.36,1.85,5.5,5.5,0,0,0,4.459-1.85,11.376,11.376,0,0,0,2.246-4.459,25.776,25.776,0,0,0,.826-5.417q.132-2.807.132-4.789,0-1.19-.033-2.874a32.021,32.021,0,0,0-.264-3.468,32.385,32.385,0,0,0-.661-3.534,10.866,10.866,0,0,0-1.288-3.139,7.091,7.091,0,0,0-2.18-2.245,5.817,5.817,0,0,0-3.237-.859,5.65,5.65,0,0,0-3.2.859A6.9,6.9,0,0,0,107,79.637a12.145,12.145,0,0,0-1.288,3.139,24.348,24.348,0,0,0-.661,3.534q-.2,1.782-.231,3.468t-.033,2.874q0,1.982.132,4.789" transform="translate(-20.377 -14.696)" fill="#f8570f"></path><rect id="Rectangle_899" data-name="Rectangle 899" width="10.371" height="10.173" transform="translate(112.585 91.101)" fill="#f8570f"></rect><path id="Path_6753" data-name="Path 6753" d="M162.94,81.322a20.369,20.369,0,0,1,3.666-7.366,13.13,13.13,0,0,1,5.384-3.964A17.859,17.859,0,0,1,178.5,68.8a18.052,18.052,0,0,1,6.574,1.189,13.379,13.379,0,0,1,5.416,3.964,20.084,20.084,0,0,1,3.7,7.366,40.593,40.593,0,0,1,1.355,11.329,42.171,42.171,0,0,1-1.355,11.593,20.067,20.067,0,0,1-3.7,7.432,13.387,13.387,0,0,1-5.416,3.964,18.068,18.068,0,0,1-6.574,1.188,17.875,17.875,0,0,1-6.506-1.188,13.137,13.137,0,0,1-5.384-3.964,20.35,20.35,0,0,1-3.666-7.432,42.171,42.171,0,0,1-1.355-11.593,40.593,40.593,0,0,1,1.355-11.329M171.1,97.441a25.675,25.675,0,0,0,.826,5.417,11.617,11.617,0,0,0,2.212,4.459,5.32,5.32,0,0,0,4.36,1.85,5.5,5.5,0,0,0,4.46-1.85,11.376,11.376,0,0,0,2.246-4.459,25.776,25.776,0,0,0,.825-5.417q.132-2.807.132-4.789,0-1.19-.033-2.874a31.817,31.817,0,0,0-.264-3.468,32.382,32.382,0,0,0-.66-3.534,10.91,10.91,0,0,0-1.288-3.139,7.094,7.094,0,0,0-2.181-2.245,5.817,5.817,0,0,0-3.237-.859,5.649,5.649,0,0,0-3.2.859,6.881,6.881,0,0,0-2.114,2.245,12.091,12.091,0,0,0-1.288,3.139,24.242,24.242,0,0,0-.661,3.534q-.2,1.782-.231,3.468t-.033,2.874q0,1.982.132,4.789" transform="translate(-34.512 -14.696)" fill="#f8570f"></path><path id="Path_6754" data-name="Path 6754" d="M56.755,183.891H51.92v-1.746H63.692v1.746h-4.86v14.155H56.755Z" transform="translate(-11.089 -38.903)" fill="#fff"></path><path id="Path_6755" data-name="Path 6755" d="M77.028,193.389c0,4.223-2.926,6.063-5.686,6.063-3.091,0-5.473-2.265-5.473-5.875,0-3.823,2.5-6.063,5.662-6.063,3.279,0,5.5,2.383,5.5,5.875m-9.059.118c0,2.5,1.439,4.387,3.468,4.387,1.982,0,3.467-1.863,3.467-4.435,0-1.935-.967-4.387-3.42-4.387s-3.515,2.265-3.515,4.435" transform="translate(-14.069 -40.05)" fill="#fff"></path><path id="Path_6756" data-name="Path 6756" d="M83.362,191.5c0-1.463-.047-2.642-.094-3.728h1.864l.094,1.958h.047a4.488,4.488,0,0,1,4.058-2.218c2.76,0,4.836,2.335,4.836,5.8,0,4.105-2.5,6.134-5.19,6.134a4,4,0,0,1-3.515-1.793h-.047v6.2H83.362Zm2.053,3.043a4.668,4.668,0,0,0,.094.849,3.2,3.2,0,0,0,3.114,2.43c2.194,0,3.468-1.792,3.468-4.411,0-2.289-1.2-4.247-3.4-4.247a3.312,3.312,0,0,0-3.138,2.572,3.361,3.361,0,0,0-.142.849Z" transform="translate(-17.785 -40.05)" fill="#fff"></path><path id="Path_6757" data-name="Path 6757" d="M109.152,193.044l-1.651,5h-2.123l5.4-15.9h2.477l5.427,15.9h-2.195l-1.7-5Zm5.215-1.6-1.558-4.577c-.353-1.038-.59-1.982-.826-2.9h-.047c-.236.944-.495,1.911-.8,2.878l-1.558,4.6Z" transform="translate(-22.507 -38.903)" fill="#fff"></path><path id="Path_6758" data-name="Path 6758" d="M127.025,183.674v3.279H130v1.581h-2.973v6.158c0,1.416.4,2.217,1.557,2.217a4.619,4.619,0,0,0,1.2-.142l.094,1.558a5.085,5.085,0,0,1-1.84.282,2.877,2.877,0,0,1-2.241-.872,4.23,4.23,0,0,1-.8-2.973v-6.228h-1.769v-1.581H125v-2.737Z" transform="translate(-26.319 -39.23)" fill="#fff"></path><path id="Path_6759" data-name="Path 6759" d="M136.956,183.674v3.279h2.972v1.581h-2.972v6.158c0,1.416.4,2.217,1.556,2.217a4.621,4.621,0,0,0,1.2-.142l.094,1.558a5.089,5.089,0,0,1-1.84.282,2.878,2.878,0,0,1-2.242-.872,4.23,4.23,0,0,1-.8-2.973v-6.228h-1.769v-1.581h1.769v-2.737Z" transform="translate(-28.441 -39.23)" fill="#fff"></path><path id="Path_6760" data-name="Path 6760" d="M154.667,193.389c0,4.223-2.925,6.063-5.686,6.063-3.091,0-5.473-2.265-5.473-5.875,0-3.823,2.5-6.063,5.662-6.063,3.279,0,5.5,2.383,5.5,5.875m-9.059.118c0,2.5,1.439,4.387,3.468,4.387,1.982,0,3.468-1.863,3.468-4.435,0-1.935-.967-4.387-3.421-4.387s-3.515,2.265-3.515,4.435" transform="translate(-30.651 -40.05)" fill="#fff"></path><path id="Path_6761" data-name="Path 6761" d="M161,191.337c0-1.345-.023-2.5-.094-3.562h1.816l.071,2.24h.094a3.427,3.427,0,0,1,3.161-2.5,2.277,2.277,0,0,1,.59.07v1.959a3.117,3.117,0,0,0-.707-.071,2.913,2.913,0,0,0-2.785,2.666,5.844,5.844,0,0,0-.094.967v6.086H161Z" transform="translate(-34.368 -40.05)" fill="#fff"></path><path id="Path_6762" data-name="Path 6762" d="M170.931,190.864c0-1.18-.023-2.146-.094-3.091h1.84l.117,1.888h.048a4.2,4.2,0,0,1,3.774-2.148c1.581,0,4.034.944,4.034,4.86v6.818h-2.076V192.61c0-1.84-.684-3.373-2.642-3.373a2.95,2.95,0,0,0-2.784,2.123,2.986,2.986,0,0,0-.141.967v6.865h-2.077Z" transform="translate(-36.488 -40.05)" fill="#fff"></path><path id="Path_6763" data-name="Path 6763" d="M188.538,193.861a3.657,3.657,0,0,0,3.916,3.963,7.5,7.5,0,0,0,3.161-.59l.354,1.486a9.249,9.249,0,0,1-3.8.708c-3.515,0-5.615-2.312-5.615-5.757s2.029-6.158,5.355-6.158c3.728,0,4.718,3.279,4.718,5.379a7.86,7.86,0,0,1-.071.968Zm6.086-1.487c.024-1.321-.542-3.373-2.878-3.373-2.1,0-3.02,1.934-3.185,3.373Z" transform="translate(-39.845 -40.05)" fill="#fff"></path><path id="Path_6764" data-name="Path 6764" d="M202.98,187.844l2.5,6.747c.26.755.542,1.651.731,2.336h.047c.212-.684.448-1.558.732-2.383l2.264-6.7h2.194l-3.113,8.139c-1.487,3.916-2.5,5.921-3.917,7.148a5.628,5.628,0,0,1-2.547,1.345l-.519-1.745a5.482,5.482,0,0,0,1.816-1.014,6.3,6.3,0,0,0,1.746-2.313,1.479,1.479,0,0,0,.165-.5,1.812,1.812,0,0,0-.142-.542l-4.223-10.522Z" transform="translate(-42.87 -40.121)" fill="#fff"></path><path id="Path_6765" data-name="Path 6765" d="M33.251,212.518h7.135v1.434H34.961v4.4h5.012v1.416H34.961v5.995h-1.71Z" transform="translate(-7.102 -45.391)" fill="#fff"></path><path id="Path_6766" data-name="Path 6766" d="M49.29,226.722l-.138-1.2h-.059a3.544,3.544,0,0,1-2.91,1.416,2.71,2.71,0,0,1-2.908-2.732c0-2.3,2.044-3.558,5.72-3.538v-.2a1.961,1.961,0,0,0-2.163-2.2,4.74,4.74,0,0,0-2.476.707l-.393-1.14a5.9,5.9,0,0,1,3.125-.845c2.91,0,3.617,1.985,3.617,3.892v3.557a13.4,13.4,0,0,0,.157,2.281Zm-.256-4.855c-1.887-.039-4.03.295-4.03,2.143a1.531,1.531,0,0,0,1.632,1.651,2.368,2.368,0,0,0,2.3-1.592,1.81,1.81,0,0,0,.1-.551Z" transform="translate(-9.243 -46.346)" fill="#fff"></path><path id="Path_6767" data-name="Path 6767" d="M56.255,219.783c0-.982-.02-1.788-.079-2.574h1.513l.079,1.533h.06a3.277,3.277,0,0,1,2.987-1.75,2.813,2.813,0,0,1,2.693,1.907h.039a3.93,3.93,0,0,1,1.062-1.239,3.247,3.247,0,0,1,2.1-.668c1.258,0,3.126.826,3.126,4.128v5.6H68.146v-5.385c0-1.828-.668-2.929-2.064-2.929a2.24,2.24,0,0,0-2.045,1.572,2.85,2.85,0,0,0-.137.865v5.877H62.21v-5.7c0-1.514-.668-2.614-1.985-2.614a2.578,2.578,0,0,0-2.281,2.575v5.739h-1.69Z" transform="translate(-11.998 -46.346)" fill="#fff"></path><path id="Path_6768" data-name="Path 6768" d="M78.993,213.574a1.071,1.071,0,0,1-2.142,0,1.054,1.054,0,0,1,1.081-1.081,1.026,1.026,0,0,1,1.061,1.081m-1.926,2.673H78.8v9.513H77.067Z" transform="translate(-16.414 -45.385)" fill="#fff"></path><rect id="Rectangle_900" data-name="Rectangle 900" width="1.729" height="13.956" transform="translate(65.254 166.42)" fill="#fff"></rect><path id="Path_6769" data-name="Path 6769" d="M89.163,217.267l2.083,5.62c.216.629.452,1.376.609,1.946h.039c.177-.57.374-1.3.609-1.985l1.887-5.582h1.828l-2.6,6.78c-1.238,3.263-2.083,4.934-3.263,5.956a4.667,4.667,0,0,1-2.123,1.121l-.433-1.454a4.577,4.577,0,0,0,1.514-.845,5.248,5.248,0,0,0,1.454-1.926,1.248,1.248,0,0,0,.138-.413,1.517,1.517,0,0,0-.118-.453l-3.518-8.765Z" transform="translate(-18.641 -46.405)" fill="#fff"></path><path id="Path_6770" data-name="Path 6770" d="M106.025,212.518h1.71v11.813H113.4v1.435h-7.371Z" transform="translate(-22.645 -45.391)" fill="#fff"></path><path id="Path_6771" data-name="Path 6771" d="M122.814,226.722l-.138-1.2h-.059a3.543,3.543,0,0,1-2.909,1.416,2.71,2.71,0,0,1-2.909-2.732c0-2.3,2.044-3.558,5.72-3.538v-.2a1.961,1.961,0,0,0-2.162-2.2,4.736,4.736,0,0,0-2.476.707l-.393-1.14a5.9,5.9,0,0,1,3.125-.845c2.909,0,3.617,1.985,3.617,3.892v3.557a13.4,13.4,0,0,0,.157,2.281Zm-.256-4.855c-1.887-.039-4.03.295-4.03,2.143a1.531,1.531,0,0,0,1.632,1.651,2.368,2.368,0,0,0,2.3-1.592,1.81,1.81,0,0,0,.1-.551Z" transform="translate(-24.947 -46.346)" fill="#fff"></path><path id="Path_6772" data-name="Path 6772" d="M129.994,217.267l1.257,4.835c.275,1.062.53,2.044.707,3.027h.06c.216-.963.53-1.985.845-3.007l1.553-4.855h1.456l1.473,4.756c.354,1.14.628,2.142.845,3.106h.058a28.605,28.605,0,0,1,.727-3.086l1.356-4.776h1.711l-3.067,9.513H137.4l-1.454-4.541a31.474,31.474,0,0,1-.845-3.125h-.039a28.62,28.62,0,0,1-.864,3.145l-1.534,4.521h-1.572l-2.87-9.513Z" transform="translate(-27.387 -46.405)" fill="#fff"></path><path id="Path_6773" data-name="Path 6773" d="M145.6,231.109a28.2,28.2,0,0,0,1.179-4.7l1.926-.2a23.9,23.9,0,0,1-1.867,4.777Z" transform="translate(-31.098 -48.316)" fill="#fff"></path><path id="Path_6774" data-name="Path 6774" d="M157.574,212.668a24.394,24.394,0,0,1,3.636-.275c2.457,0,4.207.57,5.366,1.651a6.1,6.1,0,0,1,1.867,4.755,7.009,7.009,0,0,1-1.905,5.15c-1.239,1.238-3.283,1.907-5.858,1.907a27.6,27.6,0,0,1-3.106-.157Zm1.71,11.714a10.8,10.8,0,0,0,1.729.1c3.656,0,5.641-2.045,5.641-5.621.02-3.125-1.749-5.11-5.366-5.11a9.72,9.72,0,0,0-2,.176Z" transform="translate(-33.655 -45.364)" fill="#fff"></path><path id="Path_6775" data-name="Path 6775" d="M176.017,213.574a1.072,1.072,0,0,1-2.143,0,1.053,1.053,0,0,1,1.081-1.081,1.027,1.027,0,0,1,1.062,1.081m-1.928,2.673h1.73v9.513h-1.73Z" transform="translate(-37.137 -45.385)" fill="#fff"></path><path id="Path_6776" data-name="Path 6776" d="M180.346,217.267l1.867,5.346a24.6,24.6,0,0,1,.767,2.437h.059c.215-.786.492-1.573.805-2.437l1.848-5.346H187.5l-3.735,9.513h-1.651l-3.617-9.513Z" transform="translate(-38.125 -46.405)" fill="#fff"></path><path id="Path_6777" data-name="Path 6777" d="M200.195,221.886a4.65,4.65,0,0,1-4.737,5.052c-2.574,0-4.56-1.887-4.56-4.895,0-3.185,2.084-5.052,4.717-5.052,2.733,0,4.58,1.986,4.58,4.895m-7.548.1c0,2.083,1.2,3.655,2.89,3.655,1.651,0,2.889-1.552,2.889-3.695,0-1.612-.806-3.656-2.85-3.656s-2.929,1.887-2.929,3.7" transform="translate(-40.773 -46.346)" fill="#fff"></path><path id="Path_6778" data-name="Path 6778" d="M205.476,220.176c0-1.121-.019-2.083-.079-2.967h1.514l.058,1.867h.079a2.854,2.854,0,0,1,2.634-2.084,1.91,1.91,0,0,1,.492.059v1.632a2.6,2.6,0,0,0-.59-.06,2.428,2.428,0,0,0-2.32,2.222,4.962,4.962,0,0,0-.078.806v5.071h-1.71Z" transform="translate(-43.87 -46.346)" fill="#fff"></path><path id="Path_6779" data-name="Path 6779" d="M220.018,226.373a6.368,6.368,0,0,1-2.732.55,4.519,4.519,0,0,1-4.737-4.855,4.833,4.833,0,0,1,5.11-5.05,5.767,5.767,0,0,1,2.4.492l-.392,1.336a4.017,4.017,0,0,0-2.005-.452,3.586,3.586,0,0,0-.059,7.154,4.913,4.913,0,0,0,2.123-.471Z" transform="translate(-45.397 -46.352)" fill="#fff"></path><path id="Path_6780" data-name="Path 6780" d="M225.249,222.279a3.048,3.048,0,0,0,3.263,3.3,6.259,6.259,0,0,0,2.634-.492l.294,1.239a7.716,7.716,0,0,1-3.165.59c-2.929,0-4.678-1.927-4.678-4.8s1.691-5.13,4.461-5.13c3.106,0,3.931,2.732,3.931,4.481a6.523,6.523,0,0,1-.059.806Zm5.072-1.239c.019-1.1-.452-2.81-2.4-2.81a2.866,2.866,0,0,0-2.653,2.81Z" transform="translate(-47.757 -46.346)" fill="#fff"></path><path id="Path_6781" data-name="Path 6781" d="M100.141,51.485h-6.71c-.113-1.394-.225-2.774-.34-4.192-.233-.011-.429-.028-.627-.029-3.079,0-6.158.009-9.238-.011a.791.791,0,0,0-.879.524C81.876,48.894,81.37,50,80.856,51.1c-.079.167-.279.392-.425.393-2.125.025-4.251.017-6.42.017a2.763,2.763,0,0,1,.091-.44A51.354,51.354,0,0,1,88.236,30.723,16.154,16.154,0,0,1,94.8,27.052a8.074,8.074,0,0,1,2.154-.234c.713.018,1.008.358,1.08,1.073.205,2.055.384,4.113.568,6.17q.592,6.625,1.18,13.25c.121,1.369.234,2.739.355,4.174M92.7,41.9c-.185-2.463-.363-4.853-.543-7.243l-.217-.118A36.453,36.453,0,0,0,85.719,41.9Z" transform="translate(-15.807 -5.727)" fill="#01457b"></path><path id="Path_6782" data-name="Path 6782" d="M170.856,34.331c5.709-.006,10.061,4.262,10.028,9.52a9.518,9.518,0,0,1-8.59,9.292,9.746,9.746,0,0,1-10.238-6.084,9.423,9.423,0,0,1,7.185-12.529c.635-.115,1.284-.16,1.614-.2m.287,13.468a4.028,4.028,0,1,0-3.912-4.012,3.92,3.92,0,0,0,3.912,4.012" transform="translate(-34.486 -7.333)" fill="#01457b"></path><path id="Path_6783" data-name="Path 6783" d="M155.2,34.6a19.262,19.262,0,0,1-1.041,5.476,21.728,21.728,0,0,1-7.2,10.657,11.509,11.509,0,0,1-6.46,2.52,4.758,4.758,0,0,1-.847-.011.984.984,0,0,1-.958-.986c-.177-1.976-.376-3.95-.558-5.926q-.493-5.321-.977-10.645c-.031-.337-.042-.677-.064-1.051h6.087c.278,3.665.558,7.34.849,11.169a6.445,6.445,0,0,0,.672-.5,13.6,13.6,0,0,0,3.365-6.231c.367-1.321.571-2.688.879-4.027.039-.171.262-.427.4-.429,1.921-.028,3.843-.019,5.849-.019" transform="translate(-29.282 -7.389)" fill="#01457b"></path><path id="Path_6784" data-name="Path 6784" d="M122.978,34.637h6.175c-.216,1.261-.348,2.487-.644,3.671a22.367,22.367,0,0,1-7.06,11.925,11.8,11.8,0,0,1-7.074,3.026,4.89,4.89,0,0,1-.727.012c-.722-.065-1.022-.337-1.093-1.053q-.348-3.506-.664-7.015-.465-5.083-.914-10.165c-.011-.118,0-.237,0-.394h6.066c.278,3.67.554,7.331.845,11.165a6.925,6.925,0,0,0,.7-.517A12.612,12.612,0,0,0,121.7,39.8c.5-1.679.849-3.4,1.279-5.165" transform="translate(-23.702 -7.398)" fill="#01457b"></path></g></svg> 