<?xml version="1.0" encoding="UTF-8"?> <svg xmlns="http://www.w3.org/2000/svg" xmlns:xlink="http://www.w3.org/1999/xlink" id="Group_563" data-name="Group 563" width="174.066" height="214.962" viewBox="0 0 174.066 214.962"><defs><clipPath id="clip-path"><rect id="Rectangle_675" data-name="Rectangle 675" width="174.066" height="214.962" fill="none"></rect></clipPath></defs><rect id="Rectangle_673" data-name="Rectangle 673" width="174.066" height="214.962" fill="#4a81c5"></rect><g id="Group_562" data-name="Group 562"><g id="Group_561" data-name="Group 561" clip-path="url(#clip-path)"><path id="Path_3896" data-name="Path 3896" d="M156.611,114.227q.041.823.08,1.645c-.26.272-.71.517-.751.818-1.218,8.987-1.765,17.961.754,26.845q.063.788.124,1.576a9.475,9.475,0,0,0-.063,2.271,130.486,130.486,0,0,0,9.359,27.611c6.5,14.033,15.932,26.223,24.319,39.083,5.254,8.056,9.279,16.784,10.433,26.535l-27.985.054c-.608-3.185-2.389-5.915-3.483-8.9-3.181-8.679-3.9-9.589-15.041-10.23-5.547-.319-11,.632-16.47,1.215a14.947,14.947,0,0,1-13.608-5.686c-2.688-3.241-.663-6.714,1.426-9.846,1.253-1.878.455-3.142-1.789-3.459a2.254,2.254,0,0,1-2.227-2.217c-.082-1.392.777-1.987,1.97-2.466,2.463-.988,3.322-1.927.165-3.5-3.683-1.83-3.911-4.66-.943-7.241,3.327-2.894,3.2-3.543-1.114-5.475-3.857-4.531-3.743-5.958.795-10,2.2-1.966,4.5-3.842,6.574-5.935,2.172-2.189,5.2-4.024,4.155-7.953-.176-.663-3.9-5.307-3.374-4.845,7.924,6.987,5.884.772,5.809-1.045-.573-13.82,3.011-26.112,13.845-35.525,2-1.737,3.956-3.78,7.043-3.327" transform="translate(-26.906 -25.811)" fill="#e79a44"></path><path id="Path_3897" data-name="Path 3897" d="M102.762,164.688a23.7,23.7,0,0,0,2.651,3.079c2.3,1.621,1.754,3.421.142,5.057-3.146,3.193-6.4,6.286-9.614,9.408-5.277,5.119-5.261,6.016.508,10.551,2.3,1.812,2.984,3.157-.149,5.019-3.369,2-2.854,5.735.761,7.37.889.4,2.114.105,2.7,1.412-.507.336-1.015.695-1.545,1.018-1.464.9-3.809,1.255-3.312,3.6.467,2.2,2.563,2.62,4.555,2.816.674,1.758-.456,2.858-1.409,4.091-1.986,2.569-2.576,5.408-.56,8.155a13.87,13.87,0,0,0,10.682,6.033,95.268,95.268,0,0,0,15.885-1.125c9.869-1.35,15.025,1.41,18.853,10.617.295.709.557,1.43.834,2.146l-18.67.053c-1.056-4.455-3.705-6.386-9.718-6.883-6.707-.555-13.374.186-20.013.972-5.847.693-10.418-1.761-13.877-5.906-2.933-3.515-.759-6.971,1.664-10.064.6-.77,1.061-1.523-.515-2.314-5.338-2.678-5.345-3.14-.5-6.412,2.035-1.374,1.07-1.949-.45-2.4-3.229-.954-4.061-3.226-3.664-6.252l-.033.025.779-.658,1.467-1.018c3.128-1.138,3.049-2.626.47-4.368-1.349-.911-2.713-1.8-4.071-2.7q-.412-.73-.826-1.46a6.376,6.376,0,0,1,1.854-4.4c2.069-2.158,4.243-4.215,6.374-6.315a.287.287,0,0,0,.189-.358c6.343-4.322,7.991-7.737,1.6-16,1.49-.161,7.19,6.334,6.884,2.952-.682-7.53,1.283-14.721,2.35-22.032a1.182,1.182,0,0,0,.73-1.41,2.28,2.28,0,0,0,.868-2.422l-.014.046c3.51-4.457,6.688-9.184,10.74-13.2l1.487-.885c1.791-.108,2.59-2.316,4.522-2.125l0-.012c-.025,1.533.043,3.075-.091,4.6-.933,10.656-5.253,20.834-4.434,31.757,0,0,1.2,5.314-6.086-.054" transform="translate(-17.135 -29.027)" fill="#e3e3e3"></path><path id="Path_3898" data-name="Path 3898" d="M35.811,45.413l-4.13-15.576h-.09l-3.95,15.576h-6.6L13.682,22.206h6.732l4.265,15.755h.089l3.861-15.755h6.194l3.95,15.71h.09l4.264-15.71h6.553L42.365,45.413Z" transform="translate(-3.093 -5.021)" fill="#020203"></path><path id="Path_3899" data-name="Path 3899" d="M63.023,28.6a10.614,10.614,0,0,1,6.194-6.329,13.251,13.251,0,0,1,4.938-.875,13.439,13.439,0,0,1,4.961.875A10.576,10.576,0,0,1,85.331,28.6a14.259,14.259,0,0,1,.853,5.05,14.07,14.07,0,0,1-.853,5.027,10.9,10.9,0,0,1-2.424,3.838,10.555,10.555,0,0,1-3.792,2.446,13.766,13.766,0,0,1-4.961.853,13.573,13.573,0,0,1-4.938-.853,10.588,10.588,0,0,1-3.77-2.446,10.87,10.87,0,0,1-2.423-3.838,14.036,14.036,0,0,1-.854-5.027,14.225,14.225,0,0,1,.854-5.05m5.79,7.765a7.222,7.222,0,0,0,.92,2.379,4.892,4.892,0,0,0,1.728,1.683,5.272,5.272,0,0,0,2.693.629,5.4,5.4,0,0,0,2.716-.629,4.845,4.845,0,0,0,1.751-1.683,7.239,7.239,0,0,0,.92-2.379,13.585,13.585,0,0,0,.269-2.716,13.931,13.931,0,0,0-.269-2.738,7,7,0,0,0-.92-2.379,5.113,5.113,0,0,0-1.751-1.683,5.257,5.257,0,0,0-2.716-.651,4.9,4.9,0,0,0-4.421,2.334,6.985,6.985,0,0,0-.92,2.379,13.991,13.991,0,0,0-.269,2.738,13.643,13.643,0,0,0,.269,2.716" transform="translate(-14.056 -4.837)" fill="#020203"></path><path id="Path_3900" data-name="Path 3900" d="M104.2,22.022v3.143h.09a9.078,9.078,0,0,1,3.03-2.784,8.216,8.216,0,0,1,4.062-.988,9.368,9.368,0,0,1,4.018.853,5.641,5.641,0,0,1,2.759,3.008,9.9,9.9,0,0,1,2.805-2.694,7.46,7.46,0,0,1,4.2-1.167,12.359,12.359,0,0,1,3.411.45,6.877,6.877,0,0,1,2.695,1.436,6.626,6.626,0,0,1,1.75,2.581,10.474,10.474,0,0,1,.628,3.838V45.229h-6.375V32.077q0-1.167-.09-2.2a4.7,4.7,0,0,0-.492-1.8,2.993,2.993,0,0,0-1.191-1.211,4.3,4.3,0,0,0-2.131-.449,4.075,4.075,0,0,0-2.178.516,3.74,3.74,0,0,0-1.3,1.347,5.4,5.4,0,0,0-.628,1.884A14.394,14.394,0,0,0,119.1,32.3V45.229h-6.374V32.212q0-1.032-.045-2.042a5.761,5.761,0,0,0-.382-1.863,2.868,2.868,0,0,0-1.121-1.368,4.235,4.235,0,0,0-2.312-.516,4.772,4.772,0,0,0-1.19.2,3.928,3.928,0,0,0-1.435.764A4.409,4.409,0,0,0,105.056,29a6.536,6.536,0,0,0-.495,2.76V45.229H98.188V22.022Z" transform="translate(-22.199 -4.837)" fill="#020203"></path><path id="Path_3901" data-name="Path 3901" d="M156.417,39.663a6.533,6.533,0,0,0,7.451.427,4,4,0,0,0,1.706-2.042h5.611a10.649,10.649,0,0,1-4.13,5.969,12.148,12.148,0,0,1-6.733,1.8,13.251,13.251,0,0,1-4.938-.875,10.26,10.26,0,0,1-3.726-2.491,11.226,11.226,0,0,1-2.357-3.86,14.117,14.117,0,0,1-.83-4.938,13.533,13.533,0,0,1,.853-4.848,11.219,11.219,0,0,1,6.172-6.464,12.016,12.016,0,0,1,4.825-.943,11.045,11.045,0,0,1,5.162,1.144,10.322,10.322,0,0,1,3.613,3.076,12.65,12.65,0,0,1,2.042,4.4,16.407,16.407,0,0,1,.449,5.162H154.846a6.437,6.437,0,0,0,1.571,4.488m7.2-12.208a4.477,4.477,0,0,0-3.479-1.257,5.548,5.548,0,0,0-2.535.516,4.817,4.817,0,0,0-1.616,1.279,4.685,4.685,0,0,0-.854,1.617,7.269,7.269,0,0,0-.292,1.526h10.37a7.377,7.377,0,0,0-1.594-3.681" transform="translate(-33.568 -4.837)" fill="#020203"></path><path id="Path_3902" data-name="Path 3902" d="M188.693,22.022v3.233h.135a7.315,7.315,0,0,1,3.142-2.941,9.092,9.092,0,0,1,3.95-.92,10.829,10.829,0,0,1,4.2.7,6.237,6.237,0,0,1,2.581,1.93,7.471,7.471,0,0,1,1.324,3.008,18.734,18.734,0,0,1,.382,3.927V45.229h-6.374V32.123a8.133,8.133,0,0,0-.9-4.287,3.476,3.476,0,0,0-3.187-1.414,4.415,4.415,0,0,0-3.77,1.549q-1.168,1.549-1.167,5.095V45.229h-6.374V22.022Z" transform="translate(-41.291 -4.837)" fill="#020203"></path><path id="Path_3903" data-name="Path 3903" d="M22.654,87.7h.079l5.526-18.551h2.013L35.836,87.7h.079L41.6,69.154h1.658L36.744,89.441H34.889L29.324,71.049h-.079l-5.6,18.392H21.746L15.312,69.154H16.93Z" transform="translate(-3.462 -15.635)" fill="#fff"></path><path id="Path_3904" data-name="Path 3904" d="M56.184,58.954V71.19h.08a6.448,6.448,0,0,1,1.124-2.033A7.468,7.468,0,0,1,61.2,66.69a8.739,8.739,0,0,1,2.328-.316,9.215,9.215,0,0,1,3.02.434,5.92,5.92,0,0,1,2.033,1.145,5.564,5.564,0,0,1,1.243,1.6,7.4,7.4,0,0,1,.651,1.8A10.688,10.688,0,0,1,70.71,73.1q.038.85.039,1.48V87.135h-1.5V74.308q0-.75-.118-1.895a5.786,5.786,0,0,0-.691-2.19,5.021,5.021,0,0,0-1.737-1.8,5.915,5.915,0,0,0-3.216-.75,7.159,7.159,0,0,0-3.079.632,6.677,6.677,0,0,0-2.289,1.756,7.734,7.734,0,0,0-1.44,2.684,11.253,11.253,0,0,0-.494,3.414V87.135h-1.5V58.954Z" transform="translate(-12.364 -13.329)" fill="#fff"></path><path id="Path_3905" data-name="Path 3905" d="M80.439,79.159a13.32,13.32,0,0,1,.611-4.085,10.282,10.282,0,0,1,1.8-3.375,8.522,8.522,0,0,1,2.921-2.309,9.782,9.782,0,0,1,7.972,0A8.529,8.529,0,0,1,96.66,71.7a10.267,10.267,0,0,1,1.8,3.375,13.344,13.344,0,0,1,.612,4.085,13.534,13.534,0,0,1-.612,4.106,10,10,0,0,1-1.8,3.374,8.617,8.617,0,0,1-2.921,2.289,9.782,9.782,0,0,1-7.972,0,8.61,8.61,0,0,1-2.921-2.289,10.014,10.014,0,0,1-1.8-3.374,13.51,13.51,0,0,1-.611-4.106m1.5,0a11.877,11.877,0,0,0,.512,3.493,9.445,9.445,0,0,0,1.5,2.98A7.281,7.281,0,0,0,86.4,87.7a7.7,7.7,0,0,0,6.71,0,7.341,7.341,0,0,0,2.447-2.073,9.489,9.489,0,0,0,1.5-2.98,12.164,12.164,0,0,0,0-6.986,9.489,9.489,0,0,0-1.5-2.98,7.341,7.341,0,0,0-2.447-2.073,7.7,7.7,0,0,0-6.71,0,7.281,7.281,0,0,0-2.447,2.073,9.445,9.445,0,0,0-1.5,2.98,11.879,11.879,0,0,0-.512,3.493" transform="translate(-18.186 -15.497)" fill="#fff"></path><rect id="Rectangle_674" data-name="Rectangle 674" width="1.499" height="28.181" transform="translate(96.512 45.625)" fill="#e79a44"></rect><path id="Path_3906" data-name="Path 3906" d="M133.6,79.357v.236a11.992,11.992,0,0,0,.474,3.394,8.673,8.673,0,0,0,1.4,2.842,6.655,6.655,0,0,0,2.335,1.934,7.142,7.142,0,0,0,3.265.71,6.962,6.962,0,0,0,4.828-1.6,8.37,8.37,0,0,0,2.453-4.44h1.5a9.079,9.079,0,0,1-2.9,5.447,8.807,8.807,0,0,1-5.9,1.895,8.955,8.955,0,0,1-3.927-.809,7.992,7.992,0,0,1-2.8-2.21,9.387,9.387,0,0,1-1.678-3.315,14.788,14.788,0,0,1-.553-4.125,14.455,14.455,0,0,1,.572-4.085A10.277,10.277,0,0,1,134.39,71.8a8.529,8.529,0,0,1,2.861-2.369,8.708,8.708,0,0,1,4.046-.888,8.594,8.594,0,0,1,3.77.789,7.91,7.91,0,0,1,2.743,2.151,9.562,9.562,0,0,1,1.678,3.158,12.63,12.63,0,0,1,.572,3.849c0,.131-.007.282-.019.453s-.02.31-.02.416Zm14.919-1.3a12.157,12.157,0,0,0-.553-3.138,7.782,7.782,0,0,0-1.4-2.6,7,7,0,0,0-2.256-1.8,6.627,6.627,0,0,0-3.028-.67,7.1,7.1,0,0,0-3.206.69,7.259,7.259,0,0,0-2.335,1.816,8.088,8.088,0,0,0-1.463,2.624,12.261,12.261,0,0,0-.634,3.079Z" transform="translate(-29.867 -15.497)" fill="#e79a44"></path><path id="Path_3907" data-name="Path 3907" d="M173.486,85.276h-.08a6.233,6.233,0,0,1-1.025,1.717,7.273,7.273,0,0,1-1.638,1.441,8.163,8.163,0,0,1-2.19.987,9.608,9.608,0,0,1-2.684.355,7.924,7.924,0,0,1-5.013-1.4,5.167,5.167,0,0,1-1.776-4.322,5.07,5.07,0,0,1,2.506-4.677,7.712,7.712,0,0,1,2.408-.928,24.152,24.152,0,0,1,2.546-.395l2.329-.2a13.675,13.675,0,0,0,2.545-.375,3.246,3.246,0,0,0,1.4-.71,2.014,2.014,0,0,0,.591-1.165,10.976,10.976,0,0,0,.119-1.776,3.749,3.749,0,0,0-.316-1.539,3.479,3.479,0,0,0-.987-1.263,4.916,4.916,0,0,0-1.737-.868,9.308,9.308,0,0,0-2.6-.315,6.84,6.84,0,0,0-4.4,1.341,5.314,5.314,0,0,0-1.835,4.065h-1.5a6.64,6.64,0,0,1,2.151-5.032,8.558,8.558,0,0,1,5.664-1.678q3.67,0,5.349,1.441a4.734,4.734,0,0,1,1.676,3.77v11.8q0,.434.021.868a2.862,2.862,0,0,0,.138.789,1.186,1.186,0,0,0,.395.573,1.251,1.251,0,0,0,.789.217,7.3,7.3,0,0,0,1.105-.118v1.263a4.733,4.733,0,0,1-1.224.158,3.625,3.625,0,0,1-1.441-.236,1.9,1.9,0,0,1-.809-.632,2.336,2.336,0,0,1-.375-.927,6.415,6.415,0,0,1-.1-1.166Zm0-7.5a2.847,2.847,0,0,1-1.678.908,20.9,20.9,0,0,1-2.506.355l-2.526.236q-1.105.12-2.21.336a6.463,6.463,0,0,0-1.994.73,4.093,4.093,0,0,0-1.44,1.4,4.318,4.318,0,0,0-.553,2.309A3.932,3.932,0,0,0,162,87.389a6.3,6.3,0,0,0,3.907,1.084,7.689,7.689,0,0,0,4.065-.927,7.193,7.193,0,0,0,2.289-2.131,6.568,6.568,0,0,0,1.007-2.329,10,10,0,0,0,.217-1.519Z" transform="translate(-35.966 -15.496)" fill="#e79a44"></path><path id="Path_3908" data-name="Path 3908" d="M201.707,82.794h-.078a9.225,9.225,0,0,1-3.158,3.612,9.434,9.434,0,0,1-8.566.336,7.8,7.8,0,0,1-2.723-2.329,10.075,10.075,0,0,1-1.579-3.376,16.091,16.091,0,0,1,.039-8.209,9.556,9.556,0,0,1,1.678-3.374,8.035,8.035,0,0,1,2.822-2.251,9,9,0,0,1,3.986-.829,8.827,8.827,0,0,1,2.408.336,8.427,8.427,0,0,1,2.191.967,6.95,6.95,0,0,1,2.9,3.71h.078V58.954h1.5V87.135h-1.5Zm-7.538,3.513a6.686,6.686,0,0,0,3.336-.789,7.1,7.1,0,0,0,2.328-2.092,9.285,9.285,0,0,0,1.382-2.98,13.043,13.043,0,0,0,.453-3.414,13.194,13.194,0,0,0-.453-3.454,9.79,9.79,0,0,0-1.362-3,6.735,6.735,0,0,0-2.348-2.112,6.932,6.932,0,0,0-3.376-.789,7.116,7.116,0,0,0-3.433.769,6.832,6.832,0,0,0-2.348,2.073,8.652,8.652,0,0,0-1.343,3,14.751,14.751,0,0,0-.414,3.513,13.165,13.165,0,0,0,.454,3.453,9.25,9.25,0,0,0,1.381,2.98,6.853,6.853,0,0,0,2.348,2.073,7.033,7.033,0,0,0,3.4.769" transform="translate(-41.847 -13.329)" fill="#e79a44"></path></g></g></svg> 