<?xml version="1.0" encoding="UTF-8"?> <svg xmlns="http://www.w3.org/2000/svg" xmlns:xlink="http://www.w3.org/1999/xlink" id="Group_206" data-name="Group 206" width="201.709" height="181.344" viewBox="0 0 201.709 181.344"><defs><clipPath id="clip-path"><rect id="Rectangle_266" data-name="Rectangle 266" width="201.709" height="181.344" fill="none"></rect></clipPath></defs><g id="Group_205" data-name="Group 205" clip-path="url(#clip-path)"><path id="Path_1282" data-name="Path 1282" d="M17.576,232.244c.006-1.981.033-3.963.007-5.944-.008-.589.137-.849.767-.809.71.045,1.424.007,2.136.007H199.855c1.491,0,1.49,0,1.491,1.452q0,2.647.009,5.294Z" transform="translate(-3.967 -50.9)" fill="#d20f1d"></path><path id="Path_1283" data-name="Path 1283" d="M90.7,88.383c-1.046,1.656-2.021,3.258-3.052,4.822-2.263,3.434-4.518,6.918-7.64,9.626-2.67,2.316-4.426,5.377-6.934,7.8-2.9,2.8-5.87,5.476-9.794,6.805a22.478,22.478,0,0,1-5.493.653c-3.046.253-6.1.512-9.156.515-3.875,0-7.782-.014-11.46-1.578a7.107,7.107,0,0,1-1.615-.89,3.02,3.02,0,0,1-.052-4.971,17.108,17.108,0,0,1,5.527-2.708c2.877-.975,5.764-1.927,8.681-2.775a6.33,6.33,0,0,0,3.77-2.732A100.129,100.129,0,0,0,65.6,77.819c.536-1.769.489-1.8-1.246-1.335A28.11,28.11,0,0,0,51.787,83.03a39.146,39.146,0,0,0-3.762,4.453c-1.585,2.043-3.2,2.646-5.571,1.114a20.5,20.5,0,0,0-5.035-2.473,2.714,2.714,0,0,0-1.972.1,26.545,26.545,0,0,0-4.25,2.426,3.67,3.67,0,0,1-5.516-1.879,4.976,4.976,0,0,1,.125-2.74c.127-.408.15-.638-.373-.649a1.958,1.958,0,0,1-1.562-.879c-.351-.489-.592-.43-1.031-.111a3.346,3.346,0,0,1-3.082.815,2.527,2.527,0,0,1-1.232-.779,14.95,14.95,0,0,1-3.182-5.679,4.223,4.223,0,0,1,.909-4.045c1.8-2.177,3.992-3.969,5.912-6.03a5.938,5.938,0,0,0,1.573-3.638c.166-1.658.328-3.314.407-4.98a7.318,7.318,0,0,1,2.314-4.617,21.338,21.338,0,0,1,2.1-1.968,1.476,1.476,0,0,0,.581-1.255c.048-2.156-.252-4.33.332-6.46a3.623,3.623,0,0,1,5-2.646,6.349,6.349,0,0,1,2.144,1.248c.454.406.64.237.859-.2a9.058,9.058,0,0,1,4.248-4.236,4.255,4.255,0,0,1,5.486,1.149c1.28,1.5,1.7,1.575,3.411.485,3.153-2.012,6.021-4.42,9.081-6.564,6.241-4.375,12.809-8.063,20.29-9.891a30.5,30.5,0,0,1,9.434-1.024,26.9,26.9,0,0,1,8.733,2.516,96.452,96.452,0,0,0,11.176,4.578,30.178,30.178,0,0,0,10.9.932c4.125-.317,8.213-.913,12.314-1.4a101.831,101.831,0,0,1,11.352-.842A31.781,31.781,0,0,1,160.63,31.98c5.527,3.251,11.237,6.194,16.352,10.107a30.823,30.823,0,0,1,7.068,7.15,12.04,12.04,0,0,1,1.833,9.526,22.894,22.894,0,0,0-.059,7.842,39.214,39.214,0,0,0,3.972,12.6A9.524,9.524,0,0,1,190.554,83c.2,2.835.214,5.684.418,8.518a27.887,27.887,0,0,0,1.467,8.518,3.477,3.477,0,0,0,.792,1.339,7.312,7.312,0,0,1,2.219,6.121c-.167,3.4-1.51,6.428-2.9,9.464a4.136,4.136,0,0,1-3.3,2.616,54.463,54.463,0,0,1-11.731,1.311,14.125,14.125,0,0,1-5.305-1.082,6.331,6.331,0,0,1-3.85-4.761c-.352-1.727.8-3.695,2.758-4.706a15.734,15.734,0,0,1,5.765-1.494,3.638,3.638,0,0,0,2.16-1.925c.056-.452-.365-.386-.565-.454a22.466,22.466,0,0,0-4.684-.979c-1.44-.17-2.9-.18-4.33-.409a6.911,6.911,0,0,1-2.923-1.691,12.3,12.3,0,0,1-4.718-5.916c-.222-.7-.52-.211-.726-.08a32.117,32.117,0,0,0-6.244,5.353c-3.466,3.71-6.371,7.88-9.662,11.733-2.117,2.478-4.493,4.6-7.75,5.443a29.183,29.183,0,0,1-10.02.665,29.819,29.819,0,0,1-6.9-1.167,14.493,14.493,0,0,1-4.72-2.478,4.18,4.18,0,0,1,.8-7.281,15.594,15.594,0,0,1,6.946-1.234c1.176-.01,2.354,0,3.528.056.626.03.836-.184.715-.786a70.457,70.457,0,0,1-.914-14.763,13.012,13.012,0,0,1,.243-2.765c.156-.673-.168-.728-.6-.791-.856-.123-1.724-.128-2.585-.208-2.611-.242-5.226-.438-7.826-.79-.746-.1-.928.194-.924.915.027,5.946.208,11.9-.049,17.835a14.6,14.6,0,0,1-5.163,10.868c-1.167.989-2.652,1.114-4.066,1.358a60.259,60.259,0,0,1-12.785,1.163,14.634,14.634,0,0,1-5.65-1.221,9.307,9.307,0,0,1-1.054-.575c-2.736-1.745-2.732-4.649,0-6.416a26.505,26.505,0,0,1,7.451-2.892,15.013,15.013,0,0,1,2.331-.541c.689-.077.8-.419.753-.986a31.672,31.672,0,0,0-1.493-6.737c-1.329-4.315-2.972-8.513-4.756-12.763m-2.074,27.135a11.053,11.053,0,0,0,5.073,1.106,58.518,58.518,0,0,0,11.941-1.206,3.929,3.929,0,0,0,2.839-1.337,12.96,12.96,0,0,0,2.777-7.4c.055-7,.018-14,.019-21,0-.4.013-.805,0-1.207s.118-.567.54-.516c1.713.205,3.427.411,5.143.585q4.559.459,9.12.876c1.968.177,3.939.323,5.911.458.582.04.662.253.4.736a10.482,10.482,0,0,0-1.435,4.155,66.6,66.6,0,0,0,.49,15.254,9.642,9.642,0,0,1,.245,3.559c-.346,1.6-1.943,3.106-3.231,2.919a38.1,38.1,0,0,0-6.763-.109,8.265,8.265,0,0,0-2.8.534c-.321.129-.813.165-.846.579-.026.34.365.537.648.728a11.075,11.075,0,0,0,3.685,1.657,32.468,32.468,0,0,0,11.854.7,10.2,10.2,0,0,0,6-2.591,100.6,100.6,0,0,0,7.559-9.019,57.444,57.444,0,0,1,9.478-9.739,31.175,31.175,0,0,1,9.826-4.583c-.469,1.242-.84,2.344-1.3,3.408a3.329,3.329,0,0,0,.395,3.485A13.5,13.5,0,0,0,170,101.022a1.319,1.319,0,0,0,.6.212c1.656.173,3.319.3,4.963.557a15.614,15.614,0,0,1,6.04,1.844,3.229,3.229,0,0,1,1.174,4.765,16.588,16.588,0,0,1-1.668,2.331,4.745,4.745,0,0,1-3.508,1.989,12.666,12.666,0,0,0-3.966.778c-.533.194-1.288.356-1.329,1-.046.716.558,1.206,1.167,1.557a4.79,4.79,0,0,0,.929.392,12.138,12.138,0,0,0,3.734.554,45.667,45.667,0,0,0,10.065-1.254,1.174,1.174,0,0,0,.9-.679,22.678,22.678,0,0,0,2.371-6.76c.2-1.392.349-2.876-.845-4.006a8.206,8.206,0,0,1-2.067-3.456,34.661,34.661,0,0,1-1.48-9.271c-.151-2.747-.215-5.5-.412-8.244a6.926,6.926,0,0,0-.5-2.619A42.316,42.316,0,0,1,181.8,65.564a25.072,25.072,0,0,1,.209-7.2,8.874,8.874,0,0,0-1.538-7.434,24.074,24.074,0,0,0-4.08-4.3c-6.371-5.259-13.631-9.105-20.928-12.853-3.526-1.811-7.481-1.944-11.367-2.008a70.743,70.743,0,0,0-8.687.506c-4.9.525-9.778,1.305-14.7,1.7a34.053,34.053,0,0,1-13.347-1.319c-3.792-1.221-7.338-3.006-10.979-4.572-3.2-1.374-6.455-2.478-10-2.133a39.649,39.649,0,0,0-9.509,2.151c-6.61,2.358-12.383,6.162-17.971,10.3C56.8,39.966,54.763,41.634,52.517,43c-2.72,1.649-5.865,1.974-8.151-1.248a.725.725,0,0,0-1.112-.223,6.641,6.641,0,0,0-.9.634c-1.779,1.613-2.365,3.756-2.66,6.03-.144,1.114-.326,2.224-.524,3.563-.993-1.407-1.823-2.627-2.7-3.812a10.359,10.359,0,0,0-3.148-3.083A3.632,3.632,0,0,0,33,46.464a41.928,41.928,0,0,0,.17,5.561,1.089,1.089,0,0,1-.551,1.23,17.41,17.41,0,0,0-3.35,2.915,3.747,3.747,0,0,0-1.257,2.408c-.033,1.671-.243,3.325-.4,4.983a8.976,8.976,0,0,1-2.583,5.776c-1.411,1.39-2.829,2.774-4.2,4.2-2.08,2.163-2.344,1.535-.489,4.767.348.605.62.667,1.192.286a3.511,3.511,0,0,1,3.829-.436A1.21,1.21,0,0,0,27.021,78a2.746,2.746,0,0,1,3.192-.225,2.54,2.54,0,0,1,.962,2.853,13.794,13.794,0,0,1-.882,2.516,4.263,4.263,0,0,0-.519,1.737,24.368,24.368,0,0,1,4.377-2.356,6.362,6.362,0,0,1,3.89-.279,23.141,23.141,0,0,1,6.037,2.735c.5.291.768.27,1.122-.231a29.153,29.153,0,0,1,5.146-5.7c4.572-3.8,9.963-5.789,15.687-6.985,2.222-.465,3.581.64,3.806,2.885a10.67,10.67,0,0,1-.561,4.266A103.849,103.849,0,0,1,56.5,105.445a8.786,8.786,0,0,1-5.239,3.826c-2.31.616-4.573,1.408-6.846,2.154a30.615,30.615,0,0,0-5.466,2.164,29.77,29.77,0,0,0,9.753,1.1c3.676-.062,7.341-.427,11.012-.627a9.251,9.251,0,0,0,3.978-1.031,31.25,31.25,0,0,0,8.712-7.524c1.319-1.534,2.177-3.459,3.959-4.607a10.5,10.5,0,0,0,2.084-1.973A86.865,86.865,0,0,0,89.187,83c.607-1.107,1.219-2.212,1.9-3.446A169.721,169.721,0,0,1,99.148,99.86a26.573,26.573,0,0,1,1.674,8.751c-.077,2.4-1.283,3.728-3.231,3.944a15.566,15.566,0,0,0-2.418.556,26.22,26.22,0,0,0-6.546,2.407" transform="translate(-3.424 -4.971)" fill="#797979"></path><path id="Path_1284" data-name="Path 1284" d="M217.057,179.561c-6.1,0-12.2-.016-18.3.019-.8,0-.96-.228-.951-.982.041-3.405.036-6.812,0-10.218-.007-.683.166-.9.875-.894,12.076.022,24.152.007,36.23.02,4.447,0,5.975,4,5.518,6.909a5.794,5.794,0,0,1-2.633,4.426,4.956,4.956,0,0,1-2.626.724q-9.058-.014-18.115,0" transform="translate(-44.651 -37.807)"></path><path id="Path_1285" data-name="Path 1285" d="M221.2,163.015c-5.942,0-11.885-.07-17.826.032a5.372,5.372,0,0,1-5.333-4.421,6.827,6.827,0,0,1,.865-5.3,5.127,5.127,0,0,1,4.739-2.31c12.007-.023,24.015-.008,36.022-.022.667,0,.911.178.9.89q-.055,5.153,0,10.305c.009.737-.243.847-.9.845-6.159-.023-12.318-.014-18.476-.014" transform="translate(-44.659 -34.083)"></path><path id="Path_1286" data-name="Path 1286" d="M96.514,179.562c-6.067,0-12.134-.013-18.2.017-.739,0-1-.132-.99-.942.049-3.435.036-6.872.007-10.307-.005-.646.178-.84.833-.839,12.1.018,24.206-.016,36.308.029,4.234.016,5.708,3.435,5.506,6.5a5.748,5.748,0,0,1-2.492,4.711,4.88,4.88,0,0,1-2.77.839q-9.1-.007-18.2,0" transform="translate(-17.454 -37.808)"></path><path id="Path_1287" data-name="Path 1287" d="M96.424,162.956c-6.005,0-12.01-.015-18.015.018-.842,0-1.106-.21-1.092-1.082.053-3.28.07-6.563-.005-9.842-.022-.994.3-1.133,1.187-1.13,11.979.029,23.958.053,35.937-.008a5.306,5.306,0,0,1,5.378,4.238,6.814,6.814,0,0,1-1.009,5.632,5.1,5.1,0,0,1-4.458,2.174H96.424" transform="translate(-17.452 -34.066)"></path><path id="Path_1288" data-name="Path 1288" d="M39.16,162.591H19.284c-1.175,0-1.192,0-1-1.153a15.832,15.832,0,0,1,2.763-6.925,8.037,8.037,0,0,1,6.8-3.581q15.7.042,31.393,0c.745,0,1.007.157.995.956q-.07,4.874,0,9.752c.011.81-.279.972-1.016.969-6.687-.024-13.375-.014-20.062-.014" transform="translate(-4.107 -34.069)"></path><path id="Path_1289" data-name="Path 1289" d="M39.12,167.023c6.689,0,13.378.009,20.067-.014.724,0,1.038.124,1.026.951-.048,3.282-.043,6.566,0,9.848.009.763-.259.917-.964.915-10.56-.019-21.12.014-31.68-.031a8.077,8.077,0,0,1-6.865-4.025,19.218,19.218,0,0,1-2.609-7.109c-.1-.53.214-.538.59-.537,1.734.006,3.469,0,5.2,0H39.12" transform="translate(-4.079 -37.699)"></path><path id="Path_1290" data-name="Path 1290" d="M159.2,167.983c6.6,0,13.192.01,19.788-.015.7,0,.952.129.94.9-.047,3.157-.034,6.316-.007,9.475,0,.592-.142.785-.765.784q-17.373-.027-34.745-.019a6.146,6.146,0,0,1-5.171-3.884,16.544,16.544,0,0,1-.942-6.708c.014-.4.167-.56.557-.533.216.015.434,0,.65,0h19.7" transform="translate(-31.214 -37.916)"></path><path id="Path_1291" data-name="Path 1291" d="M149.263,156.87c0,1.733-.015,3.466.01,5.2.008.526-.082.768-.7.762-3.156-.031-6.313-.026-9.469,0-.574,0-.753-.2-.75-.75q.024-5.245,0-10.49c0-.467.148-.653.642-.651q4.828.024,9.655,0c.506,0,.62.18.615.646-.022,1.764-.009,3.528-.009,5.291" transform="translate(-31.232 -34.07)"></path><path id="Path_1292" data-name="Path 1292" d="M158.08,192.549c1.827,1.189,2.083,3.253.595,4.279a5.049,5.049,0,0,1-2.67.57c-1.325.091-2.66.02-3.99.042-.522.008-.7-.208-.7-.721.015-2.537,0-5.075.007-7.613,0-.331-.046-.733.477-.719a52.488,52.488,0,0,1,5.464.1,2.148,2.148,0,0,1,1.952,1.712,2.041,2.041,0,0,1-1.137,2.349m-2.693,1.158c-.561.039-1.28-.248-1.165.771.057.5-.145,1.027.736.986,1.257-.057,1.953-.323,1.881-.969-.1-.943-.889-.716-1.452-.788m-.359-1.791c.715-.014,1.425.071,1.429-.778.005-.956-.8-.7-1.371-.774-.591-.071-.863.065-.881.769-.019.8.365.852.823.784" transform="translate(-34.157 -42.52)"></path><path id="Path_1293" data-name="Path 1293" d="M97.1,216.4a3.316,3.316,0,0,1-3.569-1.785c-.559-1.186-.508-1.27.751-1.36.273-.019.542-.094.815-.13.451-.06.762-.065.924.556a1.48,1.48,0,0,0,2.068.783.741.741,0,0,0,.489-.713.7.7,0,0,0-.5-.705c-.572-.2-1.156-.378-1.743-.534a5.957,5.957,0,0,1-1.363-.516,2.222,2.222,0,0,1-1.4-2.527,2.345,2.345,0,0,1,1.817-1.977,6.307,6.307,0,0,1,3.874.013,2.662,2.662,0,0,1,.5.218c.687.393,1.431,1.628,1.237,2.037a5.824,5.824,0,0,1-2.41.316c-.249-.082-.28-.317-.367-.491a1.147,1.147,0,0,0-1.046-.615c-.474-.043-.908.084-1.006.589-.1.531.437.557.743.638a18.335,18.335,0,0,1,2.374.643c1.624.671,2.313,1.711,2.04,3.071a3.3,3.3,0,0,1-3.156,2.488c-.309.008-.618,0-1.074,0" transform="translate(-21.036 -46.77)"></path><path id="Path_1294" data-name="Path 1294" d="M24.144,197.432c-2.636.123-3.72-1.077-4.282-2.5a5.115,5.115,0,0,1,1.068-5.7c1.681-1.479,5.8-1.508,6.935,1.127.249.577.075.773-.422.9-.326.084-.653.163-.985.22-.469.08-.886.183-1.14-.475a1.242,1.242,0,0,0-1.42-.627,1.609,1.609,0,0,0-1.386,1.075,4.606,4.606,0,0,0,.018,2.983,1.577,1.577,0,0,0,2.889,0c.249-.787.665-.813,1.284-.517a2.526,2.526,0,0,0,.346.118c1.294.4,1.377.586.63,1.736a3.488,3.488,0,0,1-3.534,1.655" transform="translate(-4.39 -42.49)"></path><path id="Path_1295" data-name="Path 1295" d="M19.8,211.807c0-1.27.013-2.54,0-3.809-.007-.457.124-.65.625-.681,2.293-.145,2.292-.161,2.292,2.156,0,1.239.033,2.479-.013,3.716-.023.626.124.887.805.843.925-.059,1.858.008,2.787-.023.494-.016.722.091.706.654-.059,2.1.245,1.665-1.619,1.7-1.579.029-3.159-.019-4.738.018-.653.016-.872-.213-.852-.858.038-1.237.011-2.477.012-3.716" transform="translate(-4.466 -46.786)"></path><path id="Path_1296" data-name="Path 1296" d="M246.878,209.56c0,2.19-.006,4.135,0,6.082,0,.437.016.783-.607.756-.565-.024-.643-.3-.64-.771.013-2.477,0-4.953.012-7.429,0-.3-.153-.77.342-.83.46-.056.94-.163,1.287.414.632,1.054,1.363,2.047,2.048,3.069s1.362,2.049,2.056,3.095c.293-.276.151-.6.154-.881q.027-2.554,0-5.108c0-.4.05-.66.542-.622.376.029.752-.043.749.538-.013,2.662-.009,5.325,0,7.987,0,.291-.1.489-.4.508a1.175,1.175,0,0,1-1.271-.5c-1.207-1.888-2.479-3.734-3.73-5.594-.118-.176-.256-.336-.544-.71" transform="translate(-55.446 -46.799)"></path><path id="Path_1297" data-name="Path 1297" d="M111.226,191.025c0,1.85-.012,3.7.008,5.551.005.543-.067.915-.743.858-.336-.029-.506-.119-.506-.488.008-2.693,0-5.385.005-8.078,0-.2-.049-.492.278-.472.424.025.863-.177,1.214.374,1.225,1.915,2.523,3.784,3.8,5.668.1.147.214.283.469.619,0-2.112,0-4.009,0-5.906,0-.426-.02-.77.6-.791s.7.246.693.766c-.021,2.476,0,4.952-.017,7.428,0,.3.19.763-.313.837-.465.067-.919.135-1.279-.43-1.189-1.869-2.454-3.69-3.691-5.528-.1-.15-.213-.292-.319-.437l-.194.029" transform="translate(-24.827 -42.519)"></path><path id="Path_1298" data-name="Path 1298" d="M200.335,193.293a10.369,10.369,0,0,1,2.475,3.149c.168.259.7.647.252.9a1.047,1.047,0,0,1-1.415-.262c-.482-.712-.958-1.429-1.394-2.169a2.854,2.854,0,0,0-2.989-1.549c-.451.047-.572.187-.563.609.022.958-.012,1.917.014,2.874.012.457-.177.587-.6.586s-.7-.082-.693-.606c.016-2.627.009-5.255.007-7.882,0-.3.041-.569.435-.557a30.81,30.81,0,0,1,4.715.12,2.178,2.178,0,0,1,2.076,2.19,2.318,2.318,0,0,1-1.87,2.495c-.087.028-.178.042-.449.1m-1.664-3.817c-.54,0-.976.024-1.407-.006-.475-.034-.639.208-.547.609.166.726-.5,1.884.361,2.115a6.313,6.313,0,0,0,3.384-.091,1.23,1.23,0,0,0,.912-1.226,1.163,1.163,0,0,0-.8-1.211,4.713,4.713,0,0,0-1.9-.19" transform="translate(-44.113 -42.517)"></path><path id="Path_1299" data-name="Path 1299" d="M100.489,193.3a10.648,10.648,0,0,1,2.454,3.178c.15.228.728.613.227.874a1.045,1.045,0,0,1-1.408-.289q-.681-1.041-1.345-2.092a2.816,2.816,0,0,0-2.768-1.618c-.575.05-.828.142-.793.774.05.893-.008,1.792.02,2.687.016.523-.242.6-.684.607-.426,0-.613-.1-.61-.564.015-2.658.01-5.315,0-7.973,0-.334.077-.525.459-.508a32.986,32.986,0,0,1,4.621.129,2.37,2.37,0,0,1,.268,4.68c-.1.035-.213.055-.443.114m-1.79-1.018a6.741,6.741,0,0,0,1.837-.167,1.24,1.24,0,0,0,.984-1.263,1.212,1.212,0,0,0-.923-1.218,13.741,13.741,0,0,0-2.743-.17c-.849-.118-1.029.222-1,1.016.055,1.8.014,1.8,1.85,1.8" transform="translate(-21.576 -42.519)"></path><path id="Path_1300" data-name="Path 1300" d="M209.827,192.816c0-1.267,0-2.534,0-3.8,0-.3-.077-.642.427-.63,1.234.03,2.475-.033,3.7.073a3.308,3.308,0,0,1,3.139,2.866,6.165,6.165,0,0,1-.441,4.3c-.742,1.392-2.072,1.721-3.493,1.8-.894.047-1.792-.02-2.687.015-.564.022-.665-.238-.656-.726.024-1.3.008-2.6.008-3.894m1.281.079v.835c0,2.6,0,2.6,2.585,2.46a2.168,2.168,0,0,0,2.069-1.539,6.512,6.512,0,0,0,.193-2.737,2.34,2.34,0,0,0-2.318-2.252c-.647-.031-1.3-.009-1.945-.039-.434-.02-.6.136-.589.585.026.9.008,1.792.005,2.688" transform="translate(-47.363 -42.525)"></path><path id="Path_1301" data-name="Path 1301" d="M33.427,211.84c0-1.269.019-2.538-.01-3.806-.012-.5.1-.712.659-.7,1.732.033,3.466.025,5.2,0,.46-.005.669.093.654.608-.014.472-.152.657-.643.647-1.3-.025-2.6.011-3.9-.016-.513-.012-.681.144-.692.675-.037,1.811-.06,1.811,1.772,1.811.835,0,1.671.015,2.506-.006.434-.011.705.075.722.589.018.568-.28.665-.755.658-1.113-.017-2.229.028-3.341-.018-.653-.027-.922.108-.911.85.033,2.014-.006,2.014,2.039,2.014.928,0,1.857.016,2.785-.006.424-.011.616.1.6.566-.016.419-.034.7-.586.687-1.826-.029-3.651-.024-5.477,0-.495.006-.634-.181-.626-.653.025-1.3.009-2.6.009-3.9" transform="translate(-7.543 -46.802)"></path><path id="Path_1302" data-name="Path 1302" d="M121.5,211.831c0-1.268.02-2.537-.01-3.806-.012-.506.118-.7.666-.694,1.732.033,3.465.025,5.2,0,.462-.005.66.1.648.612s-.211.643-.67.639c-1.3-.014-2.6.017-3.9-.012-.523-.012-.684.17-.7.688-.069,1.8-.087,1.8,1.7,1.8.866,0,1.733.016,2.6-.007.42-.012.616.094.6.562-.014.429-.058.705-.594.692-1.175-.027-2.351.009-3.526-.019-.525-.013-.763.1-.782.7-.071,2.156-.094,2.156,2.084,2.156.928,0,1.857.018,2.784-.008.432-.012.6.113.592.571-.012.437-.074.688-.6.681q-2.737-.037-5.476,0c-.514.006-.617-.21-.609-.664.022-1.3.008-2.6.008-3.9Z" transform="translate(-27.425 -46.802)"></path><path id="Path_1303" data-name="Path 1303" d="M52.884,211.778c1.875,0,1.875,0,1.875,1.872,0,1.75-.283,2.147-2.447,2.638-2.408.546-4.888-.362-5.59-2.9-.7-2.518.389-5.355,2.8-5.977,2.091-.539,4.174.05,4.848,1.678.134.324.547.725-.078.986-.441.183-.77.21-1.021-.4-.437-1.056-1.466-1.432-2.982-1.264a2.788,2.788,0,0,0-2.372,2.151,6.761,6.761,0,0,0-.091,2.175,3.145,3.145,0,0,0,3.751,2.536,6.881,6.881,0,0,0,1.467-.519c.784-.311.458-1,.449-1.531-.01-.609-.561-.3-.871-.341a7.533,7.533,0,0,0-1.2-.012c-.444.012-.467-.269-.493-.608-.029-.378.125-.5.474-.489.5.012.99,0,1.486,0" transform="translate(-10.5 -46.775)"></path><path id="Path_1304" data-name="Path 1304" d="M88.272,192.877a4.208,4.208,0,0,1-4.159,4.605,4.381,4.381,0,0,1-4.381-4.639c.107-3.085,1.9-4.612,4.3-4.6a4.131,4.131,0,0,1,4.239,4.629m-1.242.084a3.074,3.074,0,0,0-5.288-2.6,4.409,4.409,0,0,0-.006,4.917,3,3,0,0,0,5.294-2.32" transform="translate(-17.998 -42.494)"></path><path id="Path_1305" data-name="Path 1305" d="M174.674,192.9a4.205,4.205,0,0,1-4.183,4.584,4.375,4.375,0,0,1-4.357-4.568c.071-3.186,1.949-4.7,4.322-4.667a4.136,4.136,0,0,1,4.217,4.651m-1.243.071a3.332,3.332,0,0,0-1.229-3.017,3.286,3.286,0,0,0-4.054.4,4.424,4.424,0,0,0-.017,4.918,3.083,3.083,0,0,0,1.173.872,3.024,3.024,0,0,0,4.127-3.178" transform="translate(-37.502 -42.494)"></path><path id="Path_1306" data-name="Path 1306" d="M239.476,192.888a4.2,4.2,0,0,1-4.174,4.593,4.358,4.358,0,0,1-4.367-4.554c.083-3.079,1.727-4.632,4.217-4.68,2.516-.047,4.413,1.665,4.324,4.641m-1.239.139a3.369,3.369,0,0,0-1.193-3.038,3.285,3.285,0,0,0-4.12.376,4.5,4.5,0,0,0-.005,4.9,3.1,3.1,0,0,0,1.161.88,3.021,3.021,0,0,0,4.158-3.117" transform="translate(-52.129 -42.493)"></path><path id="Path_1307" data-name="Path 1307" d="M230.225,211.806a4.274,4.274,0,0,1,8.511-.777,4.493,4.493,0,0,1-2.758,5.178,4.228,4.228,0,0,1-5.753-4.4m1.243.033a3.126,3.126,0,0,0,.944,2.682,2.924,2.924,0,0,0,3.329.53,2.873,2.873,0,0,0,1.722-2.541c.1-1.493-.02-2.925-1.545-3.752-2.209-1.2-4.424.339-4.45,3.081" transform="translate(-51.966 -46.785)"></path><path id="Path_1308" data-name="Path 1308" d="M191.527,208.574c-1.432,0-2.688-.012-3.945.006-.459.006-.739-.039-.743-.632s.284-.624.738-.619c1.545.016,3.092-.006,4.638.016.307,0,.778-.207.894.2a1.323,1.323,0,0,1-.218,1.3c-1.576,1.894-3.113,3.821-4.662,5.737-.11.135-.208.281-.413.562,1.691,0,3.223,0,4.754,0,.384,0,.794-.122.8.552,0,.626-.275.7-.788.691-1.762-.022-3.525,0-5.287-.019-.328,0-.846.237-.948-.262a1.493,1.493,0,0,1,.25-1.381c1.628-1.96,3.2-3.971,4.935-6.148" transform="translate(-42.049 -46.793)"></path><path id="Path_1309" data-name="Path 1309" d="M108.307,211.837c0-1.3,0-2.6,0-3.9,0-.265-.069-.606.372-.584a31.564,31.564,0,0,1,4.341.144,2.366,2.366,0,0,1,2.048,2.709,2.476,2.476,0,0,1-2.629,2.507c-.742.014-1.486.032-2.227-.008-.54-.029-.7.18-.677.694.033.772-.014,1.548.015,2.32.019.478-.163.66-.633.681-.509.023-.627-.206-.619-.667.022-1.3.008-2.6.007-3.9m3.017-3.223c-1.779-.032-1.779-.032-1.777,1.772,0,.277,0,.554.005.832,0,.2.037.395.282.386a10.012,10.012,0,0,0,3.012-.157,1.374,1.374,0,0,0,.991-1.562,1.293,1.293,0,0,0-1.406-1.274c-.369.02-.738,0-1.107,0" transform="translate(-24.447 -46.806)"></path><path id="Path_1310" data-name="Path 1310" d="M41.569,197.441c-.472.106-.712-.217-.9-.709-.773-2.053-.784-2.049-2.968-2.049-1.429,0-1.387.016-1.929,1.374-.215.538-.054,1.467-1.124,1.382-.477-.038-.608-.19-.439-.63,1.02-2.646,2.046-5.289,3.038-7.946.174-.464.47-.492.859-.482s.687-.011.87.467c1.034,2.677,2.088,5.346,3.185,8,.277.67-.117.567-.595.6m-2.044-3.854c-.477-1.274-.924-2.471-1.435-3.836-.434,1.2-.777,2.262-1.208,3.288-.229.544.014.554.413.551.706-.008,1.411,0,2.23,0" transform="translate(-7.707 -42.523)"></path><path id="Path_1311" data-name="Path 1311" d="M64.906,213.645c-1.75,0-1.758,0-2.406,1.865-.177.51-.285.993-1.027.887-.447-.063-.535-.226-.393-.6,1.027-2.677,2.073-5.347,3.077-8.032.168-.449.461-.422.8-.422.365,0,.7-.052.892.432,1.049,2.7,2.132,5.4,3.206,8.092.077.194.252.477-.093.492-.42.018-.965.275-1.233-.3a6.679,6.679,0,0,1-.544-1.45,1.05,1.05,0,0,0-1.352-.975,6.259,6.259,0,0,1-.926.007m1.483-1.132c-.468-1.25-.913-2.438-1.422-3.8l-1.391,3.8Z" transform="translate(-13.774 -46.805)"></path><path id="Path_1312" data-name="Path 1312" d="M205.637,216.42c-.442.113-.59-.32-.76-.774-.747-2-.753-2.024-2.869-2-1.77.025-1.382-.363-2.057,1.506-.2.547-.169,1.365-1.155,1.241-.4-.05-.554-.1-.379-.553,1.04-2.705,2.054-5.42,3.068-8.134.143-.384.441-.377.753-.363.352.016.719-.1.914.4,1.057,2.7,2.139,5.393,3.225,8.082.273.674-.218.531-.74.592m-4.719-3.944h2.8l-1.413-3.76-1.388,3.76" transform="translate(-44.773 -46.804)"></path><path id="Path_1313" data-name="Path 1313" d="M137.882,197.41c-.523.137-.729-.163-.882-.647-.22-.691-.338-1.625-.833-1.959-.517-.348-1.431-.119-2.172-.123-1.464-.008-1.442.005-1.949,1.429-.2.549-.109,1.386-1.09,1.322-.395-.026-.655-.033-.441-.585,1.041-2.679,2.047-5.37,3.044-8.065.184-.5.564-.354.912-.409.574-.089.75.3.913.708q1.217,3.074,2.427,6.151c.191.485.355.981.58,1.449.262.547.2.828-.509.729m-2.071-3.866-1.422-3.8-1.4,3.8Z" transform="translate(-29.444 -42.519)"></path><path id="Path_1314" data-name="Path 1314" d="M184.7,188.41c.559-.141.83.1,1.017.574.993,2.536,2.018,5.061,3,7.6.093.24.537.676-.062.805-.389.084-.952.267-1.189-.358a1.837,1.837,0,0,0-.039-.18c-.352-.7-.315-1.87-.945-2.07a10.953,10.953,0,0,0-3.223-.092c-.355,0-.43.276-.518.551-.177.554-.388,1.1-.558,1.654-.186.608-.675.623-1.12.5-.686-.183-.132-.659-.053-.876.911-2.5,1.889-4.973,2.829-7.462.167-.442.3-.849.858-.651m.065,1.336-1.4,3.794h2.811l-1.413-3.794" transform="translate(-40.797 -42.519)"></path><path id="Path_1315" data-name="Path 1315" d="M158.465,207.351c.557-.159.764.2.951.675.975,2.5,1.977,4.992,2.962,7.49.109.279.48.662-.052.826-.421.129-.959.177-1.192-.392a12.488,12.488,0,0,1-.578-1.642.778.778,0,0,0-.988-.674,3.857,3.857,0,0,1-.464,0,5.811,5.811,0,0,0-2.369.122c-.608.318-.6,1.342-.852,2.06-.186.536-.557.592-1.017.563-.338-.022-.5-.082-.332-.507,1.049-2.7,2.07-5.418,3.088-8.134.156-.417.459-.43.843-.39m-1.419,5.19c.849,0,1.559,0,2.269,0,.321,0,.575-.039.411-.464-.427-1.1-.851-2.211-1.3-3.368-.469,1.3-.909,2.514-1.385,3.83" transform="translate(-34.869 -46.797)"></path><path id="Path_1316" data-name="Path 1316" d="M138.253,216.4c-2.391.209-3.827-1.711-4.064-3.735-.226-1.933.1-3.649,1.8-4.776,1.919-1.272,4.752-.807,5.664,1.334.132.31.3.613-.112.757-.334.117-.717.332-1.034-.168-.856-1.348-1.628-1.724-2.977-1.372a2.762,2.762,0,0,0-2.077,2.4,4.79,4.79,0,0,0,.321,2.948,2.505,2.505,0,0,0,2.51,1.509,2.307,2.307,0,0,0,2.35-1.595c.25-.818.7-.53,1.088-.413.564.172.232.59.1.9a3.371,3.371,0,0,1-3.562,2.214" transform="translate(-30.276 -46.768)"></path><path id="Path_1317" data-name="Path 1317" d="M70.8,188.385c.773,0,1.545.014,2.317-.005.458-.012.76.041.756.631,0,.609-.358.616-.788.614-1.112,0-2.225.025-3.336-.012-.562-.018-.732.159-.736.731-.014,1.8-.039,1.8,1.786,1.8.526,0,1.051.015,1.576,0,.449-.016.753.019.76.62.006.585-.256.644-.724.63-.864-.026-1.733.037-2.594-.022-.679-.046-.84.216-.8.842.05.832-.013,1.669.022,2.5.022.516-.155.725-.676.729-.492,0-.625-.2-.622-.671.017-2.6.021-5.191,0-7.787,0-.516.2-.62.655-.6.8.028,1.607.008,2.41.008" transform="translate(-15.29 -42.523)"></path><path id="Path_1318" data-name="Path 1318" d="M246.787,192.872c0-1.267.019-2.533-.009-3.8-.012-.5.1-.712.656-.7,1.575.035,3.151.024,4.727,0,.455-.005.694.122.7.612s-.206.648-.674.64c-1.174-.019-2.348.01-3.521-.012-.469-.009-.631.137-.65.629-.077,1.9-.1,1.9,1.794,1.9.556,0,1.113.022,1.668-.005.524-.026.685.185.694.705.008.591-.338.543-.718.54-.865,0-1.732.036-2.595-.014-.629-.036-.889.132-.845.809.057.861-.005,1.729.015,2.594.012.472-.164.651-.643.67-.531.021-.643-.235-.6-.675,0-.031,0-.062,0-.093v-3.8" transform="translate(-55.706 -42.522)"></path><path id="Path_1319" data-name="Path 1319" d="M213.519,212.443c0-1.019-.04-2.04.014-3.056.035-.67-.214-.87-.844-.813-.49.045-.988,0-1.482.012-.449.013-.671-.129-.674-.633s.222-.618.674-.614q2.917.022,5.836,0c.444,0,.7.094.7.6,0,.484-.205.681-.673.642-.092-.007-.185,0-.278,0-1.988.016-1.988.016-1.988,2.046,0,1.606.006,3.212,0,4.817,0,.429.172.939-.614.957-.852.019-.652-.54-.658-1-.012-.988,0-1.977,0-2.965" transform="translate(-47.524 -46.803)"></path><path id="Path_1320" data-name="Path 1320" d="M75.427,211.789c0-1.175,0-2.351,0-3.526,0-.441-.147-.921.629-.945s.649.449.65.9c0,2.073.024,4.145-.01,6.217-.01.579.164.747.732.725,1.05-.042,2.1,0,3.154-.019.425-.009.609.1.6.566-.011.437-.071.692-.6.683q-2.226-.04-4.454,0c-.6.011-.719-.266-.707-.794.029-1.267.009-2.537.009-3.8" transform="translate(-17.024 -46.798)"></path><path id="Path_1321" data-name="Path 1321" d="M49.827,192.276c0,1.083.027,2.167-.011,3.249-.019.542.18.687.692.671,1.051-.033,2.1.011,3.156-.019.482-.013.642.141.637.63s-.2.633-.664.626c-1.454-.022-2.909-.029-4.363,0-.575.012-.743-.2-.738-.757q.035-3.8,0-7.611c0-.526.171-.691.694-.7s.613.211.6.662c-.023,1.082-.007,2.166-.007,3.249" transform="translate(-10.956 -42.52)"></path><path id="Path_1322" data-name="Path 1322" d="M168.784,211.777c0-1.266.015-2.532-.008-3.8-.008-.454.088-.673.605-.653.472.019.654.169.651.653-.015,2.13.024,4.261-.015,6.39-.011.612.146.815.763.788,1.017-.045,2.038.007,3.056-.019.487-.012.662.18.655.649-.006.436-.2.6-.623.6-1.513-.012-3.026-.021-4.538,0-.478.006-.554-.22-.55-.623.015-1.327.005-2.655.005-3.982Z" transform="translate(-38.098 -46.8)"></path><path id="Path_1323" data-name="Path 1323" d="M68.661,16.336c1.466.242,2.184.9,2.359,2.07A2.437,2.437,0,0,1,69.4,21.1c-1.352.584-2.737,1.089-4.09,1.669-.451.194-.612,0-.746-.354-.9-2.385-1.783-4.774-2.707-7.15-.205-.529-.134-.753.428-.94,1.1-.367,2.176-.827,3.265-1.24a2.51,2.51,0,0,1,2.984.388,2.115,2.115,0,0,1,.125,2.868m-.75,1.386a3.117,3.117,0,0,0-1.257.373c-1.631.554-1.628.562-.907,2.146a1.374,1.374,0,0,1,.073.17c.1.324.327.339.585.235.711-.288,1.428-.566,2.122-.889a.906.906,0,0,0,.56-1.13,1.071,1.071,0,0,0-1.177-.905M66.337,14.47a11.957,11.957,0,0,1-1.507.541c-.886.207-.979.671-.541,1.357.167.26.029.876.611.692a13.355,13.355,0,0,0,2.124-.863.8.8,0,0,0,.426-1.02,1,1,0,0,0-1.113-.706" transform="translate(-13.94 -2.884)" fill="#d20f1d"></path><path id="Path_1324" data-name="Path 1324" d="M96.164,9.268c1.51.754,2.407,2.028,3.509,3.092-1.274.681-2.333.629-3.236-.578a10.933,10.933,0,0,0-1.419-1.3,1.753,1.753,0,0,0-1.366-.413c-.557.025-.681.281-.563.786.2.835.327,1.686.547,2.513.086.324,0,.434-.265.54-1.123.454-1.382.324-1.648-.843-.524-2.3-1.031-4.6-1.586-6.9-.126-.52.012-.723.5-.821,1.534-.305,3.058-.664,4.6-.932a2.237,2.237,0,0,1,2.3,1.49,2.489,2.489,0,0,1-.632,2.845c-.211.176-.451.318-.746.523m-.32-1.991c.01-.783-.3-1.137-.989-1.151a13.7,13.7,0,0,0-1.63.235c-.935.091-1.029.446-.85,1.355.2.993.575,1.01,1.347.777.494-.149,1.009-.228,1.5-.424.422-.17.644-.443.626-.792" transform="translate(-20.337 -0.99)" fill="#d20f1d"></path><path id="Path_1325" data-name="Path 1325" d="M226.388,29.517c.608,1.426.351,2.834.47,4.208.036.418-.144.448-.417.278-.75-.465-1.693-.743-1.536-1.983a9.589,9.589,0,0,0-.129-2.121,4.09,4.09,0,0,0-.219-.986,1.26,1.26,0,0,0-1.036-.826c-.358-.043-.451.426-.617.7-.381.631-.769,1.259-1.118,1.908-.2.362-.364.361-.712.171-1.182-.646-1.191-.626-.516-1.778,1.168-1.99,2.348-3.974,3.492-5.977.3-.52.523-.612,1.063-.262,1.186.77,2.476,1.376,3.617,2.221a2.3,2.3,0,0,1,.866,3.068,2.38,2.38,0,0,1-2.809,1.38,3.362,3.362,0,0,0-.4,0M226.741,28a1.11,1.11,0,0,0,1.095-.66.846.846,0,0,0-.212-1.085,8.331,8.331,0,0,0-1.054-.717c-1.432-.863-1.58-.808-2.2.737-.074.184-.165.366.036.485A9.793,9.793,0,0,0,226.741,28" transform="translate(-49.685 -5.111)" fill="#d20f1d"></path><path id="Path_1326" data-name="Path 1326" d="M236.475,34.18c-.972,1.363-1.872,2.573-2.712,3.823-.445.663-.8.379-1.278.063s-.581-.532-.184-1.059c1.447-1.92,2.809-3.9,4.246-5.832.183-.246.239-.976.814-.585.5.341,1.3.455,1.192,1.413-.207,1.839-.327,3.687-.478,5.531a4.008,4.008,0,0,0,.061.552c1-1.383,1.93-2.6,2.782-3.867.4-.6.692-.671,1.282-.219.549.422.585.666.157,1.231-1.43,1.892-2.769,3.853-4.18,5.759-.174.235-.262.889-.736.577-.492-.323-1.291-.459-1.241-1.31.091-1.573.19-3.145.307-4.715a3.483,3.483,0,0,0-.03-1.36" transform="translate(-52.382 -6.879)" fill="#d20f1d"></path><path id="Path_1327" data-name="Path 1327" d="M212.114,26.093c-2.494-.092-4.573-2.036-4.423-4.279.162-2.443,1.919-5.254,4.8-5.054,2.244.156,4.361,2.176,4.242,4.3-.122,2.2-1.742,5.21-4.621,5.028m-2.5-4.128a2.164,2.164,0,0,0,1.415,2.252,2.276,2.276,0,0,0,2.612-.588,4.97,4.97,0,0,0,1.137-2.28A2.135,2.135,0,0,0,213.8,18.9a2.164,2.164,0,0,0-2.807.13,4.287,4.287,0,0,0-1.38,2.933" transform="translate(-46.881 -3.781)" fill="#d20f1d"></path><path id="Path_1328" data-name="Path 1328" d="M116.848.946c2.588,0,4.258,1.9,4.26,4.848a4.187,4.187,0,0,1-4.439,4.374c-2.643-.029-4.279-1.919-4.279-4.943,0-2.663,1.684-4.28,4.458-4.279m2.3,4.855a11.141,11.141,0,0,0-.091-1.146A2.445,2.445,0,0,0,116.68,2.49a2.351,2.351,0,0,0-2.354,2.261,4.7,4.7,0,0,0,.091,1.473,2.414,2.414,0,0,0,2.522,2.314c1.357-.089,2.2-1.115,2.209-2.737" transform="translate(-25.37 -0.214)" fill="#d20f1d"></path><path id="Path_1329" data-name="Path 1329" d="M48.533,21.839c-.025.167-.261.194-.448.288-1.044.527-2.072,1.083-3.13,1.58-.905.425-.211.9-.077,1.343.16.533.454.625.966.342.942-.519,1.937-.937,2.877-1.459.629-.35.641.174.817.48.189.333.48.653-.132.935-1.029.473-2.012,1.048-3.04,1.52-.393.18-.4.317-.238.675.747,1.653.739,1.665,2.318.9.828-.4,1.652-.815,2.458-1.258.424-.233.622-.067.755.307.128.357.644.749.01,1.079-1.768.921-3.555,1.807-5.329,2.721-.355.183-.435-.071-.543-.283-1.184-2.333-2.355-4.672-3.55-7-.223-.434-.139-.63.3-.843,1.576-.768,3.128-1.584,4.7-2.372a.972.972,0,0,1,1.291,1.044" transform="translate(-9.51 -4.676)" fill="#d20f1d"></path><path id="Path_1330" data-name="Path 1330" d="M0,52.958c.074-2.194,3.116-4.093,5.006-3.109.3.157.929.324.589.763s-.653,1.213-1.485.9a1.747,1.747,0,0,0-2.155.65.951.951,0,0,0-.166,1.116c.273.424.707.322,1.082.177.857-.331,1.683-.749,2.553-1.041a2.489,2.489,0,0,1,3.126,1.06A2.719,2.719,0,0,1,8.2,56.8a6.84,6.84,0,0,1-2.016,1.59,2.95,2.95,0,0,1-3.267-.439c-.338-.24-.392-.39-.016-.763.573-.569.962-.877,1.82-.383s2.365-.654,2.392-1.672c.02-.767-.453-1.174-1.181-.923-.9.31-1.751.755-2.652,1.056A2.335,2.335,0,0,1,0,52.958" transform="translate(0 -11.192)" fill="#d20f1d"></path><path id="Path_1331" data-name="Path 1331" d="M253.7,57.243c-.393-.429-.622-.722-.894-.966-.4-.355-.533-.7-.187-1.179a1.4,1.4,0,0,0-.416-2.278,1.093,1.093,0,0,1-.326-.327,1.6,1.6,0,0,0-2.58-.525c-.343.243-.608.132-.893-.146-.309-.3-.675-.543-1.18-.938,1.955-.849,3.632-1.582,5.312-2.3,1.073-.462,2.154-.905,3.227-1.366.3-.13.588-.241.8.121.281.476,1.185.674.89,1.373-1.191,2.827-2.464,5.619-3.757,8.535m1.609-7.956-3.075,1.374,1.7,1.525,1.374-2.9" transform="translate(-55.807 -10.63)" fill="#d20f1d"></path><path id="Path_1332" data-name="Path 1332" d="M169.315,12.288c-1.23-.029-1.529-.261-1.676-1.461-.079-.638-.257-1.027-.985-1a4.129,4.129,0,0,1-.995-.185c-1.587-.36-1.586-.362-2.411,1.036a1.932,1.932,0,0,1-2.029.211c-.158-.188-.008-.357.081-.5,1.47-2.456,2.955-4.9,4.414-7.364.466-.787,1.047-.026,1.571-.157.3-.076.605.169.693.592.573,2.767,1.154,5.534,1.777,8.29.123.546-.081.586-.44.547m-2.91-7.14c-.5.875-.9,1.59-1.3,2.3-.15.266-.141.487.2.548.452.081.91.134,1.367.187.271.031.442-.113.371-.376a14.325,14.325,0,0,0-.636-2.662" transform="translate(-36.377 -0.599)" fill="#d20f1d"></path><path id="Path_1333" data-name="Path 1333" d="M31.425,40.38a5.105,5.105,0,0,0-.476.354,1.409,1.409,0,0,1-2.32-.047c-.42-.467-.835-.377-1.273-.024a3.245,3.245,0,0,1-.688.464c-1.179.525-1.833,1.251-1.241,2.636.172.4-.944,1.5-1.359,1.4-.2-.047-.242-.243-.28-.429-.58-2.8-1.142-5.6-1.767-8.392-.1-.465.146-.581.4-.684.5-.206.837-1,1.522-.523,2.478,1.718,4.939,3.462,7.484,5.25m-7.434-3.068c.119.54.193.894.275,1.246.478,2.052.479,2.053,2.185.831.041-.029.05-.1.091-.2l-2.551-1.881" transform="translate(-4.966 -7.896)" fill="#d20f1d"></path><path id="Path_1334" data-name="Path 1334" d="M77.884,18.37a11.564,11.564,0,0,1,.139-2.994c.113-1.969.338-3.932.469-5.9a.8.8,0,0,1,.774-.851c.5-.067.986-.5,1.492.149,1.736,2.242,3.524,4.444,5.3,6.652.26.324.191.436-.179.568-1.352.484-1.4.532-2.239-.633a1.022,1.022,0,0,0-1.392-.41c-.23.087-.46.176-.7.245-1.7.5-1.718.492-1.878,2.217a.589.589,0,0,1-.466.58c-.435.142-.88.252-1.329.377M82.03,13.3l-2-2.62c0,.7.016,1.1,0,1.5-.094,2.036-.023,2.08,2,1.118" transform="translate(-17.565 -1.9)" fill="#d20f1d"></path><path id="Path_1335" data-name="Path 1335" d="M152.1.684c2.071.031,3.373.945,3.881,2.412.185.532,0,.694-.448.72-.629.038-1.218.254-1.622-.655-.533-1.2-2.549-1.14-3.24.028a4.81,4.81,0,0,0-.381,3.849,1.75,1.75,0,0,0,1.642,1.284,1.658,1.658,0,0,0,1.806-1c.518-1.164,1.156-.323,1.684-.1.718.3.112.712-.056,1.016a3.3,3.3,0,0,1-3.415,1.721,3.849,3.849,0,0,1-3.514-2.571,5.463,5.463,0,0,1,1.617-6.018A4.071,4.071,0,0,1,152.1.684" transform="translate(-33.437 -0.154)" fill="#d20f1d"></path><path id="Path_1336" data-name="Path 1336" d="M203.77,13.1c-.05.828-.46,1.112-1.344.806s-1.749-.592-2.588-.968c-.457-.2-.64-.037-.749.329-.473,1.579-.817,1.221.784,1.837a10.638,10.638,0,0,0,1.295.473c.787.19.952.538.584,1.294-.23.475-.447.478-.842.326-.743-.289-1.521-.5-2.229-.855-.585-.294-.728-.039-.889.431-.267.784-.592,1.549-.859,2.333-.218.643-.615.451-1,.24-.358-.2-1.084-.07-.767-.9q1.4-3.653,2.752-7.325c.174-.476.4-.43.767-.295,1.55.581,3.107,1.144,4.656,1.725.2.076.511.1.428.545" transform="translate(-44.038 -2.424)" fill="#d20f1d"></path><path id="Path_1337" data-name="Path 1337" d="M128.223,6.964c0-2.005.019-4.011-.012-6.016-.009-.583.132-.8.761-.8,1.574,0,3.151-.037,4.721-.142.693-.046.681.3.661.771-.019.432.2.95-.623.9-.953-.063-1.916.015-2.873,0-1.058-.019-.673.74-.736,1.281-.072.625.2.806.791.768.708-.046,1.432.063,2.129-.033.806-.111.838.392.908.918.093.7-.4.611-.837.631a9.742,9.742,0,0,1-1.655.1c-1.055-.137-1.367.28-1.218,1.271.073.484-.033.994.032,1.48.108.807-.152,1.089-1,1.044-.647-.035-.99-.122-.882-.865a9.17,9.17,0,0,0,.011-1.3h-.182" transform="translate(-28.941 0)" fill="#d20f1d"></path><path id="Path_1338" data-name="Path 1338" d="M36.785,27.706c-.011.368-.288.437-.484.558-1.644,1.02-1.64,1.013-.662,2.674.794,1.349,1.548,2.724,2.369,4.056.58.941-.383.857-.721,1.185-.478.464-.671.135-.914-.3-.982-1.737-2.018-3.445-2.995-5.185-.259-.46-.476-.54-.9-.225-.293.221-.661.342-.946.571-.585.469-.907.273-1.237-.322-.28-.5-.173-.721.313-.99,1.61-.893,3.188-1.844,4.786-2.761.241-.139.509-.493.784-.23a4.289,4.289,0,0,1,.6.967" transform="translate(-6.805 -6.015)" fill="#d20f1d"></path><path id="Path_1339" data-name="Path 1339" d="M12.071,43.987a9.958,9.958,0,0,0-1.3.935c-.643.636-1.021.485-1.439-.247-.235-.411-.146-.545.19-.787,1.625-1.169,3.246-2.348,4.834-3.567.657-.5.7.2.936.424s.553.576.015.872a.641.641,0,0,0-.08.048c-1.658,1.227-1.647,1.219-.428,2.843.905,1.206,1.731,2.477,2.684,3.643.578.706.071.9-.355,1.24s-.72.522-1.153-.117c-1.089-1.607-2.289-3.139-3.446-4.7-.145-.2-.3-.385-.458-.588" transform="translate(-2.077 -9.062)" fill="#d20f1d"></path><path id="Path_1340" data-name="Path 1340" d="M180.051,5.6c-.534,2.171-1,4.147-1.515,6.109-.153.582-.071.835.571.952,1.026.186,2.025.516,3.049.715.7.135.413.612.334.919-.071.276.073.853-.681.64-1.682-.476-3.4-.828-5.1-1.228-.416-.1-.527-.318-.418-.744.629-2.471,1.238-4.947,1.849-7.422.124-.5.417-.683.872-.424.346.2,1.075-.134,1.043.485" transform="translate(-39.785 -1.128)" fill="#d20f1d"></path><path id="Path_1341" data-name="Path 1341" d="M189.9,17.236c-1.4-.012-1.771-.537-1.442-1.59Q189.5,12.32,190.5,8.984c.146-.481.3-.927.916-.584.429.238,1.317-.009.935,1.091-.823,2.369-1.514,4.784-2.255,7.181-.08.257-.091.561-.2.563" transform="translate(-42.516 -1.869)" fill="#d20f1d"></path><path id="Path_1342" data-name="Path 1342" d="M244.521,47.485a8.962,8.962,0,0,1-1.333-1.209c-.214-.3.225-.516.413-.739,1.593-1.889,3.2-3.767,4.784-5.662.269-.321.413-.522.846-.146,1.031.894,1.044.855.139,1.9q-2.209,2.561-4.387,5.15a6.725,6.725,0,0,0-.462.7" transform="translate(-54.882 -8.922)" fill="#d20f1d"></path><path id="Path_1343" data-name="Path 1343" d="M148.867,211.791c0-1.267.012-2.534-.006-3.8-.006-.438.065-.675.6-.666.515.01.7.16.7.691-.021,2.564-.015,5.13-.005,7.694,0,.443-.1.691-.616.687s-.692-.192-.68-.713c.033-1.3.011-2.6.011-3.893" transform="translate(-33.602 -46.8)"></path><path id="Path_1344" data-name="Path 1344" d="M125.682,192.919c0,1.3-.012,2.6.006,3.894.005.414-.1.636-.56.628-.44-.007-.691-.122-.689-.63q.019-3.893,0-7.788c0-.558.269-.643.748-.654.538-.012.5.3.5.656,0,1.3,0,2.6,0,3.894" transform="translate(-28.089 -42.521)"></path><path id="Path_1345" data-name="Path 1345" d="M223.988,211.827c0-1.3.012-2.6-.007-3.895-.006-.423.1-.623.568-.6.395.023.729-.005.725.561q-.026,3.941,0,7.881c0,.513-.234.606-.681.618-.518.014-.619-.225-.612-.675.019-1.3.007-2.6.007-3.895" transform="translate(-50.56 -46.802)"></path><path id="Path_1346" data-name="Path 1346" d="M181.6,211.846c0,1.3,0,2.6,0,3.895,0,.367.005.668-.515.653-.478-.014-.739-.111-.733-.674.022-2.565.017-5.131,0-7.7,0-.516.187-.688.711-.7.6-.01.535.344.534.719q0,1.9,0,3.8Z" transform="translate(-40.712 -46.8)"></path><path id="Path_1347" data-name="Path 1347" d="M61.841,192.929c0,1.3-.009,2.595.006,3.892,0,.4-.064.628-.552.609-.449-.017-.7-.122-.694-.623q.015-3.892,0-7.784c0-.556.276-.643.755-.653.55-.01.486.325.486.667q0,1.947,0,3.892" transform="translate(-13.68 -42.521)"></path><path id="Path_1348" data-name="Path 1348" d="M130.452,49.5c1.19,3.661,2.336,7.112,3.421,10.583.208.663.46.912,1.187.9,3.373-.044,6.747-.019,10.12-.019h1.089a12.241,12.241,0,0,1-2.181,1.735c-2.277,1.688-4.569,3.356-6.891,4.983a.984.984,0,0,0-.4,1.363c1.16,3.476,2.269,6.969,3.48,10.717-1.6-1.155-3-2.166-4.4-3.184-1.646-1.2-3.3-2.385-4.926-3.6-.433-.324-.711-.228-1.115.069-2.973,2.185-5.969,4.34-9.007,6.539-.24-.477.077-.816.183-1.15.994-3.12,2-6.238,3.056-9.337a1.113,1.113,0,0,0-.516-1.506c-2.842-2.008-5.648-4.066-8.467-6.109-.119-.087-.221-.2-.362-.324.315-.322.671-.185.976-.186,3.374-.012,6.748-.019,10.121,0,.6,0,.9-.1,1.1-.77,1.041-3.36,2.166-6.694,3.264-10.036.046-.142.106-.278.257-.671" transform="translate(-25.898 -11.173)" fill="#464646"></path></g></svg> 