<?xml version="1.0" encoding="UTF-8"?> <svg xmlns="http://www.w3.org/2000/svg" xmlns:xlink="http://www.w3.org/1999/xlink" version="1.1" id="Group_534" x="0px" y="0px" width="281.7px" height="215.7px" viewBox="0 0 281.7 215.7" xml:space="preserve"> <g> <circle fill="#FFFFFF" cx="140.4" cy="108.9" r="76"></circle> <g> <g> <path fill="#3E4F60" d="M281.7,108.1H0v1l19.1,19.1L0,147.3v0.1h59.3v19.2c0,8.4,6.8,15.2,15.2,15.2h131 c8.4,0,15.2-6.8,15.2-15.2v-19.2h61l-19.6-19.6L281.7,108.1L281.7,108.1z"></path> </g> <g> <g> <g> <path d="M115.3,142.3c-5.8,0-10.3-1-13.5-2.9c-3.2-1.9-5.4-4.6-6.6-8.1c-1.2-3.5-1.8-7.6-1.8-12.3H108c0,2.6,0.2,4.9,0.6,6.9 c0.4,2,1.2,3.6,2.4,4.7c1.2,1.1,2.9,1.6,5.2,1.6c2.5,0,4.3-0.7,5.3-2.2c1-1.4,1.7-3.4,2-6c0.3-2.6,0.4-5.6,0.4-9 c0-3-0.2-5.6-0.6-7.8c-0.4-2.2-1.2-4-2.3-5.2s-2.9-1.9-5.4-1.9c-2.1,0-3.8,0.6-5.1,1.9c-1.4,1.2-2.4,2.9-3,4.9H94.7l0.9-43.1 h39v11.9H108l-0.9,18.6c1.1-1.1,2.6-2.1,4.7-2.8c2-0.7,4.3-1.1,6.8-1.2c4.6-0.2,8.3,0.7,11.2,2.6c2.9,1.9,5,4.7,6.3,8.3 c1.4,3.6,2,8,2,13c0,4.1-0.3,7.8-0.9,11.3c-0.6,3.4-1.7,6.4-3.4,8.9c-1.6,2.5-4,4.5-6.9,5.9 C123.9,141.6,120.1,142.3,115.3,142.3z"></path> </g> </g> <g> <g> <path d="M163,151.8c-4.5,0-8.3-0.9-11.3-2.6s-5.2-4.1-6.7-7.1c-1.5-3-2.3-6.5-2.3-10.4V101c0-4,0.7-7.6,2.2-10.6 c1.4-3,3.6-5.4,6.6-7.1c3-1.7,6.8-2.6,11.4-2.6c4.7,0,8.5,0.9,11.4,2.6c3,1.7,5.2,4.1,6.6,7.1c1.4,3,2.2,6.6,2.2,10.6v30.7 c0,3.9-0.8,7.4-2.3,10.4c-1.5,3-3.7,5.4-6.7,7.1C171.3,150.9,167.5,151.8,163,151.8z M163,141.6c2,0,3.4-0.5,4.4-1.6 c1-1.1,1.6-2.4,1.9-3.9c0.3-1.5,0.5-3,0.5-4.5v-30.3c0-1.6-0.1-3.2-0.4-4.7c-0.3-1.6-0.9-2.9-1.9-4c-1-1.1-2.5-1.6-4.5-1.6 c-2,0-3.5,0.5-4.5,1.6c-1,1.1-1.6,2.4-1.9,4c-0.3,1.6-0.4,3.1-0.4,4.7v30.3c0,1.5,0.2,3,0.5,4.5c0.4,1.5,1,2.8,2,3.9 C159.6,141.1,161.1,141.6,163,141.6z"></path> </g> </g> </g> <g> <g> <g> <path fill="#FFFFFF" d="M140.6,1.8C82,1.8,34.5,49.3,34.5,107.9S82,213.9,140.6,213.9s106.1-47.5,106.1-106.1 S199.2,1.8,140.6,1.8z M140.6,177.7c-38.6,0-69.8-31.3-69.8-69.8s31.3-69.8,69.8-69.8s69.8,31.3,69.8,69.8 S179.1,177.7,140.6,177.7z"></path> </g> </g> <g> <g> <path fill="#3E4F60" d="M140.6,215.7c-59.5,0-107.9-48.4-107.9-107.9C32.7,48.4,81.1,0,140.6,0s107.9,48.4,107.9,107.9 C248.4,167.3,200.1,215.7,140.6,215.7z M140.6,3.6C83.1,3.6,36.3,50.3,36.3,107.9c0,57.5,46.8,104.3,104.3,104.3 s104.3-46.8,104.3-104.3C244.9,50.3,198.1,3.6,140.6,3.6z M140.6,179.4c-39.5,0-71.6-32.1-71.6-71.6 c0-39.5,32.1-71.6,71.6-71.6c39.5,0,71.6,32.1,71.6,71.6C212.2,147.3,180.1,179.4,140.6,179.4z M140.6,39.8 c-37.5,0-68,30.5-68,68c0,37.5,30.5,68,68,68c37.5,0,68-30.5,68-68C208.6,70.4,178.1,39.8,140.6,39.8z"></path> </g> </g> </g> <g> <g> <g> <path fill="#F89B36" d="M116.2,141.3c-5.8,0-10.3-1-13.5-2.9c-3.2-1.9-5.4-4.6-6.6-8.1c-1.2-3.5-1.8-7.6-1.8-12.3h14.5 c0,2.6,0.2,4.9,0.6,6.9c0.4,2,1.2,3.6,2.4,4.7c1.2,1.1,2.9,1.6,5.2,1.6c2.5,0,4.3-0.7,5.3-2.2c1-1.4,1.7-3.4,2-6 c0.3-2.6,0.4-5.6,0.4-9c0-3-0.2-5.6-0.6-7.8c-0.4-2.2-1.2-4-2.3-5.2c-1.1-1.2-2.9-1.9-5.4-1.9c-2.1,0-3.8,0.6-5.1,1.9 c-1.4,1.2-2.4,2.9-3,4.9H95.5l0.9-43.1h39v11.9h-26.6l-0.9,18.6c1.1-1.1,2.6-2.1,4.7-2.8c2-0.7,4.3-1.1,6.8-1.2 c4.6-0.2,8.3,0.7,11.2,2.6c2.9,1.9,5,4.7,6.3,8.3c1.4,3.6,2,8,2,13c0,4.1-0.3,7.8-0.9,11.3c-0.6,3.4-1.7,6.4-3.4,8.9 c-1.6,2.5-4,4.5-6.9,5.9C124.7,140.6,120.9,141.3,116.2,141.3z"></path> </g> </g> <g> <g> <path fill="#F89B36" d="M163.8,150.7c-4.5,0-8.3-0.9-11.3-2.6s-5.2-4.1-6.7-7.1c-1.5-3-2.3-6.5-2.3-10.4V100 c0-4,0.7-7.6,2.2-10.6c1.4-3,3.6-5.4,6.6-7.1c3-1.7,6.8-2.6,11.4-2.6c4.7,0,8.5,0.9,11.4,2.6c3,1.7,5.2,4.1,6.6,7.1 c1.4,3,2.2,6.6,2.2,10.6v30.7c0,3.9-0.8,7.4-2.3,10.4c-1.5,3-3.7,5.4-6.7,7.1C172.1,149.9,168.3,150.7,163.8,150.7z M163.8,140.6c2,0,3.4-0.5,4.4-1.6c1-1.1,1.6-2.4,1.9-3.9c0.3-1.5,0.5-3,0.5-4.5v-30.3c0-1.6-0.1-3.2-0.4-4.7 c-0.3-1.6-0.9-2.9-1.9-4c-1-1.1-2.5-1.6-4.5-1.6c-2,0-3.5,0.5-4.5,1.6c-1,1.1-1.6,2.4-1.9,4c-0.3,1.6-0.4,3.1-0.4,4.7v30.3 c0,1.5,0.2,3,0.5,4.5c0.4,1.5,1,2.8,2,3.9C160.5,140,161.9,140.6,163.8,140.6z"></path> </g> </g> </g> <g> <g> <path fill="#CB2227" d="M141,75.3c-0.7,0-1.5-0.1-2-0.5l-0.1,0.3c0,0.1,0,0.1-0.1,0.1h-0.3c-0.1,0-0.1,0-0.1-0.1l-0.2-2.7 c0-0.1,0-0.1,0.1-0.1h0.4c0.1,0,0.1,0,0.1,0.1l0,0.4c0.1,1.1,0.8,1.9,2,1.9c1.3,0,1.8-0.6,1.8-1.6c0-1.2-0.7-1.6-2.1-2.3 c-1.2-0.6-2.3-1.2-2.3-2.9c0-1.7,1.2-2.5,2.7-2.5c0.6,0,1.3,0.2,1.7,0.5l0.1-0.3c0-0.1,0-0.1,0.1-0.1h0.3c0.1,0,0.1,0,0.1,0.1 V68c0,0.1,0,0.1-0.1,0.1h-0.4c-0.1,0-0.1,0-0.1-0.1l0-0.1c-0.1-1.1-0.7-1.8-1.8-1.8c-0.9,0-1.4,0.5-1.4,1.3c0,1,0.8,1.4,1.8,1.9 c1.5,0.8,2.7,1.3,2.7,3.2C144.1,74.4,142.7,75.3,141,75.3z"></path> </g> <g> <path d="M151.6,72.5c0.3,1.8,0.6,1.9,1.2,1.9h0.4c0.1,0,0.1,0,0.1,0.1v0.4c0,0.1,0,0.1-0.1,0.1c-0.3,0.1-0.9,0.2-1.4,0.2 c-1.2,0-1.4-0.8-1.6-2.5c-0.3-2-0.8-2.2-1.6-2.2h-1v2.7c0,1.1,0,1.2,0.4,1.3l0.7,0c0.1,0,0.1,0,0.1,0.1V75c0,0.1,0,0.1-0.1,0.1 H145c-0.1,0-0.1,0-0.1-0.1v-0.4c0-0.1,0-0.1,0.1-0.1l0.7,0c0.4,0,0.4-0.1,0.4-1.3v-5.7c0-1.1,0-1.2-0.4-1.3l-0.7,0 c-0.1,0-0.1,0-0.1-0.1v-0.4c0-0.1,0-0.1,0.1-0.1h3.6c2.3,0,3.6,0.8,3.6,2.3c0,1.3-0.9,2-2.3,2.3v0 C150.9,70.4,151.3,71,151.6,72.5z M148.7,66.3h-1v3.5h0.9c1.4,0,2-0.6,2-1.8C150.5,66.6,149.9,66.3,148.7,66.3z"></path> </g> <g> <path d="M157.7,75.2c-0.1,0-0.1,0-0.1-0.1v-0.5c0-0.1,0-0.1,0.1-0.2c2.4-2,3.6-3.2,3.6-5.2c0-1.4-0.8-1.9-1.6-1.9 c-0.3,0-0.5,0.1-0.8,0.2c0.1,0.2,0.1,0.5,0.1,0.7c0,0.4-0.2,0.7-0.6,0.7c-0.5,0-0.8-0.2-0.8-0.6c0-0.9,1.3-1.8,2.6-1.8 c1.4,0,2.7,0.9,2.7,2.6c0,1.9-1.3,2.9-3.9,5v0h2.7c0.9,0,1.1,0,1.3-0.8l0.1-0.4c0-0.1,0-0.1,0.1-0.1h0.3c0.1,0,0.1,0,0.1,0.1 l-0.1,2.2c0,0.1,0,0.1-0.1,0.1H157.7z"></path> </g> <g> <path d="M167.9,75.3c-2.1,0-3.1-1.7-3.1-4.3c0-2.6,1.1-4.6,3.2-4.6c2.1,0,3.1,1.7,3.1,4.3C171.2,73.3,170.1,75.3,167.9,75.3z M168,67.1c-1.1,0-1.5,1.2-1.5,3.9c0,2.6,0.4,3.7,1.5,3.7c1.1,0,1.5-1.2,1.5-3.9C169.5,68.2,169.1,67.1,168,67.1z"></path> </g> <g> <path d="M172.3,75.2c-0.1,0-0.1,0-0.1-0.1v-0.5c0-0.1,0-0.1,0.1-0.2c2.4-2,3.6-3.2,3.6-5.2c0-1.4-0.8-1.9-1.6-1.9 c-0.3,0-0.5,0.1-0.8,0.2c0.1,0.2,0.1,0.5,0.1,0.7c0,0.4-0.2,0.7-0.6,0.7c-0.5,0-0.8-0.2-0.8-0.6c0-0.9,1.3-1.8,2.6-1.8 c1.4,0,2.7,0.9,2.7,2.6c0,1.9-1.3,2.9-3.9,5v0h2.7c0.9,0,1.1,0,1.3-0.8l0.1-0.4c0-0.1,0-0.1,0.1-0.1h0.3c0.1,0,0.1,0,0.1,0.1 l-0.1,2.2c0,0.1,0,0.1-0.1,0.1H172.3z"></path> </g> <g> <path d="M180.9,75.2c-0.1,0-0.1,0-0.1-0.1v-0.4c0-0.1,0-0.1,0.1-0.1l1.2-0.1c0.4,0,0.4-0.1,0.4-1.3v-5.4h-0.1 c-0.6,0.3-1.5,0.7-2.1,1c-0.1,0-0.1,0-0.1-0.1l-0.2-0.5c0-0.1,0-0.1,0.1-0.2c1.1-0.4,2-0.9,2.7-1.4c0,0,0.1-0.1,0.2-0.1h0.8 c0.1,0,0.1,0,0.1,0.1v6.5c0,1.1,0,1.2,0.4,1.3l1,0.1c0.1,0,0.1,0,0.1,0.1V75c0,0.1,0,0.1-0.1,0.1H180.9z"></path> </g> </g> <g> <g> <path fill="#1F1D1E" d="M63.1,78.4l-11.7-11l1.9-5.3l0.9,0.3c-0.2,0.5-0.2,0.9-0.2,1.3c0,0.3,0.1,0.6,0.3,0.9 c0.2,0.3,0.5,0.5,1,0.7c0.4,0.2,1,0.4,1.7,0.7l9.2,3.3c0.8,0.3,1.4,0.5,1.9,0.6c0.5,0.1,0.9,0.1,1.2,0c0.3-0.1,0.6-0.3,0.8-0.6 c0.2-0.3,0.4-0.7,0.6-1.3l0.9,0.3l-2.7,7.6l-0.9-0.3c0.2-0.6,0.3-1,0.3-1.4c0-0.4,0-0.7-0.2-1c-0.2-0.3-0.5-0.5-0.9-0.7 c-0.4-0.2-1-0.5-1.7-0.7L54.4,68l-0.1,0.2l13,12.3L67.2,81l-17.8,1.3l0,0.1l10.7,3.8c0.8,0.3,1.4,0.5,1.9,0.6 c0.5,0.1,0.9,0.1,1.2,0c0.3-0.1,0.6-0.3,0.8-0.6c0.2-0.3,0.4-0.7,0.6-1.3l0.9,0.3l-2.3,6.6l-0.9-0.3c0.2-0.6,0.3-1,0.3-1.4 c0-0.4,0-0.7-0.2-1c-0.2-0.3-0.5-0.5-0.9-0.7c-0.4-0.2-1-0.5-1.7-0.7l-9.5-3.4c-0.7-0.2-1.2-0.4-1.7-0.5c-0.4-0.1-0.8-0.1-1.1,0 c-0.3,0.1-0.6,0.3-0.8,0.5c-0.2,0.3-0.4,0.7-0.6,1.2l-0.9-0.3l2-5.6L63.1,78.4L63.1,78.4z"></path> </g> <g> <path fill="#1F1D1E" d="M65.4,54.3c0.5-0.8,1.2-1.4,1.9-1.9c0.8-0.5,1.6-0.9,2.4-1c0.9-0.2,1.7-0.2,2.6,0 c0.9,0.2,1.7,0.5,2.5,1.1c0.8,0.6,1.5,1.3,2,2c0.5,0.8,0.8,1.6,0.9,2.5c0.1,0.9,0.1,1.8-0.1,2.7c-0.2,0.9-0.6,1.7-1.1,2.5 c-0.5,0.8-1.2,1.4-1.9,1.9c-0.8,0.5-1.6,0.8-2.4,1c-0.9,0.2-1.8,0.2-2.7,0c-0.9-0.2-1.8-0.6-2.6-1.1c-0.8-0.6-1.5-1.2-1.9-2 c-0.5-0.8-0.8-1.6-0.9-2.4c-0.1-0.9-0.1-1.7,0.1-2.6C64.5,55.9,64.8,55.1,65.4,54.3z M66.3,55c-0.3,0.5-0.6,1-0.6,1.6 c-0.1,0.6,0,1.1,0.2,1.7c0.2,0.6,0.5,1.1,1,1.7c0.5,0.5,1,1.1,1.7,1.5c0.7,0.5,1.4,0.9,2.1,1.1c0.7,0.2,1.3,0.3,1.9,0.3 c0.6,0,1.2-0.2,1.7-0.4c0.5-0.3,0.9-0.7,1.3-1.2c0.4-0.5,0.6-1.1,0.6-1.6c0.1-0.6,0-1.2-0.2-1.7c-0.2-0.6-0.5-1.2-1-1.7 s-1-1.1-1.7-1.6c-0.7-0.5-1.4-0.8-2-1c-0.7-0.2-1.3-0.3-1.9-0.3c-0.6,0-1.2,0.2-1.7,0.4C67.1,54.1,66.7,54.5,66.3,55z"></path> </g> <g> <path fill="#1F1D1E" d="M82.6,54l-0.4,0.4l-3.1-3l0.4-0.4c2.1,1.2,3.8,1.2,5-0.1c0.5-0.5,0.7-1,0.8-1.5c0-0.5-0.2-1-0.7-1.5 c-0.2-0.2-0.4-0.3-0.5-0.4c-0.2-0.1-0.4-0.1-0.7-0.1c-0.3,0-0.6,0.1-1.1,0.2c-0.4,0.1-1,0.2-1.7,0.4c-0.6,0.2-1.2,0.3-1.7,0.4 c-0.5,0.1-1,0.1-1.4,0.1c-0.4,0-0.8-0.1-1.1-0.2c-0.3-0.1-0.7-0.4-1-0.7c-0.4-0.4-0.7-0.8-0.9-1.3c-0.2-0.5-0.3-0.9-0.3-1.4 c0-0.5,0.1-0.9,0.3-1.4c0.2-0.5,0.5-0.9,0.8-1.3c0.3-0.3,0.7-0.6,1.1-0.8c0.4-0.2,0.9-0.4,1.3-0.5l0-0.7l0.3-0.3l2.6,2.5 l-0.5,0.5c-1-0.4-1.8-0.7-2.4-0.7c-0.6,0-1.1,0.2-1.6,0.7c-0.4,0.4-0.6,0.8-0.6,1.3c0,0.5,0.2,0.9,0.5,1.2 c0.2,0.2,0.4,0.3,0.6,0.4c0.2,0.1,0.5,0.1,0.7,0.1c0.3,0,0.6,0,1-0.1c0.4-0.1,0.8-0.2,1.3-0.3c0.8-0.2,1.5-0.4,2.1-0.5 c0.6-0.1,1.1-0.2,1.6-0.2c0.5,0,0.9,0.1,1.2,0.2c0.4,0.1,0.7,0.4,1,0.7c0.8,0.8,1.2,1.7,1.2,2.8c-0.1,1-0.5,2-1.4,2.9 c-0.9,0.9-2,1.5-3.1,1.6L82.6,54z"></path> </g> <g> <path fill="#1F1D1E" d="M82.6,37.8L82,37.1c0.4-0.9,0.6-1.8,0.7-2.5c0.1-0.7,0-1.4-0.2-2.2L83,32l1.9,2.5l2.6-2.1l0.7,0.9 l-2.6,2.1l4.7,6c0.4,0.5,0.7,0.8,1,1.1c0.3,0.3,0.6,0.5,0.8,0.6c0.3,0.1,0.5,0.1,0.7,0.1c0.2-0.1,0.5-0.2,0.7-0.4 c0.3-0.3,0.6-0.5,0.7-0.9c0.1-0.3,0.2-0.7,0.1-1.2l0.8,0c0.2,0.6,0.2,1.2-0.1,1.9c-0.3,0.6-0.7,1.2-1.4,1.7 c-0.9,0.7-1.7,1-2.5,0.9c-0.8-0.1-1.5-0.5-2.1-1.2l-5.5-7L82.6,37.8z"></path> </g> <g> <path fill="#1F1D1E" d="M113.9,17.1l-0.9,0.4c-0.3-0.6-0.7-1.1-1-1.5c-0.4-0.4-0.7-0.6-1.2-0.7c-0.4-0.1-0.9-0.1-1.4,0 c-0.5,0.1-1.1,0.3-1.8,0.6c-0.6,0.2-1,0.4-1.4,0.6c-0.3,0.2-0.6,0.3-0.7,0.5c-0.2,0.1-0.2,0.3-0.3,0.4s0,0.2,0.1,0.4l5.2,12.3 c0.2,0.5,0.4,0.9,0.6,1.2s0.5,0.6,0.8,0.7c0.3,0.1,0.7,0.2,1.1,0.1s1-0.2,1.6-0.5l0.4,0.9l-8.7,3.6l-0.4-0.9 c0.6-0.3,1.1-0.6,1.5-0.9s0.6-0.6,0.7-0.9c0.1-0.3,0.1-0.7,0.1-1c-0.1-0.4-0.2-0.8-0.4-1.3l-5.2-12.3c-0.1-0.1-0.1-0.2-0.2-0.3 c-0.1-0.1-0.2-0.1-0.4-0.1c-0.2,0-0.4,0.1-0.7,0.2c-0.3,0.1-0.7,0.3-1.2,0.5c-0.6,0.3-1.1,0.5-1.6,0.8c-0.5,0.3-0.9,0.6-1.2,1 c-0.3,0.4-0.4,0.8-0.5,1.4c0,0.6,0.1,1.2,0.4,2.1l-0.9,0.4l-1.8-4.4l17.3-7.3L113.9,17.1z"></path> </g> <g> <path fill="#1F1D1E" d="M122.5,26.1c0.1,0.7,0.3,1.2,0.4,1.6c0.1,0.4,0.3,0.7,0.5,0.8c0.2,0.2,0.4,0.3,0.7,0.3 c0.3,0,0.6,0,1.1-0.1l0.2,0.9l-6.5,1.4l-0.2-0.9c0.5-0.1,0.8-0.2,1.1-0.4c0.3-0.1,0.4-0.3,0.5-0.5c0.1-0.2,0.1-0.5,0.1-0.9 c0-0.4-0.1-0.9-0.3-1.5l-0.6-2.8c-0.2-1.1-0.4-2-0.6-2.6c-0.2-0.6-0.3-1-0.5-1.3s-0.5-0.4-0.8-0.4c-0.3,0-0.7,0.1-1.2,0.2 l-0.2-0.9l4.1-1.9l1,2.9l0.1,0c0.1-0.5,0.3-1,0.5-1.5s0.5-0.9,0.8-1.3c0.3-0.4,0.6-0.7,1-0.9c0.4-0.3,0.8-0.4,1.2-0.5 c0.5-0.1,1-0.1,1.3,0.1c0.4,0.2,0.6,0.5,0.7,0.9c0.1,0.4,0,0.7-0.2,1c-0.2,0.3-0.5,0.5-1,0.6c-0.3,0.1-0.5,0.1-0.7,0 c-0.2,0-0.4-0.1-0.5-0.1c-0.2,0-0.3-0.1-0.4-0.1c-0.1,0-0.3,0-0.4,0c-0.4,0.1-0.8,0.5-1.1,1.1c-0.3,0.7-0.5,1.4-0.5,2.4 c0,0.5,0,1.1,0.1,1.7c0.1,0.6,0.2,1.2,0.3,1.9L122.5,26.1z"></path> </g> <g> <path fill="#1F1D1E" d="M140.5,18.8c0-0.7-0.1-1.2-0.1-1.6c0-0.4-0.1-0.7-0.3-0.9c-0.1-0.2-0.4-0.3-0.6-0.4 c-0.3-0.1-0.7-0.1-1.1-0.1l0-0.9l4.5-0.2l0.3,7.6c0,0.9,0.1,1.7,0.1,2.3c0,0.6,0.1,1,0.2,1.3c0,0.2,0.1,0.4,0.2,0.5 c0.1,0.1,0.2,0.2,0.3,0.3c0.2,0.1,0.3,0.1,0.6,0.1c0.2,0,0.6,0,0.9,0l0,0.9l-4.1,0.5l-0.4-3l-0.1,0c-0.6,1.1-1.3,1.8-2.1,2.3 c-0.8,0.5-1.7,0.8-2.5,0.8c-0.7,0-1.4-0.1-2-0.3c-0.7-0.2-1.2-0.6-1.5-1c-0.3-0.4-0.5-0.9-0.7-1.5c-0.1-0.6-0.2-1.5-0.3-2.5 l-0.2-4c0-0.7-0.1-1.2-0.1-1.6c0-0.4-0.1-0.7-0.3-0.9c-0.1-0.2-0.4-0.3-0.6-0.4c-0.3-0.1-0.7-0.1-1.1-0.1l0-0.9l4.5-0.2l0.3,6.8 c0.1,1.8,0.3,3.1,0.8,3.9c0.5,0.8,1.1,1.2,2.1,1.1c1.5-0.1,2.6-1.1,3.3-3c0.1-0.2,0.1-0.4,0.2-0.6c0-0.2,0.1-0.4,0.1-0.6 c0-0.2,0-0.4,0-0.7c0-0.2,0-0.5,0-0.9L140.5,18.8z"></path> </g> <g> <path fill="#1F1D1E" d="M147.8,28.3l-0.5-0.1l0.6-4.2l0.6,0.1c0.3,2.4,1.3,3.7,3,4c0.7,0.1,1.2,0,1.6-0.3 c0.4-0.3,0.7-0.7,0.8-1.4c0-0.2,0-0.5,0-0.6c-0.1-0.2-0.2-0.4-0.3-0.6c-0.2-0.2-0.4-0.5-0.8-0.8c-0.3-0.3-0.8-0.7-1.3-1.1 c-0.5-0.4-1-0.8-1.3-1.2c-0.4-0.4-0.7-0.7-0.9-1c-0.2-0.3-0.4-0.7-0.5-1.1c-0.1-0.4-0.1-0.8,0-1.2c0.1-0.6,0.2-1.1,0.5-1.5 c0.3-0.4,0.6-0.8,0.9-1.1c0.4-0.3,0.8-0.5,1.3-0.6c0.5-0.1,1-0.2,1.5-0.1c0.4,0.1,0.9,0.2,1.4,0.4c0.5,0.2,0.9,0.4,1.2,0.7 L156,16l0.5,0.1l-0.5,3.6l-0.6-0.1c-0.2-1.1-0.5-1.8-0.9-2.3c-0.4-0.5-0.9-0.8-1.5-0.9c-0.6-0.1-1,0-1.4,0.3 c-0.4,0.3-0.6,0.6-0.7,1.2c0,0.3,0,0.5,0,0.7c0.1,0.2,0.2,0.4,0.3,0.7c0.2,0.2,0.4,0.5,0.7,0.7c0.3,0.2,0.6,0.5,1,0.9 c0.6,0.5,1.2,1,1.7,1.4c0.5,0.4,0.8,0.8,1.1,1.2c0.3,0.4,0.5,0.8,0.5,1.1c0.1,0.4,0.1,0.8,0.1,1.3c-0.2,1.2-0.7,2-1.5,2.6 c-0.8,0.6-1.9,0.8-3.1,0.6c-1.3-0.2-2.3-0.7-3.2-1.6L147.8,28.3z"></path> </g> <g> <path fill="#1F1D1E" d="M160.9,18.6l0.2-0.9c1-0.3,1.8-0.6,2.4-0.9c0.6-0.4,1.1-0.9,1.6-1.5l0.7,0.2l-0.8,3l3.2,0.9l-0.3,1.1 l-3.2-0.9l-2,7.3c-0.2,0.6-0.3,1-0.3,1.4c0,0.4,0,0.7,0,1c0.1,0.3,0.2,0.5,0.4,0.6c0.2,0.2,0.4,0.3,0.8,0.4 c0.4,0.1,0.8,0.1,1.1,0c0.3-0.1,0.7-0.3,1.1-0.6l0.5,0.6c-0.4,0.5-0.9,0.9-1.5,1c-0.6,0.2-1.4,0.1-2.2-0.1 c-1.1-0.3-1.8-0.8-2.2-1.4s-0.5-1.5-0.2-2.4l2.3-8.5L160.9,18.6z"></path> </g> <g> <path fill="#1F1D1E" d="M171.9,34.7l-0.8-0.4l1.7-10.7c0.1-0.5,0.1-0.9,0.1-1.2c0-0.3,0-0.6-0.1-0.8c-0.1-0.2-0.2-0.4-0.4-0.6 c-0.2-0.2-0.5-0.3-0.8-0.5l0.4-0.8l5.9,2.9l-0.4,0.8c-0.6-0.3-1-0.4-1.3-0.4c-0.3,0-0.5,0.2-0.7,0.5c-0.1,0.1-0.1,0.3-0.2,0.6 c-0.1,0.2-0.1,0.5-0.2,0.8l-1.1,6.1l0.1,0l7.4-6.7l0.7,0.3l-1.1,9.8l0.1,0l3.1-3c0.4-0.4,0.8-0.7,1.1-1c0.3-0.3,0.5-0.5,0.7-0.7 c0.2-0.2,0.3-0.4,0.4-0.5c0.1-0.1,0.2-0.3,0.3-0.4c0.2-0.3,0.2-0.6,0-0.8c-0.1-0.2-0.5-0.5-1.1-0.8l0.4-0.8l4.5,2.2l-0.4,0.8 c-0.2-0.1-0.4-0.2-0.6-0.2c-0.2,0-0.4,0-0.7,0.2c-0.3,0.1-0.5,0.3-0.9,0.6c-0.3,0.3-0.8,0.6-1.3,1.1l-7.7,6.8l-0.8-0.4l1.4-9.6 l-0.1,0L171.9,34.7z"></path> </g> <g> <path fill="#1F1D1E" d="M191.1,41.3c-0.4,0.5-0.7,1-1,1.3c-0.2,0.3-0.3,0.6-0.4,0.9c0,0.3,0.1,0.5,0.2,0.7 c0.2,0.2,0.4,0.5,0.8,0.8l-0.5,0.7l-5.2-4.1l0.5-0.7c0.4,0.3,0.7,0.5,1,0.6c0.3,0.1,0.5,0.1,0.8,0.1c0.2-0.1,0.5-0.2,0.8-0.5 c0.3-0.3,0.6-0.7,1-1.1l1.8-2.3c0.7-0.9,1.2-1.6,1.6-2.1c0.4-0.5,0.6-0.9,0.7-1.3c0.1-0.3,0-0.6-0.2-0.8 c-0.2-0.2-0.5-0.5-0.9-0.8l0.5-0.7l4,2l-1.6,2.6l0.1,0.1c0.5-0.3,1-0.5,1.5-0.6c0.5-0.1,1-0.2,1.5-0.2c0.5,0,0.9,0.1,1.4,0.2 c0.4,0.1,0.8,0.3,1.2,0.6c0.4,0.3,0.7,0.7,0.8,1.1c0.1,0.4,0,0.8-0.3,1.1c-0.2,0.3-0.5,0.5-0.9,0.5c-0.3,0-0.7-0.1-1-0.4 c-0.2-0.2-0.4-0.3-0.5-0.5c-0.1-0.2-0.2-0.3-0.3-0.5c-0.1-0.1-0.1-0.3-0.2-0.4c-0.1-0.1-0.1-0.2-0.3-0.3 c-0.4-0.3-0.9-0.3-1.6-0.2c-0.7,0.2-1.4,0.5-2.2,1.1c-0.4,0.3-0.8,0.7-1.3,1.1c-0.4,0.4-0.9,0.9-1.3,1.4L191.1,41.3z"></path> </g> <g> <path fill="#1F1D1E" d="M208.8,44.9c0.6,0.7,1.1,1.5,1.4,2.3c0.3,0.9,0.5,1.7,0.4,2.6c0,0.9-0.2,1.7-0.6,2.6 c-0.4,0.8-0.9,1.6-1.6,2.2c-0.8,0.7-1.6,1.2-2.5,1.4c-0.9,0.3-1.8,0.4-2.6,0.3c-0.9-0.1-1.7-0.3-2.6-0.7 c-0.8-0.4-1.6-0.9-2.2-1.7c-0.6-0.7-1.1-1.5-1.4-2.3c-0.3-0.9-0.4-1.7-0.4-2.6c0-0.9,0.2-1.7,0.6-2.6c0.4-0.8,1-1.6,1.7-2.3 c0.7-0.7,1.5-1.1,2.4-1.4c0.9-0.3,1.7-0.4,2.6-0.3c0.9,0.1,1.7,0.3,2.5,0.7C207.5,43.7,208.2,44.2,208.8,44.9z M207.9,45.7 c-0.4-0.5-0.9-0.8-1.4-1c-0.5-0.2-1.1-0.3-1.7-0.2c-0.6,0.1-1.2,0.3-1.9,0.6s-1.3,0.8-1.9,1.3c-0.6,0.6-1.2,1.2-1.6,1.8 c-0.4,0.6-0.7,1.2-0.8,1.8c-0.1,0.6-0.1,1.2,0,1.7c0.1,0.5,0.4,1.1,0.8,1.5c0.4,0.5,0.9,0.8,1.4,1c0.5,0.2,1.1,0.3,1.7,0.2 c0.6-0.1,1.2-0.3,1.9-0.6c0.7-0.3,1.3-0.8,1.9-1.3c0.6-0.6,1.1-1.1,1.5-1.7c0.4-0.6,0.6-1.2,0.7-1.8s0.1-1.2,0-1.7 C208.6,46.7,208.3,46.2,207.9,45.7z"></path> </g> <g> <path fill="#1F1D1E" d="M214.2,54.5L215,54c0.9,0.5,1.7,0.8,2.4,0.9s1.4,0.1,2.2,0l0.4,0.6l-2.6,1.7l1.8,2.8l-1,0.6l-1.8-2.8 l-6.4,4.1c-0.5,0.3-0.9,0.6-1.2,0.9c-0.3,0.3-0.5,0.5-0.7,0.8c-0.1,0.2-0.2,0.5-0.1,0.7c0,0.2,0.1,0.5,0.3,0.8 c0.2,0.3,0.5,0.6,0.8,0.7c0.3,0.2,0.7,0.2,1.2,0.2l-0.1,0.8c-0.6,0.1-1.3,0.1-1.8-0.3c-0.6-0.3-1.1-0.8-1.6-1.5 c-0.6-0.9-0.8-1.8-0.7-2.5s0.6-1.4,1.4-1.9l7.4-4.8L214.2,54.5z"></path> </g> <g> <path fill="#1F1D1E" d="M214.9,70.8c-0.6,0.3-1.1,0.5-1.5,0.7c-0.4,0.2-0.6,0.4-0.7,0.6c-0.1,0.2-0.2,0.5-0.1,0.7 c0,0.3,0.1,0.6,0.3,1.1l-0.8,0.3l-2.6-6.1l0.8-0.3c0.2,0.4,0.4,0.8,0.6,1c0.2,0.2,0.4,0.4,0.6,0.4c0.2,0.1,0.5,0,0.9-0.1 c0.4-0.1,0.8-0.3,1.4-0.5l9.6-4.1c0.9-0.4,1.6-0.7,2.1-1c0.5-0.3,0.9-0.5,1.2-0.6c0.2-0.1,0.3-0.2,0.4-0.3 c0.1-0.1,0.1-0.3,0.1-0.4c0-0.2,0-0.4-0.1-0.6c-0.1-0.2-0.2-0.5-0.3-0.9l0.8-0.3l2.7,3.8l-8.7,3.7l0,0.1 c0.4,0.1,0.8,0.3,1.2,0.5s0.8,0.5,1.1,0.8c0.4,0.3,0.7,0.7,1,1.1c0.3,0.4,0.5,0.8,0.7,1.2c0.3,0.7,0.5,1.4,0.5,2.1 c0,0.7-0.1,1.3-0.4,1.8c-0.2,0.4-0.6,0.8-1.1,1.2c-0.5,0.4-1.3,0.8-2.2,1.2l-3.7,1.6c-0.6,0.3-1.1,0.5-1.5,0.7 c-0.3,0.2-0.6,0.4-0.7,0.6c-0.1,0.2-0.2,0.5-0.2,0.7c0,0.3,0.1,0.6,0.3,1.1l-0.8,0.3l-2.6-6.1l0.8-0.3c0.2,0.4,0.4,0.7,0.6,1 c0.2,0.2,0.4,0.4,0.6,0.4c0.2,0.1,0.5,0,0.9-0.1c0.4-0.1,0.8-0.3,1.4-0.5l2.9-1.2c1.7-0.7,2.8-1.4,3.4-2.2s0.6-1.5,0.2-2.5 c-0.3-0.7-0.8-1.3-1.4-1.7c-0.6-0.4-1.3-0.7-2.1-0.7c-0.2,0-0.4,0-0.6,0c-0.2,0-0.3,0-0.5,0.1s-0.4,0.1-0.7,0.2 c-0.2,0.1-0.5,0.2-0.9,0.4L214.9,70.8z"></path> </g> <g> <path fill="#1F1D1E" d="M213.2,90.2c-1.8-0.4-2.9-1.4-3.2-3c-0.2-1,0.1-1.6,0.8-1.8c0.4-0.1,0.7,0,1,0.2 c0.2,0.2,0.5,0.7,0.8,1.5c0.1,0.3,0.2,0.6,0.4,0.8c0.1,0.2,0.3,0.4,0.5,0.6c0.2,0.2,0.4,0.3,0.6,0.4c0.2,0.1,0.5,0.2,0.9,0.3 l1.9,0.5L226,83c0.4-0.3,0.7-0.6,1-0.8c0.2-0.2,0.4-0.4,0.5-0.6c0.1-0.2,0.2-0.4,0.2-0.6c0-0.2,0-0.5,0-0.8l0.9-0.2l1.3,6.5 l-0.9,0.2c-0.2-1.1-0.6-1.6-1.1-1.5c-0.2,0-0.5,0.2-1,0.4c-0.4,0.2-0.9,0.5-1.3,0.8l-5.9,4l0,0.1l5.9,1.1 c0.6,0.1,1.1,0.2,1.4,0.3c0.4,0.1,0.7,0.1,0.9,0.1c0.2,0,0.4,0,0.6,0c0.2,0,0.3,0,0.4,0c0.4-0.1,0.7-0.3,0.8-0.5 c0.1-0.3,0.1-0.7-0.1-1.4l0.9-0.2l1.1,5.4l-0.9,0.2c-0.1-0.3-0.2-0.6-0.3-0.8c-0.1-0.2-0.4-0.4-0.7-0.5 c-0.3-0.2-0.8-0.3-1.4-0.5c-0.6-0.2-1.4-0.3-2.4-0.5L213.2,90.2z"></path> </g> </g> <g> <g> <path fill="#1F1D1E" d="M232.5,133.2l-0.1,0.6l-4.6-0.8l0.1-0.7c1.2-0.1,2.2-0.4,3.1-1.1c0.8-0.7,1.4-1.6,1.6-2.8 c0.2-0.8,0.2-1.6,0-2.3c-0.2-0.7-0.5-1.3-1-1.9c-0.5-0.6-1.2-1-2-1.4c-0.8-0.4-1.8-0.7-2.8-0.9c-2.1-0.4-3.8-0.3-5.2,0.3 c-1.3,0.6-2.2,1.8-2.5,3.5c-0.5,2.5,0.5,4.5,3,5.7l-0.2,0.8l-4.9-1l0.1-0.7l1.7-0.1c-0.9-1.6-1.1-3.4-0.7-5.4 c0.2-1.1,0.6-2.1,1.2-2.9c0.5-0.8,1.2-1.5,2-2c0.8-0.5,1.7-0.8,2.7-1s2.1-0.1,3.2,0.1c1.2,0.2,2.3,0.7,3.2,1.2 c0.9,0.6,1.7,1.3,2.2,2.1c0.6,0.8,1,1.7,1.2,2.7c0.2,1,0.2,2.1,0,3.2c-0.2,0.8-0.4,1.5-0.8,2.2c-0.4,0.7-0.9,1.3-1.6,2 L232.5,133.2z"></path> </g> <g> <path fill="#1F1D1E" d="M224.6,141.8c-0.3,0.7-0.7,1.3-1.2,1.9c-0.5,0.5-1.1,1-1.7,1.3c-0.6,0.3-1.3,0.5-2.1,0.5 c-0.7,0-1.5-0.1-2.2-0.4c-0.8-0.3-1.4-0.7-1.9-1.3c-0.5-0.5-0.9-1.1-1.2-1.8c-0.3-0.7-0.4-1.4-0.4-2.1c0-0.7,0.1-1.5,0.4-2.2 c0.3-0.7,0.7-1.3,1.2-1.8c0.5-0.5,1.1-0.9,1.7-1.2c0.7-0.3,1.4-0.4,2.1-0.5c0.8,0,1.5,0.1,2.3,0.4c0.7,0.3,1.4,0.7,1.9,1.2 c0.5,0.5,0.9,1.1,1.2,1.8c0.3,0.7,0.4,1.3,0.4,2.1C225,140.4,224.9,141.1,224.6,141.8z M223.7,141.4c0.2-0.5,0.3-0.9,0.2-1.4 c0-0.5-0.2-0.9-0.5-1.3c-0.3-0.4-0.6-0.8-1.1-1.1c-0.5-0.3-1-0.6-1.6-0.9c-0.7-0.3-1.3-0.4-1.9-0.5c-0.6-0.1-1.1,0-1.6,0.1 c-0.5,0.1-0.9,0.3-1.2,0.6c-0.3,0.3-0.6,0.7-0.8,1.2c-0.2,0.5-0.3,0.9-0.2,1.4c0,0.5,0.2,0.9,0.5,1.3c0.3,0.4,0.6,0.8,1.1,1.2 c0.5,0.4,1,0.7,1.7,0.9c0.6,0.2,1.2,0.4,1.8,0.4c0.6,0.1,1.1,0,1.6-0.1c0.5-0.1,0.9-0.3,1.3-0.7 C223.2,142.3,223.5,141.9,223.7,141.4z"></path> </g> <g> <path fill="#1F1D1E" d="M213,149c-0.5-0.3-0.8-0.5-1.1-0.7c-0.3-0.2-0.5-0.2-0.7-0.2c-0.2,0-0.4,0.1-0.5,0.2 c-0.2,0.1-0.4,0.4-0.6,0.7l-0.6-0.4l2.9-4.5l0.6,0.4c-0.2,0.3-0.3,0.6-0.4,0.8c-0.1,0.2-0.1,0.4,0,0.6c0.1,0.2,0.2,0.4,0.5,0.6 c0.2,0.2,0.6,0.4,1,0.7l2.2,1.4c0.6,0.4,1.2,0.8,1.6,1c0.4,0.3,0.7,0.4,0.9,0.5c0.2,0.1,0.3,0.1,0.4,0.1c0.1,0,0.2,0,0.3-0.1 c0.1-0.1,0.2-0.2,0.4-0.3c0.1-0.2,0.3-0.4,0.4-0.6l0.6,0.4l-1.2,3.2l-1.8-0.9l-0.1,0.1c0.2,0.9,0.3,1.7,0.2,2.4 c-0.1,0.7-0.4,1.4-0.8,2.1c-0.5,0.7-1,1.2-1.6,1.5c-0.6,0.3-1.2,0.4-1.9,0.2l0,0.1c0.3,0.8,0.3,1.5,0.2,2.3 c-0.1,0.8-0.4,1.5-0.8,2.2c-0.3,0.5-0.8,1-1.2,1.3c-0.5,0.3-0.9,0.5-1.4,0.5c-0.4,0-0.8,0-1.3-0.2c-0.5-0.2-1.1-0.5-1.8-1 l-2.7-1.8c-0.5-0.3-0.8-0.5-1.1-0.7c-0.3-0.2-0.5-0.2-0.7-0.2c-0.2,0-0.4,0.1-0.6,0.2c-0.2,0.2-0.4,0.4-0.6,0.7l-0.6-0.4 l2.9-4.5l0.6,0.4c-0.2,0.3-0.3,0.6-0.4,0.8c-0.1,0.2-0.1,0.4,0,0.6s0.2,0.4,0.5,0.6c0.2,0.2,0.6,0.4,1,0.7l2.1,1.4 c0.6,0.4,1.2,0.7,1.7,1c0.5,0.2,0.9,0.3,1.3,0.4c0.4,0,0.7,0,1-0.2c0.3-0.2,0.6-0.4,0.8-0.8c0.3-0.5,0.5-1,0.5-1.7 c0-0.6-0.1-1.2-0.4-1.7c-0.1-0.1-0.2-0.3-0.2-0.4c-0.1-0.1-0.2-0.2-0.3-0.3c-0.1-0.1-0.3-0.2-0.4-0.3c-0.2-0.1-0.4-0.3-0.7-0.5 l-2.1-1.4c-0.5-0.3-0.8-0.5-1.1-0.7c-0.3-0.2-0.5-0.2-0.7-0.2c-0.2,0-0.4,0.1-0.6,0.2c-0.2,0.2-0.4,0.4-0.6,0.7l-0.6-0.4 l2.9-4.5l0.6,0.4c-0.2,0.3-0.3,0.6-0.4,0.8c-0.1,0.2-0.1,0.4,0,0.6c0.1,0.2,0.2,0.4,0.5,0.6c0.2,0.2,0.6,0.4,1,0.7l2.1,1.4 c0.7,0.4,1.2,0.8,1.7,1c0.5,0.2,0.9,0.4,1.3,0.4c0.4,0,0.7,0,1-0.2c0.3-0.2,0.5-0.4,0.8-0.8c0.3-0.5,0.5-1.1,0.5-1.7 c0-0.6-0.1-1.2-0.4-1.7c-0.1-0.1-0.2-0.2-0.2-0.4c-0.1-0.1-0.2-0.2-0.3-0.3c-0.1-0.1-0.3-0.2-0.4-0.3c-0.2-0.1-0.4-0.3-0.7-0.5 L213,149z"></path> </g> <g> <path fill="#1F1D1E" d="M204.4,170.4L204.4,170.4c0,0.7,0,1.3-0.2,1.9c-0.1,0.6-0.5,1.1-0.9,1.5c-0.5,0.5-1.1,0.9-1.8,1.2 c-0.6,0.3-1.3,0.4-2,0.3c-0.7,0-1.4-0.2-2-0.5c-0.7-0.3-1.3-0.7-1.8-1.3c-0.6-0.6-1-1.2-1.3-1.9c-0.3-0.7-0.4-1.3-0.4-2 c0-0.7,0.1-1.3,0.4-2c0.3-0.6,0.7-1.2,1.2-1.8c0.4-0.4,0.9-0.8,1.4-1c0.5-0.2,1.1-0.3,1.7-0.3l-2.1-2.1c-0.4-0.4-0.7-0.7-1-0.9 c-0.3-0.2-0.5-0.3-0.8-0.3c-0.2,0-0.5,0.1-0.7,0.2c-0.3,0.2-0.6,0.4-0.9,0.8l-0.5-0.5l4.4-4.4l0.5,0.5c-0.3,0.3-0.5,0.6-0.6,0.8 c-0.1,0.2-0.2,0.4-0.2,0.7c0,0.2,0.1,0.5,0.3,0.7c0.2,0.3,0.4,0.6,0.8,0.9l5.3,5.4c0.6,0.6,1,1,1.4,1.3c0.4,0.3,0.6,0.6,0.8,0.7 c0.3,0.2,0.5,0.2,0.8,0.1c0.3-0.1,0.6-0.4,1.1-0.8l0.5,0.5l-2.2,3.3L204.4,170.4z M203.6,170.4c-0.1-0.3-0.2-0.6-0.4-1 c-0.2-0.3-0.5-0.7-0.9-1.1l-1.1-1.1c-0.3-0.3-0.5-0.5-0.7-0.6c-0.2-0.2-0.4-0.3-0.5-0.4c-0.2-0.1-0.3-0.2-0.5-0.2 c-0.2-0.1-0.3-0.1-0.5-0.1c-0.5-0.1-1-0.1-1.5,0.1c-0.5,0.1-0.9,0.4-1.2,0.7c-0.7,0.7-0.9,1.5-0.8,2.4c0.1,1,0.7,1.9,1.7,2.9 c0.5,0.5,1,0.9,1.5,1.2c0.5,0.3,1,0.5,1.5,0.6c0.5,0.1,1,0.1,1.4,0c0.4-0.1,0.8-0.3,1.2-0.7c0.3-0.3,0.6-0.7,0.7-1.2 C203.6,171.4,203.7,170.9,203.6,170.4z"></path> </g> <g> <path fill="#1F1D1E" d="M189.9,179.8l0.5,0.7c1,1.3,2,1.6,3.1,0.7c0.2-0.1,0.3-0.3,0.4-0.4c0.1-0.1,0.2-0.3,0.2-0.4 c0-0.1,0-0.3,0-0.5c0-0.2-0.1-0.4-0.2-0.7c-0.1-0.4-0.1-0.7-0.1-0.9s0.2-0.4,0.4-0.5c0.5-0.4,1-0.3,1.4,0.2 c0.4,0.5,0.4,1.1,0.1,1.8c-0.3,0.7-1,1.4-2,2.2c-1.1,0.8-2,1.2-2.7,1.1c-0.7,0-1.4-0.5-2.1-1.5l-2.7-3.6 c-0.9-1.2-1.6-1.7-2.1-1.3c-0.2,0.1-0.3,0.2-0.4,0.4c-0.1,0.1-0.2,0.3-0.1,0.6l-0.5-0.2c-0.1-0.3,0-0.7,0.3-1.2 c0.2-0.4,0.5-0.8,0.9-1.1c0.5-0.4,0.9-0.5,1.4-0.3c0.5,0.1,0.9,0.5,1.3,1l0.1-0.1c-0.1-0.7,0-1.4,0.2-2.1 c0.3-0.7,0.7-1.2,1.3-1.7c0.7-0.5,1.3-0.7,2-0.7c0.6,0.1,1.2,0.4,1.6,1c0.2,0.3,0.3,0.5,0.4,0.8c0.1,0.3,0.1,0.6,0.1,1 c0,0.4-0.2,0.8-0.3,1.2c-0.2,0.5-0.4,1-0.8,1.5L189.9,179.8z M189.4,179.1c0.4-0.7,0.8-1.3,1.1-1.9c0.3-0.5,0.4-1,0.5-1.4 c0.1-0.4,0.1-0.8,0.1-1.1c-0.1-0.3-0.2-0.6-0.3-0.8c-0.3-0.4-0.6-0.6-1-0.6c-0.4-0.1-0.8,0.1-1.2,0.4c-0.3,0.2-0.5,0.5-0.6,0.8 c-0.1,0.3-0.2,0.7-0.2,1c0,0.4,0.1,0.8,0.2,1.2c0.1,0.4,0.3,0.8,0.6,1.2L189.4,179.1z"></path> </g> <g> <path fill="#1F1D1E" d="M180.6,181.4c-0.3-0.5-0.5-0.9-0.6-1.1c-0.2-0.3-0.3-0.4-0.5-0.5s-0.4-0.1-0.6-0.1 c-0.2,0.1-0.5,0.2-0.9,0.3l-0.3-0.6l4.7-2.5l0.3,0.6c-0.3,0.2-0.6,0.4-0.7,0.5c-0.2,0.2-0.3,0.3-0.3,0.5c0,0.2,0,0.4,0.1,0.7 c0.1,0.3,0.3,0.6,0.5,1.1l1.2,2.4c0.7,1.4,1.2,2.3,1.5,2.5c0.1,0.1,0.2,0.2,0.3,0.3c0.1,0.1,0.2,0.1,0.4,0.1 c0.1,0,0.3,0,0.5-0.1c0.2-0.1,0.4-0.2,0.7-0.3l0.3,0.6l-2.5,2.2l-1.1-1.7l-0.1,0c-0.2,0.8-0.5,1.5-0.9,2.1s-1,1.1-1.7,1.5 c-0.5,0.3-1.1,0.5-1.6,0.5c-0.5,0.1-1,0-1.4-0.2c-0.3-0.2-0.7-0.4-1-0.8c-0.3-0.4-0.7-1-1.1-1.7l-1.6-3 c-0.3-0.5-0.5-0.9-0.7-1.1c-0.2-0.3-0.4-0.4-0.5-0.5c-0.2-0.1-0.4-0.1-0.6-0.1c-0.2,0.1-0.5,0.2-0.8,0.3l-0.3-0.6l4.6-2.4 l0.3,0.6c-0.3,0.2-0.6,0.4-0.7,0.5c-0.2,0.2-0.3,0.3-0.3,0.5c0,0.2,0,0.4,0.1,0.7c0.1,0.3,0.3,0.6,0.5,1.1l1.2,2.4 c0.4,0.7,0.7,1.2,1,1.7c0.3,0.4,0.6,0.7,0.9,0.9c0.3,0.2,0.6,0.3,1,0.3c0.3,0,0.7-0.1,1-0.3c0.5-0.3,1-0.7,1.3-1.2 c0.3-0.5,0.4-1.1,0.4-1.7c0-0.1,0-0.3,0-0.4c0-0.1,0-0.3-0.1-0.4c-0.1-0.2-0.1-0.3-0.2-0.5c-0.1-0.2-0.2-0.4-0.4-0.7 L180.6,181.4z"></path> </g> <g> <path fill="#1F1D1E" d="M167.9,187.3c-0.2-0.5-0.4-0.9-0.5-1.2c-0.2-0.3-0.3-0.5-0.5-0.6c-0.2-0.1-0.4-0.2-0.7-0.1 c-0.3,0-0.6,0.1-0.9,0.2l-0.2-0.7l5.4-2l0.2,0.7c-0.4,0.2-0.7,0.3-0.9,0.5c-0.2,0.2-0.4,0.3-0.4,0.6c-0.1,0.2-0.1,0.5,0,0.8 c0.1,0.3,0.2,0.7,0.3,1.1l0.9,2.4c0.3,0.7,0.5,1.3,0.7,1.8c0.2,0.5,0.4,0.8,0.5,0.9c0.2,0.3,0.4,0.4,0.7,0.4 c0.3,0,0.7-0.1,1.3-0.3l0.2,0.7l-3.4,2.1L167.9,187.3z M174.2,197.5c0.1,0.3,0.1,0.6,0,1c-0.1,0.3-0.4,0.5-0.7,0.7 c-0.3,0.1-0.6,0.1-1,0c-0.3-0.1-0.5-0.4-0.7-0.7c-0.1-0.3-0.1-0.6,0-1c0.1-0.3,0.4-0.5,0.7-0.7c0.3-0.1,0.6-0.1,1,0 C173.8,196.9,174.1,197.1,174.2,197.5z"></path> </g> <g> <path fill="#1F1D1E" d="M155.2,189.5c0.8-1.6,2-2.6,3.6-3.1c0.8-0.2,1.5-0.2,2.2-0.2c0.7,0.1,1.3,0.3,1.9,0.7 c0.6,0.3,1.1,0.8,1.5,1.4c0.4,0.6,0.7,1.3,0.9,2c0.2,0.8,0.3,1.6,0.2,2.3c-0.1,0.7-0.3,1.4-0.7,2c-0.4,0.6-0.8,1.1-1.4,1.6 c-0.6,0.4-1.3,0.8-2.1,1c-1.3,0.3-2.3,0.2-3.2-0.3c-0.9-0.5-1.5-1.4-1.8-2.7c0-0.2,0-0.3,0-0.4c0.1-0.1,0.2-0.1,0.5-0.2l6.4-1.7 c0-0.1,0-0.2,0-0.4c0-0.2-0.1-0.3-0.1-0.5c-0.2-0.7-0.4-1.3-0.7-1.8s-0.7-0.9-1.1-1.2c-0.4-0.3-0.8-0.5-1.3-0.6 c-0.5-0.1-1-0.1-1.5,0c-0.5,0.1-1,0.4-1.4,0.8c-0.4,0.4-0.8,0.9-1.1,1.6L155.2,189.5z M159.8,194c-0.3,0.1-0.5,0.1-0.6,0.2 c-0.2,0.1-0.3,0.1-0.3,0.2c-0.1,0.1-0.1,0.1-0.1,0.2c0,0.1,0,0.2,0,0.3c0.2,0.6,0.5,1,0.9,1.3c0.5,0.3,1,0.3,1.7,0.1 c1.4-0.4,2.1-1.4,2-3.2L159.8,194z"></path> </g> <g> <path fill="#1F1D1E" d="M152.5,188l0.4-0.1l0.5,3.4l-0.5,0.1c-0.8-1.8-1.8-2.6-3.2-2.4c-0.5,0.1-0.9,0.3-1.2,0.6 c-0.3,0.3-0.4,0.7-0.3,1.3c0,0.2,0.1,0.4,0.2,0.5c0.1,0.1,0.2,0.3,0.4,0.4c0.2,0.1,0.4,0.3,0.8,0.4c0.3,0.2,0.8,0.4,1.3,0.6 c0.5,0.2,0.9,0.4,1.3,0.6c0.4,0.2,0.7,0.4,0.9,0.6c0.3,0.2,0.5,0.5,0.6,0.7c0.1,0.3,0.2,0.6,0.3,1c0.1,0.5,0,0.9-0.1,1.3 c-0.1,0.4-0.3,0.8-0.5,1.1s-0.5,0.6-0.9,0.8c-0.3,0.2-0.7,0.3-1.1,0.4c-0.4,0-0.7,0-1.1,0c-0.4-0.1-0.8-0.2-1.1-0.3l-0.3,0.5 l-0.4,0l-0.4-2.9l0.5-0.1c0.4,0.8,0.8,1.3,1.2,1.6c0.4,0.3,0.8,0.4,1.3,0.4c0.5-0.1,0.8-0.2,1-0.5c0.2-0.3,0.3-0.6,0.3-1.1 c0-0.2-0.1-0.4-0.2-0.6c-0.1-0.2-0.2-0.3-0.4-0.4c-0.2-0.1-0.4-0.3-0.7-0.4c-0.3-0.1-0.6-0.3-1-0.5c-0.6-0.3-1.2-0.5-1.6-0.8 c-0.4-0.2-0.8-0.5-1.1-0.7c-0.3-0.2-0.5-0.5-0.7-0.8c-0.2-0.3-0.3-0.6-0.3-1c-0.1-0.9,0.1-1.7,0.6-2.4c0.5-0.6,1.3-1,2.3-1.1 c1-0.1,2,0,2.8,0.5L152.5,188z"></path> </g> <g> <path fill="#1F1D1E" d="M132.7,199.8c-0.8-0.1-1.5-0.2-2.1-0.6c-0.7-0.3-1.2-0.7-1.7-1.3c-0.5-0.5-0.9-1.1-1.1-1.8 c-0.3-0.7-0.4-1.4-0.3-2.2c0.1-0.8,0.3-1.6,0.6-2.2c0.4-0.7,0.8-1.2,1.4-1.7c0.6-0.5,1.2-0.8,1.9-1c0.7-0.2,1.4-0.3,2.2-0.3 c0.8,0.1,1.5,0.2,2.1,0.6c0.7,0.3,1.2,0.7,1.7,1.3c0.5,0.5,0.8,1.2,1.1,1.9c0.2,0.7,0.3,1.5,0.3,2.3c-0.1,0.8-0.3,1.5-0.6,2.2 s-0.8,1.2-1.3,1.6c-0.5,0.4-1.2,0.8-1.9,1C134.2,199.7,133.5,199.8,132.7,199.8z M132.8,198.8c0.5,0,1,0,1.4-0.2 c0.4-0.2,0.8-0.5,1.1-0.8c0.3-0.4,0.6-0.8,0.8-1.4c0.2-0.5,0.3-1.2,0.4-1.8c0-0.7,0-1.3-0.1-1.9c-0.1-0.6-0.3-1.1-0.6-1.5 c-0.3-0.4-0.6-0.7-1-1c-0.4-0.2-0.8-0.4-1.3-0.4c-0.5,0-1,0-1.4,0.2c-0.4,0.2-0.8,0.5-1.1,0.9c-0.3,0.4-0.6,0.8-0.8,1.4 c-0.2,0.6-0.3,1.2-0.4,1.9c0,0.7,0,1.3,0.1,1.8c0.1,0.6,0.3,1,0.6,1.5c0.3,0.4,0.6,0.7,1,1C131.8,198.6,132.3,198.8,132.8,198.8 z"></path> </g> <g> <path fill="#1F1D1E" d="M124.8,198.4l-2.2-0.4l-0.3,1.4c-0.3,1.5-0.9,2.6-1.9,3.3c-1,0.7-2.2,0.9-3.7,0.6 c-0.8-0.2-1.5-0.4-1.9-0.8c-0.5-0.4-0.7-0.7-0.6-1.1c0.1-0.3,0.2-0.5,0.4-0.6c0.2-0.1,0.4-0.2,0.7-0.1c0.2,0,0.3,0.1,0.5,0.2 c0.2,0.1,0.4,0.4,0.6,0.6c0.3,0.3,0.5,0.6,0.7,0.7c0.2,0.1,0.4,0.2,0.6,0.3c0.8,0.2,1.4-0.1,1.9-0.9c0.2-0.2,0.3-0.5,0.4-0.9 c0.1-0.4,0.3-0.9,0.4-1.6l0.3-1.5l-3.2-0.6l0.2-0.9l3.2,0.6l1.2-6.1c0.1-0.5,0.1-0.9,0.2-1.2c0-0.3-0.1-0.6-0.2-0.8 c-0.1-0.2-0.3-0.4-0.5-0.5c-0.3-0.1-0.6-0.2-1-0.3l0.1-0.7l5.6,1.1l-0.1,0.7c-0.4-0.1-0.7-0.1-0.9-0.1c-0.2,0-0.4,0.1-0.6,0.2 c-0.2,0.1-0.3,0.4-0.4,0.6c-0.1,0.3-0.2,0.7-0.3,1.2l-1.2,6.2l2.2,0.4L124.8,198.4z"></path> </g> <g> <path fill="#1F1D1E" d="M104.3,191.6l-0.3,0.7c-0.8,0.1-1.5,0.2-2,0.4c-0.5,0.2-1,0.5-1.5,1l-0.5-0.2l1.1-2.3l-2.5-1.1l0.4-0.9 l2.5,1.1l2.6-5.6c0.2-0.4,0.3-0.8,0.4-1.1c0.1-0.3,0.1-0.6,0.1-0.8c0-0.2-0.1-0.4-0.2-0.6c-0.1-0.1-0.3-0.3-0.6-0.4 c-0.3-0.1-0.6-0.2-0.9-0.2c-0.3,0-0.6,0.2-0.9,0.4l-0.3-0.6c0.4-0.4,0.8-0.6,1.4-0.6c0.5,0,1.1,0.1,1.7,0.4 c0.8,0.4,1.3,0.8,1.6,1.4c0.2,0.6,0.2,1.2-0.1,1.9l-3,6.5L104.3,191.6z"></path> </g> <g> <path fill="#1F1D1E" d="M97,181.1c0.3-0.5,0.5-0.8,0.7-1.1c0.1-0.3,0.2-0.5,0.2-0.7c0-0.2-0.1-0.4-0.2-0.5 c-0.2-0.2-0.4-0.4-0.7-0.6l0.4-0.6l4.6,2.8l-0.4,0.6c-0.3-0.2-0.6-0.3-0.9-0.4c-0.2-0.1-0.4-0.1-0.6,0c-0.2,0.1-0.4,0.2-0.6,0.5 c-0.2,0.2-0.4,0.6-0.7,1l-4.5,7.2c-0.4,0.7-0.7,1.2-1,1.6c-0.2,0.4-0.4,0.7-0.5,1c-0.1,0.2-0.1,0.3-0.1,0.4c0,0.1,0,0.2,0.1,0.3 c0.1,0.1,0.2,0.2,0.3,0.4c0.2,0.1,0.4,0.3,0.6,0.4l-0.4,0.6l-3.6-1.3l4.1-6.5l-0.1,0c-0.3,0.1-0.7,0.2-1,0.2c-0.4,0-0.8,0-1.1,0 c-0.4,0-0.8-0.1-1.1-0.3c-0.4-0.1-0.7-0.3-1-0.5c-0.5-0.3-1-0.7-1.3-1.2c-0.3-0.5-0.5-0.9-0.6-1.4c0-0.4,0-0.8,0.2-1.3 c0.2-0.5,0.5-1.1,0.9-1.8l1.7-2.7c0.3-0.5,0.5-0.8,0.7-1.1c0.1-0.3,0.2-0.5,0.2-0.7c0-0.2-0.1-0.4-0.2-0.6 c-0.2-0.2-0.4-0.4-0.7-0.6l0.4-0.6l4.5,2.8l-0.4,0.6c-0.3-0.2-0.6-0.3-0.8-0.4c-0.2-0.1-0.4-0.1-0.6,0c-0.2,0.1-0.4,0.2-0.6,0.5 c-0.2,0.2-0.4,0.6-0.7,1l-1.3,2.2c-0.8,1.3-1.2,2.3-1.3,3c0,0.7,0.3,1.3,1,1.7c0.5,0.3,1.1,0.5,1.7,0.5c0.6,0,1.2-0.2,1.7-0.5 c0.1-0.1,0.3-0.2,0.4-0.3c0.1-0.1,0.2-0.2,0.3-0.3c0.1-0.1,0.2-0.3,0.3-0.4s0.3-0.4,0.4-0.7L97,181.1z"></path> </g> <g> <path fill="#1F1D1E" d="M81.7,168.1c1.8-0.3,3.3,0.1,4.6,1.2c0.6,0.5,1.1,1.1,1.4,1.7c0.3,0.6,0.5,1.3,0.5,1.9 c0,0.7-0.1,1.3-0.3,2c-0.2,0.7-0.6,1.3-1.1,1.9c-0.5,0.6-1.1,1.1-1.8,1.5c-0.7,0.4-1.3,0.6-2,0.6c-0.7,0.1-1.4,0-2.1-0.2 c-0.7-0.2-1.4-0.6-2-1.1c-1-0.8-1.5-1.8-1.6-2.8c-0.1-1,0.3-2,1.2-3c0.1-0.1,0.2-0.2,0.3-0.2c0.1,0,0.2,0.1,0.4,0.3l5,4.3 c0.1-0.1,0.2-0.2,0.3-0.3c0.1-0.1,0.2-0.2,0.3-0.4c0.5-0.5,0.8-1.1,1-1.6c0.2-0.5,0.4-1.1,0.4-1.6c0-0.5-0.1-1-0.3-1.4 c-0.2-0.5-0.5-0.9-0.9-1.2c-0.4-0.4-0.9-0.6-1.4-0.7c-0.5-0.1-1.2-0.1-1.9,0L81.7,168.1z M80.7,174.4c-0.2-0.2-0.4-0.3-0.5-0.4 c-0.1-0.1-0.2-0.2-0.3-0.2c-0.1,0-0.2,0-0.2,0c-0.1,0-0.1,0.1-0.2,0.2c-0.4,0.5-0.6,1-0.5,1.5c0.1,0.5,0.4,1,0.9,1.5 c1.1,0.9,2.4,0.9,3.7-0.2L80.7,174.4z"></path> </g> <g> <path fill="#1F1D1E" d="M63.3,164c-0.2,0.4-0.3,0.7-0.4,0.9c-0.1,0.3-0.1,0.5-0.2,0.7c0,0.2,0,0.4,0.1,0.6 c0.1,0.2,0.2,0.4,0.3,0.6l-0.6,0.4l-3.5-5.3l0.6-0.4c0.4,0.6,0.7,0.9,0.9,1.1c0.2,0.2,0.5,0.2,0.7,0.1c0.2-0.2,0.5-0.5,0.8-1.1 l2.7-5.5l0-0.1l-4.5,0.2c-0.8,0-1.5,0.1-1.9,0.2c-0.4,0.1-0.8,0.2-1,0.3c-0.2,0.1-0.3,0.3-0.3,0.5c0,0.2,0.2,0.5,0.4,0.9 l-0.6,0.4l-2.5-3.9l0.6-0.4c0.2,0.2,0.3,0.4,0.5,0.6c0.2,0.1,0.5,0.2,0.8,0.3c0.3,0.1,0.8,0.1,1.3,0.1c0.5,0,1.2,0,2,0l6.1-0.3 l2-1.3c0.6-0.4,1-0.7,1.3-0.9c0.3-0.3,0.5-0.5,0.6-0.8c0.1-0.2,0.1-0.5,0-0.8c-0.1-0.3-0.3-0.6-0.5-1l0.6-0.4l3.6,5.5l-0.6,0.4 c-0.3-0.4-0.5-0.7-0.7-0.9c-0.2-0.2-0.5-0.3-0.7-0.3c-0.3,0-0.6,0.1-0.9,0.2c-0.3,0.2-0.8,0.4-1.3,0.8l-2.1,1.4L63.3,164z"></path> </g> <g> <path fill="#1F1D1E" d="M62.4,139.8c1.7,0.4,3,1.4,3.7,2.9c0.3,0.7,0.5,1.4,0.6,2.1c0,0.7,0,1.4-0.3,2c-0.2,0.6-0.6,1.2-1.1,1.7 c-0.5,0.5-1.1,1-1.8,1.3c-0.7,0.4-1.5,0.6-2.2,0.6c-0.7,0.1-1.5,0-2.1-0.2c-0.7-0.2-1.3-0.6-1.8-1.1c-0.5-0.5-1-1.1-1.3-1.8 c-0.6-1.2-0.7-2.2-0.4-3.2c0.3-0.9,1.1-1.7,2.3-2.3c0.2-0.1,0.3-0.1,0.4,0c0.1,0,0.2,0.2,0.3,0.4l2.9,6c0.1,0,0.2-0.1,0.4-0.1 c0.1-0.1,0.3-0.1,0.5-0.2c0.6-0.3,1.2-0.7,1.6-1.1c0.4-0.4,0.8-0.8,1-1.3c0.2-0.5,0.3-0.9,0.4-1.4c0-0.5-0.1-1-0.3-1.5 c-0.2-0.5-0.6-0.9-1-1.3c-0.4-0.3-1-0.6-1.7-0.8L62.4,139.8z M58.9,145.1c-0.1-0.2-0.2-0.4-0.3-0.6c-0.1-0.1-0.2-0.2-0.2-0.3 c-0.1-0.1-0.1-0.1-0.2-0.1c-0.1,0-0.2,0-0.3,0.1c-0.6,0.3-0.9,0.7-1.1,1.2c-0.2,0.5-0.1,1.1,0.2,1.7c0.6,1.3,1.8,1.7,3.5,1.3 L58.9,145.1z"></path> </g> <g> <path fill="#1F1D1E" d="M55.2,133.9l-0.8,0.3c-1.6,0.5-2.1,1.4-1.7,2.8c0.1,0.2,0.1,0.4,0.2,0.5c0.1,0.1,0.2,0.2,0.3,0.3 c0.1,0.1,0.3,0.1,0.5,0.2c0.2,0,0.4,0,0.7,0c0.4,0,0.7,0.1,0.9,0.2c0.2,0.1,0.3,0.3,0.4,0.5c0.2,0.6,0,1.1-0.6,1.3 c-0.6,0.2-1.2,0-1.7-0.5c-0.6-0.5-1-1.4-1.4-2.6c-0.4-1.3-0.5-2.3-0.2-2.9c0.3-0.7,1-1.2,2.1-1.6l4.3-1.4c1.5-0.5,2.1-1,1.9-1.6 c-0.1-0.2-0.1-0.3-0.2-0.5c-0.1-0.2-0.3-0.3-0.5-0.3l0.4-0.4c0.3,0.1,0.7,0.3,1,0.6s0.6,0.7,0.7,1.2c0.2,0.6,0.1,1-0.1,1.4 c-0.3,0.4-0.7,0.7-1.4,0.9l0,0.1c0.7,0.1,1.4,0.4,1.9,0.9c0.6,0.5,1,1.1,1.2,1.8c0.3,0.8,0.3,1.5,0,2.1c-0.3,0.6-0.7,1-1.4,1.2 c-0.3,0.1-0.6,0.1-0.9,0.1c-0.3,0-0.6-0.1-1-0.3c-0.3-0.2-0.7-0.4-1.1-0.7c-0.4-0.3-0.8-0.7-1.2-1.2L55.2,133.9z M56,133.6 c0.5,0.6,1,1.2,1.4,1.6s0.8,0.7,1.2,1c0.4,0.2,0.7,0.4,1,0.4c0.3,0,0.6,0,0.9-0.1c0.4-0.1,0.7-0.4,0.9-0.8 c0.2-0.4,0.2-0.8,0-1.2c-0.1-0.3-0.3-0.6-0.6-0.9c-0.3-0.2-0.6-0.4-0.9-0.5c-0.4-0.1-0.8-0.2-1.2-0.2c-0.4,0-0.9,0.1-1.3,0.2 L56,133.6z"></path> </g> <g> <path fill="#1F1D1E" d="M56.5,124.4c0.5-0.1,1-0.2,1.3-0.3c0.3-0.1,0.5-0.2,0.7-0.3c0.1-0.1,0.2-0.3,0.2-0.5 c0-0.2,0-0.5-0.1-0.9l0.7-0.1l1,5.3l-0.7,0.1c-0.1-0.4-0.2-0.7-0.3-0.9c-0.1-0.2-0.2-0.4-0.4-0.5c-0.2-0.1-0.4-0.1-0.7-0.1 c-0.3,0-0.7,0.1-1.2,0.2l-2.3,0.4c-0.9,0.2-1.6,0.3-2.1,0.4c-0.5,0.1-0.9,0.3-1.1,0.4c-0.2,0.2-0.3,0.4-0.3,0.6 c0,0.2,0,0.6,0.1,1l-0.7,0.1l-1.4-3.3l2.4-0.8l0-0.1c-0.4-0.1-0.8-0.2-1.2-0.4c-0.4-0.2-0.7-0.4-1-0.7c-0.3-0.3-0.5-0.5-0.7-0.8 c-0.2-0.3-0.3-0.6-0.4-1c-0.1-0.4,0-0.8,0.1-1.1s0.4-0.5,0.8-0.5c0.3-0.1,0.6,0,0.8,0.2c0.2,0.2,0.4,0.4,0.4,0.8 c0,0.2,0,0.4,0,0.5c0,0.2-0.1,0.3-0.1,0.4c0,0.1-0.1,0.2-0.1,0.3c0,0.1,0,0.2,0,0.3c0.1,0.4,0.4,0.7,0.9,0.9 c0.5,0.3,1.2,0.4,1.9,0.5c0.4,0,0.9,0,1.3,0c0.5,0,1-0.1,1.5-0.2L56.5,124.4z"></path> </g> </g> <g> <rect x="221.4" y="105.3" fill="#1F1D1E" width="15.4" height="1.4"></rect> </g> <g> <rect x="43.2" y="105.3" fill="#1F1D1E" width="15.4" height="1.4"></rect> </g> </g> </g> </svg> 